<?xml version="1.0" encoding="utf-8"?>
<svg xmlns="http://www.w3.org/2000/svg" xmlns:xlink="http://www.w3.org/1999/xlink" width="800" height="600" viewBox="0 0 3200 2400">
<defs>
  <clipPath id="clip580">
    <rect x="0" y="0" width="3200" height="2400"/>
  </clipPath>
</defs>
<path clip-path="url(#clip580)" d="M0 2400 L3200 2400 L3200 0 L0 0  Z" fill="#ffffff" fill-rule="evenodd" fill-opacity="1"/>
<defs>
  <clipPath id="clip581">
    <rect x="640" y="0" width="2241" height="2241"/>
  </clipPath>
</defs>
<path clip-path="url(#clip580)" d="M263.482 2204.92 L3152.76 2204.92 L3152.76 47.2441 L263.482 47.2441  Z" fill="#ffffff" fill-rule="evenodd" fill-opacity="1"/>
<defs>
  <clipPath id="clip582">
    <rect x="263" y="47" width="2890" height="2159"/>
  </clipPath>
</defs>
<polyline clip-path="url(#clip582)" style="stroke:#000000; stroke-linecap:round; stroke-linejoin:round; stroke-width:2; stroke-opacity:0.1; fill:none" points="263.482,2204.92 263.482,47.2441 "/>
<polyline clip-path="url(#clip582)" style="stroke:#000000; stroke-linecap:round; stroke-linejoin:round; stroke-width:2; stroke-opacity:0.1; fill:none" points="841.337,2204.92 841.337,47.2441 "/>
<polyline clip-path="url(#clip582)" style="stroke:#000000; stroke-linecap:round; stroke-linejoin:round; stroke-width:2; stroke-opacity:0.1; fill:none" points="1419.19,2204.92 1419.19,47.2441 "/>
<polyline clip-path="url(#clip582)" style="stroke:#000000; stroke-linecap:round; stroke-linejoin:round; stroke-width:2; stroke-opacity:0.1; fill:none" points="1997.05,2204.92 1997.05,47.2441 "/>
<polyline clip-path="url(#clip582)" style="stroke:#000000; stroke-linecap:round; stroke-linejoin:round; stroke-width:2; stroke-opacity:0.1; fill:none" points="2574.9,2204.92 2574.9,47.2441 "/>
<polyline clip-path="url(#clip580)" style="stroke:#000000; stroke-linecap:round; stroke-linejoin:round; stroke-width:4; stroke-opacity:1; fill:none" points="263.482,2204.92 3152.76,2204.92 "/>
<polyline clip-path="url(#clip580)" style="stroke:#000000; stroke-linecap:round; stroke-linejoin:round; stroke-width:4; stroke-opacity:1; fill:none" points="263.482,2204.92 263.482,2186.02 "/>
<polyline clip-path="url(#clip580)" style="stroke:#000000; stroke-linecap:round; stroke-linejoin:round; stroke-width:4; stroke-opacity:1; fill:none" points="841.337,2204.92 841.337,2186.02 "/>
<polyline clip-path="url(#clip580)" style="stroke:#000000; stroke-linecap:round; stroke-linejoin:round; stroke-width:4; stroke-opacity:1; fill:none" points="1419.19,2204.92 1419.19,2186.02 "/>
<polyline clip-path="url(#clip580)" style="stroke:#000000; stroke-linecap:round; stroke-linejoin:round; stroke-width:4; stroke-opacity:1; fill:none" points="1997.05,2204.92 1997.05,2186.02 "/>
<polyline clip-path="url(#clip580)" style="stroke:#000000; stroke-linecap:round; stroke-linejoin:round; stroke-width:4; stroke-opacity:1; fill:none" points="2574.9,2204.92 2574.9,2186.02 "/>
<path clip-path="url(#clip580)" d="M225.785 2242.24 Q222.174 2242.24 220.346 2245.8 Q218.54 2249.34 218.54 2256.47 Q218.54 2263.58 220.346 2267.15 Q222.174 2270.69 225.785 2270.69 Q229.42 2270.69 231.225 2267.15 Q233.054 2263.58 233.054 2256.47 Q233.054 2249.34 231.225 2245.8 Q229.42 2242.24 225.785 2242.24 M225.785 2238.53 Q231.596 2238.53 234.651 2243.14 Q237.73 2247.72 237.73 2256.47 Q237.73 2265.2 234.651 2269.81 Q231.596 2274.39 225.785 2274.39 Q219.975 2274.39 216.897 2269.81 Q213.841 2265.2 213.841 2256.47 Q213.841 2247.72 216.897 2243.14 Q219.975 2238.53 225.785 2238.53 Z" fill="#000000" fill-rule="nonzero" fill-opacity="1" /><path clip-path="url(#clip580)" d="M245.947 2267.84 L250.832 2267.84 L250.832 2273.72 L245.947 2273.72 L245.947 2267.84 Z" fill="#000000" fill-rule="nonzero" fill-opacity="1" /><path clip-path="url(#clip580)" d="M271.017 2242.24 Q267.406 2242.24 265.577 2245.8 Q263.771 2249.34 263.771 2256.47 Q263.771 2263.58 265.577 2267.15 Q267.406 2270.69 271.017 2270.69 Q274.651 2270.69 276.457 2267.15 Q278.285 2263.58 278.285 2256.47 Q278.285 2249.34 276.457 2245.8 Q274.651 2242.24 271.017 2242.24 M271.017 2238.53 Q276.827 2238.53 279.882 2243.14 Q282.961 2247.72 282.961 2256.47 Q282.961 2265.2 279.882 2269.81 Q276.827 2274.39 271.017 2274.39 Q265.207 2274.39 262.128 2269.81 Q259.072 2265.2 259.072 2256.47 Q259.072 2247.72 262.128 2243.14 Q265.207 2238.53 271.017 2238.53 Z" fill="#000000" fill-rule="nonzero" fill-opacity="1" /><path clip-path="url(#clip580)" d="M301.179 2242.24 Q297.567 2242.24 295.739 2245.8 Q293.933 2249.34 293.933 2256.47 Q293.933 2263.58 295.739 2267.15 Q297.567 2270.69 301.179 2270.69 Q304.813 2270.69 306.618 2267.15 Q308.447 2263.58 308.447 2256.47 Q308.447 2249.34 306.618 2245.8 Q304.813 2242.24 301.179 2242.24 M301.179 2238.53 Q306.989 2238.53 310.044 2243.14 Q313.123 2247.72 313.123 2256.47 Q313.123 2265.2 310.044 2269.81 Q306.989 2274.39 301.179 2274.39 Q295.368 2274.39 292.29 2269.81 Q289.234 2265.2 289.234 2256.47 Q289.234 2247.72 292.29 2243.14 Q295.368 2238.53 301.179 2238.53 Z" fill="#000000" fill-rule="nonzero" fill-opacity="1" /><path clip-path="url(#clip580)" d="M804.138 2242.24 Q800.527 2242.24 798.698 2245.8 Q796.893 2249.34 796.893 2256.47 Q796.893 2263.58 798.698 2267.15 Q800.527 2270.69 804.138 2270.69 Q807.772 2270.69 809.578 2267.15 Q811.406 2263.58 811.406 2256.47 Q811.406 2249.34 809.578 2245.8 Q807.772 2242.24 804.138 2242.24 M804.138 2238.53 Q809.948 2238.53 813.004 2243.14 Q816.082 2247.72 816.082 2256.47 Q816.082 2265.2 813.004 2269.81 Q809.948 2274.39 804.138 2274.39 Q798.328 2274.39 795.249 2269.81 Q792.194 2265.2 792.194 2256.47 Q792.194 2247.72 795.249 2243.14 Q798.328 2238.53 804.138 2238.53 Z" fill="#000000" fill-rule="nonzero" fill-opacity="1" /><path clip-path="url(#clip580)" d="M824.3 2267.84 L829.184 2267.84 L829.184 2273.72 L824.3 2273.72 L824.3 2267.84 Z" fill="#000000" fill-rule="nonzero" fill-opacity="1" /><path clip-path="url(#clip580)" d="M849.369 2242.24 Q845.758 2242.24 843.929 2245.8 Q842.124 2249.34 842.124 2256.47 Q842.124 2263.58 843.929 2267.15 Q845.758 2270.69 849.369 2270.69 Q853.003 2270.69 854.809 2267.15 Q856.638 2263.58 856.638 2256.47 Q856.638 2249.34 854.809 2245.8 Q853.003 2242.24 849.369 2242.24 M849.369 2238.53 Q855.179 2238.53 858.235 2243.14 Q861.314 2247.72 861.314 2256.47 Q861.314 2265.2 858.235 2269.81 Q855.179 2274.39 849.369 2274.39 Q843.559 2274.39 840.48 2269.81 Q837.425 2265.2 837.425 2256.47 Q837.425 2247.72 840.48 2243.14 Q843.559 2238.53 849.369 2238.53 Z" fill="#000000" fill-rule="nonzero" fill-opacity="1" /><path clip-path="url(#clip580)" d="M869.577 2239.16 L887.934 2239.16 L887.934 2243.1 L873.86 2243.1 L873.86 2251.57 Q874.878 2251.22 875.897 2251.06 Q876.915 2250.87 877.934 2250.87 Q883.721 2250.87 887.1 2254.04 Q890.48 2257.22 890.48 2262.63 Q890.48 2268.21 887.008 2271.31 Q883.536 2274.39 877.216 2274.39 Q875.04 2274.39 872.772 2274.02 Q870.526 2273.65 868.119 2272.91 L868.119 2268.21 Q870.202 2269.34 872.425 2269.9 Q874.647 2270.46 877.124 2270.46 Q881.128 2270.46 883.466 2268.35 Q885.804 2266.24 885.804 2262.63 Q885.804 2259.02 883.466 2256.91 Q881.128 2254.81 877.124 2254.81 Q875.249 2254.81 873.374 2255.22 Q871.522 2255.64 869.577 2256.52 L869.577 2239.16 Z" fill="#000000" fill-rule="nonzero" fill-opacity="1" /><path clip-path="url(#clip580)" d="M1381.5 2242.24 Q1377.88 2242.24 1376.06 2245.8 Q1374.25 2249.34 1374.25 2256.47 Q1374.25 2263.58 1376.06 2267.15 Q1377.88 2270.69 1381.5 2270.69 Q1385.13 2270.69 1386.93 2267.15 Q1388.76 2263.58 1388.76 2256.47 Q1388.76 2249.34 1386.93 2245.8 Q1385.13 2242.24 1381.5 2242.24 M1381.5 2238.53 Q1387.31 2238.53 1390.36 2243.14 Q1393.44 2247.72 1393.44 2256.47 Q1393.44 2265.2 1390.36 2269.81 Q1387.31 2274.39 1381.5 2274.39 Q1375.68 2274.39 1372.61 2269.81 Q1369.55 2265.2 1369.55 2256.47 Q1369.55 2247.72 1372.61 2243.14 Q1375.68 2238.53 1381.5 2238.53 Z" fill="#000000" fill-rule="nonzero" fill-opacity="1" /><path clip-path="url(#clip580)" d="M1401.66 2267.84 L1406.54 2267.84 L1406.54 2273.72 L1401.66 2273.72 L1401.66 2267.84 Z" fill="#000000" fill-rule="nonzero" fill-opacity="1" /><path clip-path="url(#clip580)" d="M1417.54 2269.78 L1425.18 2269.78 L1425.18 2243.42 L1416.87 2245.09 L1416.87 2240.83 L1425.13 2239.16 L1429.8 2239.16 L1429.8 2269.78 L1437.44 2269.78 L1437.44 2273.72 L1417.54 2273.72 L1417.54 2269.78 Z" fill="#000000" fill-rule="nonzero" fill-opacity="1" /><path clip-path="url(#clip580)" d="M1456.89 2242.24 Q1453.28 2242.24 1451.45 2245.8 Q1449.64 2249.34 1449.64 2256.47 Q1449.64 2263.58 1451.45 2267.15 Q1453.28 2270.69 1456.89 2270.69 Q1460.52 2270.69 1462.33 2267.15 Q1464.16 2263.58 1464.16 2256.47 Q1464.16 2249.34 1462.33 2245.8 Q1460.52 2242.24 1456.89 2242.24 M1456.89 2238.53 Q1462.7 2238.53 1465.75 2243.14 Q1468.83 2247.72 1468.83 2256.47 Q1468.83 2265.2 1465.75 2269.81 Q1462.7 2274.39 1456.89 2274.39 Q1451.08 2274.39 1448 2269.81 Q1444.94 2265.2 1444.94 2256.47 Q1444.94 2247.72 1448 2243.14 Q1451.08 2238.53 1456.89 2238.53 Z" fill="#000000" fill-rule="nonzero" fill-opacity="1" /><path clip-path="url(#clip580)" d="M1959.85 2242.24 Q1956.24 2242.24 1954.41 2245.8 Q1952.6 2249.34 1952.6 2256.47 Q1952.6 2263.58 1954.41 2267.15 Q1956.24 2270.69 1959.85 2270.69 Q1963.48 2270.69 1965.29 2267.15 Q1967.12 2263.58 1967.12 2256.47 Q1967.12 2249.34 1965.29 2245.8 Q1963.48 2242.24 1959.85 2242.24 M1959.85 2238.53 Q1965.66 2238.53 1968.71 2243.14 Q1971.79 2247.72 1971.79 2256.47 Q1971.79 2265.2 1968.71 2269.81 Q1965.66 2274.39 1959.85 2274.39 Q1954.04 2274.39 1950.96 2269.81 Q1947.9 2265.2 1947.9 2256.47 Q1947.9 2247.72 1950.96 2243.14 Q1954.04 2238.53 1959.85 2238.53 Z" fill="#000000" fill-rule="nonzero" fill-opacity="1" /><path clip-path="url(#clip580)" d="M1980.01 2267.84 L1984.89 2267.84 L1984.89 2273.72 L1980.01 2273.72 L1980.01 2267.84 Z" fill="#000000" fill-rule="nonzero" fill-opacity="1" /><path clip-path="url(#clip580)" d="M1995.89 2269.78 L2003.53 2269.78 L2003.53 2243.42 L1995.22 2245.09 L1995.22 2240.83 L2003.48 2239.16 L2008.16 2239.16 L2008.16 2269.78 L2015.8 2269.78 L2015.8 2273.72 L1995.89 2273.72 L1995.89 2269.78 Z" fill="#000000" fill-rule="nonzero" fill-opacity="1" /><path clip-path="url(#clip580)" d="M2025.29 2239.16 L2043.64 2239.16 L2043.64 2243.1 L2029.57 2243.1 L2029.57 2251.57 Q2030.59 2251.22 2031.61 2251.06 Q2032.62 2250.87 2033.64 2250.87 Q2039.43 2250.87 2042.81 2254.04 Q2046.19 2257.22 2046.19 2262.63 Q2046.19 2268.21 2042.72 2271.31 Q2039.25 2274.39 2032.93 2274.39 Q2030.75 2274.39 2028.48 2274.02 Q2026.24 2273.65 2023.83 2272.91 L2023.83 2268.21 Q2025.91 2269.34 2028.13 2269.9 Q2030.36 2270.46 2032.83 2270.46 Q2036.84 2270.46 2039.18 2268.35 Q2041.51 2266.24 2041.51 2262.63 Q2041.51 2259.02 2039.18 2256.91 Q2036.84 2254.81 2032.83 2254.81 Q2030.96 2254.81 2029.08 2255.22 Q2027.23 2255.64 2025.29 2256.52 L2025.29 2239.16 Z" fill="#000000" fill-rule="nonzero" fill-opacity="1" /><path clip-path="url(#clip580)" d="M2537.2 2242.24 Q2533.59 2242.24 2531.76 2245.8 Q2529.96 2249.34 2529.96 2256.47 Q2529.96 2263.58 2531.76 2267.15 Q2533.59 2270.69 2537.2 2270.69 Q2540.84 2270.69 2542.64 2267.15 Q2544.47 2263.58 2544.47 2256.47 Q2544.47 2249.34 2542.64 2245.8 Q2540.84 2242.24 2537.2 2242.24 M2537.2 2238.53 Q2543.01 2238.53 2546.07 2243.14 Q2549.15 2247.72 2549.15 2256.47 Q2549.15 2265.2 2546.07 2269.81 Q2543.01 2274.39 2537.2 2274.39 Q2531.39 2274.39 2528.32 2269.81 Q2525.26 2265.2 2525.26 2256.47 Q2525.26 2247.72 2528.32 2243.14 Q2531.39 2238.53 2537.2 2238.53 Z" fill="#000000" fill-rule="nonzero" fill-opacity="1" /><path clip-path="url(#clip580)" d="M2557.37 2267.84 L2562.25 2267.84 L2562.25 2273.72 L2557.37 2273.72 L2557.37 2267.84 Z" fill="#000000" fill-rule="nonzero" fill-opacity="1" /><path clip-path="url(#clip580)" d="M2576.46 2269.78 L2592.78 2269.78 L2592.78 2273.72 L2570.84 2273.72 L2570.84 2269.78 Q2573.5 2267.03 2578.08 2262.4 Q2582.69 2257.75 2583.87 2256.41 Q2586.12 2253.88 2587 2252.15 Q2587.9 2250.39 2587.9 2248.7 Q2587.9 2245.94 2585.95 2244.21 Q2584.03 2242.47 2580.93 2242.47 Q2578.73 2242.47 2576.28 2243.23 Q2573.85 2244 2571.07 2245.55 L2571.07 2240.83 Q2573.89 2239.69 2576.35 2239.11 Q2578.8 2238.53 2580.84 2238.53 Q2586.21 2238.53 2589.4 2241.22 Q2592.6 2243.91 2592.6 2248.4 Q2592.6 2250.53 2591.79 2252.45 Q2591 2254.34 2588.89 2256.94 Q2588.32 2257.61 2585.21 2260.83 Q2582.11 2264.02 2576.46 2269.78 Z" fill="#000000" fill-rule="nonzero" fill-opacity="1" /><path clip-path="url(#clip580)" d="M2612.6 2242.24 Q2608.99 2242.24 2607.16 2245.8 Q2605.35 2249.34 2605.35 2256.47 Q2605.35 2263.58 2607.16 2267.15 Q2608.99 2270.69 2612.6 2270.69 Q2616.23 2270.69 2618.04 2267.15 Q2619.87 2263.58 2619.87 2256.47 Q2619.87 2249.34 2618.04 2245.8 Q2616.23 2242.24 2612.6 2242.24 M2612.6 2238.53 Q2618.41 2238.53 2621.46 2243.14 Q2624.54 2247.72 2624.54 2256.47 Q2624.54 2265.2 2621.46 2269.81 Q2618.41 2274.39 2612.6 2274.39 Q2606.79 2274.39 2603.71 2269.81 Q2600.65 2265.2 2600.65 2256.47 Q2600.65 2247.72 2603.71 2243.14 Q2606.79 2238.53 2612.6 2238.53 Z" fill="#000000" fill-rule="nonzero" fill-opacity="1" /><path clip-path="url(#clip580)" d="M1710.01 2303.18 Q1710.23 2303.41 1710.23 2303.73 Q1710.23 2304.05 1709.49 2304.79 L1693.81 2322.38 Q1699.8 2343.44 1703.08 2343.44 Q1704.08 2343.44 1705.11 2342.67 Q1706.17 2341.93 1706.59 2340.8 Q1706.75 2340.25 1706.91 2340.06 Q1707.07 2339.87 1707.53 2339.87 Q1708.3 2339.87 1708.3 2340.61 Q1708.3 2340.99 1707.94 2341.64 Q1707.59 2342.31 1706.95 2343.05 Q1706.3 2343.83 1705.17 2344.34 Q1704.05 2344.89 1702.69 2344.89 Q1701.02 2344.89 1699.67 2344.5 Q1698.31 2344.12 1697.54 2343.63 Q1696.77 2343.15 1696.06 2342.28 Q1695.38 2341.44 1695.13 2340.93 Q1694.9 2340.44 1694.51 2339.61 Q1693.74 2337.8 1693.03 2335.81 Q1692.32 2333.81 1691.87 2332.36 Q1691.42 2330.91 1690.04 2326.47 L1674.93 2343.44 Q1674.22 2344.15 1673.87 2344.15 Q1673.58 2344.15 1673.32 2343.89 Q1673.07 2343.67 1673.07 2343.38 Q1673.07 2343.05 1673.81 2342.31 L1688.98 2325.37 Q1689.2 2325.15 1689.33 2324.95 Q1689.46 2324.76 1689.46 2324.7 L1689.49 2324.63 Q1689.49 2324.47 1688.91 2322.41 Q1688.33 2320.35 1687.27 2317.16 Q1686.24 2313.94 1685.27 2311.59 Q1684.66 2310.01 1684.24 2309.04 Q1683.82 2308.08 1683.08 2306.63 Q1682.37 2305.18 1681.63 2304.44 Q1680.89 2303.67 1680.22 2303.67 Q1679.99 2303.67 1679.64 2303.76 Q1679.28 2303.86 1678.7 2304.12 Q1678.15 2304.34 1677.61 2304.99 Q1677.06 2305.6 1676.7 2306.5 Q1676.41 2307.21 1675.87 2307.21 Q1675.51 2307.21 1675.29 2307.05 Q1675.09 2306.89 1675.09 2306.73 L1675.06 2306.56 Q1675.06 2305.98 1675.61 2305.02 Q1676.16 2304.05 1677.51 2303.15 Q1678.86 2302.22 1680.6 2302.22 Q1682.24 2302.22 1683.6 2302.6 Q1684.95 2302.99 1685.69 2303.44 Q1686.46 2303.89 1687.14 2304.73 Q1687.82 2305.53 1688.01 2305.92 Q1688.23 2306.27 1688.59 2307.02 Q1689.68 2309.53 1690.39 2311.69 Q1691.13 2313.81 1693.26 2320.54 L1708.36 2303.73 Q1709.04 2302.93 1709.43 2302.93 Q1709.78 2302.93 1710.01 2303.18 Z" fill="#000000" fill-rule="nonzero" fill-opacity="1" /><path clip-path="url(#clip580)" d="M1716.9 2348.26 Q1716.9 2341.48 1718.61 2337.78 Q1721 2332.28 1726.64 2332.28 Q1727.83 2332.28 1729.07 2332.62 Q1730.33 2332.93 1731.91 2334.17 Q1733.51 2335.41 1734.48 2337.44 Q1736.33 2341.36 1736.33 2348.26 Q1736.33 2355 1734.62 2358.68 Q1732.11 2364.04 1726.59 2364.04 Q1724.52 2364.04 1722.4 2362.98 Q1720.3 2361.92 1718.97 2359.38 Q1716.9 2355.57 1716.9 2348.26 M1720.73 2347.7 Q1720.73 2354.66 1721.23 2357.44 Q1721.79 2360.44 1723.32 2361.74 Q1724.88 2363.03 1726.59 2363.03 Q1728.44 2363.03 1729.97 2361.65 Q1731.53 2360.26 1732 2357.26 Q1732.52 2354.3 1732.5 2347.7 Q1732.5 2341.27 1732.05 2338.7 Q1731.44 2335.71 1729.81 2334.51 Q1728.21 2333.29 1726.59 2333.29 Q1725.98 2333.29 1725.33 2333.47 Q1724.7 2333.65 1723.77 2334.17 Q1722.85 2334.69 1722.13 2335.98 Q1721.43 2337.26 1721.09 2339.2 Q1720.73 2341.7 1720.73 2347.7 Z" fill="#000000" fill-rule="nonzero" fill-opacity="1" /><polyline clip-path="url(#clip582)" style="stroke:#000000; stroke-linecap:round; stroke-linejoin:round; stroke-width:2; stroke-opacity:0.1; fill:none" points="263.482,2204.92 3152.76,2204.92 "/>
<polyline clip-path="url(#clip582)" style="stroke:#000000; stroke-linecap:round; stroke-linejoin:round; stroke-width:2; stroke-opacity:0.1; fill:none" points="263.482,1773.38 3152.76,1773.38 "/>
<polyline clip-path="url(#clip582)" style="stroke:#000000; stroke-linecap:round; stroke-linejoin:round; stroke-width:2; stroke-opacity:0.1; fill:none" points="263.482,1341.85 3152.76,1341.85 "/>
<polyline clip-path="url(#clip582)" style="stroke:#000000; stroke-linecap:round; stroke-linejoin:round; stroke-width:2; stroke-opacity:0.1; fill:none" points="263.482,910.314 3152.76,910.314 "/>
<polyline clip-path="url(#clip582)" style="stroke:#000000; stroke-linecap:round; stroke-linejoin:round; stroke-width:2; stroke-opacity:0.1; fill:none" points="263.482,478.779 3152.76,478.779 "/>
<polyline clip-path="url(#clip580)" style="stroke:#000000; stroke-linecap:round; stroke-linejoin:round; stroke-width:4; stroke-opacity:1; fill:none" points="263.482,2204.92 263.482,47.2441 "/>
<polyline clip-path="url(#clip580)" style="stroke:#000000; stroke-linecap:round; stroke-linejoin:round; stroke-width:4; stroke-opacity:1; fill:none" points="263.482,2204.92 282.38,2204.92 "/>
<polyline clip-path="url(#clip580)" style="stroke:#000000; stroke-linecap:round; stroke-linejoin:round; stroke-width:4; stroke-opacity:1; fill:none" points="263.482,1773.38 282.38,1773.38 "/>
<polyline clip-path="url(#clip580)" style="stroke:#000000; stroke-linecap:round; stroke-linejoin:round; stroke-width:4; stroke-opacity:1; fill:none" points="263.482,1341.85 282.38,1341.85 "/>
<polyline clip-path="url(#clip580)" style="stroke:#000000; stroke-linecap:round; stroke-linejoin:round; stroke-width:4; stroke-opacity:1; fill:none" points="263.482,910.314 282.38,910.314 "/>
<polyline clip-path="url(#clip580)" style="stroke:#000000; stroke-linecap:round; stroke-linejoin:round; stroke-width:4; stroke-opacity:1; fill:none" points="263.482,478.779 282.38,478.779 "/>
<path clip-path="url(#clip580)" d="M128.145 2190.72 Q124.533 2190.72 122.705 2194.28 Q120.899 2197.82 120.899 2204.95 Q120.899 2212.06 122.705 2215.63 Q124.533 2219.17 128.145 2219.17 Q131.779 2219.17 133.584 2215.63 Q135.413 2212.06 135.413 2204.95 Q135.413 2197.82 133.584 2194.28 Q131.779 2190.72 128.145 2190.72 M128.145 2187.01 Q133.955 2187.01 137.01 2191.62 Q140.089 2196.2 140.089 2204.95 Q140.089 2213.68 137.01 2218.29 Q133.955 2222.87 128.145 2222.87 Q122.334 2222.87 119.256 2218.29 Q116.2 2213.68 116.2 2204.95 Q116.2 2196.2 119.256 2191.62 Q122.334 2187.01 128.145 2187.01 Z" fill="#000000" fill-rule="nonzero" fill-opacity="1" /><path clip-path="url(#clip580)" d="M148.306 2216.32 L153.191 2216.32 L153.191 2222.2 L148.306 2222.2 L148.306 2216.32 Z" fill="#000000" fill-rule="nonzero" fill-opacity="1" /><path clip-path="url(#clip580)" d="M173.376 2190.72 Q169.765 2190.72 167.936 2194.28 Q166.13 2197.82 166.13 2204.95 Q166.13 2212.06 167.936 2215.63 Q169.765 2219.17 173.376 2219.17 Q177.01 2219.17 178.816 2215.63 Q180.644 2212.06 180.644 2204.95 Q180.644 2197.82 178.816 2194.28 Q177.01 2190.72 173.376 2190.72 M173.376 2187.01 Q179.186 2187.01 182.241 2191.62 Q185.32 2196.2 185.32 2204.95 Q185.32 2213.68 182.241 2218.29 Q179.186 2222.87 173.376 2222.87 Q167.566 2222.87 164.487 2218.29 Q161.431 2213.68 161.431 2204.95 Q161.431 2196.2 164.487 2191.62 Q167.566 2187.01 173.376 2187.01 Z" fill="#000000" fill-rule="nonzero" fill-opacity="1" /><path clip-path="url(#clip580)" d="M203.538 2190.72 Q199.927 2190.72 198.098 2194.28 Q196.292 2197.82 196.292 2204.95 Q196.292 2212.06 198.098 2215.63 Q199.927 2219.17 203.538 2219.17 Q207.172 2219.17 208.977 2215.63 Q210.806 2212.06 210.806 2204.95 Q210.806 2197.82 208.977 2194.28 Q207.172 2190.72 203.538 2190.72 M203.538 2187.01 Q209.348 2187.01 212.403 2191.62 Q215.482 2196.2 215.482 2204.95 Q215.482 2213.68 212.403 2218.29 Q209.348 2222.87 203.538 2222.87 Q197.727 2222.87 194.649 2218.29 Q191.593 2213.68 191.593 2204.95 Q191.593 2196.2 194.649 2191.62 Q197.727 2187.01 203.538 2187.01 Z" fill="#000000" fill-rule="nonzero" fill-opacity="1" /><path clip-path="url(#clip580)" d="M129.14 1759.18 Q125.529 1759.18 123.7 1762.75 Q121.895 1766.29 121.895 1773.42 Q121.895 1780.53 123.7 1784.09 Q125.529 1787.63 129.14 1787.63 Q132.774 1787.63 134.58 1784.09 Q136.408 1780.53 136.408 1773.42 Q136.408 1766.29 134.58 1762.75 Q132.774 1759.18 129.14 1759.18 M129.14 1755.48 Q134.95 1755.48 138.006 1760.09 Q141.084 1764.67 141.084 1773.42 Q141.084 1782.15 138.006 1786.75 Q134.95 1791.34 129.14 1791.34 Q123.33 1791.34 120.251 1786.75 Q117.196 1782.15 117.196 1773.42 Q117.196 1764.67 120.251 1760.09 Q123.33 1755.48 129.14 1755.48 Z" fill="#000000" fill-rule="nonzero" fill-opacity="1" /><path clip-path="url(#clip580)" d="M149.302 1784.79 L154.186 1784.79 L154.186 1790.66 L149.302 1790.66 L149.302 1784.79 Z" fill="#000000" fill-rule="nonzero" fill-opacity="1" /><path clip-path="url(#clip580)" d="M174.371 1759.18 Q170.76 1759.18 168.931 1762.75 Q167.126 1766.29 167.126 1773.42 Q167.126 1780.53 168.931 1784.09 Q170.76 1787.63 174.371 1787.63 Q178.005 1787.63 179.811 1784.09 Q181.64 1780.53 181.64 1773.42 Q181.64 1766.29 179.811 1762.75 Q178.005 1759.18 174.371 1759.18 M174.371 1755.48 Q180.181 1755.48 183.237 1760.09 Q186.316 1764.67 186.316 1773.42 Q186.316 1782.15 183.237 1786.75 Q180.181 1791.34 174.371 1791.34 Q168.561 1791.34 165.482 1786.75 Q162.427 1782.15 162.427 1773.42 Q162.427 1764.67 165.482 1760.09 Q168.561 1755.48 174.371 1755.48 Z" fill="#000000" fill-rule="nonzero" fill-opacity="1" /><path clip-path="url(#clip580)" d="M194.579 1756.1 L212.936 1756.1 L212.936 1760.04 L198.862 1760.04 L198.862 1768.51 Q199.88 1768.16 200.899 1768 Q201.917 1767.82 202.936 1767.82 Q208.723 1767.82 212.102 1770.99 Q215.482 1774.16 215.482 1779.58 Q215.482 1785.16 212.01 1788.26 Q208.538 1791.34 202.218 1791.34 Q200.042 1791.34 197.774 1790.97 Q195.528 1790.6 193.121 1789.85 L193.121 1785.16 Q195.204 1786.29 197.427 1786.85 Q199.649 1787.4 202.126 1787.4 Q206.13 1787.4 208.468 1785.29 Q210.806 1783.19 210.806 1779.58 Q210.806 1775.97 208.468 1773.86 Q206.13 1771.75 202.126 1771.75 Q200.251 1771.75 198.376 1772.17 Q196.524 1772.59 194.579 1773.47 L194.579 1756.1 Z" fill="#000000" fill-rule="nonzero" fill-opacity="1" /><path clip-path="url(#clip580)" d="M128.145 1327.65 Q124.533 1327.65 122.705 1331.21 Q120.899 1334.75 120.899 1341.88 Q120.899 1348.99 122.705 1352.56 Q124.533 1356.1 128.145 1356.1 Q131.779 1356.1 133.584 1352.56 Q135.413 1348.99 135.413 1341.88 Q135.413 1334.75 133.584 1331.21 Q131.779 1327.65 128.145 1327.65 M128.145 1323.94 Q133.955 1323.94 137.01 1328.55 Q140.089 1333.13 140.089 1341.88 Q140.089 1350.61 137.01 1355.22 Q133.955 1359.8 128.145 1359.8 Q122.334 1359.8 119.256 1355.22 Q116.2 1350.61 116.2 1341.88 Q116.2 1333.13 119.256 1328.55 Q122.334 1323.94 128.145 1323.94 Z" fill="#000000" fill-rule="nonzero" fill-opacity="1" /><path clip-path="url(#clip580)" d="M148.306 1353.25 L153.191 1353.25 L153.191 1359.13 L148.306 1359.13 L148.306 1353.25 Z" fill="#000000" fill-rule="nonzero" fill-opacity="1" /><path clip-path="url(#clip580)" d="M164.186 1355.19 L171.825 1355.19 L171.825 1328.83 L163.515 1330.5 L163.515 1326.24 L171.779 1324.57 L176.454 1324.57 L176.454 1355.19 L184.093 1355.19 L184.093 1359.13 L164.186 1359.13 L164.186 1355.19 Z" fill="#000000" fill-rule="nonzero" fill-opacity="1" /><path clip-path="url(#clip580)" d="M203.538 1327.65 Q199.927 1327.65 198.098 1331.21 Q196.292 1334.75 196.292 1341.88 Q196.292 1348.99 198.098 1352.56 Q199.927 1356.1 203.538 1356.1 Q207.172 1356.1 208.977 1352.56 Q210.806 1348.99 210.806 1341.88 Q210.806 1334.75 208.977 1331.21 Q207.172 1327.65 203.538 1327.65 M203.538 1323.94 Q209.348 1323.94 212.403 1328.55 Q215.482 1333.13 215.482 1341.88 Q215.482 1350.61 212.403 1355.22 Q209.348 1359.8 203.538 1359.8 Q197.727 1359.8 194.649 1355.22 Q191.593 1350.61 191.593 1341.88 Q191.593 1333.13 194.649 1328.55 Q197.727 1323.94 203.538 1323.94 Z" fill="#000000" fill-rule="nonzero" fill-opacity="1" /><path clip-path="url(#clip580)" d="M129.14 896.113 Q125.529 896.113 123.7 899.678 Q121.895 903.22 121.895 910.349 Q121.895 917.456 123.7 921.02 Q125.529 924.562 129.14 924.562 Q132.774 924.562 134.58 921.02 Q136.408 917.456 136.408 910.349 Q136.408 903.22 134.58 899.678 Q132.774 896.113 129.14 896.113 M129.14 892.409 Q134.95 892.409 138.006 897.016 Q141.084 901.599 141.084 910.349 Q141.084 919.076 138.006 923.682 Q134.95 928.266 129.14 928.266 Q123.33 928.266 120.251 923.682 Q117.196 919.076 117.196 910.349 Q117.196 901.599 120.251 897.016 Q123.33 892.409 129.14 892.409 Z" fill="#000000" fill-rule="nonzero" fill-opacity="1" /><path clip-path="url(#clip580)" d="M149.302 921.715 L154.186 921.715 L154.186 927.594 L149.302 927.594 L149.302 921.715 Z" fill="#000000" fill-rule="nonzero" fill-opacity="1" /><path clip-path="url(#clip580)" d="M165.181 923.659 L172.82 923.659 L172.82 897.294 L164.51 898.96 L164.51 894.701 L172.774 893.034 L177.45 893.034 L177.45 923.659 L185.089 923.659 L185.089 927.594 L165.181 927.594 L165.181 923.659 Z" fill="#000000" fill-rule="nonzero" fill-opacity="1" /><path clip-path="url(#clip580)" d="M194.579 893.034 L212.936 893.034 L212.936 896.97 L198.862 896.97 L198.862 905.442 Q199.88 905.095 200.899 904.932 Q201.917 904.747 202.936 904.747 Q208.723 904.747 212.102 907.919 Q215.482 911.09 215.482 916.506 Q215.482 922.085 212.01 925.187 Q208.538 928.266 202.218 928.266 Q200.042 928.266 197.774 927.895 Q195.528 927.525 193.121 926.784 L193.121 922.085 Q195.204 923.219 197.427 923.775 Q199.649 924.331 202.126 924.331 Q206.13 924.331 208.468 922.224 Q210.806 920.118 210.806 916.506 Q210.806 912.895 208.468 910.789 Q206.13 908.682 202.126 908.682 Q200.251 908.682 198.376 909.099 Q196.524 909.516 194.579 910.395 L194.579 893.034 Z" fill="#000000" fill-rule="nonzero" fill-opacity="1" /><path clip-path="url(#clip580)" d="M128.145 464.578 Q124.533 464.578 122.705 468.143 Q120.899 471.684 120.899 478.814 Q120.899 485.92 122.705 489.485 Q124.533 493.027 128.145 493.027 Q131.779 493.027 133.584 489.485 Q135.413 485.92 135.413 478.814 Q135.413 471.684 133.584 468.143 Q131.779 464.578 128.145 464.578 M128.145 460.874 Q133.955 460.874 137.01 465.481 Q140.089 470.064 140.089 478.814 Q140.089 487.541 137.01 492.147 Q133.955 496.731 128.145 496.731 Q122.334 496.731 119.256 492.147 Q116.2 487.541 116.2 478.814 Q116.2 470.064 119.256 465.481 Q122.334 460.874 128.145 460.874 Z" fill="#000000" fill-rule="nonzero" fill-opacity="1" /><path clip-path="url(#clip580)" d="M148.306 490.18 L153.191 490.18 L153.191 496.059 L148.306 496.059 L148.306 490.18 Z" fill="#000000" fill-rule="nonzero" fill-opacity="1" /><path clip-path="url(#clip580)" d="M167.404 492.124 L183.723 492.124 L183.723 496.059 L161.779 496.059 L161.779 492.124 Q164.441 489.369 169.024 484.74 Q173.63 480.087 174.811 478.745 Q177.056 476.221 177.936 474.485 Q178.839 472.726 178.839 471.036 Q178.839 468.282 176.894 466.546 Q174.973 464.809 171.871 464.809 Q169.672 464.809 167.218 465.573 Q164.788 466.337 162.01 467.888 L162.01 463.166 Q164.834 462.032 167.288 461.453 Q169.742 460.874 171.779 460.874 Q177.149 460.874 180.343 463.559 Q183.538 466.245 183.538 470.735 Q183.538 472.865 182.728 474.786 Q181.941 476.684 179.834 479.277 Q179.255 479.948 176.154 483.166 Q173.052 486.36 167.404 492.124 Z" fill="#000000" fill-rule="nonzero" fill-opacity="1" /><path clip-path="url(#clip580)" d="M203.538 464.578 Q199.927 464.578 198.098 468.143 Q196.292 471.684 196.292 478.814 Q196.292 485.92 198.098 489.485 Q199.927 493.027 203.538 493.027 Q207.172 493.027 208.977 489.485 Q210.806 485.92 210.806 478.814 Q210.806 471.684 208.977 468.143 Q207.172 464.578 203.538 464.578 M203.538 460.874 Q209.348 460.874 212.403 465.481 Q215.482 470.064 215.482 478.814 Q215.482 487.541 212.403 492.147 Q209.348 496.731 203.538 496.731 Q197.727 496.731 194.649 492.147 Q191.593 487.541 191.593 478.814 Q191.593 470.064 194.649 465.481 Q197.727 460.874 203.538 460.874 Z" fill="#000000" fill-rule="nonzero" fill-opacity="1" /><path clip-path="url(#clip580)" d="M10.1022 1122.12 Q10.3276 1121.89 10.6497 1121.89 Q10.9718 1121.89 11.7125 1122.63 L29.2969 1138.32 Q50.3595 1132.33 50.3595 1129.04 Q50.3595 1128.04 49.5866 1127.01 Q48.8458 1125.95 47.7186 1125.53 Q47.1711 1125.37 46.9779 1125.21 Q46.7847 1125.05 46.7847 1124.6 Q46.7847 1123.82 47.5254 1123.82 Q47.9119 1123.82 48.556 1124.18 Q49.2323 1124.53 49.9731 1125.18 Q50.746 1125.82 51.2613 1126.95 Q51.8088 1128.08 51.8088 1129.43 Q51.8088 1131.1 51.4223 1132.46 Q51.0358 1133.81 50.5528 1134.58 Q50.0697 1135.35 49.2001 1136.06 Q48.3628 1136.74 47.8475 1137 Q47.3644 1137.22 46.527 1137.61 Q44.7235 1138.38 42.7267 1139.09 Q40.73 1139.8 39.2807 1140.25 Q37.8314 1140.7 33.387 1142.08 L50.3595 1157.19 Q51.0681 1157.9 51.0681 1158.25 Q51.0681 1158.54 50.8104 1158.8 Q50.585 1159.06 50.2951 1159.06 Q49.9731 1159.06 49.2323 1158.32 L32.292 1143.15 Q32.0666 1142.92 31.8734 1142.79 Q31.6801 1142.66 31.6157 1142.66 L31.5513 1142.63 Q31.3903 1142.63 29.3291 1143.21 Q27.2679 1143.79 24.0795 1144.85 Q20.859 1145.89 18.5079 1146.85 Q16.9298 1147.46 15.9637 1147.88 Q14.9975 1148.3 13.5482 1149.04 Q12.099 1149.75 11.3582 1150.49 Q10.5853 1151.23 10.5853 1151.91 Q10.5853 1152.13 10.6819 1152.49 Q10.7785 1152.84 11.0362 1153.42 Q11.2616 1153.97 11.9057 1154.52 Q12.5176 1155.06 13.4194 1155.42 Q14.1279 1155.71 14.1279 1156.26 Q14.1279 1156.61 13.9669 1156.84 Q13.8059 1157.03 13.6448 1157.03 L13.4838 1157.06 Q12.9041 1157.06 11.9379 1156.51 Q10.9718 1155.97 10.07 1154.61 Q9.13602 1153.26 9.13602 1151.52 Q9.13602 1149.88 9.52249 1148.53 Q9.90896 1147.17 10.3598 1146.43 Q10.8107 1145.66 11.6481 1144.98 Q12.4532 1144.31 12.8397 1144.11 Q13.194 1143.89 13.9347 1143.53 Q16.4468 1142.44 18.6045 1141.73 Q20.7301 1140.99 27.4612 1138.86 L10.6497 1123.76 Q9.84455 1123.08 9.84455 1122.7 Q9.84455 1122.34 10.1022 1122.12 Z" fill="#000000" fill-rule="nonzero" fill-opacity="1" /><path clip-path="url(#clip580)" d="M43.5941 1115.23 L42.1513 1115.23 Q42.1513 1109.68 39.198 1106.82 Q39.198 1106.03 39.3784 1105.89 Q39.5587 1105.76 40.3928 1105.76 L66.296 1105.76 Q67.6712 1105.76 68.0995 1105.08 Q68.5279 1104.4 68.5279 1101.45 L68.5279 1099.99 L69.9482 1099.99 Q69.8129 1101.61 69.8129 1107.47 Q69.8129 1113.33 69.9482 1114.93 L68.5279 1114.93 L68.5279 1113.47 Q68.5279 1110.56 68.1221 1109.86 Q67.6937 1109.16 66.296 1109.16 L42.3767 1109.16 Q43.5941 1111.57 43.5941 1115.23 Z" fill="#000000" fill-rule="nonzero" fill-opacity="1" /><circle clip-path="url(#clip582)" cx="2324.98" cy="1402.87" r="14.4" fill="#009af9" fill-rule="evenodd" fill-opacity="1" stroke="#000000" stroke-opacity="1" stroke-width="4.8"/>
<circle clip-path="url(#clip582)" cx="2767.22" cy="1423.39" r="14.4" fill="#009af9" fill-rule="evenodd" fill-opacity="1" stroke="#000000" stroke-opacity="1" stroke-width="4.8"/>
<circle clip-path="url(#clip582)" cx="2558.14" cy="1106.25" r="14.4" fill="#009af9" fill-rule="evenodd" fill-opacity="1" stroke="#000000" stroke-opacity="1" stroke-width="4.8"/>
<circle clip-path="url(#clip582)" cx="2413.61" cy="1042.08" r="14.4" fill="#009af9" fill-rule="evenodd" fill-opacity="1" stroke="#000000" stroke-opacity="1" stroke-width="4.8"/>
<circle clip-path="url(#clip582)" cx="2187.8" cy="1408.01" r="14.4" fill="#009af9" fill-rule="evenodd" fill-opacity="1" stroke="#000000" stroke-opacity="1" stroke-width="4.8"/>
<circle clip-path="url(#clip582)" cx="1916.11" cy="1129.34" r="14.4" fill="#009af9" fill-rule="evenodd" fill-opacity="1" stroke="#000000" stroke-opacity="1" stroke-width="4.8"/>
<circle clip-path="url(#clip582)" cx="1890.42" cy="1341.07" r="14.4" fill="#009af9" fill-rule="evenodd" fill-opacity="1" stroke="#000000" stroke-opacity="1" stroke-width="4.8"/>
<circle clip-path="url(#clip582)" cx="2957.4" cy="827.124" r="14.4" fill="#009af9" fill-rule="evenodd" fill-opacity="1" stroke="#000000" stroke-opacity="1" stroke-width="4.8"/>
<circle clip-path="url(#clip582)" cx="2643.94" cy="1207.1" r="14.4" fill="#009af9" fill-rule="evenodd" fill-opacity="1" stroke="#000000" stroke-opacity="1" stroke-width="4.8"/>
<circle clip-path="url(#clip582)" cx="1548.8" cy="1308.16" r="14.4" fill="#009af9" fill-rule="evenodd" fill-opacity="1" stroke="#000000" stroke-opacity="1" stroke-width="4.8"/>
<circle clip-path="url(#clip582)" cx="2165.21" cy="1367.93" r="14.4" fill="#009af9" fill-rule="evenodd" fill-opacity="1" stroke="#000000" stroke-opacity="1" stroke-width="4.8"/>
<circle clip-path="url(#clip582)" cx="1680.73" cy="1348.71" r="14.4" fill="#009af9" fill-rule="evenodd" fill-opacity="1" stroke="#000000" stroke-opacity="1" stroke-width="4.8"/>
<circle clip-path="url(#clip582)" cx="2155.8" cy="983.883" r="14.4" fill="#009af9" fill-rule="evenodd" fill-opacity="1" stroke="#000000" stroke-opacity="1" stroke-width="4.8"/>
<circle clip-path="url(#clip582)" cx="2092.71" cy="1213.48" r="14.4" fill="#009af9" fill-rule="evenodd" fill-opacity="1" stroke="#000000" stroke-opacity="1" stroke-width="4.8"/>
<circle clip-path="url(#clip582)" cx="1030.57" cy="1314.21" r="14.4" fill="#009af9" fill-rule="evenodd" fill-opacity="1" stroke="#000000" stroke-opacity="1" stroke-width="4.8"/>
<circle clip-path="url(#clip582)" cx="1163.05" cy="1162.87" r="14.4" fill="#009af9" fill-rule="evenodd" fill-opacity="1" stroke="#000000" stroke-opacity="1" stroke-width="4.8"/>
<circle clip-path="url(#clip582)" cx="2657.53" cy="1547.89" r="14.4" fill="#009af9" fill-rule="evenodd" fill-opacity="1" stroke="#000000" stroke-opacity="1" stroke-width="4.8"/>
<circle clip-path="url(#clip582)" cx="2513.51" cy="1298.16" r="14.4" fill="#009af9" fill-rule="evenodd" fill-opacity="1" stroke="#000000" stroke-opacity="1" stroke-width="4.8"/>
<circle clip-path="url(#clip582)" cx="2307.47" cy="1069.37" r="14.4" fill="#009af9" fill-rule="evenodd" fill-opacity="1" stroke="#000000" stroke-opacity="1" stroke-width="4.8"/>
<circle clip-path="url(#clip582)" cx="1854.84" cy="1055.96" r="14.4" fill="#009af9" fill-rule="evenodd" fill-opacity="1" stroke="#000000" stroke-opacity="1" stroke-width="4.8"/>
<circle clip-path="url(#clip582)" cx="1511.15" cy="799.918" r="14.4" fill="#009af9" fill-rule="evenodd" fill-opacity="1" stroke="#000000" stroke-opacity="1" stroke-width="4.8"/>
<circle clip-path="url(#clip582)" cx="1895.87" cy="723.476" r="14.4" fill="#009af9" fill-rule="evenodd" fill-opacity="1" stroke="#000000" stroke-opacity="1" stroke-width="4.8"/>
<circle clip-path="url(#clip582)" cx="1412.03" cy="1615.99" r="14.4" fill="#009af9" fill-rule="evenodd" fill-opacity="1" stroke="#000000" stroke-opacity="1" stroke-width="4.8"/>
<circle clip-path="url(#clip582)" cx="2406.65" cy="1382.39" r="14.4" fill="#009af9" fill-rule="evenodd" fill-opacity="1" stroke="#000000" stroke-opacity="1" stroke-width="4.8"/>
<circle clip-path="url(#clip582)" cx="806.082" cy="1262.56" r="14.4" fill="#009af9" fill-rule="evenodd" fill-opacity="1" stroke="#000000" stroke-opacity="1" stroke-width="4.8"/>
<circle clip-path="url(#clip582)" cx="2058.87" cy="1526.56" r="14.4" fill="#009af9" fill-rule="evenodd" fill-opacity="1" stroke="#000000" stroke-opacity="1" stroke-width="4.8"/>
<circle clip-path="url(#clip582)" cx="1730.41" cy="1098.02" r="14.4" fill="#009af9" fill-rule="evenodd" fill-opacity="1" stroke="#000000" stroke-opacity="1" stroke-width="4.8"/>
<circle clip-path="url(#clip582)" cx="1755.65" cy="979.318" r="14.4" fill="#009af9" fill-rule="evenodd" fill-opacity="1" stroke="#000000" stroke-opacity="1" stroke-width="4.8"/>
<circle clip-path="url(#clip582)" cx="2120.05" cy="1196.13" r="14.4" fill="#009af9" fill-rule="evenodd" fill-opacity="1" stroke="#000000" stroke-opacity="1" stroke-width="4.8"/>
<circle clip-path="url(#clip582)" cx="1582.34" cy="1077.68" r="14.4" fill="#009af9" fill-rule="evenodd" fill-opacity="1" stroke="#000000" stroke-opacity="1" stroke-width="4.8"/>
<circle clip-path="url(#clip582)" cx="1662.35" cy="1849.15" r="14.4" fill="#009af9" fill-rule="evenodd" fill-opacity="1" stroke="#000000" stroke-opacity="1" stroke-width="4.8"/>
<circle clip-path="url(#clip582)" cx="1864.78" cy="1407.26" r="14.4" fill="#009af9" fill-rule="evenodd" fill-opacity="1" stroke="#000000" stroke-opacity="1" stroke-width="4.8"/>
<circle clip-path="url(#clip582)" cx="1515.04" cy="1334.76" r="14.4" fill="#009af9" fill-rule="evenodd" fill-opacity="1" stroke="#000000" stroke-opacity="1" stroke-width="4.8"/>
<circle clip-path="url(#clip582)" cx="2568.11" cy="1471.41" r="14.4" fill="#009af9" fill-rule="evenodd" fill-opacity="1" stroke="#000000" stroke-opacity="1" stroke-width="4.8"/>
<circle clip-path="url(#clip582)" cx="1882.1" cy="1349.9" r="14.4" fill="#009af9" fill-rule="evenodd" fill-opacity="1" stroke="#000000" stroke-opacity="1" stroke-width="4.8"/>
<circle clip-path="url(#clip582)" cx="1650.45" cy="1332.03" r="14.4" fill="#009af9" fill-rule="evenodd" fill-opacity="1" stroke="#000000" stroke-opacity="1" stroke-width="4.8"/>
<circle clip-path="url(#clip582)" cx="2378.83" cy="470.778" r="14.4" fill="#009af9" fill-rule="evenodd" fill-opacity="1" stroke="#000000" stroke-opacity="1" stroke-width="4.8"/>
<circle clip-path="url(#clip582)" cx="1221.34" cy="1204.51" r="14.4" fill="#009af9" fill-rule="evenodd" fill-opacity="1" stroke="#000000" stroke-opacity="1" stroke-width="4.8"/>
<circle clip-path="url(#clip582)" cx="2234.63" cy="1068.93" r="14.4" fill="#009af9" fill-rule="evenodd" fill-opacity="1" stroke="#000000" stroke-opacity="1" stroke-width="4.8"/>
<circle clip-path="url(#clip582)" cx="1414.98" cy="1071.29" r="14.4" fill="#009af9" fill-rule="evenodd" fill-opacity="1" stroke="#000000" stroke-opacity="1" stroke-width="4.8"/>
<circle clip-path="url(#clip582)" cx="1773.6" cy="1343.4" r="14.4" fill="#009af9" fill-rule="evenodd" fill-opacity="1" stroke="#000000" stroke-opacity="1" stroke-width="4.8"/>
<circle clip-path="url(#clip582)" cx="1921.86" cy="905.569" r="14.4" fill="#009af9" fill-rule="evenodd" fill-opacity="1" stroke="#000000" stroke-opacity="1" stroke-width="4.8"/>
<circle clip-path="url(#clip582)" cx="775.996" cy="1263.69" r="14.4" fill="#009af9" fill-rule="evenodd" fill-opacity="1" stroke="#000000" stroke-opacity="1" stroke-width="4.8"/>
<circle clip-path="url(#clip582)" cx="2088.8" cy="1144.15" r="14.4" fill="#009af9" fill-rule="evenodd" fill-opacity="1" stroke="#000000" stroke-opacity="1" stroke-width="4.8"/>
<circle clip-path="url(#clip582)" cx="1710.19" cy="1229.45" r="14.4" fill="#009af9" fill-rule="evenodd" fill-opacity="1" stroke="#000000" stroke-opacity="1" stroke-width="4.8"/>
<circle clip-path="url(#clip582)" cx="2297.53" cy="1594.87" r="14.4" fill="#009af9" fill-rule="evenodd" fill-opacity="1" stroke="#000000" stroke-opacity="1" stroke-width="4.8"/>
<circle clip-path="url(#clip582)" cx="2858.41" cy="1201.37" r="14.4" fill="#009af9" fill-rule="evenodd" fill-opacity="1" stroke="#000000" stroke-opacity="1" stroke-width="4.8"/>
<circle clip-path="url(#clip582)" cx="2160.78" cy="1022.59" r="14.4" fill="#009af9" fill-rule="evenodd" fill-opacity="1" stroke="#000000" stroke-opacity="1" stroke-width="4.8"/>
<circle clip-path="url(#clip582)" cx="1627.77" cy="882.059" r="14.4" fill="#009af9" fill-rule="evenodd" fill-opacity="1" stroke="#000000" stroke-opacity="1" stroke-width="4.8"/>
<circle clip-path="url(#clip582)" cx="1594.16" cy="1258.76" r="14.4" fill="#009af9" fill-rule="evenodd" fill-opacity="1" stroke="#000000" stroke-opacity="1" stroke-width="4.8"/>
<circle clip-path="url(#clip582)" cx="2037.64" cy="1179.09" r="14.4" fill="#009af9" fill-rule="evenodd" fill-opacity="1" stroke="#000000" stroke-opacity="1" stroke-width="4.8"/>
<circle clip-path="url(#clip582)" cx="1124.46" cy="1336.99" r="14.4" fill="#009af9" fill-rule="evenodd" fill-opacity="1" stroke="#000000" stroke-opacity="1" stroke-width="4.8"/>
<polyline clip-path="url(#clip582)" style="stroke:#e26f46; stroke-linecap:round; stroke-linejoin:round; stroke-width:20; stroke-opacity:1; fill:none" points="263.482,2204.92 266.374,2202.76 269.266,2200.6 272.159,2198.44 275.051,2196.28 277.943,2194.12 280.835,2191.96 283.727,2189.8 286.619,2187.64 289.512,2185.48 292.404,2183.32 295.296,2181.16 298.188,2179 301.08,2176.84 303.972,2174.68 306.865,2172.52 309.757,2170.36 312.649,2168.2 315.541,2166.04 318.433,2163.88 321.325,2161.72 324.218,2159.56 327.11,2157.4 330.002,2155.24 332.894,2153.08 335.786,2150.92 338.678,2148.76 341.571,2146.6 344.463,2144.44 347.355,2142.28 350.247,2140.12 353.139,2137.96 356.031,2135.81 358.924,2133.65 361.816,2131.49 364.708,2129.33 367.6,2127.17 370.492,2125.01 373.384,2122.85 376.277,2120.69 379.169,2118.53 382.061,2116.37 384.953,2114.21 387.845,2112.05 390.737,2109.89 393.63,2107.73 396.522,2105.57 399.414,2103.41 402.306,2101.25 405.198,2099.09 408.09,2096.93 410.983,2094.77 413.875,2092.61 416.767,2090.45 419.659,2088.29 422.551,2086.13 425.443,2083.97 428.335,2081.81 431.228,2079.65 434.12,2077.49 437.012,2075.33 439.904,2073.17 442.796,2071.01 445.688,2068.85 448.581,2066.69 451.473,2064.53 454.365,2062.37 457.257,2060.21 460.149,2058.05 463.041,2055.89 465.934,2053.73 468.826,2051.57 471.718,2049.41 474.61,2047.25 477.502,2045.09 480.394,2042.93 483.287,2040.77 486.179,2038.61 489.071,2036.45 491.963,2034.29 494.855,2032.13 497.747,2029.97 500.64,2027.81 503.532,2025.65 506.424,2023.49 509.316,2021.33 512.208,2019.17 515.1,2017.01 517.993,2014.85 520.885,2012.69 523.777,2010.53 526.669,2008.37 529.561,2006.21 532.453,2004.06 535.346,2001.9 538.238,1999.74 541.13,1997.58 544.022,1995.42 546.914,1993.26 549.806,1991.1 552.699,1988.94 555.591,1986.78 558.483,1984.62 561.375,1982.46 564.267,1980.3 567.159,1978.14 570.052,1975.98 572.944,1973.82 575.836,1971.66 578.728,1969.5 581.62,1967.34 584.512,1965.18 587.405,1963.02 590.297,1960.86 593.189,1958.7 596.081,1956.54 598.973,1954.38 601.865,1952.22 604.758,1950.06 607.65,1947.9 610.542,1945.74 613.434,1943.58 616.326,1941.42 619.218,1939.26 622.111,1937.1 625.003,1934.94 627.895,1932.78 630.787,1930.62 633.679,1928.46 636.571,1926.3 639.464,1924.14 642.356,1921.98 645.248,1919.82 648.14,1917.66 651.032,1915.5 653.924,1913.34 656.817,1911.18 659.709,1909.02 662.601,1906.86 665.493,1904.7 668.385,1902.54 671.277,1900.38 674.17,1898.22 677.062,1896.06 679.954,1893.9 682.846,1891.74 685.738,1889.58 688.63,1887.42 691.523,1885.26 694.415,1883.1 697.307,1880.94 700.199,1878.78 703.091,1876.62 705.983,1874.46 708.876,1872.31 711.768,1870.15 714.66,1867.99 717.552,1865.83 720.444,1863.67 723.336,1861.51 726.229,1859.35 729.121,1857.19 732.013,1855.03 734.905,1852.87 737.797,1850.71 740.689,1848.55 743.582,1846.39 746.474,1844.23 749.366,1842.07 752.258,1839.91 755.15,1837.75 758.042,1835.59 760.935,1833.43 763.827,1831.27 766.719,1829.11 769.611,1826.95 772.503,1824.79 775.395,1822.63 778.288,1820.47 781.18,1818.31 784.072,1816.15 786.964,1813.99 789.856,1811.83 792.748,1809.67 795.641,1807.51 798.533,1805.35 801.425,1803.19 804.317,1801.03 807.209,1798.87 810.101,1796.71 812.994,1794.55 815.886,1792.39 818.778,1790.23 821.67,1788.07 824.562,1785.91 827.454,1783.75 830.347,1781.59 833.239,1779.43 836.131,1777.27 839.023,1775.11 841.915,1772.95 844.807,1770.79 847.7,1768.63 850.592,1766.47 853.484,1764.31 856.376,1762.15 859.268,1759.99 862.16,1757.83 865.053,1755.67 867.945,1753.51 870.837,1751.35 873.729,1749.19 876.621,1747.03 879.513,1744.87 882.406,1742.72 885.298,1740.56 888.19,1738.4 891.082,1736.24 893.974,1734.08 896.866,1731.92 899.759,1729.76 902.651,1727.6 905.543,1725.44 908.435,1723.28 911.327,1721.12 914.219,1718.96 917.112,1716.8 920.004,1714.64 922.896,1712.48 925.788,1710.32 928.68,1708.16 931.572,1706 934.465,1703.84 937.357,1701.68 940.249,1699.52 943.141,1697.36 946.033,1695.2 948.925,1693.04 951.818,1690.88 954.71,1688.72 957.602,1686.56 960.494,1684.4 963.386,1682.24 966.278,1680.08 969.171,1677.92 972.063,1675.76 974.955,1673.6 977.847,1671.44 980.739,1669.28 983.631,1667.12 986.524,1664.96 989.416,1662.8 992.308,1660.64 995.2,1658.48 998.092,1656.32 1000.98,1654.16 1003.88,1652 1006.77,1649.84 1009.66,1647.68 1012.55,1645.52 1015.45,1643.36 1018.34,1641.2 1021.23,1639.04 1024.12,1636.88 1027.01,1634.72 1029.91,1632.56 1032.8,1630.4 1035.69,1628.24 1038.58,1626.08 1041.47,1623.92 1044.37,1621.76 1047.26,1619.6 1050.15,1617.44 1053.04,1615.28 1055.94,1613.12 1058.83,1610.97 1061.72,1608.81 1064.61,1606.65 1067.5,1604.49 1070.4,1602.33 1073.29,1600.17 1076.18,1598.01 1079.07,1595.85 1081.97,1593.69 1084.86,1591.53 1087.75,1589.37 1090.64,1587.21 1093.53,1585.05 1096.43,1582.89 1099.32,1580.73 1102.21,1578.57 1105.1,1576.41 1107.99,1574.25 1110.89,1572.09 1113.78,1569.93 1116.67,1567.77 1119.56,1565.61 1122.46,1563.45 1125.35,1561.29 1128.24,1559.13 1131.13,1556.97 1134.02,1554.81 1136.92,1552.65 1139.81,1550.49 1142.7,1548.33 1145.59,1546.17 1148.48,1544.01 1151.38,1541.85 1154.27,1539.69 1157.16,1537.53 1160.05,1535.37 1162.95,1533.21 1165.84,1531.05 1168.73,1528.89 1171.62,1526.73 1174.51,1524.57 1177.41,1522.41 1180.3,1520.25 1183.19,1518.09 1186.08,1515.93 1188.98,1513.77 1191.87,1511.61 1194.76,1509.45 1197.65,1507.29 1200.54,1505.13 1203.44,1502.97 1206.33,1500.81 1209.22,1498.65 1212.11,1496.49 1215,1494.33 1217.9,1492.17 1220.79,1490.01 1223.68,1487.85 1226.57,1485.69 1229.47,1483.53 1232.36,1481.37 1235.25,1479.22 1238.14,1477.06 1241.03,1474.9 1243.93,1472.74 1246.82,1470.58 1249.71,1468.42 1252.6,1466.26 1255.49,1464.1 1258.39,1461.94 1261.28,1459.78 1264.17,1457.62 1267.06,1455.46 1269.96,1453.3 1272.85,1451.14 1275.74,1448.98 1278.63,1446.82 1281.52,1444.66 1284.42,1442.5 1287.31,1440.34 1290.2,1438.18 1293.09,1436.02 1295.99,1433.86 1298.88,1431.7 1301.77,1429.54 1304.66,1427.38 1307.55,1425.22 1310.45,1423.06 1313.34,1420.9 1316.23,1418.74 1319.12,1416.58 1322.01,1414.42 1324.91,1412.26 1327.8,1410.1 1330.69,1407.94 1333.58,1405.78 1336.48,1403.62 1339.37,1401.46 1342.26,1399.3 1345.15,1397.14 1348.04,1394.98 1350.94,1392.82 1353.83,1390.66 1356.72,1388.5 1359.61,1386.34 1362.51,1384.18 1365.4,1382.02 1368.29,1379.86 1371.18,1377.7 1374.07,1375.54 1376.97,1373.38 1379.86,1371.22 1382.75,1369.06 1385.64,1366.9 1388.53,1364.74 1391.43,1362.58 1394.32,1360.42 1397.21,1358.26 1400.1,1356.1 1403,1353.94 1405.89,1351.78 1408.78,1349.62 1411.67,1347.47 1414.56,1345.31 1417.46,1343.15 1420.35,1340.99 1423.24,1338.83 1426.13,1336.67 1429.02,1334.51 1431.92,1332.35 1434.81,1330.19 1437.7,1328.03 1440.59,1325.87 1443.49,1323.71 1446.38,1321.55 1449.27,1319.39 1452.16,1317.23 1455.05,1315.07 1457.95,1312.91 1460.84,1310.75 1463.73,1308.59 1466.62,1306.43 1469.52,1304.27 1472.41,1302.11 1475.3,1299.95 1478.19,1297.79 1481.08,1295.63 1483.98,1293.47 1486.87,1291.31 1489.76,1289.15 1492.65,1286.99 1495.54,1284.83 1498.44,1282.67 1501.33,1280.51 1504.22,1278.35 1507.11,1276.19 1510.01,1274.03 1512.9,1271.87 1515.79,1269.71 1518.68,1267.55 1521.57,1265.39 1524.47,1263.23 1527.36,1261.07 1530.25,1258.91 1533.14,1256.75 1536.04,1254.59 1538.93,1252.43 1541.82,1250.27 1544.71,1248.11 1547.6,1245.95 1550.5,1243.79 1553.39,1241.63 1556.28,1239.47 1559.17,1237.31 1562.06,1235.15 1564.96,1232.99 1567.85,1230.83 1570.74,1228.67 1573.63,1226.51 1576.53,1224.35 1579.42,1222.19 1582.31,1220.03 1585.2,1217.87 1588.09,1215.72 1590.99,1213.56 1593.88,1211.4 1596.77,1209.24 1599.66,1207.08 1602.55,1204.92 1605.45,1202.76 1608.34,1200.6 1611.23,1198.44 1614.12,1196.28 1617.02,1194.12 1619.91,1191.96 1622.8,1189.8 1625.69,1187.64 1628.58,1185.48 1631.48,1183.32 1634.37,1181.16 1637.26,1179 1640.15,1176.84 1643.05,1174.68 1645.94,1172.52 1648.83,1170.36 1651.72,1168.2 1654.61,1166.04 1657.51,1163.88 1660.4,1161.72 1663.29,1159.56 1666.18,1157.4 1669.07,1155.24 1671.97,1153.08 1674.86,1150.92 1677.75,1148.76 1680.64,1146.6 1683.54,1144.44 1686.43,1142.28 1689.32,1140.12 1692.21,1137.96 1695.1,1135.8 1698,1133.64 1700.89,1131.48 1703.78,1129.32 1706.67,1127.16 1709.57,1125 1712.46,1122.84 1715.35,1120.68 1718.24,1118.52 1721.13,1116.36 1724.03,1114.2 1726.92,1112.04 1729.81,1109.88 1732.7,1107.72 1735.59,1105.56 1738.49,1103.4 1741.38,1101.24 1744.27,1099.08 1747.16,1096.92 1750.06,1094.76 1752.95,1092.6 1755.84,1090.44 1758.73,1088.28 1761.62,1086.13 1764.52,1083.97 1767.41,1081.81 1770.3,1079.65 1773.19,1077.49 1776.08,1075.33 1778.98,1073.17 1781.87,1071.01 1784.76,1068.85 1787.65,1066.69 1790.55,1064.53 1793.44,1062.37 1796.33,1060.21 1799.22,1058.05 1802.11,1055.89 1805.01,1053.73 1807.9,1051.57 1810.79,1049.41 1813.68,1047.25 1816.58,1045.09 1819.47,1042.93 1822.36,1040.77 1825.25,1038.61 1828.14,1036.45 1831.04,1034.29 1833.93,1032.13 1836.82,1029.97 1839.71,1027.81 1842.6,1025.65 1845.5,1023.49 1848.39,1021.33 1851.28,1019.17 1854.17,1017.01 1857.07,1014.85 1859.96,1012.69 1862.85,1010.53 1865.74,1008.37 1868.63,1006.21 1871.53,1004.05 1874.42,1001.89 1877.31,999.732 1880.2,997.572 1883.1,995.412 1885.99,993.252 1888.88,991.092 1891.77,988.932 1894.66,986.773 1897.56,984.613 1900.45,982.453 1903.34,980.293 1906.23,978.133 1909.12,975.973 1912.02,973.814 1914.91,971.654 1917.8,969.494 1920.69,967.334 1923.59,965.174 1926.48,963.014 1929.37,960.855 1932.26,958.695 1935.15,956.535 1938.05,954.375 1940.94,952.215 1943.83,950.055 1946.72,947.896 1949.61,945.736 1952.51,943.576 1955.4,941.416 1958.29,939.256 1961.18,937.096 1964.08,934.937 1966.97,932.777 1969.86,930.617 1972.75,928.457 1975.64,926.297 1978.54,924.137 1981.43,921.978 1984.32,919.818 1987.21,917.658 1990.11,915.498 1993,913.338 1995.89,911.178 1998.78,909.018 2001.67,906.859 2004.57,904.699 2007.46,902.539 2010.35,900.379 2013.24,898.219 2016.13,896.059 2019.03,893.9 2021.92,891.74 2024.81,889.58 2027.7,887.42 2030.6,885.26 2033.49,883.1 2036.38,880.941 2039.27,878.781 2042.16,876.621 2045.06,874.461 2047.95,872.301 2050.84,870.141 2053.73,867.982 2056.62,865.822 2059.52,863.662 2062.41,861.502 2065.3,859.342 2068.19,857.182 2071.09,855.023 2073.98,852.863 2076.87,850.703 2079.76,848.543 2082.65,846.383 2085.55,844.223 2088.44,842.064 2091.33,839.904 2094.22,837.744 2097.12,835.584 2100.01,833.424 2102.9,831.264 2105.79,829.105 2108.68,826.945 2111.58,824.785 2114.47,822.625 2117.36,820.465 2120.25,818.305 2123.14,816.146 2126.04,813.986 2128.93,811.826 2131.82,809.666 2134.71,807.506 2137.61,805.346 2140.5,803.187 2143.39,801.027 2146.28,798.867 2149.17,796.707 2152.07,794.547 2154.96,792.387 2157.85,790.228 2160.74,788.068 2163.64,785.908 2166.53,783.748 2169.42,781.588 2172.31,779.428 2175.2,777.269 2178.1,775.109 2180.99,772.949 2183.88,770.789 2186.77,768.629 2189.66,766.469 2192.56,764.31 2195.45,762.15 2198.34,759.99 2201.23,757.83 2204.13,755.67 2207.02,753.51 2209.91,751.35 2212.8,749.191 2215.69,747.031 2218.59,744.871 2221.48,742.711 2224.37,740.551 2227.26,738.391 2230.15,736.232 2233.05,734.072 2235.94,731.912 2238.83,729.752 2241.72,727.592 2244.62,725.432 2247.51,723.273 2250.4,721.113 2253.29,718.953 2256.18,716.793 2259.08,714.633 2261.97,712.473 2264.86,710.314 2267.75,708.154 2270.65,705.994 2273.54,703.834 2276.43,701.674 2279.32,699.514 2282.21,697.355 2285.11,695.195 2288,693.035 2290.89,690.875 2293.78,688.715 2296.67,686.555 2299.57,684.396 2302.46,682.236 2305.35,680.076 2308.24,677.916 2311.14,675.756 2314.03,673.596 2316.92,671.437 2319.81,669.277 2322.7,667.117 2325.6,664.957 2328.49,662.797 2331.38,660.637 2334.27,658.478 2337.17,656.318 2340.06,654.158 2342.95,651.998 2345.84,649.838 2348.73,647.678 2351.63,645.519 2354.52,643.359 2357.41,641.199 2360.3,639.039 2363.19,636.879 2366.09,634.719 2368.98,632.56 2371.87,630.4 2374.76,628.24 2377.66,626.08 2380.55,623.92 2383.44,621.76 2386.33,619.601 2389.22,617.441 2392.12,615.281 2395.01,613.121 2397.9,610.961 2400.79,608.801 2403.68,606.642 2406.58,604.482 2409.47,602.322 2412.36,600.162 2415.25,598.002 2418.15,595.842 2421.04,593.682 2423.93,591.523 2426.82,589.363 2429.71,587.203 2432.61,585.043 2435.5,582.883 2438.39,580.723 2441.28,578.564 2444.18,576.404 2447.07,574.244 2449.96,572.084 2452.85,569.924 2455.74,567.764 2458.64,565.605 2461.53,563.445 2464.42,561.285 2467.31,559.125 2470.2,556.965 2473.1,554.805 2475.99,552.646 2478.88,550.486 2481.77,548.326 2484.67,546.166 2487.56,544.006 2490.45,541.846 2493.34,539.687 2496.23,537.527 2499.13,535.367 2502.02,533.207 2504.91,531.047 2507.8,528.887 2510.7,526.728 2513.59,524.568 2516.48,522.408 2519.37,520.248 2522.26,518.088 2525.16,515.928 2528.05,513.769 2530.94,511.609 2533.83,509.449 2536.72,507.289 2539.62,505.129 2542.51,502.969 2545.4,500.81 2548.29,498.65 2551.19,496.49 2554.08,494.33 2556.97,492.17 2559.86,490.01 2562.75,487.851 2565.65,485.691 2568.54,483.531 2571.43,481.371 2574.32,479.211 2577.21,477.051 2580.11,474.892 2583,472.732 2585.89,470.572 2588.78,468.412 2591.68,466.252 2594.57,464.092 2597.46,461.933 2600.35,459.773 2603.24,457.613 2606.14,455.453 2609.03,453.293 2611.92,451.133 2614.81,448.974 2617.71,446.814 2620.6,444.654 2623.49,442.494 2626.38,440.334 2629.27,438.174 2632.17,436.014 2635.06,433.855 2637.95,431.695 2640.84,429.535 2643.73,427.375 2646.63,425.215 2649.52,423.055 2652.41,420.896 2655.3,418.736 2658.2,416.576 2661.09,414.416 2663.98,412.256 2666.87,410.096 2669.76,407.937 2672.66,405.777 2675.55,403.617 2678.44,401.457 2681.33,399.297 2684.23,397.137 2687.12,394.978 2690.01,392.818 2692.9,390.658 2695.79,388.498 2698.69,386.338 2701.58,384.178 2704.47,382.019 2707.36,379.859 2710.25,377.699 2713.15,375.539 2716.04,373.379 2718.93,371.219 2721.82,369.06 2724.72,366.9 2727.61,364.74 2730.5,362.58 2733.39,360.42 2736.28,358.26 2739.18,356.101 2742.07,353.941 2744.96,351.781 2747.85,349.621 2750.74,347.461 2753.64,345.301 2756.53,343.142 2759.42,340.982 2762.31,338.822 2765.21,336.662 2768.1,334.502 2770.99,332.342 2773.88,330.183 2776.77,328.023 2779.67,325.863 2782.56,323.703 2785.45,321.543 2788.34,319.383 2791.24,317.224 2794.13,315.064 2797.02,312.904 2799.91,310.744 2802.8,308.584 2805.7,306.424 2808.59,304.265 2811.48,302.105 2814.37,299.945 2817.26,297.785 2820.16,295.625 2823.05,293.465 2825.94,291.306 2828.83,289.146 2831.73,286.986 2834.62,284.826 2837.51,282.666 2840.4,280.506 2843.29,278.347 2846.19,276.187 2849.08,274.027 2851.97,271.867 2854.86,269.707 2857.75,267.547 2860.65,265.387 2863.54,263.228 2866.43,261.068 2869.32,258.908 2872.22,256.748 2875.11,254.588 2878,252.428 2880.89,250.269 2883.78,248.109 2886.68,245.949 2889.57,243.789 2892.46,241.629 2895.35,239.469 2898.25,237.31 2901.14,235.15 2904.03,232.99 2906.92,230.83 2909.81,228.67 2912.71,226.51 2915.6,224.351 2918.49,222.191 2921.38,220.031 2924.27,217.871 2927.17,215.711 2930.06,213.551 2932.95,211.392 2935.84,209.232 2938.74,207.072 2941.63,204.912 2944.52,202.752 2947.41,200.592 2950.3,198.433 2953.2,196.273 2956.09,194.113 2958.98,191.953 2961.87,189.793 2964.77,187.633 2967.66,185.474 2970.55,183.314 2973.44,181.154 2976.33,178.994 2979.23,176.834 2982.12,174.674 2985.01,172.515 2987.9,170.355 2990.79,168.195 2993.69,166.035 2996.58,163.875 2999.47,161.715 3002.36,159.556 3005.26,157.396 3008.15,155.236 3011.04,153.076 3013.93,150.916 3016.82,148.756 3019.72,146.597 3022.61,144.437 3025.5,142.277 3028.39,140.117 3031.28,137.957 3034.18,135.797 3037.07,133.638 3039.96,131.478 3042.85,129.318 3045.75,127.158 3048.64,124.998 3051.53,122.838 3054.42,120.679 3057.31,118.519 3060.21,116.359 3063.1,114.199 3065.99,112.039 3068.88,109.879 3071.78,107.719 3074.67,105.56 3077.56,103.4 3080.45,101.24 3083.34,99.0801 3086.24,96.9203 3089.13,94.7605 3092.02,92.6006 3094.91,90.4408 3097.8,88.281 3100.7,86.1211 3103.59,83.9613 3106.48,81.8015 3109.37,79.6416 3112.27,77.4818 3115.16,75.322 3118.05,73.1621 3120.94,71.0023 3123.83,68.8425 3126.73,66.6826 3129.62,64.5228 3132.51,62.3629 3135.4,60.2031 3138.3,58.0433 3141.19,55.8834 3144.08,53.7236 3146.97,51.5638 3149.86,49.4039 3152.76,47.2441 "/>
<path clip-path="url(#clip580)" d="M359.791 297.353 L887.444 297.353 L887.444 119.167 L359.791 119.167  Z" fill="#ffffff" fill-rule="evenodd" fill-opacity="1"/>
<polyline clip-path="url(#clip580)" style="stroke:#000000; stroke-linecap:round; stroke-linejoin:round; stroke-width:4; stroke-opacity:1; fill:none" points="359.791,297.353 887.444,297.353 887.444,119.167 359.791,119.167 359.791,297.353 "/>
<circle clip-path="url(#clip580)" cx="488.203" cy="178.562" r="20.48" fill="#009af9" fill-rule="evenodd" fill-opacity="1" stroke="#000000" stroke-opacity="1" stroke-width="6.82667"/>
<path clip-path="url(#clip580)" d="M616.616 172.497 Q616.616 164.393 619.637 157.858 Q620.925 155.118 622.729 152.822 Q624.532 150.527 625.727 149.52 Q626.921 148.512 627.249 148.512 Q627.718 148.512 627.741 148.981 Q627.741 149.215 627.109 149.801 Q619.379 157.671 619.403 172.497 Q619.403 187.37 626.921 194.936 Q627.741 195.756 627.741 196.013 Q627.741 196.482 627.249 196.482 Q626.921 196.482 625.774 195.521 Q624.626 194.561 622.846 192.359 Q621.066 190.158 619.778 187.464 Q616.616 180.929 616.616 172.497 Z" fill="#000000" fill-rule="nonzero" fill-opacity="1" /><path clip-path="url(#clip580)" d="M661.897 163.995 Q662.061 164.159 662.061 164.393 Q662.061 164.627 661.522 165.166 L650.115 177.954 Q654.472 193.273 656.861 193.273 Q657.587 193.273 658.336 192.711 Q659.109 192.172 659.414 191.352 Q659.531 190.954 659.648 190.813 Q659.765 190.673 660.093 190.673 Q660.655 190.673 660.655 191.212 Q660.655 191.493 660.398 191.961 Q660.14 192.453 659.671 192.992 Q659.203 193.554 658.383 193.929 Q657.563 194.327 656.58 194.327 Q655.362 194.327 654.378 194.046 Q653.394 193.765 652.832 193.413 Q652.27 193.062 651.755 192.43 Q651.263 191.821 651.075 191.446 Q650.911 191.094 650.63 190.485 Q650.068 189.174 649.553 187.722 Q649.038 186.269 648.71 185.215 Q648.382 184.161 647.375 180.929 L636.39 193.273 Q635.874 193.788 635.617 193.788 Q635.406 193.788 635.218 193.601 Q635.031 193.437 635.031 193.226 Q635.031 192.992 635.57 192.453 L646.602 180.133 Q646.766 179.969 646.859 179.828 Q646.953 179.688 646.953 179.641 L646.976 179.594 Q646.976 179.477 646.555 177.978 Q646.133 176.479 645.36 174.16 Q644.611 171.818 643.908 170.108 Q643.463 168.96 643.159 168.258 Q642.854 167.555 642.315 166.501 Q641.8 165.447 641.261 164.908 Q640.723 164.346 640.231 164.346 Q640.067 164.346 639.809 164.416 Q639.552 164.487 639.13 164.674 Q638.732 164.838 638.334 165.306 Q637.935 165.751 637.678 166.407 Q637.467 166.922 637.069 166.922 Q636.811 166.922 636.647 166.805 Q636.507 166.688 636.507 166.571 L636.483 166.454 Q636.483 166.032 636.881 165.33 Q637.28 164.627 638.263 163.971 Q639.247 163.292 640.512 163.292 Q641.706 163.292 642.69 163.573 Q643.674 163.854 644.213 164.182 Q644.775 164.51 645.267 165.119 Q645.759 165.705 645.899 165.986 Q646.063 166.243 646.321 166.782 Q647.117 168.609 647.632 170.178 Q648.171 171.724 649.717 176.619 L660.702 164.393 Q661.194 163.807 661.475 163.807 Q661.733 163.807 661.897 163.995 Z" fill="#000000" fill-rule="nonzero" fill-opacity="1" /><path clip-path="url(#clip580)" d="M666.901 196.791 Q666.901 191.856 668.147 189.167 Q669.885 185.167 673.984 185.167 Q674.853 185.167 675.755 185.413 Q676.673 185.642 677.821 186.544 Q678.985 187.446 679.69 188.921 Q681.034 191.774 681.034 196.791 Q681.034 201.694 679.788 204.366 Q677.968 208.268 673.951 208.268 Q672.443 208.268 670.902 207.498 Q669.377 206.727 668.409 204.874 Q666.901 202.104 666.901 196.791 M669.688 196.381 Q669.688 201.448 670.049 203.464 Q670.459 205.645 671.574 206.596 Q672.705 207.531 673.951 207.531 Q675.296 207.531 676.411 206.53 Q677.542 205.514 677.886 203.333 Q678.263 201.185 678.247 196.381 Q678.247 191.709 677.919 189.84 Q677.476 187.659 676.296 186.79 Q675.132 185.905 673.951 185.905 Q673.509 185.905 673.033 186.036 Q672.574 186.167 671.902 186.544 Q671.23 186.921 670.705 187.856 Q670.197 188.79 669.951 190.2 Q669.688 192.02 669.688 196.381 Z" fill="#000000" fill-rule="nonzero" fill-opacity="1" /><path clip-path="url(#clip580)" d="M686.686 183.716 Q686.006 182.943 686.006 181.936 Q686.006 180.929 686.662 180.18 Q687.342 179.407 688.559 179.407 Q689.988 179.407 690.808 180.789 Q691.628 182.147 691.628 184.442 Q691.628 186.925 690.621 189.221 Q689.614 191.539 688.63 192.64 Q687.646 193.741 687.248 193.741 Q686.779 193.741 686.779 193.226 Q686.779 193.039 687.107 192.687 Q690.55 188.986 690.574 184.442 Q690.574 183.716 690.48 183.716 L690.363 183.81 Q689.543 184.489 688.559 184.489 Q687.365 184.489 686.686 183.716 Z" fill="#000000" fill-rule="nonzero" fill-opacity="1" /><path clip-path="url(#clip580)" d="M733.627 163.995 Q733.791 164.159 733.791 164.393 Q733.791 164.627 733.253 165.166 L721.846 177.954 Q726.202 193.273 728.592 193.273 Q729.318 193.273 730.067 192.711 Q730.84 192.172 731.145 191.352 Q731.262 190.954 731.379 190.813 Q731.496 190.673 731.824 190.673 Q732.386 190.673 732.386 191.212 Q732.386 191.493 732.128 191.961 Q731.871 192.453 731.402 192.992 Q730.934 193.554 730.114 193.929 Q729.294 194.327 728.311 194.327 Q727.093 194.327 726.109 194.046 Q725.125 193.765 724.563 193.413 Q724.001 193.062 723.485 192.43 Q722.994 191.821 722.806 191.446 Q722.642 191.094 722.361 190.485 Q721.799 189.174 721.284 187.722 Q720.768 186.269 720.441 185.215 Q720.113 184.161 719.105 180.929 L708.12 193.273 Q707.605 193.788 707.347 193.788 Q707.137 193.788 706.949 193.601 Q706.762 193.437 706.762 193.226 Q706.762 192.992 707.301 192.453 L718.333 180.133 Q718.496 179.969 718.59 179.828 Q718.684 179.688 718.684 179.641 L718.707 179.594 Q718.707 179.477 718.286 177.978 Q717.864 176.479 717.091 174.16 Q716.342 171.818 715.639 170.108 Q715.194 168.96 714.889 168.258 Q714.585 167.555 714.046 166.501 Q713.531 165.447 712.992 164.908 Q712.454 164.346 711.962 164.346 Q711.798 164.346 711.54 164.416 Q711.282 164.487 710.861 164.674 Q710.463 164.838 710.064 165.306 Q709.666 165.751 709.409 166.407 Q709.198 166.922 708.8 166.922 Q708.542 166.922 708.378 166.805 Q708.237 166.688 708.237 166.571 L708.214 166.454 Q708.214 166.032 708.612 165.33 Q709.01 164.627 709.994 163.971 Q710.978 163.292 712.243 163.292 Q713.437 163.292 714.421 163.573 Q715.405 163.854 715.943 164.182 Q716.506 164.51 716.997 165.119 Q717.489 165.705 717.63 165.986 Q717.794 166.243 718.051 166.782 Q718.848 168.609 719.363 170.178 Q719.902 171.724 721.448 176.619 L732.433 164.393 Q732.925 163.807 733.206 163.807 Q733.463 163.807 733.627 163.995 Z" fill="#000000" fill-rule="nonzero" fill-opacity="1" /><path clip-path="url(#clip580)" d="M738.632 188.364 L738.632 187.315 Q742.665 187.315 744.747 185.167 Q745.321 185.167 745.42 185.298 Q745.518 185.429 745.518 186.036 L745.518 204.874 Q745.518 205.875 746.01 206.186 Q746.502 206.498 748.65 206.498 L749.715 206.498 L749.715 207.531 Q748.535 207.432 744.272 207.432 Q740.009 207.432 738.845 207.531 L738.845 206.498 L739.911 206.498 Q742.026 206.498 742.534 206.203 Q743.042 205.891 743.042 204.874 L743.042 187.479 Q741.288 188.364 738.632 188.364 Z" fill="#000000" fill-rule="nonzero" fill-opacity="1" /><path clip-path="url(#clip580)" d="M754.719 196.013 Q754.719 195.779 755.328 195.193 Q763.057 187.323 763.057 172.497 Q763.057 157.624 755.632 150.105 Q754.719 149.239 754.719 148.981 Q754.719 148.512 755.187 148.512 Q755.515 148.512 756.663 149.473 Q757.834 150.433 759.59 152.635 Q761.37 154.837 762.682 157.53 Q765.844 164.065 765.844 172.497 Q765.844 180.601 762.823 187.136 Q761.534 189.876 759.731 192.172 Q757.927 194.467 756.733 195.474 Q755.538 196.482 755.187 196.482 Q754.719 196.482 754.719 196.013 Z" fill="#000000" fill-rule="nonzero" fill-opacity="1" /><polyline clip-path="url(#clip580)" style="stroke:#e26f46; stroke-linecap:round; stroke-linejoin:round; stroke-width:20; stroke-opacity:1; fill:none" points="391.894,237.957 584.512,237.957 "/>
<path clip-path="url(#clip580)" d="M632.217 224.752 L620.412 243.2 L632.217 243.2 L632.217 224.752 M630.99 220.677 L636.87 220.677 L636.87 243.2 L641.801 243.2 L641.801 247.089 L636.87 247.089 L636.87 255.237 L632.217 255.237 L632.217 247.089 L616.616 247.089 L616.616 242.575 L630.99 220.677 Z" fill="#000000" fill-rule="nonzero" fill-opacity="1" /><path clip-path="url(#clip580)" d="M649.578 220.677 L667.935 220.677 L667.935 224.613 L653.861 224.613 L653.861 233.085 Q654.879 232.738 655.898 232.576 Q656.916 232.39 657.935 232.39 Q663.722 232.39 667.101 235.562 Q670.481 238.733 670.481 244.15 Q670.481 249.728 667.009 252.83 Q663.537 255.909 657.217 255.909 Q655.041 255.909 652.773 255.538 Q650.527 255.168 648.12 254.427 L648.12 249.728 Q650.203 250.862 652.425 251.418 Q654.648 251.974 657.125 251.974 Q661.129 251.974 663.467 249.867 Q665.805 247.761 665.805 244.15 Q665.805 240.538 663.467 238.432 Q661.129 236.326 657.125 236.326 Q655.25 236.326 653.375 236.742 Q651.523 237.159 649.578 238.038 L649.578 220.677 Z" fill="#000000" fill-rule="nonzero" fill-opacity="1" /><path clip-path="url(#clip580)" d="M676.939 240.353 L689.416 240.353 L689.416 244.15 L676.939 244.15 L676.939 240.353 Z" fill="#000000" fill-rule="nonzero" fill-opacity="1" /><path clip-path="url(#clip580)" d="M713.259 233.247 L713.259 219.219 L717.518 219.219 L717.518 255.237 L713.259 255.237 L713.259 251.349 Q711.916 253.663 709.856 254.798 Q707.819 255.909 704.948 255.909 Q700.249 255.909 697.286 252.159 Q694.347 248.409 694.347 242.298 Q694.347 236.187 697.286 232.437 Q700.249 228.687 704.948 228.687 Q707.819 228.687 709.856 229.821 Q711.916 230.932 713.259 233.247 M698.745 242.298 Q698.745 246.997 700.666 249.682 Q702.61 252.344 705.99 252.344 Q709.37 252.344 711.314 249.682 Q713.259 246.997 713.259 242.298 Q713.259 237.599 711.314 234.937 Q709.37 232.251 705.99 232.251 Q702.61 232.251 700.666 234.937 Q698.745 237.599 698.745 242.298 Z" fill="#000000" fill-rule="nonzero" fill-opacity="1" /><path clip-path="url(#clip580)" d="M748.467 241.21 L748.467 243.293 L728.883 243.293 Q729.161 247.691 731.522 250.006 Q733.907 252.298 738.143 252.298 Q740.596 252.298 742.888 251.696 Q745.203 251.094 747.471 249.89 L747.471 253.918 Q745.18 254.89 742.772 255.399 Q740.365 255.909 737.888 255.909 Q731.684 255.909 728.05 252.298 Q724.439 248.687 724.439 242.529 Q724.439 236.163 727.865 232.437 Q731.314 228.687 737.147 228.687 Q742.379 228.687 745.411 232.066 Q748.467 235.423 748.467 241.21 M744.207 239.96 Q744.161 236.464 742.24 234.381 Q740.342 232.298 737.194 232.298 Q733.629 232.298 731.476 234.312 Q729.346 236.326 729.022 239.983 L744.207 239.96 Z" fill="#000000" fill-rule="nonzero" fill-opacity="1" /><path clip-path="url(#clip580)" d="M772.517 241.974 Q772.517 237.344 770.596 234.798 Q768.698 232.251 765.249 232.251 Q761.823 232.251 759.902 234.798 Q758.004 237.344 758.004 241.974 Q758.004 246.58 759.902 249.126 Q761.823 251.673 765.249 251.673 Q768.698 251.673 770.596 249.126 Q772.517 246.58 772.517 241.974 M776.777 252.02 Q776.777 258.64 773.837 261.858 Q770.897 265.099 764.832 265.099 Q762.587 265.099 760.596 264.751 Q758.605 264.427 756.73 263.733 L756.73 259.589 Q758.605 260.608 760.434 261.094 Q762.263 261.58 764.161 261.58 Q768.351 261.58 770.434 259.381 Q772.517 257.205 772.517 252.784 L772.517 250.677 Q771.198 252.969 769.138 254.103 Q767.078 255.237 764.207 255.237 Q759.439 255.237 756.522 251.603 Q753.606 247.969 753.606 241.974 Q753.606 235.955 756.522 232.321 Q759.439 228.687 764.207 228.687 Q767.078 228.687 769.138 229.821 Q771.198 230.955 772.517 233.247 L772.517 229.312 L776.777 229.312 L776.777 252.02 Z" fill="#000000" fill-rule="nonzero" fill-opacity="1" /><path clip-path="url(#clip580)" d="M800.573 233.293 Q799.855 232.876 798.999 232.691 Q798.165 232.483 797.147 232.483 Q793.536 232.483 791.591 234.844 Q789.67 237.182 789.67 241.58 L789.67 255.237 L785.388 255.237 L785.388 229.312 L789.67 229.312 L789.67 233.339 Q791.013 230.978 793.165 229.844 Q795.318 228.687 798.397 228.687 Q798.837 228.687 799.369 228.756 Q799.902 228.802 800.55 228.918 L800.573 233.293 Z" fill="#000000" fill-rule="nonzero" fill-opacity="1" /><path clip-path="url(#clip580)" d="M826.175 241.21 L826.175 243.293 L806.591 243.293 Q806.869 247.691 809.23 250.006 Q811.614 252.298 815.851 252.298 Q818.304 252.298 820.596 251.696 Q822.911 251.094 825.179 249.89 L825.179 253.918 Q822.888 254.89 820.48 255.399 Q818.073 255.909 815.596 255.909 Q809.392 255.909 805.758 252.298 Q802.147 248.687 802.147 242.529 Q802.147 236.163 805.573 232.437 Q809.022 228.687 814.855 228.687 Q820.087 228.687 823.119 232.066 Q826.175 235.423 826.175 241.21 M821.915 239.96 Q821.869 236.464 819.948 234.381 Q818.05 232.298 814.901 232.298 Q811.337 232.298 809.184 234.312 Q807.054 236.326 806.73 239.983 L821.915 239.96 Z" fill="#000000" fill-rule="nonzero" fill-opacity="1" /><path clip-path="url(#clip580)" d="M855.341 241.21 L855.341 243.293 L835.758 243.293 Q836.036 247.691 838.397 250.006 Q840.781 252.298 845.017 252.298 Q847.471 252.298 849.762 251.696 Q852.077 251.094 854.346 249.89 L854.346 253.918 Q852.054 254.89 849.647 255.399 Q847.239 255.909 844.762 255.909 Q838.559 255.909 834.925 252.298 Q831.313 248.687 831.313 242.529 Q831.313 236.163 834.739 232.437 Q838.188 228.687 844.022 228.687 Q849.253 228.687 852.286 232.066 Q855.341 235.423 855.341 241.21 M851.082 239.96 Q851.036 236.464 849.114 234.381 Q847.216 232.298 844.068 232.298 Q840.503 232.298 838.35 234.312 Q836.221 236.326 835.897 239.983 L851.082 239.96 Z" fill="#000000" fill-rule="nonzero" fill-opacity="1" /></svg>
