<?xml version="1.0" encoding="utf-8"?>
<svg xmlns="http://www.w3.org/2000/svg" xmlns:xlink="http://www.w3.org/1999/xlink" width="800" height="600" viewBox="0 0 3200 2400">
<defs>
  <clipPath id="clip100">
    <rect x="0" y="0" width="3200" height="2400"/>
  </clipPath>
</defs>
<path clip-path="url(#clip100)" d="M0 2400 L3200 2400 L3200 0 L0 0  Z" fill="#ffffff" fill-rule="evenodd" fill-opacity="1"/>
<defs>
  <clipPath id="clip101">
    <rect x="640" y="0" width="2241" height="2241"/>
  </clipPath>
</defs>
<path clip-path="url(#clip100)" d="M216.167 2204.92 L3152.76 2204.92 L3152.76 47.2441 L216.167 47.2441  Z" fill="#ffffff" fill-rule="evenodd" fill-opacity="1"/>
<defs>
  <clipPath id="clip102">
    <rect x="216" y="47" width="2938" height="2159"/>
  </clipPath>
</defs>
<polyline clip-path="url(#clip102)" style="stroke:#000000; stroke-linecap:round; stroke-linejoin:round; stroke-width:2; stroke-opacity:0.1; fill:none" points="604.588,2204.92 604.588,47.2441 "/>
<polyline clip-path="url(#clip102)" style="stroke:#000000; stroke-linecap:round; stroke-linejoin:round; stroke-width:2; stroke-opacity:0.1; fill:none" points="1391.9,2204.92 1391.9,47.2441 "/>
<polyline clip-path="url(#clip102)" style="stroke:#000000; stroke-linecap:round; stroke-linejoin:round; stroke-width:2; stroke-opacity:0.1; fill:none" points="2179.22,2204.92 2179.22,47.2441 "/>
<polyline clip-path="url(#clip102)" style="stroke:#000000; stroke-linecap:round; stroke-linejoin:round; stroke-width:2; stroke-opacity:0.1; fill:none" points="2966.53,2204.92 2966.53,47.2441 "/>
<polyline clip-path="url(#clip100)" style="stroke:#000000; stroke-linecap:round; stroke-linejoin:round; stroke-width:4; stroke-opacity:1; fill:none" points="216.167,2204.92 3152.76,2204.92 "/>
<polyline clip-path="url(#clip100)" style="stroke:#000000; stroke-linecap:round; stroke-linejoin:round; stroke-width:4; stroke-opacity:1; fill:none" points="604.588,2204.92 604.588,2186.02 "/>
<polyline clip-path="url(#clip100)" style="stroke:#000000; stroke-linecap:round; stroke-linejoin:round; stroke-width:4; stroke-opacity:1; fill:none" points="1391.9,2204.92 1391.9,2186.02 "/>
<polyline clip-path="url(#clip100)" style="stroke:#000000; stroke-linecap:round; stroke-linejoin:round; stroke-width:4; stroke-opacity:1; fill:none" points="2179.22,2204.92 2179.22,2186.02 "/>
<polyline clip-path="url(#clip100)" style="stroke:#000000; stroke-linecap:round; stroke-linejoin:round; stroke-width:4; stroke-opacity:1; fill:none" points="2966.53,2204.92 2966.53,2186.02 "/>
<path clip-path="url(#clip100)" d="M581.972 2242.24 Q578.361 2242.24 576.532 2245.8 Q574.727 2249.34 574.727 2256.47 Q574.727 2263.58 576.532 2267.15 Q578.361 2270.69 581.972 2270.69 Q585.606 2270.69 587.412 2267.15 Q589.24 2263.58 589.24 2256.47 Q589.24 2249.34 587.412 2245.8 Q585.606 2242.24 581.972 2242.24 M581.972 2238.53 Q587.782 2238.53 590.838 2243.14 Q593.916 2247.72 593.916 2256.47 Q593.916 2265.2 590.838 2269.81 Q587.782 2274.39 581.972 2274.39 Q576.162 2274.39 573.083 2269.81 Q570.028 2265.2 570.028 2256.47 Q570.028 2247.72 573.083 2243.14 Q576.162 2238.53 581.972 2238.53 Z" fill="#000000" fill-rule="nonzero" fill-opacity="1" /><path clip-path="url(#clip100)" d="M602.134 2267.84 L607.018 2267.84 L607.018 2273.72 L602.134 2273.72 L602.134 2267.84 Z" fill="#000000" fill-rule="nonzero" fill-opacity="1" /><path clip-path="url(#clip100)" d="M627.203 2242.24 Q623.592 2242.24 621.763 2245.8 Q619.958 2249.34 619.958 2256.47 Q619.958 2263.58 621.763 2267.15 Q623.592 2270.69 627.203 2270.69 Q630.837 2270.69 632.643 2267.15 Q634.472 2263.58 634.472 2256.47 Q634.472 2249.34 632.643 2245.8 Q630.837 2242.24 627.203 2242.24 M627.203 2238.53 Q633.013 2238.53 636.069 2243.14 Q639.148 2247.72 639.148 2256.47 Q639.148 2265.2 636.069 2269.81 Q633.013 2274.39 627.203 2274.39 Q621.393 2274.39 618.314 2269.81 Q615.259 2265.2 615.259 2256.47 Q615.259 2247.72 618.314 2243.14 Q621.393 2238.53 627.203 2238.53 Z" fill="#000000" fill-rule="nonzero" fill-opacity="1" /><path clip-path="url(#clip100)" d="M1369.9 2242.24 Q1366.29 2242.24 1364.46 2245.8 Q1362.66 2249.34 1362.66 2256.47 Q1362.66 2263.58 1364.46 2267.15 Q1366.29 2270.69 1369.9 2270.69 Q1373.54 2270.69 1375.34 2267.15 Q1377.17 2263.58 1377.17 2256.47 Q1377.17 2249.34 1375.34 2245.8 Q1373.54 2242.24 1369.9 2242.24 M1369.9 2238.53 Q1375.71 2238.53 1378.77 2243.14 Q1381.85 2247.72 1381.85 2256.47 Q1381.85 2265.2 1378.77 2269.81 Q1375.71 2274.39 1369.9 2274.39 Q1364.09 2274.39 1361.01 2269.81 Q1357.96 2265.2 1357.96 2256.47 Q1357.96 2247.72 1361.01 2243.14 Q1364.09 2238.53 1369.9 2238.53 Z" fill="#000000" fill-rule="nonzero" fill-opacity="1" /><path clip-path="url(#clip100)" d="M1390.06 2267.84 L1394.95 2267.84 L1394.95 2273.72 L1390.06 2273.72 L1390.06 2267.84 Z" fill="#000000" fill-rule="nonzero" fill-opacity="1" /><path clip-path="url(#clip100)" d="M1405.94 2269.78 L1413.58 2269.78 L1413.58 2243.42 L1405.27 2245.09 L1405.27 2240.83 L1413.54 2239.16 L1418.21 2239.16 L1418.21 2269.78 L1425.85 2269.78 L1425.85 2273.72 L1405.94 2273.72 L1405.94 2269.78 Z" fill="#000000" fill-rule="nonzero" fill-opacity="1" /><path clip-path="url(#clip100)" d="M2157.4 2242.24 Q2153.79 2242.24 2151.96 2245.8 Q2150.16 2249.34 2150.16 2256.47 Q2150.16 2263.58 2151.96 2267.15 Q2153.79 2270.69 2157.4 2270.69 Q2161.04 2270.69 2162.84 2267.15 Q2164.67 2263.58 2164.67 2256.47 Q2164.67 2249.34 2162.84 2245.8 Q2161.04 2242.24 2157.4 2242.24 M2157.4 2238.53 Q2163.21 2238.53 2166.27 2243.14 Q2169.35 2247.72 2169.35 2256.47 Q2169.35 2265.2 2166.27 2269.81 Q2163.21 2274.39 2157.4 2274.39 Q2151.59 2274.39 2148.51 2269.81 Q2145.46 2265.2 2145.46 2256.47 Q2145.46 2247.72 2148.51 2243.14 Q2151.59 2238.53 2157.4 2238.53 Z" fill="#000000" fill-rule="nonzero" fill-opacity="1" /><path clip-path="url(#clip100)" d="M2177.56 2267.84 L2182.45 2267.84 L2182.45 2273.72 L2177.56 2273.72 L2177.56 2267.84 Z" fill="#000000" fill-rule="nonzero" fill-opacity="1" /><path clip-path="url(#clip100)" d="M2196.66 2269.78 L2212.98 2269.78 L2212.98 2273.72 L2191.04 2273.72 L2191.04 2269.78 Q2193.7 2267.03 2198.28 2262.4 Q2202.89 2257.75 2204.07 2256.41 Q2206.31 2253.88 2207.19 2252.15 Q2208.1 2250.39 2208.1 2248.7 Q2208.1 2245.94 2206.15 2244.21 Q2204.23 2242.47 2201.13 2242.47 Q2198.93 2242.47 2196.48 2243.23 Q2194.05 2244 2191.27 2245.55 L2191.27 2240.83 Q2194.09 2239.69 2196.55 2239.11 Q2199 2238.53 2201.04 2238.53 Q2206.41 2238.53 2209.6 2241.22 Q2212.79 2243.91 2212.79 2248.4 Q2212.79 2250.53 2211.98 2252.45 Q2211.2 2254.34 2209.09 2256.94 Q2208.51 2257.61 2205.41 2260.83 Q2202.31 2264.02 2196.66 2269.78 Z" fill="#000000" fill-rule="nonzero" fill-opacity="1" /><path clip-path="url(#clip100)" d="M2944.24 2242.24 Q2940.63 2242.24 2938.8 2245.8 Q2937 2249.34 2937 2256.47 Q2937 2263.58 2938.8 2267.15 Q2940.63 2270.69 2944.24 2270.69 Q2947.88 2270.69 2949.68 2267.15 Q2951.51 2263.58 2951.51 2256.47 Q2951.51 2249.34 2949.68 2245.8 Q2947.88 2242.24 2944.24 2242.24 M2944.24 2238.53 Q2950.05 2238.53 2953.11 2243.14 Q2956.19 2247.72 2956.19 2256.47 Q2956.19 2265.2 2953.11 2269.81 Q2950.05 2274.39 2944.24 2274.39 Q2938.43 2274.39 2935.35 2269.81 Q2932.3 2265.2 2932.3 2256.47 Q2932.3 2247.72 2935.35 2243.14 Q2938.43 2238.53 2944.24 2238.53 Z" fill="#000000" fill-rule="nonzero" fill-opacity="1" /><path clip-path="url(#clip100)" d="M2964.4 2267.84 L2969.29 2267.84 L2969.29 2273.72 L2964.4 2273.72 L2964.4 2267.84 Z" fill="#000000" fill-rule="nonzero" fill-opacity="1" /><path clip-path="url(#clip100)" d="M2993.64 2255.09 Q2997 2255.8 2998.87 2258.07 Q3000.77 2260.34 3000.77 2263.67 Q3000.77 2268.79 2997.25 2271.59 Q2993.73 2274.39 2987.25 2274.39 Q2985.08 2274.39 2982.76 2273.95 Q2980.47 2273.53 2978.02 2272.68 L2978.02 2268.16 Q2979.96 2269.3 2982.28 2269.88 Q2984.59 2270.46 2987.11 2270.46 Q2991.51 2270.46 2993.8 2268.72 Q2996.12 2266.98 2996.12 2263.67 Q2996.12 2260.62 2993.96 2258.91 Q2991.84 2257.17 2988.02 2257.17 L2983.99 2257.17 L2983.99 2253.33 L2988.2 2253.33 Q2991.65 2253.33 2993.48 2251.96 Q2995.31 2250.57 2995.31 2247.98 Q2995.31 2245.32 2993.41 2243.91 Q2991.53 2242.47 2988.02 2242.47 Q2986.09 2242.47 2983.9 2242.89 Q2981.7 2243.3 2979.06 2244.18 L2979.06 2240.02 Q2981.72 2239.28 2984.03 2238.91 Q2986.37 2238.53 2988.43 2238.53 Q2993.76 2238.53 2996.86 2240.97 Q2999.96 2243.37 2999.96 2247.49 Q2999.96 2250.36 2998.32 2252.35 Q2996.67 2254.32 2993.64 2255.09 Z" fill="#000000" fill-rule="nonzero" fill-opacity="1" /><path clip-path="url(#clip100)" d="M1700.96 2312.82 Q1701.19 2313.05 1701.19 2313.37 Q1701.19 2313.69 1700.44 2314.43 L1684.76 2332.02 Q1690.75 2353.08 1694.04 2353.08 Q1695.03 2353.08 1696.06 2352.31 Q1697.13 2351.56 1697.55 2350.44 Q1697.71 2349.89 1697.87 2349.7 Q1698.03 2349.5 1698.48 2349.5 Q1699.25 2349.5 1699.25 2350.24 Q1699.25 2350.63 1698.9 2351.27 Q1698.54 2351.95 1697.9 2352.69 Q1697.26 2353.46 1696.13 2353.98 Q1695 2354.53 1693.65 2354.53 Q1691.97 2354.53 1690.62 2354.14 Q1689.27 2353.75 1688.5 2353.27 Q1687.72 2352.79 1687.01 2351.92 Q1686.34 2351.08 1686.08 2350.57 Q1685.86 2350.08 1685.47 2349.25 Q1684.7 2347.44 1683.99 2345.45 Q1683.28 2343.45 1682.83 2342 Q1682.38 2340.55 1680.99 2336.11 L1665.89 2353.08 Q1665.18 2353.79 1664.82 2353.79 Q1664.53 2353.79 1664.28 2353.53 Q1664.02 2353.3 1664.02 2353.01 Q1664.02 2352.69 1664.76 2351.95 L1679.93 2335.01 Q1680.15 2334.79 1680.28 2334.59 Q1680.41 2334.4 1680.41 2334.33 L1680.44 2334.27 Q1680.44 2334.11 1679.86 2332.05 Q1679.29 2329.99 1678.22 2326.8 Q1677.19 2323.58 1676.23 2321.23 Q1675.61 2319.65 1675.2 2318.68 Q1674.78 2317.72 1674.04 2316.27 Q1673.33 2314.82 1672.59 2314.08 Q1671.85 2313.3 1671.17 2313.3 Q1670.94 2313.3 1670.59 2313.4 Q1670.24 2313.5 1669.66 2313.75 Q1669.11 2313.98 1668.56 2314.62 Q1668.01 2315.24 1667.66 2316.14 Q1667.37 2316.85 1666.82 2316.85 Q1666.47 2316.85 1666.24 2316.69 Q1666.05 2316.52 1666.05 2316.36 L1666.02 2316.2 Q1666.02 2315.62 1666.56 2314.66 Q1667.11 2313.69 1668.46 2312.79 Q1669.82 2311.85 1671.56 2311.85 Q1673.2 2311.85 1674.55 2312.24 Q1675.9 2312.63 1676.64 2313.08 Q1677.42 2313.53 1678.09 2314.37 Q1678.77 2315.17 1678.96 2315.56 Q1679.19 2315.91 1679.54 2316.65 Q1680.64 2319.17 1681.35 2321.32 Q1682.09 2323.45 1684.21 2330.18 L1699.32 2313.37 Q1699.99 2312.56 1700.38 2312.56 Q1700.73 2312.56 1700.96 2312.82 Z" fill="#000000" fill-rule="nonzero" fill-opacity="1" /><polyline clip-path="url(#clip102)" style="stroke:#000000; stroke-linecap:round; stroke-linejoin:round; stroke-width:2; stroke-opacity:0.1; fill:none" points="216.167,2143.89 3152.76,2143.89 "/>
<polyline clip-path="url(#clip102)" style="stroke:#000000; stroke-linecap:round; stroke-linejoin:round; stroke-width:2; stroke-opacity:0.1; fill:none" points="216.167,1817.97 3152.76,1817.97 "/>
<polyline clip-path="url(#clip102)" style="stroke:#000000; stroke-linecap:round; stroke-linejoin:round; stroke-width:2; stroke-opacity:0.1; fill:none" points="216.167,1492.06 3152.76,1492.06 "/>
<polyline clip-path="url(#clip102)" style="stroke:#000000; stroke-linecap:round; stroke-linejoin:round; stroke-width:2; stroke-opacity:0.1; fill:none" points="216.167,1166.14 3152.76,1166.14 "/>
<polyline clip-path="url(#clip102)" style="stroke:#000000; stroke-linecap:round; stroke-linejoin:round; stroke-width:2; stroke-opacity:0.1; fill:none" points="216.167,840.228 3152.76,840.228 "/>
<polyline clip-path="url(#clip102)" style="stroke:#000000; stroke-linecap:round; stroke-linejoin:round; stroke-width:2; stroke-opacity:0.1; fill:none" points="216.167,514.312 3152.76,514.312 "/>
<polyline clip-path="url(#clip102)" style="stroke:#000000; stroke-linecap:round; stroke-linejoin:round; stroke-width:2; stroke-opacity:0.1; fill:none" points="216.167,188.397 3152.76,188.397 "/>
<polyline clip-path="url(#clip100)" style="stroke:#000000; stroke-linecap:round; stroke-linejoin:round; stroke-width:4; stroke-opacity:1; fill:none" points="216.167,2204.92 216.167,47.2441 "/>
<polyline clip-path="url(#clip100)" style="stroke:#000000; stroke-linecap:round; stroke-linejoin:round; stroke-width:4; stroke-opacity:1; fill:none" points="216.167,2143.89 235.065,2143.89 "/>
<polyline clip-path="url(#clip100)" style="stroke:#000000; stroke-linecap:round; stroke-linejoin:round; stroke-width:4; stroke-opacity:1; fill:none" points="216.167,1817.97 235.065,1817.97 "/>
<polyline clip-path="url(#clip100)" style="stroke:#000000; stroke-linecap:round; stroke-linejoin:round; stroke-width:4; stroke-opacity:1; fill:none" points="216.167,1492.06 235.065,1492.06 "/>
<polyline clip-path="url(#clip100)" style="stroke:#000000; stroke-linecap:round; stroke-linejoin:round; stroke-width:4; stroke-opacity:1; fill:none" points="216.167,1166.14 235.065,1166.14 "/>
<polyline clip-path="url(#clip100)" style="stroke:#000000; stroke-linecap:round; stroke-linejoin:round; stroke-width:4; stroke-opacity:1; fill:none" points="216.167,840.228 235.065,840.228 "/>
<polyline clip-path="url(#clip100)" style="stroke:#000000; stroke-linecap:round; stroke-linejoin:round; stroke-width:4; stroke-opacity:1; fill:none" points="216.167,514.312 235.065,514.312 "/>
<polyline clip-path="url(#clip100)" style="stroke:#000000; stroke-linecap:round; stroke-linejoin:round; stroke-width:4; stroke-opacity:1; fill:none" points="216.167,188.397 235.065,188.397 "/>
<path clip-path="url(#clip100)" d="M156.223 2129.69 Q152.612 2129.69 150.783 2133.25 Q148.978 2136.8 148.978 2143.92 Q148.978 2151.03 150.783 2154.6 Q152.612 2158.14 156.223 2158.14 Q159.857 2158.14 161.663 2154.6 Q163.492 2151.03 163.492 2143.92 Q163.492 2136.8 161.663 2133.25 Q159.857 2129.69 156.223 2129.69 M156.223 2125.99 Q162.033 2125.99 165.089 2130.59 Q168.167 2135.17 168.167 2143.92 Q168.167 2152.65 165.089 2157.26 Q162.033 2161.84 156.223 2161.84 Q150.413 2161.84 147.334 2157.26 Q144.279 2152.65 144.279 2143.92 Q144.279 2135.17 147.334 2130.59 Q150.413 2125.99 156.223 2125.99 Z" fill="#000000" fill-rule="nonzero" fill-opacity="1" /><path clip-path="url(#clip100)" d="M151.848 1831.32 L168.167 1831.32 L168.167 1835.25 L146.223 1835.25 L146.223 1831.32 Q148.885 1828.56 153.468 1823.94 Q158.075 1819.28 159.255 1817.94 Q161.501 1815.42 162.38 1813.68 Q163.283 1811.92 163.283 1810.23 Q163.283 1807.48 161.339 1805.74 Q159.418 1804 156.316 1804 Q154.117 1804 151.663 1804.77 Q149.232 1805.53 146.455 1807.08 L146.455 1802.36 Q149.279 1801.23 151.732 1800.65 Q154.186 1800.07 156.223 1800.07 Q161.593 1800.07 164.788 1802.75 Q167.982 1805.44 167.982 1809.93 Q167.982 1812.06 167.172 1813.98 Q166.385 1815.88 164.279 1818.47 Q163.7 1819.14 160.598 1822.36 Q157.496 1825.56 151.848 1831.32 Z" fill="#000000" fill-rule="nonzero" fill-opacity="1" /><path clip-path="url(#clip100)" d="M158.584 1478.85 L146.779 1497.3 L158.584 1497.3 L158.584 1478.85 M157.357 1474.78 L163.237 1474.78 L163.237 1497.3 L168.167 1497.3 L168.167 1501.19 L163.237 1501.19 L163.237 1509.34 L158.584 1509.34 L158.584 1501.19 L142.982 1501.19 L142.982 1496.68 L157.357 1474.78 Z" fill="#000000" fill-rule="nonzero" fill-opacity="1" /><path clip-path="url(#clip100)" d="M156.64 1164.28 Q153.492 1164.28 151.64 1166.43 Q149.811 1168.59 149.811 1172.34 Q149.811 1176.06 151.64 1178.24 Q153.492 1180.39 156.64 1180.39 Q159.788 1180.39 161.617 1178.24 Q163.468 1176.06 163.468 1172.34 Q163.468 1168.59 161.617 1166.43 Q159.788 1164.28 156.64 1164.28 M165.922 1149.63 L165.922 1153.89 Q164.163 1153.05 162.357 1152.61 Q160.575 1152.17 158.816 1152.17 Q154.186 1152.17 151.732 1155.3 Q149.302 1158.42 148.955 1164.74 Q150.32 1162.73 152.381 1161.66 Q154.441 1160.58 156.918 1160.58 Q162.126 1160.58 165.135 1163.75 Q168.167 1166.9 168.167 1172.34 Q168.167 1177.66 165.019 1180.88 Q161.871 1184.09 156.64 1184.09 Q150.644 1184.09 147.473 1179.51 Q144.302 1174.9 144.302 1166.18 Q144.302 1157.98 148.191 1153.12 Q152.08 1148.24 158.63 1148.24 Q160.39 1148.24 162.172 1148.59 Q163.978 1148.93 165.922 1149.63 Z" fill="#000000" fill-rule="nonzero" fill-opacity="1" /><path clip-path="url(#clip100)" d="M156.316 841.096 Q152.982 841.096 151.061 842.878 Q149.163 844.661 149.163 847.786 Q149.163 850.911 151.061 852.693 Q152.982 854.476 156.316 854.476 Q159.649 854.476 161.57 852.693 Q163.492 850.888 163.492 847.786 Q163.492 844.661 161.57 842.878 Q159.672 841.096 156.316 841.096 M151.64 839.105 Q148.631 838.365 146.941 836.304 Q145.274 834.244 145.274 831.281 Q145.274 827.138 148.214 824.73 Q151.177 822.323 156.316 822.323 Q161.478 822.323 164.417 824.73 Q167.357 827.138 167.357 831.281 Q167.357 834.244 165.667 836.304 Q164.001 838.365 161.015 839.105 Q164.394 839.892 166.269 842.184 Q168.167 844.476 168.167 847.786 Q168.167 852.809 165.089 855.494 Q162.033 858.179 156.316 858.179 Q150.598 858.179 147.519 855.494 Q144.464 852.809 144.464 847.786 Q144.464 844.476 146.362 842.184 Q148.26 839.892 151.64 839.105 M149.927 831.721 Q149.927 834.406 151.593 835.911 Q153.283 837.415 156.316 837.415 Q159.325 837.415 161.015 835.911 Q162.728 834.406 162.728 831.721 Q162.728 829.036 161.015 827.531 Q159.325 826.027 156.316 826.027 Q153.283 826.027 151.593 827.531 Q149.927 829.036 149.927 831.721 Z" fill="#000000" fill-rule="nonzero" fill-opacity="1" /><path clip-path="url(#clip100)" d="M116.871 527.657 L124.51 527.657 L124.51 501.292 L116.2 502.958 L116.2 498.699 L124.464 497.032 L129.14 497.032 L129.14 527.657 L136.779 527.657 L136.779 531.592 L116.871 531.592 L116.871 527.657 Z" fill="#000000" fill-rule="nonzero" fill-opacity="1" /><path clip-path="url(#clip100)" d="M156.223 500.111 Q152.612 500.111 150.783 503.676 Q148.978 507.218 148.978 514.347 Q148.978 521.454 150.783 525.018 Q152.612 528.56 156.223 528.56 Q159.857 528.56 161.663 525.018 Q163.492 521.454 163.492 514.347 Q163.492 507.218 161.663 503.676 Q159.857 500.111 156.223 500.111 M156.223 496.407 Q162.033 496.407 165.089 501.014 Q168.167 505.597 168.167 514.347 Q168.167 523.074 165.089 527.68 Q162.033 532.264 156.223 532.264 Q150.413 532.264 147.334 527.68 Q144.279 523.074 144.279 514.347 Q144.279 505.597 147.334 501.014 Q150.413 496.407 156.223 496.407 Z" fill="#000000" fill-rule="nonzero" fill-opacity="1" /><path clip-path="url(#clip100)" d="M118.469 201.742 L126.108 201.742 L126.108 175.376 L117.797 177.043 L117.797 172.784 L126.061 171.117 L130.737 171.117 L130.737 201.742 L138.376 201.742 L138.376 205.677 L118.469 205.677 L118.469 201.742 Z" fill="#000000" fill-rule="nonzero" fill-opacity="1" /><path clip-path="url(#clip100)" d="M151.848 201.742 L168.167 201.742 L168.167 205.677 L146.223 205.677 L146.223 201.742 Q148.885 198.987 153.468 194.358 Q158.075 189.705 159.255 188.362 Q161.501 185.839 162.38 184.103 Q163.283 182.344 163.283 180.654 Q163.283 177.899 161.339 176.163 Q159.418 174.427 156.316 174.427 Q154.117 174.427 151.663 175.191 Q149.232 175.955 146.455 177.506 L146.455 172.784 Q149.279 171.649 151.732 171.071 Q154.186 170.492 156.223 170.492 Q161.593 170.492 164.788 173.177 Q167.982 175.862 167.982 180.353 Q167.982 182.483 167.172 184.404 Q166.385 186.302 164.279 188.895 Q163.7 189.566 160.598 192.783 Q157.496 195.978 151.848 201.742 Z" fill="#000000" fill-rule="nonzero" fill-opacity="1" /><path clip-path="url(#clip100)" d="M23.7071 1216.81 L4.41896 1216.81 L4.41896 1210.95 L53.9442 1210.95 L53.9442 1216.81 L48.597 1216.81 Q51.7798 1218.66 53.3394 1221.49 Q54.8672 1224.29 54.8672 1228.24 Q54.8672 1234.7 49.711 1238.77 Q44.5547 1242.81 36.152 1242.81 Q27.7493 1242.81 22.5931 1238.77 Q17.4368 1234.7 17.4368 1228.24 Q17.4368 1224.29 18.9964 1221.49 Q20.5242 1218.66 23.7071 1216.81 M36.152 1236.77 Q42.6132 1236.77 46.3053 1234.12 Q49.9656 1231.45 49.9656 1226.8 Q49.9656 1222.16 46.3053 1219.48 Q42.6132 1216.81 36.152 1216.81 Q29.6908 1216.81 26.0305 1219.48 Q22.3384 1222.16 22.3384 1226.8 Q22.3384 1231.45 26.0305 1234.12 Q29.6908 1236.77 36.152 1236.77 Z" fill="#000000" fill-rule="nonzero" fill-opacity="1" /><path clip-path="url(#clip100)" d="M34.6561 1168.4 L37.5206 1168.4 L37.5206 1195.32 Q43.5681 1194.94 46.7509 1191.7 Q49.9019 1188.42 49.9019 1182.59 Q49.9019 1179.22 49.0744 1176.07 Q48.2469 1172.89 46.5918 1169.77 L52.1299 1169.77 Q53.4667 1172.92 54.167 1176.23 Q54.8672 1179.54 54.8672 1182.94 Q54.8672 1191.47 49.9019 1196.47 Q44.9367 1201.44 36.4703 1201.44 Q27.7174 1201.44 22.5931 1196.73 Q17.4368 1191.98 17.4368 1183.96 Q17.4368 1176.77 22.0838 1172.6 Q26.6989 1168.4 34.6561 1168.4 M32.9373 1174.25 Q28.1312 1174.32 25.2666 1176.96 Q22.4021 1179.57 22.4021 1183.9 Q22.4021 1188.8 25.1712 1191.76 Q27.9402 1194.69 32.9692 1195.13 L32.9373 1174.25 Z" fill="#000000" fill-rule="nonzero" fill-opacity="1" /><path clip-path="url(#clip100)" d="M32.4281 1129.15 L53.9442 1129.15 L53.9442 1135.01 L32.619 1135.01 Q27.5583 1135.01 25.0438 1136.98 Q22.5294 1138.96 22.5294 1142.9 Q22.5294 1147.65 25.5531 1150.38 Q28.5768 1153.12 33.7967 1153.12 L53.9442 1153.12 L53.9442 1159.01 L18.2962 1159.01 L18.2962 1153.12 L23.8344 1153.12 Q20.6197 1151.02 19.0283 1148.19 Q17.4368 1145.32 17.4368 1141.6 Q17.4368 1135.46 21.2563 1132.3 Q25.0438 1129.15 32.4281 1129.15 Z" fill="#000000" fill-rule="nonzero" fill-opacity="1" /><path clip-path="url(#clip100)" d="M19.3465 1094.75 L24.8847 1094.75 Q23.6116 1097.23 22.975 1099.9 Q22.3384 1102.58 22.3384 1105.44 Q22.3384 1109.8 23.6752 1112 Q25.012 1114.16 27.6856 1114.16 Q29.7226 1114.16 30.9003 1112.6 Q32.0461 1111.04 33.0965 1106.33 L33.5421 1104.33 Q34.8789 1098.09 37.3297 1095.48 Q39.7486 1092.84 44.1091 1092.84 Q49.0744 1092.84 51.9708 1096.78 Q54.8672 1100.7 54.8672 1107.57 Q54.8672 1110.44 54.2943 1113.56 Q53.7532 1116.64 52.6392 1120.08 L46.5918 1120.08 Q48.2787 1116.84 49.138 1113.68 Q49.9656 1110.53 49.9656 1107.45 Q49.9656 1103.31 48.5651 1101.08 Q47.1329 1098.85 44.5547 1098.85 Q42.1676 1098.85 40.8945 1100.48 Q39.6213 1102.07 38.4437 1107.51 L37.9662 1109.55 Q36.8204 1114.99 34.4651 1117.41 Q32.078 1119.83 27.9402 1119.83 Q22.9113 1119.83 20.1741 1116.26 Q17.4368 1112.7 17.4368 1106.14 Q17.4368 1102.89 17.9143 1100.03 Q18.3917 1097.17 19.3465 1094.75 Z" fill="#000000" fill-rule="nonzero" fill-opacity="1" /><path clip-path="url(#clip100)" d="M18.2962 1083.51 L18.2962 1077.65 L53.9442 1077.65 L53.9442 1083.51 L18.2962 1083.51 M4.41896 1083.51 L4.41896 1077.65 L11.835 1077.65 L11.835 1083.51 L4.41896 1083.51 Z" fill="#000000" fill-rule="nonzero" fill-opacity="1" /><path clip-path="url(#clip100)" d="M8.17473 1059.61 L18.2962 1059.61 L18.2962 1047.55 L22.8477 1047.55 L22.8477 1059.61 L42.1994 1059.61 Q46.5599 1059.61 47.8013 1058.43 Q49.0426 1057.22 49.0426 1053.56 L49.0426 1047.55 L53.9442 1047.55 L53.9442 1053.56 Q53.9442 1060.34 51.4297 1062.92 Q48.8834 1065.5 42.1994 1065.5 L22.8477 1065.5 L22.8477 1069.79 L18.2962 1069.79 L18.2962 1065.5 L8.17473 1065.5 L8.17473 1059.61 Z" fill="#000000" fill-rule="nonzero" fill-opacity="1" /><path clip-path="url(#clip100)" d="M57.2543 1025.01 Q63.62 1027.49 65.5616 1029.85 Q67.5031 1032.2 67.5031 1036.15 L67.5031 1040.83 L62.6015 1040.83 L62.6015 1037.39 Q62.6015 1034.97 61.4557 1033.64 Q60.3099 1032.3 56.0448 1030.68 L53.3712 1029.63 L18.2962 1044.04 L18.2962 1037.84 L46.178 1026.7 L18.2962 1015.56 L18.2962 1009.35 L57.2543 1025.01 Z" fill="#000000" fill-rule="nonzero" fill-opacity="1" /><polyline clip-path="url(#clip102)" style="stroke:#009af9; stroke-linecap:round; stroke-linejoin:round; stroke-width:20; stroke-opacity:1; fill:none" points="323.88,2143.84 337.678,2143.83 351.476,2143.81 365.274,2143.79 379.072,2143.75 392.869,2143.71 406.667,2143.64 420.465,2143.55 434.263,2143.44 448.061,2143.28 461.859,2143.08 475.656,2142.83 489.454,2142.5 503.252,2142.09 517.05,2141.57 530.848,2140.93 544.645,2140.13 558.443,2139.16 572.241,2137.97 586.039,2136.54 599.837,2134.84 613.634,2132.81 627.432,2130.44 641.23,2127.66 655.028,2124.46 668.826,2120.79 682.624,2116.61 696.421,2111.9 710.219,2106.62 724.017,2100.77 737.815,2094.33 751.613,2087.3 765.41,2079.68 779.208,2071.49 793.006,2062.75 806.804,2053.5 820.602,2043.77 834.399,2033.61 848.197,2023.08 861.995,2012.22 875.793,2001.1 889.591,1989.78 903.388,1978.29 917.186,1966.71 930.984,1955.06 944.782,1943.38 958.58,1931.71 972.378,1920.06 986.175,1908.44 999.973,1896.85 1013.77,1885.28 1027.57,1873.7 1041.37,1862.1 1055.16,1850.42 1068.96,1838.62 1082.76,1826.65 1096.56,1814.44 1110.36,1801.91 1124.15,1788.98 1137.95,1775.55 1151.75,1761.53 1165.55,1746.81 1179.34,1731.26 1193.14,1714.79 1206.94,1697.25 1220.74,1678.54 1234.54,1658.54 1248.33,1637.14 1262.13,1614.26 1275.93,1589.82 1289.73,1563.79 1303.53,1536.13 1317.32,1506.88 1331.12,1476.09 1344.92,1443.84 1358.72,1410.27 1372.51,1375.54 1386.31,1339.87 1400.11,1303.5 1413.91,1266.69 1427.71,1229.73 1441.5,1192.93 1455.3,1156.6 1469.1,1121.06 1482.9,1086.59 1496.69,1053.49 1510.49,1022.01 1524.29,992.387 1538.09,964.806 1551.89,939.421 1565.68,916.343 1579.48,895.642 1593.28,877.345 1607.08,861.441 1620.87,847.885 1634.67,836.601 1648.47,827.488 1662.27,820.429 1676.07,815.291 1689.86,811.938 1703.66,810.235 1717.46,810.052 1731.26,811.27 1745.05,813.783 1758.85,817.504 1772.65,822.365 1786.45,828.316 1800.25,835.326 1814.04,843.381 1827.84,852.481 1841.64,862.638 1855.44,873.87 1869.24,886.201 1883.03,899.652 1896.83,914.241 1910.63,929.98 1924.43,946.87 1938.22,964.901 1952.02,984.049 1965.82,1004.28 1979.62,1025.54 1993.42,1047.77 2007.21,1070.89 2021.01,1094.83 2034.81,1119.51 2048.61,1144.82 2062.4,1170.68 2076.2,1197 2090,1223.69 2103.8,1250.67 2117.6,1277.86 2131.39,1305.2 2145.19,1332.63 2158.99,1360.08 2172.79,1387.51 2186.58,1414.89 2200.38,1442.17 2214.18,1469.32 2227.98,1496.32 2241.78,1523.14 2255.57,1549.77 2269.37,1576.17 2283.17,1602.32 2296.97,1628.21 2310.77,1653.81 2324.56,1679.08 2338.36,1704.01 2352.16,1728.57 2365.96,1752.71 2379.75,1776.4 2393.55,1799.6 2407.35,1822.28 2421.15,1844.38 2434.95,1865.87 2448.74,1886.69 2462.54,1906.8 2476.34,1926.17 2490.14,1944.73 2503.93,1962.46 2517.73,1979.31 2531.53,1995.27 2545.33,2010.29 2559.13,2024.37 2572.92,2037.49 2586.72,2049.65 2600.52,2060.86 2614.32,2071.12 2628.11,2080.47 2641.91,2088.93 2655.71,2096.53 2669.51,2103.32 2683.31,2109.34 2697.1,2114.65 2710.9,2119.3 2724.7,2123.33 2738.5,2126.82 2752.3,2129.8 2766.09,2132.34 2779.89,2134.48 2793.69,2136.28 2807.49,2137.77 2821.28,2139.01 2835.08,2140.02 2848.88,2140.84 2862.68,2141.5 2876.48,2142.04 2890.27,2142.46 2904.07,2142.8 2917.87,2143.06 2931.67,2143.26 2945.46,2143.42 2959.26,2143.54 2973.06,2143.63 2986.86,2143.7 3000.66,2143.75 3014.45,2143.78 3028.25,2143.81 3042.05,2143.83 3055.85,2143.84 3069.64,2143.84 "/>
<polyline clip-path="url(#clip102)" style="stroke:#e26f46; stroke-linecap:round; stroke-linejoin:round; stroke-width:20; stroke-opacity:1; fill:none" points="299.278,2143.85 311.927,2143.85 324.576,2143.84 337.225,2143.83 349.873,2143.81 362.522,2143.79 375.171,2143.76 387.819,2143.72 400.468,2143.66 413.117,2143.59 425.765,2143.51 438.414,2143.4 451.063,2143.26 463.712,2143.08 476.36,2142.87 489.009,2142.61 501.658,2142.28 514.306,2141.89 526.955,2141.43 539.604,2140.87 552.252,2140.2 564.901,2139.42 577.55,2138.5 590.199,2137.43 602.847,2136.19 615.496,2134.77 628.145,2133.14 640.793,2131.3 653.442,2129.22 666.091,2126.89 678.739,2124.28 691.388,2121.39 704.037,2118.2 716.686,2114.7 729.334,2110.86 741.983,2106.67 754.632,2102.12 767.28,2097.18 779.929,2091.84 792.578,2086.07 805.226,2079.85 817.875,2073.13 830.524,2065.87 843.173,2058.04 855.821,2049.56 868.47,2040.38 881.119,2030.41 893.767,2019.57 906.416,2007.77 919.065,1994.88 931.713,1980.79 944.362,1965.37 957.011,1948.49 969.66,1930 982.308,1909.76 994.957,1887.61 1007.61,1863.39 1020.25,1836.98 1032.9,1808.21 1045.55,1776.96 1058.2,1743.11 1070.85,1706.56 1083.5,1667.21 1096.15,1625.01 1108.8,1579.93 1121.44,1531.97 1134.09,1481.16 1146.74,1427.57 1159.39,1371.31 1172.04,1312.54 1184.69,1251.46 1197.34,1188.31 1209.98,1123.38 1222.63,1056.99 1235.28,989.532 1247.93,921.401 1260.58,853.047 1273.23,784.938 1285.88,717.569 1298.53,651.447 1311.17,587.085 1323.82,524.996 1336.47,465.683 1349.12,409.628 1361.77,357.29 1374.42,309.094 1387.07,265.424 1399.72,226.62 1412.36,192.969 1425.01,164.708 1437.66,142.016 1450.31,125.016 1462.96,113.777 1475.61,108.31 1488.26,108.576 1500.9,114.485 1513.55,125.9 1526.2,142.643 1538.85,164.497 1551.5,191.213 1564.15,222.509 1576.8,258.082 1589.45,297.604 1602.09,340.731 1614.74,387.108 1627.39,436.368 1640.04,488.139 1652.69,542.046 1665.34,597.716 1677.99,654.781 1690.64,712.879 1703.28,771.662 1715.93,830.793 1728.58,889.953 1741.23,948.845 1753.88,1007.19 1766.53,1064.73 1779.18,1121.24 1791.83,1176.52 1804.47,1230.39 1817.12,1282.68 1829.77,1333.29 1842.42,1382.1 1855.07,1429.03 1867.72,1474.02 1880.37,1517.03 1893.01,1558.03 1905.66,1597.02 1918.31,1633.99 1930.96,1668.97 1943.61,1701.96 1956.26,1733.02 1968.91,1762.17 1981.56,1789.46 1994.2,1814.95 2006.85,1838.68 2019.5,1860.74 2032.15,1881.18 2044.8,1900.09 2057.45,1917.53 2070.1,1933.6 2082.75,1948.38 2095.39,1961.97 2108.04,1974.45 2120.69,1985.91 2133.34,1996.46 2145.99,2006.18 2158.64,2015.17 2171.29,2023.5 2183.93,2031.25 2196.58,2038.51 2209.23,2045.33 2221.88,2051.77 2234.53,2057.89 2247.18,2063.72 2259.83,2069.29 2272.48,2074.64 2285.12,2079.77 2297.77,2084.7 2310.42,2089.44 2323.07,2093.98 2335.72,2098.33 2348.37,2102.47 2361.02,2106.41 2373.67,2110.13 2386.31,2113.63 2398.96,2116.91 2411.61,2119.96 2424.26,2122.78 2436.91,2125.37 2449.56,2127.73 2462.21,2129.88 2474.85,2131.8 2487.5,2133.53 2500.15,2135.06 2512.8,2136.41 2525.45,2137.59 2538.1,2138.62 2550.75,2139.51 2563.4,2140.27 2576.04,2140.92 2588.69,2141.46 2601.34,2141.92 2613.99,2142.3 2626.64,2142.62 2639.29,2142.88 2651.94,2143.09 2664.59,2143.26 2677.23,2143.4 2689.88,2143.51 2702.53,2143.6 2715.18,2143.66 2727.83,2143.72 2740.48,2143.76 2753.13,2143.79 2765.77,2143.81 2778.42,2143.83 2791.07,2143.84 2803.72,2143.85 2816.37,2143.85 "/>
<path clip-path="url(#clip100)" d="M2710.24 274.687 L3054.87 274.687 L3054.87 119.167 L2710.24 119.167  Z" fill="#ffffff" fill-rule="evenodd" fill-opacity="1"/>
<polyline clip-path="url(#clip100)" style="stroke:#000000; stroke-linecap:round; stroke-linejoin:round; stroke-width:4; stroke-opacity:1; fill:none" points="2710.24,274.687 3054.87,274.687 3054.87,119.167 2710.24,119.167 2710.24,274.687 "/>
<polyline clip-path="url(#clip100)" style="stroke:#009af9; stroke-linecap:round; stroke-linejoin:round; stroke-width:20; stroke-opacity:1; fill:none" points="2742.86,171.007 2938.64,171.007 "/>
<path clip-path="url(#clip100)" d="M2998.13 149.127 Q2998.29 149.291 2998.29 149.525 Q2998.29 149.759 2997.76 150.298 L2986.35 163.087 Q2990.71 178.405 2993.1 178.405 Q2993.82 178.405 2994.57 177.843 Q2995.34 177.304 2995.65 176.484 Q2995.77 176.086 2995.88 175.945 Q2996 175.805 2996.33 175.805 Q2996.89 175.805 2996.89 176.344 Q2996.89 176.625 2996.63 177.093 Q2996.37 177.585 2995.91 178.124 Q2995.44 178.686 2994.62 179.061 Q2993.8 179.459 2992.81 179.459 Q2991.6 179.459 2990.61 179.178 Q2989.63 178.897 2989.07 178.545 Q2988.5 178.194 2987.99 177.562 Q2987.5 176.953 2987.31 176.578 Q2987.15 176.227 2986.86 175.618 Q2986.3 174.306 2985.79 172.854 Q2985.27 171.402 2984.94 170.348 Q2984.62 169.293 2983.61 166.061 L2972.62 178.405 Q2972.11 178.92 2971.85 178.92 Q2971.64 178.92 2971.45 178.733 Q2971.27 178.569 2971.27 178.358 Q2971.27 178.124 2971.8 177.585 L2982.84 165.265 Q2983 165.101 2983.09 164.96 Q2983.19 164.82 2983.19 164.773 L2983.21 164.726 Q2983.21 164.609 2982.79 163.11 Q2982.37 161.611 2981.59 159.292 Q2980.85 156.95 2980.14 155.24 Q2979.7 154.092 2979.39 153.39 Q2979.09 152.687 2978.55 151.633 Q2978.03 150.579 2977.5 150.04 Q2976.96 149.478 2976.47 149.478 Q2976.3 149.478 2976.04 149.548 Q2975.79 149.619 2975.36 149.806 Q2974.97 149.97 2974.57 150.438 Q2974.17 150.883 2973.91 151.539 Q2973.7 152.055 2973.3 152.055 Q2973.05 152.055 2972.88 151.937 Q2972.74 151.82 2972.74 151.703 L2972.72 151.586 Q2972.72 151.165 2973.12 150.462 Q2973.51 149.759 2974.5 149.103 Q2975.48 148.424 2976.75 148.424 Q2977.94 148.424 2978.92 148.705 Q2979.91 148.986 2980.45 149.314 Q2981.01 149.642 2981.5 150.251 Q2981.99 150.837 2982.13 151.118 Q2982.3 151.375 2982.56 151.914 Q2983.35 153.741 2983.87 155.31 Q2984.41 156.856 2985.95 161.751 L2996.94 149.525 Q2997.43 148.939 2997.71 148.939 Q2997.97 148.939 2998.13 149.127 Z" fill="#000000" fill-rule="nonzero" fill-opacity="1" /><path clip-path="url(#clip100)" d="M3003.14 181.923 Q3003.14 176.988 3004.38 174.299 Q3006.12 170.299 3010.22 170.299 Q3011.09 170.299 3011.99 170.545 Q3012.91 170.774 3014.05 171.676 Q3015.22 172.578 3015.92 174.054 Q3017.27 176.906 3017.27 181.923 Q3017.27 186.826 3016.02 189.498 Q3014.2 193.4 3010.19 193.4 Q3008.68 193.4 3007.14 192.63 Q3005.61 191.859 3004.64 190.007 Q3003.14 187.236 3003.14 181.923 M3005.92 181.514 Q3005.92 186.58 3006.28 188.597 Q3006.69 190.777 3007.81 191.728 Q3008.94 192.663 3010.19 192.663 Q3011.53 192.663 3012.64 191.663 Q3013.78 190.646 3014.12 188.465 Q3014.5 186.318 3014.48 181.514 Q3014.48 176.841 3014.15 174.972 Q3013.71 172.791 3012.53 171.922 Q3011.37 171.037 3010.19 171.037 Q3009.74 171.037 3009.27 171.168 Q3008.81 171.299 3008.14 171.676 Q3007.46 172.053 3006.94 172.988 Q3006.43 173.922 3006.19 175.332 Q3005.92 177.152 3005.92 181.514 Z" fill="#000000" fill-rule="nonzero" fill-opacity="1" /><polyline clip-path="url(#clip100)" style="stroke:#e26f46; stroke-linecap:round; stroke-linejoin:round; stroke-width:20; stroke-opacity:1; fill:none" points="2742.86,222.847 2938.64,222.847 "/>
<path clip-path="url(#clip100)" d="M2998.13 201.331 Q2998.29 201.495 2998.29 201.73 Q2998.29 201.964 2997.76 202.502 L2986.35 215.291 Q2990.71 230.609 2993.1 230.609 Q2993.82 230.609 2994.57 230.047 Q2995.34 229.509 2995.65 228.689 Q2995.77 228.291 2995.88 228.15 Q2996 228.01 2996.33 228.01 Q2996.89 228.01 2996.89 228.548 Q2996.89 228.829 2996.63 229.298 Q2996.37 229.79 2995.91 230.328 Q2995.44 230.89 2994.62 231.265 Q2993.8 231.663 2992.81 231.663 Q2991.6 231.663 2990.61 231.382 Q2989.63 231.101 2989.07 230.75 Q2988.5 230.399 2987.99 229.766 Q2987.5 229.157 2987.31 228.782 Q2987.15 228.431 2986.86 227.822 Q2986.3 226.51 2985.79 225.058 Q2985.27 223.606 2984.94 222.552 Q2984.62 221.498 2983.61 218.266 L2972.62 230.609 Q2972.11 231.125 2971.85 231.125 Q2971.64 231.125 2971.45 230.937 Q2971.27 230.773 2971.27 230.563 Q2971.27 230.328 2971.8 229.79 L2982.84 217.469 Q2983 217.305 2983.09 217.165 Q2983.19 217.024 2983.19 216.978 L2983.21 216.931 Q2983.21 216.814 2982.79 215.315 Q2982.37 213.816 2981.59 211.497 Q2980.85 209.154 2980.14 207.445 Q2979.7 206.297 2979.39 205.594 Q2979.09 204.892 2978.55 203.838 Q2978.03 202.784 2977.5 202.245 Q2976.96 201.683 2976.47 201.683 Q2976.3 201.683 2976.04 201.753 Q2975.79 201.823 2975.36 202.011 Q2974.97 202.175 2974.57 202.643 Q2974.17 203.088 2973.91 203.744 Q2973.7 204.259 2973.3 204.259 Q2973.05 204.259 2972.88 204.142 Q2972.74 204.025 2972.74 203.908 L2972.72 203.791 Q2972.72 203.369 2973.12 202.666 Q2973.51 201.964 2974.5 201.308 Q2975.48 200.629 2976.75 200.629 Q2977.94 200.629 2978.92 200.91 Q2979.91 201.191 2980.45 201.519 Q2981.01 201.847 2981.5 202.456 Q2981.99 203.041 2982.13 203.322 Q2982.3 203.58 2982.56 204.119 Q2983.35 205.946 2983.87 207.515 Q2984.41 209.061 2985.95 213.956 L2996.94 201.73 Q2997.43 201.144 2997.71 201.144 Q2997.97 201.144 2998.13 201.331 Z" fill="#000000" fill-rule="nonzero" fill-opacity="1" /><path clip-path="url(#clip100)" d="M3003.14 225.701 L3003.14 224.651 Q3007.17 224.651 3009.25 222.503 Q3009.82 222.503 3009.92 222.635 Q3010.02 222.766 3010.02 223.372 L3010.02 242.211 Q3010.02 243.211 3010.51 243.523 Q3011.01 243.834 3013.15 243.834 L3014.22 243.834 L3014.22 244.867 Q3013.04 244.769 3008.78 244.769 Q3004.51 244.769 3003.35 244.867 L3003.35 243.834 L3004.41 243.834 Q3006.53 243.834 3007.04 243.539 Q3007.55 243.228 3007.55 242.211 L3007.55 224.815 Q3005.79 225.701 3003.14 225.701 Z" fill="#000000" fill-rule="nonzero" fill-opacity="1" /></svg>
