<?xml version="1.0" encoding="utf-8"?>
<svg xmlns="http://www.w3.org/2000/svg" xmlns:xlink="http://www.w3.org/1999/xlink" width="800" height="600" viewBox="0 0 3200 2400">
<defs>
  <clipPath id="clip740">
    <rect x="0" y="0" width="3200" height="2400"/>
  </clipPath>
</defs>
<path clip-path="url(#clip740)" d="M0 2400 L3200 2400 L3200 0 L0 0  Z" fill="#ffffff" fill-rule="evenodd" fill-opacity="1"/>
<defs>
  <clipPath id="clip741">
    <rect x="640" y="0" width="2241" height="2241"/>
  </clipPath>
</defs>
<path clip-path="url(#clip740)" d="M233.806 2204.92 L3152.76 2204.92 L3152.76 47.2441 L233.806 47.2441  Z" fill="#ffffff" fill-rule="evenodd" fill-opacity="1"/>
<defs>
  <clipPath id="clip742">
    <rect x="233" y="47" width="2920" height="2159"/>
  </clipPath>
</defs>
<polyline clip-path="url(#clip742)" style="stroke:#000000; stroke-linecap:round; stroke-linejoin:round; stroke-width:2; stroke-opacity:0.1; fill:none" points="477.052,2204.92 477.052,47.2441 "/>
<polyline clip-path="url(#clip742)" style="stroke:#000000; stroke-linecap:round; stroke-linejoin:round; stroke-width:2; stroke-opacity:0.1; fill:none" points="1085.17,2204.92 1085.17,47.2441 "/>
<polyline clip-path="url(#clip742)" style="stroke:#000000; stroke-linecap:round; stroke-linejoin:round; stroke-width:2; stroke-opacity:0.1; fill:none" points="1693.28,2204.92 1693.28,47.2441 "/>
<polyline clip-path="url(#clip742)" style="stroke:#000000; stroke-linecap:round; stroke-linejoin:round; stroke-width:2; stroke-opacity:0.1; fill:none" points="2301.4,2204.92 2301.4,47.2441 "/>
<polyline clip-path="url(#clip742)" style="stroke:#000000; stroke-linecap:round; stroke-linejoin:round; stroke-width:2; stroke-opacity:0.1; fill:none" points="2909.51,2204.92 2909.51,47.2441 "/>
<polyline clip-path="url(#clip740)" style="stroke:#000000; stroke-linecap:round; stroke-linejoin:round; stroke-width:4; stroke-opacity:1; fill:none" points="233.806,2204.92 3152.76,2204.92 "/>
<polyline clip-path="url(#clip740)" style="stroke:#000000; stroke-linecap:round; stroke-linejoin:round; stroke-width:4; stroke-opacity:1; fill:none" points="477.052,2204.92 477.052,2186.02 "/>
<polyline clip-path="url(#clip740)" style="stroke:#000000; stroke-linecap:round; stroke-linejoin:round; stroke-width:4; stroke-opacity:1; fill:none" points="1085.17,2204.92 1085.17,2186.02 "/>
<polyline clip-path="url(#clip740)" style="stroke:#000000; stroke-linecap:round; stroke-linejoin:round; stroke-width:4; stroke-opacity:1; fill:none" points="1693.28,2204.92 1693.28,2186.02 "/>
<polyline clip-path="url(#clip740)" style="stroke:#000000; stroke-linecap:round; stroke-linejoin:round; stroke-width:4; stroke-opacity:1; fill:none" points="2301.4,2204.92 2301.4,2186.02 "/>
<polyline clip-path="url(#clip740)" style="stroke:#000000; stroke-linecap:round; stroke-linejoin:round; stroke-width:4; stroke-opacity:1; fill:none" points="2909.51,2204.92 2909.51,2186.02 "/>
<path clip-path="url(#clip740)" d="M439.356 2242.24 Q435.744 2242.24 433.916 2245.8 Q432.11 2249.34 432.11 2256.47 Q432.11 2263.58 433.916 2267.15 Q435.744 2270.69 439.356 2270.69 Q442.99 2270.69 444.795 2267.15 Q446.624 2263.58 446.624 2256.47 Q446.624 2249.34 444.795 2245.8 Q442.99 2242.24 439.356 2242.24 M439.356 2238.53 Q445.166 2238.53 448.221 2243.14 Q451.3 2247.72 451.3 2256.47 Q451.3 2265.2 448.221 2269.81 Q445.166 2274.39 439.356 2274.39 Q433.545 2274.39 430.467 2269.81 Q427.411 2265.2 427.411 2256.47 Q427.411 2247.72 430.467 2243.14 Q433.545 2238.53 439.356 2238.53 Z" fill="#000000" fill-rule="nonzero" fill-opacity="1" /><path clip-path="url(#clip740)" d="M459.517 2267.84 L464.402 2267.84 L464.402 2273.72 L459.517 2273.72 L459.517 2267.84 Z" fill="#000000" fill-rule="nonzero" fill-opacity="1" /><path clip-path="url(#clip740)" d="M484.587 2242.24 Q480.976 2242.24 479.147 2245.8 Q477.341 2249.34 477.341 2256.47 Q477.341 2263.58 479.147 2267.15 Q480.976 2270.69 484.587 2270.69 Q488.221 2270.69 490.027 2267.15 Q491.855 2263.58 491.855 2256.47 Q491.855 2249.34 490.027 2245.8 Q488.221 2242.24 484.587 2242.24 M484.587 2238.53 Q490.397 2238.53 493.452 2243.14 Q496.531 2247.72 496.531 2256.47 Q496.531 2265.2 493.452 2269.81 Q490.397 2274.39 484.587 2274.39 Q478.777 2274.39 475.698 2269.81 Q472.642 2265.2 472.642 2256.47 Q472.642 2247.72 475.698 2243.14 Q478.777 2238.53 484.587 2238.53 Z" fill="#000000" fill-rule="nonzero" fill-opacity="1" /><path clip-path="url(#clip740)" d="M514.749 2242.24 Q511.138 2242.24 509.309 2245.8 Q507.503 2249.34 507.503 2256.47 Q507.503 2263.58 509.309 2267.15 Q511.138 2270.69 514.749 2270.69 Q518.383 2270.69 520.188 2267.15 Q522.017 2263.58 522.017 2256.47 Q522.017 2249.34 520.188 2245.8 Q518.383 2242.24 514.749 2242.24 M514.749 2238.53 Q520.559 2238.53 523.614 2243.14 Q526.693 2247.72 526.693 2256.47 Q526.693 2265.2 523.614 2269.81 Q520.559 2274.39 514.749 2274.39 Q508.938 2274.39 505.86 2269.81 Q502.804 2265.2 502.804 2256.47 Q502.804 2247.72 505.86 2243.14 Q508.938 2238.53 514.749 2238.53 Z" fill="#000000" fill-rule="nonzero" fill-opacity="1" /><path clip-path="url(#clip740)" d="M1047.97 2242.24 Q1044.36 2242.24 1042.53 2245.8 Q1040.72 2249.34 1040.72 2256.47 Q1040.72 2263.58 1042.53 2267.15 Q1044.36 2270.69 1047.97 2270.69 Q1051.6 2270.69 1053.41 2267.15 Q1055.24 2263.58 1055.24 2256.47 Q1055.24 2249.34 1053.41 2245.8 Q1051.6 2242.24 1047.97 2242.24 M1047.97 2238.53 Q1053.78 2238.53 1056.83 2243.14 Q1059.91 2247.72 1059.91 2256.47 Q1059.91 2265.2 1056.83 2269.81 Q1053.78 2274.39 1047.97 2274.39 Q1042.16 2274.39 1039.08 2269.81 Q1036.02 2265.2 1036.02 2256.47 Q1036.02 2247.72 1039.08 2243.14 Q1042.16 2238.53 1047.97 2238.53 Z" fill="#000000" fill-rule="nonzero" fill-opacity="1" /><path clip-path="url(#clip740)" d="M1068.13 2267.84 L1073.01 2267.84 L1073.01 2273.72 L1068.13 2273.72 L1068.13 2267.84 Z" fill="#000000" fill-rule="nonzero" fill-opacity="1" /><path clip-path="url(#clip740)" d="M1087.23 2269.78 L1103.55 2269.78 L1103.55 2273.72 L1081.6 2273.72 L1081.6 2269.78 Q1084.26 2267.03 1088.85 2262.4 Q1093.45 2257.75 1094.63 2256.41 Q1096.88 2253.88 1097.76 2252.15 Q1098.66 2250.39 1098.66 2248.7 Q1098.66 2245.94 1096.72 2244.21 Q1094.8 2242.47 1091.69 2242.47 Q1089.5 2242.47 1087.04 2243.23 Q1084.61 2244 1081.83 2245.55 L1081.83 2240.83 Q1084.66 2239.69 1087.11 2239.11 Q1089.56 2238.53 1091.6 2238.53 Q1096.97 2238.53 1100.17 2241.22 Q1103.36 2243.91 1103.36 2248.4 Q1103.36 2250.53 1102.55 2252.45 Q1101.76 2254.34 1099.66 2256.94 Q1099.08 2257.61 1095.98 2260.83 Q1092.87 2264.02 1087.23 2269.78 Z" fill="#000000" fill-rule="nonzero" fill-opacity="1" /><path clip-path="url(#clip740)" d="M1113.41 2239.16 L1131.76 2239.16 L1131.76 2243.1 L1117.69 2243.1 L1117.69 2251.57 Q1118.71 2251.22 1119.73 2251.06 Q1120.75 2250.87 1121.76 2250.87 Q1127.55 2250.87 1130.93 2254.04 Q1134.31 2257.22 1134.31 2262.63 Q1134.31 2268.21 1130.84 2271.31 Q1127.37 2274.39 1121.05 2274.39 Q1118.87 2274.39 1116.6 2274.02 Q1114.36 2273.65 1111.95 2272.91 L1111.95 2268.21 Q1114.03 2269.34 1116.25 2269.9 Q1118.48 2270.46 1120.95 2270.46 Q1124.96 2270.46 1127.3 2268.35 Q1129.63 2266.24 1129.63 2262.63 Q1129.63 2259.02 1127.3 2256.91 Q1124.96 2254.81 1120.95 2254.81 Q1119.08 2254.81 1117.2 2255.22 Q1115.35 2255.64 1113.41 2256.52 L1113.41 2239.16 Z" fill="#000000" fill-rule="nonzero" fill-opacity="1" /><path clip-path="url(#clip740)" d="M1655.58 2242.24 Q1651.97 2242.24 1650.14 2245.8 Q1648.34 2249.34 1648.34 2256.47 Q1648.34 2263.58 1650.14 2267.15 Q1651.97 2270.69 1655.58 2270.69 Q1659.22 2270.69 1661.02 2267.15 Q1662.85 2263.58 1662.85 2256.47 Q1662.85 2249.34 1661.02 2245.8 Q1659.22 2242.24 1655.58 2242.24 M1655.58 2238.53 Q1661.39 2238.53 1664.45 2243.14 Q1667.53 2247.72 1667.53 2256.47 Q1667.53 2265.2 1664.45 2269.81 Q1661.39 2274.39 1655.58 2274.39 Q1649.77 2274.39 1646.7 2269.81 Q1643.64 2265.2 1643.64 2256.47 Q1643.64 2247.72 1646.7 2243.14 Q1649.77 2238.53 1655.58 2238.53 Z" fill="#000000" fill-rule="nonzero" fill-opacity="1" /><path clip-path="url(#clip740)" d="M1675.75 2267.84 L1680.63 2267.84 L1680.63 2273.72 L1675.75 2273.72 L1675.75 2267.84 Z" fill="#000000" fill-rule="nonzero" fill-opacity="1" /><path clip-path="url(#clip740)" d="M1690.86 2239.16 L1709.22 2239.16 L1709.22 2243.1 L1695.14 2243.1 L1695.14 2251.57 Q1696.16 2251.22 1697.18 2251.06 Q1698.2 2250.87 1699.22 2250.87 Q1705.01 2250.87 1708.39 2254.04 Q1711.76 2257.22 1711.76 2262.63 Q1711.76 2268.21 1708.29 2271.31 Q1704.82 2274.39 1698.5 2274.39 Q1696.33 2274.39 1694.06 2274.02 Q1691.81 2273.65 1689.4 2272.91 L1689.4 2268.21 Q1691.49 2269.34 1693.71 2269.9 Q1695.93 2270.46 1698.41 2270.46 Q1702.41 2270.46 1704.75 2268.35 Q1707.09 2266.24 1707.09 2262.63 Q1707.09 2259.02 1704.75 2256.91 Q1702.41 2254.81 1698.41 2254.81 Q1696.53 2254.81 1694.66 2255.22 Q1692.81 2255.64 1690.86 2256.52 L1690.86 2239.16 Z" fill="#000000" fill-rule="nonzero" fill-opacity="1" /><path clip-path="url(#clip740)" d="M1730.98 2242.24 Q1727.37 2242.24 1725.54 2245.8 Q1723.73 2249.34 1723.73 2256.47 Q1723.73 2263.58 1725.54 2267.15 Q1727.37 2270.69 1730.98 2270.69 Q1734.61 2270.69 1736.42 2267.15 Q1738.25 2263.58 1738.25 2256.47 Q1738.25 2249.34 1736.42 2245.8 Q1734.61 2242.24 1730.98 2242.24 M1730.98 2238.53 Q1736.79 2238.53 1739.84 2243.14 Q1742.92 2247.72 1742.92 2256.47 Q1742.92 2265.2 1739.84 2269.81 Q1736.79 2274.39 1730.98 2274.39 Q1725.17 2274.39 1722.09 2269.81 Q1719.03 2265.2 1719.03 2256.47 Q1719.03 2247.72 1722.09 2243.14 Q1725.17 2238.53 1730.98 2238.53 Z" fill="#000000" fill-rule="nonzero" fill-opacity="1" /><path clip-path="url(#clip740)" d="M2264.2 2242.24 Q2260.59 2242.24 2258.76 2245.8 Q2256.95 2249.34 2256.95 2256.47 Q2256.95 2263.58 2258.76 2267.15 Q2260.59 2270.69 2264.2 2270.69 Q2267.83 2270.69 2269.64 2267.15 Q2271.47 2263.58 2271.47 2256.47 Q2271.47 2249.34 2269.64 2245.8 Q2267.83 2242.24 2264.2 2242.24 M2264.2 2238.53 Q2270.01 2238.53 2273.06 2243.14 Q2276.14 2247.72 2276.14 2256.47 Q2276.14 2265.2 2273.06 2269.81 Q2270.01 2274.39 2264.2 2274.39 Q2258.39 2274.39 2255.31 2269.81 Q2252.25 2265.2 2252.25 2256.47 Q2252.25 2247.72 2255.31 2243.14 Q2258.39 2238.53 2264.2 2238.53 Z" fill="#000000" fill-rule="nonzero" fill-opacity="1" /><path clip-path="url(#clip740)" d="M2284.36 2267.84 L2289.24 2267.84 L2289.24 2273.72 L2284.36 2273.72 L2284.36 2267.84 Z" fill="#000000" fill-rule="nonzero" fill-opacity="1" /><path clip-path="url(#clip740)" d="M2298.25 2239.16 L2320.47 2239.16 L2320.47 2241.15 L2307.92 2273.72 L2303.04 2273.72 L2314.84 2243.1 L2298.25 2243.1 L2298.25 2239.16 Z" fill="#000000" fill-rule="nonzero" fill-opacity="1" /><path clip-path="url(#clip740)" d="M2329.64 2239.16 L2347.99 2239.16 L2347.99 2243.1 L2333.92 2243.1 L2333.92 2251.57 Q2334.94 2251.22 2335.96 2251.06 Q2336.97 2250.87 2337.99 2250.87 Q2343.78 2250.87 2347.16 2254.04 Q2350.54 2257.22 2350.54 2262.63 Q2350.54 2268.21 2347.07 2271.31 Q2343.59 2274.39 2337.28 2274.39 Q2335.1 2274.39 2332.83 2274.02 Q2330.59 2273.65 2328.18 2272.91 L2328.18 2268.21 Q2330.26 2269.34 2332.48 2269.9 Q2334.71 2270.46 2337.18 2270.46 Q2341.19 2270.46 2343.52 2268.35 Q2345.86 2266.24 2345.86 2262.63 Q2345.86 2259.02 2343.52 2256.91 Q2341.19 2254.81 2337.18 2254.81 Q2335.31 2254.81 2333.43 2255.22 Q2331.58 2255.64 2329.64 2256.52 L2329.64 2239.16 Z" fill="#000000" fill-rule="nonzero" fill-opacity="1" /><path clip-path="url(#clip740)" d="M2861.58 2269.78 L2869.22 2269.78 L2869.22 2243.42 L2860.91 2245.09 L2860.91 2240.83 L2869.17 2239.16 L2873.85 2239.16 L2873.85 2269.78 L2881.49 2269.78 L2881.49 2273.72 L2861.58 2273.72 L2861.58 2269.78 Z" fill="#000000" fill-rule="nonzero" fill-opacity="1" /><path clip-path="url(#clip740)" d="M2890.93 2267.84 L2895.82 2267.84 L2895.82 2273.72 L2890.93 2273.72 L2890.93 2267.84 Z" fill="#000000" fill-rule="nonzero" fill-opacity="1" /><path clip-path="url(#clip740)" d="M2916 2242.24 Q2912.39 2242.24 2910.56 2245.8 Q2908.76 2249.34 2908.76 2256.47 Q2908.76 2263.58 2910.56 2267.15 Q2912.39 2270.69 2916 2270.69 Q2919.64 2270.69 2921.44 2267.15 Q2923.27 2263.58 2923.27 2256.47 Q2923.27 2249.34 2921.44 2245.8 Q2919.64 2242.24 2916 2242.24 M2916 2238.53 Q2921.81 2238.53 2924.87 2243.14 Q2927.95 2247.72 2927.95 2256.47 Q2927.95 2265.2 2924.87 2269.81 Q2921.81 2274.39 2916 2274.39 Q2910.19 2274.39 2907.11 2269.81 Q2904.06 2265.2 2904.06 2256.47 Q2904.06 2247.72 2907.11 2243.14 Q2910.19 2238.53 2916 2238.53 Z" fill="#000000" fill-rule="nonzero" fill-opacity="1" /><path clip-path="url(#clip740)" d="M2946.16 2242.24 Q2942.55 2242.24 2940.73 2245.8 Q2938.92 2249.34 2938.92 2256.47 Q2938.92 2263.58 2940.73 2267.15 Q2942.55 2270.69 2946.16 2270.69 Q2949.8 2270.69 2951.6 2267.15 Q2953.43 2263.58 2953.43 2256.47 Q2953.43 2249.34 2951.6 2245.8 Q2949.8 2242.24 2946.16 2242.24 M2946.16 2238.53 Q2951.98 2238.53 2955.03 2243.14 Q2958.11 2247.72 2958.11 2256.47 Q2958.11 2265.2 2955.03 2269.81 Q2951.98 2274.39 2946.16 2274.39 Q2940.35 2274.39 2937.28 2269.81 Q2934.22 2265.2 2934.22 2256.47 Q2934.22 2247.72 2937.28 2243.14 Q2940.35 2238.53 2946.16 2238.53 Z" fill="#000000" fill-rule="nonzero" fill-opacity="1" /><path clip-path="url(#clip740)" d="M1293.55 2315.82 L1293.55 2322.09 Q1289.89 2320.34 1286.64 2319.48 Q1283.39 2318.62 1280.37 2318.62 Q1275.12 2318.62 1272.25 2320.66 Q1269.42 2322.7 1269.42 2326.45 Q1269.42 2329.61 1271.3 2331.23 Q1273.21 2332.82 1278.49 2333.81 L1282.37 2334.6 Q1289.57 2335.97 1292.97 2339.44 Q1296.41 2342.88 1296.41 2348.67 Q1296.41 2355.58 1291.76 2359.14 Q1287.15 2362.71 1278.21 2362.71 Q1274.83 2362.71 1271.01 2361.94 Q1267.22 2361.18 1263.15 2359.68 L1263.15 2353.06 Q1267.07 2355.26 1270.82 2356.37 Q1274.58 2357.49 1278.21 2357.49 Q1283.71 2357.49 1286.7 2355.32 Q1289.7 2353.16 1289.7 2349.15 Q1289.7 2345.65 1287.53 2343.67 Q1285.4 2341.7 1280.5 2340.71 L1276.58 2339.95 Q1269.39 2338.52 1266.17 2335.46 Q1262.96 2332.41 1262.96 2326.96 Q1262.96 2320.66 1267.38 2317.03 Q1271.84 2313.4 1279.64 2313.4 Q1282.98 2313.4 1286.45 2314.01 Q1289.92 2314.61 1293.55 2315.82 Z" fill="#000000" fill-rule="nonzero" fill-opacity="1" /><path clip-path="url(#clip740)" d="M1335.81 2340.27 L1335.81 2361.78 L1329.96 2361.78 L1329.96 2340.46 Q1329.96 2335.4 1327.99 2332.88 Q1326.01 2330.37 1322.06 2330.37 Q1317.32 2330.37 1314.59 2333.39 Q1311.85 2336.42 1311.85 2341.64 L1311.85 2361.78 L1305.96 2361.78 L1305.96 2312.26 L1311.85 2312.26 L1311.85 2331.67 Q1313.95 2328.46 1316.78 2326.87 Q1319.65 2325.28 1323.37 2325.28 Q1329.51 2325.28 1332.66 2329.1 Q1335.81 2332.88 1335.81 2340.27 Z" fill="#000000" fill-rule="nonzero" fill-opacity="1" /><path clip-path="url(#clip740)" d="M1363.7 2343.86 Q1356.6 2343.86 1353.86 2345.49 Q1351.12 2347.11 1351.12 2351.03 Q1351.12 2354.14 1353.16 2355.99 Q1355.23 2357.81 1358.76 2357.81 Q1363.63 2357.81 1366.56 2354.37 Q1369.52 2350.9 1369.52 2345.17 L1369.52 2343.86 L1363.7 2343.86 M1375.38 2341.45 L1375.38 2361.78 L1369.52 2361.78 L1369.52 2356.37 Q1367.52 2359.62 1364.52 2361.18 Q1361.53 2362.71 1357.2 2362.71 Q1351.73 2362.71 1348.48 2359.65 Q1345.27 2356.56 1345.27 2351.41 Q1345.27 2345.39 1349.28 2342.34 Q1353.32 2339.28 1361.31 2339.28 L1369.52 2339.28 L1369.52 2338.71 Q1369.52 2334.67 1366.85 2332.47 Q1364.21 2330.24 1359.4 2330.24 Q1356.34 2330.24 1353.45 2330.97 Q1350.55 2331.71 1347.88 2333.17 L1347.88 2327.76 Q1351.09 2326.52 1354.12 2325.91 Q1357.14 2325.28 1360 2325.28 Q1367.74 2325.28 1371.56 2329.29 Q1375.38 2333.3 1375.38 2341.45 Z" fill="#000000" fill-rule="nonzero" fill-opacity="1" /><path clip-path="url(#clip740)" d="M1408.1 2331.61 Q1407.11 2331.04 1405.93 2330.78 Q1404.79 2330.5 1403.39 2330.5 Q1398.42 2330.5 1395.75 2333.74 Q1393.11 2336.96 1393.11 2343.01 L1393.11 2361.78 L1387.22 2361.78 L1387.22 2326.14 L1393.11 2326.14 L1393.11 2331.67 Q1394.95 2328.43 1397.91 2326.87 Q1400.87 2325.28 1405.11 2325.28 Q1405.71 2325.28 1406.44 2325.37 Q1407.17 2325.44 1408.07 2325.59 L1408.1 2331.61 Z" fill="#000000" fill-rule="nonzero" fill-opacity="1" /><path clip-path="url(#clip740)" d="M1443.3 2342.5 L1443.3 2345.36 L1416.37 2345.36 Q1416.75 2351.41 1420 2354.59 Q1423.28 2357.74 1429.1 2357.74 Q1432.48 2357.74 1435.63 2356.91 Q1438.81 2356.09 1441.93 2354.43 L1441.93 2359.97 Q1438.78 2361.31 1435.47 2362.01 Q1432.16 2362.71 1428.75 2362.71 Q1420.22 2362.71 1415.23 2357.74 Q1410.26 2352.78 1410.26 2344.31 Q1410.26 2335.56 1414.97 2330.43 Q1419.71 2325.28 1427.74 2325.28 Q1434.93 2325.28 1439.1 2329.92 Q1443.3 2334.54 1443.3 2342.5 M1437.44 2340.78 Q1437.38 2335.97 1434.74 2333.11 Q1432.13 2330.24 1427.8 2330.24 Q1422.9 2330.24 1419.94 2333.01 Q1417.01 2335.78 1416.56 2340.81 L1437.44 2340.78 Z" fill="#000000" fill-rule="nonzero" fill-opacity="1" /><path clip-path="url(#clip740)" d="M1487.45 2330.24 Q1482.74 2330.24 1480 2333.93 Q1477.26 2337.59 1477.26 2343.99 Q1477.26 2350.39 1479.97 2354.08 Q1482.7 2357.74 1487.45 2357.74 Q1492.12 2357.74 1494.86 2354.05 Q1497.6 2350.36 1497.6 2343.99 Q1497.6 2337.66 1494.86 2333.97 Q1492.12 2330.24 1487.45 2330.24 M1487.45 2325.28 Q1495.08 2325.28 1499.45 2330.24 Q1503.81 2335.21 1503.81 2343.99 Q1503.81 2352.74 1499.45 2357.74 Q1495.08 2362.71 1487.45 2362.71 Q1479.78 2362.71 1475.41 2357.74 Q1471.09 2352.74 1471.09 2343.99 Q1471.09 2335.21 1475.41 2330.24 Q1479.78 2325.28 1487.45 2325.28 Z" fill="#000000" fill-rule="nonzero" fill-opacity="1" /><path clip-path="url(#clip740)" d="M1531.56 2312.26 L1531.56 2317.13 L1525.96 2317.13 Q1522.81 2317.13 1521.57 2318.4 Q1520.36 2319.67 1520.36 2322.98 L1520.36 2326.14 L1530 2326.14 L1530 2330.69 L1520.36 2330.69 L1520.36 2361.78 L1514.47 2361.78 L1514.47 2330.69 L1508.87 2330.69 L1508.87 2326.14 L1514.47 2326.14 L1514.47 2323.65 Q1514.47 2317.7 1517.24 2315 Q1520.01 2312.26 1526.02 2312.26 L1531.56 2312.26 Z" fill="#000000" fill-rule="nonzero" fill-opacity="1" /><path clip-path="url(#clip740)" d="M1582.84 2327.5 L1582.84 2332.98 Q1580.35 2331.61 1577.84 2330.94 Q1575.36 2330.24 1572.81 2330.24 Q1567.11 2330.24 1563.96 2333.87 Q1560.81 2337.47 1560.81 2343.99 Q1560.81 2350.52 1563.96 2354.14 Q1567.11 2357.74 1572.81 2357.74 Q1575.36 2357.74 1577.84 2357.07 Q1580.35 2356.37 1582.84 2355 L1582.84 2360.42 Q1580.39 2361.56 1577.74 2362.13 Q1575.13 2362.71 1572.17 2362.71 Q1564.12 2362.71 1559.38 2357.65 Q1554.64 2352.59 1554.64 2343.99 Q1554.64 2335.27 1559.41 2330.27 Q1564.22 2325.28 1572.56 2325.28 Q1575.26 2325.28 1577.84 2325.85 Q1580.42 2326.39 1582.84 2327.5 Z" fill="#000000" fill-rule="nonzero" fill-opacity="1" /><path clip-path="url(#clip740)" d="M1622.65 2340.27 L1622.65 2361.78 L1616.8 2361.78 L1616.8 2340.46 Q1616.8 2335.4 1614.82 2332.88 Q1612.85 2330.37 1608.9 2330.37 Q1604.16 2330.37 1601.42 2333.39 Q1598.69 2336.42 1598.69 2341.64 L1598.69 2361.78 L1592.8 2361.78 L1592.8 2312.26 L1598.69 2312.26 L1598.69 2331.67 Q1600.79 2328.46 1603.62 2326.87 Q1606.48 2325.28 1610.21 2325.28 Q1616.35 2325.28 1619.5 2329.1 Q1622.65 2332.88 1622.65 2340.27 Z" fill="#000000" fill-rule="nonzero" fill-opacity="1" /><path clip-path="url(#clip740)" d="M1650.54 2343.86 Q1643.44 2343.86 1640.7 2345.49 Q1637.96 2347.11 1637.96 2351.03 Q1637.96 2354.14 1640 2355.99 Q1642.07 2357.81 1645.6 2357.81 Q1650.47 2357.81 1653.4 2354.37 Q1656.36 2350.9 1656.36 2345.17 L1656.36 2343.86 L1650.54 2343.86 M1662.22 2341.45 L1662.22 2361.78 L1656.36 2361.78 L1656.36 2356.37 Q1654.35 2359.62 1651.36 2361.18 Q1648.37 2362.71 1644.04 2362.71 Q1638.57 2362.71 1635.32 2359.65 Q1632.11 2356.56 1632.11 2351.41 Q1632.11 2345.39 1636.12 2342.34 Q1640.16 2339.28 1648.15 2339.28 L1656.36 2339.28 L1656.36 2338.71 Q1656.36 2334.67 1653.69 2332.47 Q1651.04 2330.24 1646.24 2330.24 Q1643.18 2330.24 1640.29 2330.97 Q1637.39 2331.71 1634.72 2333.17 L1634.72 2327.76 Q1637.93 2326.52 1640.95 2325.91 Q1643.98 2325.28 1646.84 2325.28 Q1654.58 2325.28 1658.4 2329.29 Q1662.22 2333.3 1662.22 2341.45 Z" fill="#000000" fill-rule="nonzero" fill-opacity="1" /><path clip-path="url(#clip740)" d="M1703.91 2340.27 L1703.91 2361.78 L1698.06 2361.78 L1698.06 2340.46 Q1698.06 2335.4 1696.08 2332.88 Q1694.11 2330.37 1690.16 2330.37 Q1685.42 2330.37 1682.68 2333.39 Q1679.94 2336.42 1679.94 2341.64 L1679.94 2361.78 L1674.06 2361.78 L1674.06 2326.14 L1679.94 2326.14 L1679.94 2331.67 Q1682.05 2328.46 1684.88 2326.87 Q1687.74 2325.28 1691.47 2325.28 Q1697.61 2325.28 1700.76 2329.1 Q1703.91 2332.88 1703.91 2340.27 Z" fill="#000000" fill-rule="nonzero" fill-opacity="1" /><path clip-path="url(#clip740)" d="M1739.05 2343.55 Q1739.05 2337.18 1736.41 2333.68 Q1733.8 2330.18 1729.06 2330.18 Q1724.35 2330.18 1721.7 2333.68 Q1719.09 2337.18 1719.09 2343.55 Q1719.09 2349.88 1721.7 2353.38 Q1724.35 2356.88 1729.06 2356.88 Q1733.8 2356.88 1736.41 2353.38 Q1739.05 2349.88 1739.05 2343.55 M1744.91 2357.36 Q1744.91 2366.46 1740.86 2370.89 Q1736.82 2375.34 1728.48 2375.34 Q1725.4 2375.34 1722.66 2374.87 Q1719.92 2374.42 1717.34 2373.46 L1717.34 2367.77 Q1719.92 2369.17 1722.44 2369.84 Q1724.95 2370.5 1727.56 2370.5 Q1733.32 2370.5 1736.19 2367.48 Q1739.05 2364.49 1739.05 2358.41 L1739.05 2355.51 Q1737.24 2358.66 1734.4 2360.22 Q1731.57 2361.78 1727.62 2361.78 Q1721.07 2361.78 1717.06 2356.79 Q1713.05 2351.79 1713.05 2343.55 Q1713.05 2335.27 1717.06 2330.27 Q1721.07 2325.28 1727.62 2325.28 Q1731.57 2325.28 1734.4 2326.84 Q1737.24 2328.4 1739.05 2331.55 L1739.05 2326.14 L1744.91 2326.14 L1744.91 2357.36 Z" fill="#000000" fill-rule="nonzero" fill-opacity="1" /><path clip-path="url(#clip740)" d="M1787.46 2342.5 L1787.46 2345.36 L1760.53 2345.36 Q1760.92 2351.41 1764.16 2354.59 Q1767.44 2357.74 1773.27 2357.74 Q1776.64 2357.74 1779.79 2356.91 Q1782.97 2356.09 1786.09 2354.43 L1786.09 2359.97 Q1782.94 2361.31 1779.63 2362.01 Q1776.32 2362.71 1772.92 2362.71 Q1764.39 2362.71 1759.39 2357.74 Q1754.42 2352.78 1754.42 2344.31 Q1754.42 2335.56 1759.13 2330.43 Q1763.88 2325.28 1771.9 2325.28 Q1779.09 2325.28 1783.26 2329.92 Q1787.46 2334.54 1787.46 2342.5 M1781.61 2340.78 Q1781.54 2335.97 1778.9 2333.11 Q1776.29 2330.24 1771.96 2330.24 Q1767.06 2330.24 1764.1 2333.01 Q1761.17 2335.78 1760.73 2340.81 L1781.61 2340.78 Z" fill="#000000" fill-rule="nonzero" fill-opacity="1" /><path clip-path="url(#clip740)" d="M1848.29 2342.5 L1848.29 2345.36 L1821.36 2345.36 Q1821.74 2351.41 1824.99 2354.59 Q1828.27 2357.74 1834.09 2357.74 Q1837.46 2357.74 1840.62 2356.91 Q1843.8 2356.09 1846.92 2354.43 L1846.92 2359.97 Q1843.77 2361.31 1840.46 2362.01 Q1837.15 2362.71 1833.74 2362.71 Q1825.21 2362.71 1820.21 2357.74 Q1815.25 2352.78 1815.25 2344.31 Q1815.25 2335.56 1819.96 2330.43 Q1824.7 2325.28 1832.72 2325.28 Q1839.92 2325.28 1844.08 2329.92 Q1848.29 2334.54 1848.29 2342.5 M1842.43 2340.78 Q1842.37 2335.97 1839.72 2333.11 Q1837.11 2330.24 1832.79 2330.24 Q1827.88 2330.24 1824.92 2333.01 Q1822 2335.78 1821.55 2340.81 L1842.43 2340.78 Z" fill="#000000" fill-rule="nonzero" fill-opacity="1" /><path clip-path="url(#clip740)" d="M1886.38 2326.14 L1873.49 2343.48 L1887.05 2361.78 L1880.15 2361.78 L1869.77 2347.78 L1859.39 2361.78 L1852.49 2361.78 L1866.33 2343.13 L1853.67 2326.14 L1860.57 2326.14 L1870.02 2338.84 L1879.48 2326.14 L1886.38 2326.14 Z" fill="#000000" fill-rule="nonzero" fill-opacity="1" /><path clip-path="url(#clip740)" d="M1900.99 2356.44 L1900.99 2375.34 L1895.11 2375.34 L1895.11 2326.14 L1900.99 2326.14 L1900.99 2331.55 Q1902.84 2328.36 1905.64 2326.84 Q1908.47 2325.28 1912.39 2325.28 Q1918.88 2325.28 1922.92 2330.43 Q1927 2335.59 1927 2343.99 Q1927 2352.39 1922.92 2357.55 Q1918.88 2362.71 1912.39 2362.71 Q1908.47 2362.71 1905.64 2361.18 Q1902.84 2359.62 1900.99 2356.44 M1920.92 2343.99 Q1920.92 2337.53 1918.25 2333.87 Q1915.6 2330.18 1910.96 2330.18 Q1906.31 2330.18 1903.64 2333.87 Q1900.99 2337.53 1900.99 2343.99 Q1900.99 2350.45 1903.64 2354.14 Q1906.31 2357.81 1910.96 2357.81 Q1915.6 2357.81 1918.25 2354.14 Q1920.92 2350.45 1920.92 2343.99 Z" fill="#000000" fill-rule="nonzero" fill-opacity="1" /><path clip-path="url(#clip740)" d="M1936.71 2312.26 L1942.56 2312.26 L1942.56 2361.78 L1936.71 2361.78 L1936.71 2312.26 Z" fill="#000000" fill-rule="nonzero" fill-opacity="1" /><path clip-path="url(#clip740)" d="M1971.02 2343.86 Q1963.92 2343.86 1961.18 2345.49 Q1958.44 2347.11 1958.44 2351.03 Q1958.44 2354.14 1960.48 2355.99 Q1962.55 2357.81 1966.08 2357.81 Q1970.95 2357.81 1973.88 2354.37 Q1976.84 2350.9 1976.84 2345.17 L1976.84 2343.86 L1971.02 2343.86 M1982.7 2341.45 L1982.7 2361.78 L1976.84 2361.78 L1976.84 2356.37 Q1974.84 2359.62 1971.84 2361.18 Q1968.85 2362.71 1964.52 2362.71 Q1959.05 2362.71 1955.8 2359.65 Q1952.59 2356.56 1952.59 2351.41 Q1952.59 2345.39 1956.6 2342.34 Q1960.64 2339.28 1968.63 2339.28 L1976.84 2339.28 L1976.84 2338.71 Q1976.84 2334.67 1974.17 2332.47 Q1971.53 2330.24 1966.72 2330.24 Q1963.66 2330.24 1960.77 2330.97 Q1957.87 2331.71 1955.2 2333.17 L1955.2 2327.76 Q1958.41 2326.52 1961.44 2325.91 Q1964.46 2325.28 1967.32 2325.28 Q1975.06 2325.28 1978.88 2329.29 Q1982.7 2333.3 1982.7 2341.45 Z" fill="#000000" fill-rule="nonzero" fill-opacity="1" /><path clip-path="url(#clip740)" d="M1994.76 2326.14 L2000.62 2326.14 L2000.62 2361.78 L1994.76 2361.78 L1994.76 2326.14 M1994.76 2312.26 L2000.62 2312.26 L2000.62 2319.67 L1994.76 2319.67 L1994.76 2312.26 Z" fill="#000000" fill-rule="nonzero" fill-opacity="1" /><path clip-path="url(#clip740)" d="M2042.5 2340.27 L2042.5 2361.78 L2036.65 2361.78 L2036.65 2340.46 Q2036.65 2335.4 2034.67 2332.88 Q2032.7 2330.37 2028.75 2330.37 Q2024.01 2330.37 2021.27 2333.39 Q2018.54 2336.42 2018.54 2341.64 L2018.54 2361.78 L2012.65 2361.78 L2012.65 2326.14 L2018.54 2326.14 L2018.54 2331.67 Q2020.64 2328.46 2023.47 2326.87 Q2026.33 2325.28 2030.06 2325.28 Q2036.2 2325.28 2039.35 2329.1 Q2042.5 2332.88 2042.5 2340.27 Z" fill="#000000" fill-rule="nonzero" fill-opacity="1" /><path clip-path="url(#clip740)" d="M2084.68 2342.5 L2084.68 2345.36 L2057.75 2345.36 Q2058.13 2351.41 2061.38 2354.59 Q2064.66 2357.74 2070.48 2357.74 Q2073.85 2357.74 2077.01 2356.91 Q2080.19 2356.09 2083.31 2354.43 L2083.31 2359.97 Q2080.16 2361.31 2076.85 2362.01 Q2073.54 2362.71 2070.13 2362.71 Q2061.6 2362.71 2056.6 2357.74 Q2051.64 2352.78 2051.64 2344.31 Q2051.64 2335.56 2056.35 2330.43 Q2061.09 2325.28 2069.11 2325.28 Q2076.31 2325.28 2080.48 2329.92 Q2084.68 2334.54 2084.68 2342.5 M2078.82 2340.78 Q2078.76 2335.97 2076.11 2333.11 Q2073.5 2330.24 2069.18 2330.24 Q2064.27 2330.24 2061.31 2333.01 Q2058.39 2335.78 2057.94 2340.81 L2078.82 2340.78 Z" fill="#000000" fill-rule="nonzero" fill-opacity="1" /><path clip-path="url(#clip740)" d="M2117.75 2331.55 L2117.75 2312.26 L2123.6 2312.26 L2123.6 2361.78 L2117.75 2361.78 L2117.75 2356.44 Q2115.9 2359.62 2113.07 2361.18 Q2110.27 2362.71 2106.32 2362.71 Q2099.86 2362.71 2095.78 2357.55 Q2091.74 2352.39 2091.74 2343.99 Q2091.74 2335.59 2095.78 2330.43 Q2099.86 2325.28 2106.32 2325.28 Q2110.27 2325.28 2113.07 2326.84 Q2115.9 2328.36 2117.75 2331.55 M2097.79 2343.99 Q2097.79 2350.45 2100.43 2354.14 Q2103.11 2357.81 2107.75 2357.81 Q2112.4 2357.81 2115.07 2354.14 Q2117.75 2350.45 2117.75 2343.99 Q2117.75 2337.53 2115.07 2333.87 Q2112.4 2330.18 2107.75 2330.18 Q2103.11 2330.18 2100.43 2333.87 Q2097.79 2337.53 2097.79 2343.99 Z" fill="#000000" fill-rule="nonzero" fill-opacity="1" /><polyline clip-path="url(#clip742)" style="stroke:#000000; stroke-linecap:round; stroke-linejoin:round; stroke-width:2; stroke-opacity:0.1; fill:none" points="233.806,2143.86 3152.76,2143.86 "/>
<polyline clip-path="url(#clip742)" style="stroke:#000000; stroke-linecap:round; stroke-linejoin:round; stroke-width:2; stroke-opacity:0.1; fill:none" points="233.806,1826 3152.76,1826 "/>
<polyline clip-path="url(#clip742)" style="stroke:#000000; stroke-linecap:round; stroke-linejoin:round; stroke-width:2; stroke-opacity:0.1; fill:none" points="233.806,1508.14 3152.76,1508.14 "/>
<polyline clip-path="url(#clip742)" style="stroke:#000000; stroke-linecap:round; stroke-linejoin:round; stroke-width:2; stroke-opacity:0.1; fill:none" points="233.806,1190.28 3152.76,1190.28 "/>
<polyline clip-path="url(#clip742)" style="stroke:#000000; stroke-linecap:round; stroke-linejoin:round; stroke-width:2; stroke-opacity:0.1; fill:none" points="233.806,872.417 3152.76,872.417 "/>
<polyline clip-path="url(#clip742)" style="stroke:#000000; stroke-linecap:round; stroke-linejoin:round; stroke-width:2; stroke-opacity:0.1; fill:none" points="233.806,554.555 3152.76,554.555 "/>
<polyline clip-path="url(#clip742)" style="stroke:#000000; stroke-linecap:round; stroke-linejoin:round; stroke-width:2; stroke-opacity:0.1; fill:none" points="233.806,236.694 3152.76,236.694 "/>
<polyline clip-path="url(#clip740)" style="stroke:#000000; stroke-linecap:round; stroke-linejoin:round; stroke-width:4; stroke-opacity:1; fill:none" points="233.806,2204.92 233.806,47.2441 "/>
<polyline clip-path="url(#clip740)" style="stroke:#000000; stroke-linecap:round; stroke-linejoin:round; stroke-width:4; stroke-opacity:1; fill:none" points="233.806,2143.86 252.704,2143.86 "/>
<polyline clip-path="url(#clip740)" style="stroke:#000000; stroke-linecap:round; stroke-linejoin:round; stroke-width:4; stroke-opacity:1; fill:none" points="233.806,1826 252.704,1826 "/>
<polyline clip-path="url(#clip740)" style="stroke:#000000; stroke-linecap:round; stroke-linejoin:round; stroke-width:4; stroke-opacity:1; fill:none" points="233.806,1508.14 252.704,1508.14 "/>
<polyline clip-path="url(#clip740)" style="stroke:#000000; stroke-linecap:round; stroke-linejoin:round; stroke-width:4; stroke-opacity:1; fill:none" points="233.806,1190.28 252.704,1190.28 "/>
<polyline clip-path="url(#clip740)" style="stroke:#000000; stroke-linecap:round; stroke-linejoin:round; stroke-width:4; stroke-opacity:1; fill:none" points="233.806,872.417 252.704,872.417 "/>
<polyline clip-path="url(#clip740)" style="stroke:#000000; stroke-linecap:round; stroke-linejoin:round; stroke-width:4; stroke-opacity:1; fill:none" points="233.806,554.555 252.704,554.555 "/>
<polyline clip-path="url(#clip740)" style="stroke:#000000; stroke-linecap:round; stroke-linejoin:round; stroke-width:4; stroke-opacity:1; fill:none" points="233.806,236.694 252.704,236.694 "/>
<path clip-path="url(#clip740)" d="M128.631 2129.66 Q125.02 2129.66 123.191 2133.23 Q121.385 2136.77 121.385 2143.9 Q121.385 2151 123.191 2154.57 Q125.02 2158.11 128.631 2158.11 Q132.265 2158.11 134.07 2154.57 Q135.899 2151 135.899 2143.9 Q135.899 2136.77 134.07 2133.23 Q132.265 2129.66 128.631 2129.66 M128.631 2125.96 Q134.441 2125.96 137.496 2130.56 Q140.575 2135.15 140.575 2143.9 Q140.575 2152.63 137.496 2157.23 Q134.441 2161.81 128.631 2161.81 Q122.82 2161.81 119.742 2157.23 Q116.686 2152.63 116.686 2143.9 Q116.686 2135.15 119.742 2130.56 Q122.82 2125.96 128.631 2125.96 Z" fill="#000000" fill-rule="nonzero" fill-opacity="1" /><path clip-path="url(#clip740)" d="M148.793 2155.26 L153.677 2155.26 L153.677 2161.14 L148.793 2161.14 L148.793 2155.26 Z" fill="#000000" fill-rule="nonzero" fill-opacity="1" /><path clip-path="url(#clip740)" d="M173.862 2129.66 Q170.251 2129.66 168.422 2133.23 Q166.617 2136.77 166.617 2143.9 Q166.617 2151 168.422 2154.57 Q170.251 2158.11 173.862 2158.11 Q177.496 2158.11 179.302 2154.57 Q181.13 2151 181.13 2143.9 Q181.13 2136.77 179.302 2133.23 Q177.496 2129.66 173.862 2129.66 M173.862 2125.96 Q179.672 2125.96 182.728 2130.56 Q185.806 2135.15 185.806 2143.9 Q185.806 2152.63 182.728 2157.23 Q179.672 2161.81 173.862 2161.81 Q168.052 2161.81 164.973 2157.23 Q161.918 2152.63 161.918 2143.9 Q161.918 2135.15 164.973 2130.56 Q168.052 2125.96 173.862 2125.96 Z" fill="#000000" fill-rule="nonzero" fill-opacity="1" /><path clip-path="url(#clip740)" d="M130.228 1811.8 Q126.617 1811.8 124.788 1815.37 Q122.983 1818.91 122.983 1826.04 Q122.983 1833.14 124.788 1836.71 Q126.617 1840.25 130.228 1840.25 Q133.862 1840.25 135.668 1836.71 Q137.496 1833.14 137.496 1826.04 Q137.496 1818.91 135.668 1815.37 Q133.862 1811.8 130.228 1811.8 M130.228 1808.1 Q136.038 1808.1 139.094 1812.7 Q142.172 1817.29 142.172 1826.04 Q142.172 1834.76 139.094 1839.37 Q136.038 1843.95 130.228 1843.95 Q124.418 1843.95 121.339 1839.37 Q118.283 1834.76 118.283 1826.04 Q118.283 1817.29 121.339 1812.7 Q124.418 1808.1 130.228 1808.1 Z" fill="#000000" fill-rule="nonzero" fill-opacity="1" /><path clip-path="url(#clip740)" d="M150.39 1837.4 L155.274 1837.4 L155.274 1843.28 L150.39 1843.28 L150.39 1837.4 Z" fill="#000000" fill-rule="nonzero" fill-opacity="1" /><path clip-path="url(#clip740)" d="M169.487 1839.35 L185.806 1839.35 L185.806 1843.28 L163.862 1843.28 L163.862 1839.35 Q166.524 1836.59 171.107 1831.96 Q175.714 1827.31 176.894 1825.97 Q179.14 1823.44 180.019 1821.71 Q180.922 1819.95 180.922 1818.26 Q180.922 1815.5 178.978 1813.77 Q177.056 1812.03 173.954 1812.03 Q171.755 1812.03 169.302 1812.8 Q166.871 1813.56 164.093 1815.11 L164.093 1810.39 Q166.917 1809.25 169.371 1808.68 Q171.825 1808.1 173.862 1808.1 Q179.232 1808.1 182.427 1810.78 Q185.621 1813.47 185.621 1817.96 Q185.621 1820.09 184.811 1822.01 Q184.024 1823.91 181.917 1826.5 Q181.339 1827.17 178.237 1830.39 Q175.135 1833.58 169.487 1839.35 Z" fill="#000000" fill-rule="nonzero" fill-opacity="1" /><path clip-path="url(#clip740)" d="M128.145 1493.94 Q124.533 1493.94 122.705 1497.5 Q120.899 1501.05 120.899 1508.17 Q120.899 1515.28 122.705 1518.85 Q124.533 1522.39 128.145 1522.39 Q131.779 1522.39 133.584 1518.85 Q135.413 1515.28 135.413 1508.17 Q135.413 1501.05 133.584 1497.5 Q131.779 1493.94 128.145 1493.94 M128.145 1490.24 Q133.955 1490.24 137.01 1494.84 Q140.089 1499.42 140.089 1508.17 Q140.089 1516.9 137.01 1521.51 Q133.955 1526.09 128.145 1526.09 Q122.334 1526.09 119.256 1521.51 Q116.2 1516.9 116.2 1508.17 Q116.2 1499.42 119.256 1494.84 Q122.334 1490.24 128.145 1490.24 Z" fill="#000000" fill-rule="nonzero" fill-opacity="1" /><path clip-path="url(#clip740)" d="M148.306 1519.54 L153.191 1519.54 L153.191 1525.42 L148.306 1525.42 L148.306 1519.54 Z" fill="#000000" fill-rule="nonzero" fill-opacity="1" /><path clip-path="url(#clip740)" d="M176.223 1494.93 L164.417 1513.38 L176.223 1513.38 L176.223 1494.93 M174.996 1490.86 L180.876 1490.86 L180.876 1513.38 L185.806 1513.38 L185.806 1517.27 L180.876 1517.27 L180.876 1525.42 L176.223 1525.42 L176.223 1517.27 L160.621 1517.27 L160.621 1512.76 L174.996 1490.86 Z" fill="#000000" fill-rule="nonzero" fill-opacity="1" /><path clip-path="url(#clip740)" d="M128.469 1176.08 Q124.858 1176.08 123.029 1179.64 Q121.223 1183.18 121.223 1190.31 Q121.223 1197.42 123.029 1200.98 Q124.858 1204.53 128.469 1204.53 Q132.103 1204.53 133.908 1200.98 Q135.737 1197.42 135.737 1190.31 Q135.737 1183.18 133.908 1179.64 Q132.103 1176.08 128.469 1176.08 M128.469 1172.37 Q134.279 1172.37 137.334 1176.98 Q140.413 1181.56 140.413 1190.31 Q140.413 1199.04 137.334 1203.65 Q134.279 1208.23 128.469 1208.23 Q122.658 1208.23 119.58 1203.65 Q116.524 1199.04 116.524 1190.31 Q116.524 1181.56 119.58 1176.98 Q122.658 1172.37 128.469 1172.37 Z" fill="#000000" fill-rule="nonzero" fill-opacity="1" /><path clip-path="url(#clip740)" d="M148.631 1201.68 L153.515 1201.68 L153.515 1207.56 L148.631 1207.56 L148.631 1201.68 Z" fill="#000000" fill-rule="nonzero" fill-opacity="1" /><path clip-path="url(#clip740)" d="M174.279 1188.42 Q171.13 1188.42 169.279 1190.57 Q167.45 1192.72 167.45 1196.47 Q167.45 1200.2 169.279 1202.37 Q171.13 1204.53 174.279 1204.53 Q177.427 1204.53 179.255 1202.37 Q181.107 1200.2 181.107 1196.47 Q181.107 1192.72 179.255 1190.57 Q177.427 1188.42 174.279 1188.42 M183.561 1173.76 L183.561 1178.02 Q181.802 1177.19 179.996 1176.75 Q178.214 1176.31 176.454 1176.31 Q171.825 1176.31 169.371 1179.43 Q166.941 1182.56 166.593 1188.88 Q167.959 1186.86 170.019 1185.8 Q172.079 1184.71 174.556 1184.71 Q179.765 1184.71 182.774 1187.88 Q185.806 1191.03 185.806 1196.47 Q185.806 1201.79 182.658 1205.01 Q179.51 1208.23 174.279 1208.23 Q168.283 1208.23 165.112 1203.65 Q161.941 1199.04 161.941 1190.31 Q161.941 1182.12 165.83 1177.26 Q169.718 1172.37 176.269 1172.37 Q178.029 1172.37 179.811 1172.72 Q181.616 1173.07 183.561 1173.76 Z" fill="#000000" fill-rule="nonzero" fill-opacity="1" /><path clip-path="url(#clip740)" d="M128.723 858.216 Q125.112 858.216 123.283 861.78 Q121.478 865.322 121.478 872.452 Q121.478 879.558 123.283 883.123 Q125.112 886.665 128.723 886.665 Q132.357 886.665 134.163 883.123 Q135.992 879.558 135.992 872.452 Q135.992 865.322 134.163 861.78 Q132.357 858.216 128.723 858.216 M128.723 854.512 Q134.533 854.512 137.589 859.118 Q140.668 863.702 140.668 872.452 Q140.668 881.178 137.589 885.785 Q134.533 890.368 128.723 890.368 Q122.913 890.368 119.834 885.785 Q116.779 881.178 116.779 872.452 Q116.779 863.702 119.834 859.118 Q122.913 854.512 128.723 854.512 Z" fill="#000000" fill-rule="nonzero" fill-opacity="1" /><path clip-path="url(#clip740)" d="M148.885 883.817 L153.769 883.817 L153.769 889.697 L148.885 889.697 L148.885 883.817 Z" fill="#000000" fill-rule="nonzero" fill-opacity="1" /><path clip-path="url(#clip740)" d="M173.954 873.285 Q170.621 873.285 168.7 875.067 Q166.802 876.85 166.802 879.975 Q166.802 883.1 168.7 884.882 Q170.621 886.665 173.954 886.665 Q177.288 886.665 179.209 884.882 Q181.13 883.077 181.13 879.975 Q181.13 876.85 179.209 875.067 Q177.311 873.285 173.954 873.285 M169.279 871.294 Q166.269 870.554 164.58 868.493 Q162.913 866.433 162.913 863.47 Q162.913 859.327 165.853 856.919 Q168.816 854.512 173.954 854.512 Q179.116 854.512 182.056 856.919 Q184.996 859.327 184.996 863.47 Q184.996 866.433 183.306 868.493 Q181.64 870.554 178.654 871.294 Q182.033 872.081 183.908 874.373 Q185.806 876.665 185.806 879.975 Q185.806 884.998 182.728 887.683 Q179.672 890.368 173.954 890.368 Q168.237 890.368 165.158 887.683 Q162.103 884.998 162.103 879.975 Q162.103 876.665 164.001 874.373 Q165.899 872.081 169.279 871.294 M167.566 863.91 Q167.566 866.595 169.232 868.1 Q170.922 869.604 173.954 869.604 Q176.964 869.604 178.654 868.1 Q180.366 866.595 180.366 863.91 Q180.366 861.225 178.654 859.72 Q176.964 858.216 173.954 858.216 Q170.922 858.216 169.232 859.72 Q167.566 861.225 167.566 863.91 Z" fill="#000000" fill-rule="nonzero" fill-opacity="1" /><path clip-path="url(#clip740)" d="M119.441 567.9 L127.08 567.9 L127.08 541.535 L118.77 543.201 L118.77 538.942 L127.033 537.275 L131.709 537.275 L131.709 567.9 L139.348 567.9 L139.348 571.835 L119.441 571.835 L119.441 567.9 Z" fill="#000000" fill-rule="nonzero" fill-opacity="1" /><path clip-path="url(#clip740)" d="M148.793 565.956 L153.677 565.956 L153.677 571.835 L148.793 571.835 L148.793 565.956 Z" fill="#000000" fill-rule="nonzero" fill-opacity="1" /><path clip-path="url(#clip740)" d="M173.862 540.354 Q170.251 540.354 168.422 543.919 Q166.617 547.46 166.617 554.59 Q166.617 561.696 168.422 565.261 Q170.251 568.803 173.862 568.803 Q177.496 568.803 179.302 565.261 Q181.13 561.696 181.13 554.59 Q181.13 547.46 179.302 543.919 Q177.496 540.354 173.862 540.354 M173.862 536.65 Q179.672 536.65 182.728 541.257 Q185.806 545.84 185.806 554.59 Q185.806 563.317 182.728 567.923 Q179.672 572.507 173.862 572.507 Q168.052 572.507 164.973 567.923 Q161.918 563.317 161.918 554.59 Q161.918 545.84 164.973 541.257 Q168.052 536.65 173.862 536.65 Z" fill="#000000" fill-rule="nonzero" fill-opacity="1" /><path clip-path="url(#clip740)" d="M121.038 250.039 L128.677 250.039 L128.677 223.673 L120.367 225.34 L120.367 221.08 L128.631 219.414 L133.307 219.414 L133.307 250.039 L140.945 250.039 L140.945 253.974 L121.038 253.974 L121.038 250.039 Z" fill="#000000" fill-rule="nonzero" fill-opacity="1" /><path clip-path="url(#clip740)" d="M150.39 248.094 L155.274 248.094 L155.274 253.974 L150.39 253.974 L150.39 248.094 Z" fill="#000000" fill-rule="nonzero" fill-opacity="1" /><path clip-path="url(#clip740)" d="M169.487 250.039 L185.806 250.039 L185.806 253.974 L163.862 253.974 L163.862 250.039 Q166.524 247.284 171.107 242.654 Q175.714 238.002 176.894 236.659 Q179.14 234.136 180.019 232.4 Q180.922 230.64 180.922 228.951 Q180.922 226.196 178.978 224.46 Q177.056 222.724 173.954 222.724 Q171.755 222.724 169.302 223.488 Q166.871 224.252 164.093 225.803 L164.093 221.08 Q166.917 219.946 169.371 219.367 Q171.825 218.789 173.862 218.789 Q179.232 218.789 182.427 221.474 Q185.621 224.159 185.621 228.65 Q185.621 230.779 184.811 232.701 Q184.024 234.599 181.917 237.191 Q181.339 237.863 178.237 241.08 Q175.135 244.275 169.487 250.039 Z" fill="#000000" fill-rule="nonzero" fill-opacity="1" /><path clip-path="url(#clip740)" d="M23.7071 1216.81 L4.41896 1216.81 L4.41896 1210.95 L53.9442 1210.95 L53.9442 1216.81 L48.597 1216.81 Q51.7798 1218.66 53.3394 1221.49 Q54.8672 1224.29 54.8672 1228.24 Q54.8672 1234.7 49.711 1238.77 Q44.5547 1242.81 36.152 1242.81 Q27.7493 1242.81 22.5931 1238.77 Q17.4368 1234.7 17.4368 1228.24 Q17.4368 1224.29 18.9964 1221.49 Q20.5242 1218.66 23.7071 1216.81 M36.152 1236.77 Q42.6132 1236.77 46.3053 1234.12 Q49.9656 1231.45 49.9656 1226.8 Q49.9656 1222.16 46.3053 1219.48 Q42.6132 1216.81 36.152 1216.81 Q29.6908 1216.81 26.0305 1219.48 Q22.3384 1222.16 22.3384 1226.8 Q22.3384 1231.45 26.0305 1234.12 Q29.6908 1236.77 36.152 1236.77 Z" fill="#000000" fill-rule="nonzero" fill-opacity="1" /><path clip-path="url(#clip740)" d="M34.6561 1168.4 L37.5206 1168.4 L37.5206 1195.32 Q43.5681 1194.94 46.7509 1191.7 Q49.9019 1188.42 49.9019 1182.59 Q49.9019 1179.22 49.0744 1176.07 Q48.2469 1172.89 46.5918 1169.77 L52.1299 1169.77 Q53.4667 1172.92 54.167 1176.23 Q54.8672 1179.54 54.8672 1182.94 Q54.8672 1191.47 49.9019 1196.47 Q44.9367 1201.44 36.4703 1201.44 Q27.7174 1201.44 22.5931 1196.73 Q17.4368 1191.98 17.4368 1183.96 Q17.4368 1176.77 22.0838 1172.6 Q26.6989 1168.4 34.6561 1168.4 M32.9373 1174.25 Q28.1312 1174.32 25.2666 1176.96 Q22.4021 1179.57 22.4021 1183.9 Q22.4021 1188.8 25.1712 1191.76 Q27.9402 1194.69 32.9692 1195.13 L32.9373 1174.25 Z" fill="#000000" fill-rule="nonzero" fill-opacity="1" /><path clip-path="url(#clip740)" d="M32.4281 1129.15 L53.9442 1129.15 L53.9442 1135.01 L32.619 1135.01 Q27.5583 1135.01 25.0438 1136.98 Q22.5294 1138.96 22.5294 1142.9 Q22.5294 1147.65 25.5531 1150.38 Q28.5768 1153.12 33.7967 1153.12 L53.9442 1153.12 L53.9442 1159.01 L18.2962 1159.01 L18.2962 1153.12 L23.8344 1153.12 Q20.6197 1151.02 19.0283 1148.19 Q17.4368 1145.32 17.4368 1141.6 Q17.4368 1135.46 21.2563 1132.3 Q25.0438 1129.15 32.4281 1129.15 Z" fill="#000000" fill-rule="nonzero" fill-opacity="1" /><path clip-path="url(#clip740)" d="M19.3465 1094.75 L24.8847 1094.75 Q23.6116 1097.23 22.975 1099.9 Q22.3384 1102.58 22.3384 1105.44 Q22.3384 1109.8 23.6752 1112 Q25.012 1114.16 27.6856 1114.16 Q29.7226 1114.16 30.9003 1112.6 Q32.0461 1111.04 33.0965 1106.33 L33.5421 1104.33 Q34.8789 1098.09 37.3297 1095.48 Q39.7486 1092.84 44.1091 1092.84 Q49.0744 1092.84 51.9708 1096.78 Q54.8672 1100.7 54.8672 1107.57 Q54.8672 1110.44 54.2943 1113.56 Q53.7532 1116.64 52.6392 1120.08 L46.5918 1120.08 Q48.2787 1116.84 49.138 1113.68 Q49.9656 1110.53 49.9656 1107.45 Q49.9656 1103.31 48.5651 1101.08 Q47.1329 1098.85 44.5547 1098.85 Q42.1676 1098.85 40.8945 1100.48 Q39.6213 1102.07 38.4437 1107.51 L37.9662 1109.55 Q36.8204 1114.99 34.4651 1117.41 Q32.078 1119.83 27.9402 1119.83 Q22.9113 1119.83 20.1741 1116.26 Q17.4368 1112.7 17.4368 1106.14 Q17.4368 1102.89 17.9143 1100.03 Q18.3917 1097.17 19.3465 1094.75 Z" fill="#000000" fill-rule="nonzero" fill-opacity="1" /><path clip-path="url(#clip740)" d="M18.2962 1083.51 L18.2962 1077.65 L53.9442 1077.65 L53.9442 1083.51 L18.2962 1083.51 M4.41896 1083.51 L4.41896 1077.65 L11.835 1077.65 L11.835 1083.51 L4.41896 1083.51 Z" fill="#000000" fill-rule="nonzero" fill-opacity="1" /><path clip-path="url(#clip740)" d="M8.17473 1059.61 L18.2962 1059.61 L18.2962 1047.55 L22.8477 1047.55 L22.8477 1059.61 L42.1994 1059.61 Q46.5599 1059.61 47.8013 1058.43 Q49.0426 1057.22 49.0426 1053.56 L49.0426 1047.55 L53.9442 1047.55 L53.9442 1053.56 Q53.9442 1060.34 51.4297 1062.92 Q48.8834 1065.5 42.1994 1065.5 L22.8477 1065.5 L22.8477 1069.79 L18.2962 1069.79 L18.2962 1065.5 L8.17473 1065.5 L8.17473 1059.61 Z" fill="#000000" fill-rule="nonzero" fill-opacity="1" /><path clip-path="url(#clip740)" d="M57.2543 1025.01 Q63.62 1027.49 65.5616 1029.85 Q67.5031 1032.2 67.5031 1036.15 L67.5031 1040.83 L62.6015 1040.83 L62.6015 1037.39 Q62.6015 1034.97 61.4557 1033.64 Q60.3099 1032.3 56.0448 1030.68 L53.3712 1029.63 L18.2962 1044.04 L18.2962 1037.84 L46.178 1026.7 L18.2962 1015.56 L18.2962 1009.35 L57.2543 1025.01 Z" fill="#000000" fill-rule="nonzero" fill-opacity="1" /><polyline clip-path="url(#clip742)" style="stroke:#009af9; stroke-linecap:round; stroke-linejoin:round; stroke-width:20; stroke-opacity:1; fill:none" points="-6533.39,2143.83 -6475.25,2143.82 -6417.12,2143.8 -6358.99,2143.77 -6300.86,2143.73 -6242.73,2143.66 -6184.6,2143.56 -6126.47,2143.41 -6068.34,2143.21 -6010.2,2142.93 -5952.07,2142.56 -5893.94,2142.05 -5835.81,2141.38 -5777.68,2140.52 -5719.55,2139.42 -5661.42,2138.05 -5603.29,2136.35 -5545.15,2134.3 -5487.02,2131.86 -5428.89,2129.01 -5370.76,2125.75 -5312.63,2122.07 -5254.5,2118.03 -5196.37,2113.66 -5138.24,2109.05 -5080.1,2104.31 -5021.97,2099.56 -4963.84,2094.94 -4905.71,2090.6 -4847.58,2086.69 -4789.45,2083.36 -4731.32,2080.75 -4673.19,2078.95 -4615.05,2078.04 -4556.92,2078.06 -4498.79,2079.02 -4440.66,2080.86 -4382.53,2083.51 -4324.4,2086.87 -4266.27,2090.8 -4208.14,2095.16 -4150,2099.79 -4091.87,2104.55 -4033.74,2109.29 -3975.61,2113.88 -3917.48,2118.23 -3859.35,2122.26 -3801.22,2125.92 -3743.09,2129.16 -3684.95,2131.99 -3626.82,2134.41 -3568.69,2136.45 -3510.56,2138.12 -3452.43,2139.48 -3394.3,2140.57 -3336.17,2141.42 -3278.04,2142.08 -3219.9,2142.58 -3161.77,2142.95 -3103.64,2143.22 -3045.51,2143.42 -2987.38,2143.56 -2929.25,2143.66 -2871.12,2143.73 -2812.99,2143.78 -2754.85,2143.81 -2696.72,2143.83 -2638.59,2143.84 -2580.46,2143.85 -2522.33,2143.85 -2464.2,2143.85 -2406.07,2143.85 -2347.94,2143.85 -2289.8,2143.84 -2231.67,2143.82 -2173.54,2143.8 -2115.41,2143.76 -2057.28,2143.7 -1999.15,2143.6 -1941.02,2143.46 -1882.89,2143.25 -1824.75,2142.94 -1766.62,2142.5 -1708.49,2141.86 -1650.36,2140.97 -1592.23,2139.74 -1534.1,2138.05 -1475.97,2135.77 -1417.84,2132.74 -1359.7,2128.76 -1301.57,2123.6 -1243.44,2117.02 -1185.31,2108.72 -1127.18,2098.4 -1069.05,2085.73 -1010.92,2070.36 -952.786,2051.97 -894.654,2030.25 -836.523,2004.9 -778.392,1975.7 -720.261,1942.45 -662.129,1905.06 -603.998,1863.51 -545.867,1817.86 -487.736,1768.29 -429.604,1715.05 -371.473,1658.49 -313.342,1599.01 -255.211,1537.08 -197.079,1473.19 -138.948,1407.85 -80.817,1341.54 -22.6857,1274.69 35.4455,1207.67 93.5768,1140.8 151.708,1074.27 209.839,1008.23 267.971,942.747 326.102,877.847 384.233,813.547 442.364,749.893 500.496,687.001 558.627,625.098 616.758,564.557 674.889,505.925 733.021,449.936 791.152,397.507 849.283,349.721 907.414,307.787 965.546,272.992 1023.68,246.635 1081.81,229.955 1139.94,224.064 1198.07,229.871 1256.2,248.023 1314.33,278.858 1372.46,322.374 1430.6,378.209 1488.73,445.65 1546.86,523.651 1604.99,610.874 1663.12,705.735 1721.25,806.467 1779.38,911.188 1837.51,1017.97 1895.65,1124.9 1953.78,1230.17 2011.91,1332.1 2070.04,1429.23 2128.17,1520.31 2186.3,1604.39 2244.43,1680.75 2302.56,1749 2360.7,1808.98 2418.83,1860.8 2476.96,1904.79 2535.09,1941.45 2593.22,1971.43 2651.35,1995.49 2709.48,2014.43 2767.61,2029.09 2825.75,2040.29 2883.88,2048.79 2942.01,2055.31 3000.14,2060.46 3058.27,2064.76 3116.4,2068.62 3174.53,2072.37 3232.66,2076.22 3290.8,2080.28 3348.93,2084.62 3407.06,2089.23 3465.19,2094.04 3523.32,2098.98 3581.45,2103.95 3639.58,2108.82 3697.71,2113.52 3755.85,2117.94 3813.98,2122.02 3872.11,2125.72 3930.24,2129 3988.37,2131.85 4046.5,2134.3 4104.63,2136.35 4162.76,2138.05 4220.9,2139.42 4279.03,2140.52 4337.16,2141.38 4395.29,2142.05 4453.42,2142.56 4511.55,2142.93 4569.68,2143.21 4627.81,2143.41 4685.95,2143.56 4744.08,2143.66 4802.21,2143.73 4860.34,2143.77 4918.47,2143.8 4976.6,2143.82 5034.73,2143.83 "/>
<polyline clip-path="url(#clip742)" style="stroke:#e26f46; stroke-linecap:round; stroke-linejoin:round; stroke-width:20; stroke-opacity:1; fill:none" points="-2110,2143.81 -2070.26,2143.79 -2030.53,2143.77 -1990.79,2143.75 -1951.05,2143.71 -1911.31,2143.65 -1871.58,2143.58 -1831.84,2143.49 -1792.1,2143.36 -1752.36,2143.2 -1712.62,2142.98 -1672.89,2142.71 -1633.15,2142.36 -1593.41,2141.92 -1553.67,2141.37 -1513.93,2140.68 -1474.2,2139.82 -1434.46,2138.76 -1394.72,2137.46 -1354.98,2135.87 -1315.24,2133.96 -1275.51,2131.66 -1235.77,2128.91 -1196.03,2125.65 -1156.29,2121.81 -1116.55,2117.31 -1076.82,2112.07 -1037.08,2106.01 -997.34,2099.04 -957.602,2091.07 -917.864,2082.01 -878.126,2071.77 -838.388,2060.26 -798.65,2047.39 -758.912,2033.09 -719.174,2017.26 -679.436,1999.83 -639.698,1980.72 -599.96,1959.88 -560.222,1937.24 -520.484,1912.73 -480.747,1886.3 -441.009,1857.91 -401.271,1827.5 -361.533,1795.02 -321.795,1760.44 -282.057,1723.72 -242.319,1684.81 -202.581,1643.69 -162.843,1600.32 -123.105,1554.69 -83.3669,1506.78 -43.629,1456.6 -3.89103,1404.18 35.8469,1349.55 75.5849,1292.78 115.323,1233.98 155.061,1173.28 194.799,1110.86 234.537,1046.94 274.275,981.782 314.013,915.698 353.751,849.049 393.489,782.242 433.227,715.726 472.964,649.992 512.702,585.562 552.44,522.985 592.178,462.827 631.916,405.661 671.654,352.059 711.392,302.575 751.13,257.74 790.868,218.048 830.606,183.942 870.344,155.81 910.082,133.974 949.82,118.68 989.558,110.098 1029.3,108.31 1069.03,113.319 1108.77,125.039 1148.51,143.302 1188.25,167.863 1227.99,198.403 1267.72,234.537 1307.46,275.822 1347.2,321.768 1386.94,371.848 1426.68,425.506 1466.41,482.174 1506.15,541.275 1545.89,602.241 1585.63,664.516 1625.37,727.572 1665.1,790.911 1704.84,854.075 1744.58,916.649 1784.32,978.269 1824.06,1038.62 1863.79,1097.44 1903.53,1154.51 1943.27,1209.69 1983.01,1262.84 2022.74,1313.9 2062.48,1362.84 2102.22,1409.67 2141.96,1454.4 2181.7,1497.09 2221.43,1537.81 2261.17,1576.64 2300.91,1613.65 2340.65,1648.94 2380.39,1682.57 2420.12,1714.63 2459.86,1745.18 2499.6,1774.26 2539.34,1801.94 2579.08,1828.23 2618.81,1853.15 2658.55,1876.72 2698.29,1898.95 2738.03,1919.82 2777.77,1939.33 2817.5,1957.47 2857.24,1974.24 2896.98,1989.64 2936.72,2003.66 2976.46,2016.32 3016.19,2027.64 3055.93,2037.63 3095.67,2046.34 3135.41,2053.82 3175.15,2060.13 3214.88,2065.33 3254.62,2069.5 3294.36,2072.74 3334.1,2075.13 3373.84,2076.78 3413.57,2077.79 3453.31,2078.27 3493.05,2078.33 3532.79,2078.07 3572.53,2077.6 3612.26,2077.02 3652,2076.41 3691.74,2075.88 3731.48,2075.48 3771.21,2075.28 3810.95,2075.34 3850.69,2075.69 3890.43,2076.37 3930.17,2077.38 3969.9,2078.75 4009.64,2080.45 4049.38,2082.47 4089.12,2084.79 4128.86,2087.38 4168.59,2090.19 4208.33,2093.19 4248.07,2096.33 4287.81,2099.56 4327.55,2102.84 4367.28,2106.13 4407.02,2109.38 4446.76,2112.56 4486.5,2115.64 4526.24,2118.58 4565.97,2121.36 4605.71,2123.97 4645.45,2126.4 4685.19,2128.63 4724.93,2130.66 4764.66,2132.5 4804.4,2134.15 4844.14,2135.61 4883.88,2136.9 4923.62,2138.03 4963.35,2139 5003.09,2139.84 5042.83,2140.56 5082.57,2141.17 5122.31,2141.68 5162.04,2142.1 5201.78,2142.46 5241.52,2142.75 5281.26,2142.98 5321,2143.17 5360.73,2143.32 5400.47,2143.45 5440.21,2143.54 5479.95,2143.62 5519.69,2143.68 5559.42,2143.72 5599.16,2143.75 5638.9,2143.78 5678.64,2143.8 5718.37,2143.81 5758.11,2143.81 5797.85,2143.81 "/>
<path clip-path="url(#clip740)" d="M2389.02 274.687 L3055.46 274.687 L3055.46 119.167 L2389.02 119.167  Z" fill="#ffffff" fill-rule="evenodd" fill-opacity="1"/>
<polyline clip-path="url(#clip740)" style="stroke:#000000; stroke-linecap:round; stroke-linejoin:round; stroke-width:4; stroke-opacity:1; fill:none" points="2389.02,274.687 3055.46,274.687 3055.46,119.167 2389.02,119.167 2389.02,274.687 "/>
<polyline clip-path="url(#clip740)" style="stroke:#009af9; stroke-linecap:round; stroke-linejoin:round; stroke-width:20; stroke-opacity:1; fill:none" points="2421.45,171.007 2616.05,171.007 "/>
<path clip-path="url(#clip740)" d="M2675.35 156.137 Q2675.51 156.301 2675.51 156.535 Q2675.51 156.769 2674.97 157.308 L2663.57 170.097 Q2667.92 185.415 2670.31 185.415 Q2671.04 185.415 2671.79 184.853 Q2672.56 184.314 2672.86 183.494 Q2672.98 183.096 2673.1 182.956 Q2673.22 182.815 2673.54 182.815 Q2674.11 182.815 2674.11 183.354 Q2674.11 183.635 2673.85 184.103 Q2673.59 184.595 2673.12 185.134 Q2672.65 185.696 2671.83 186.071 Q2671.01 186.469 2670.03 186.469 Q2668.81 186.469 2667.83 186.188 Q2666.85 185.907 2666.28 185.556 Q2665.72 185.204 2665.21 184.572 Q2664.71 183.963 2664.53 183.588 Q2664.36 183.237 2664.08 182.628 Q2663.52 181.316 2663 179.864 Q2662.49 178.412 2662.16 177.358 Q2661.83 176.304 2660.83 173.071 L2649.84 185.415 Q2649.33 185.93 2649.07 185.93 Q2648.86 185.93 2648.67 185.743 Q2648.48 185.579 2648.48 185.368 Q2648.48 185.134 2649.02 184.595 L2660.05 172.275 Q2660.22 172.111 2660.31 171.971 Q2660.4 171.83 2660.4 171.783 L2660.43 171.736 Q2660.43 171.619 2660.01 170.12 Q2659.58 168.621 2658.81 166.302 Q2658.06 163.96 2657.36 162.25 Q2656.91 161.103 2656.61 160.4 Q2656.31 159.697 2655.77 158.643 Q2655.25 157.589 2654.71 157.05 Q2654.17 156.488 2653.68 156.488 Q2653.52 156.488 2653.26 156.559 Q2653 156.629 2652.58 156.816 Q2652.18 156.98 2651.78 157.449 Q2651.39 157.894 2651.13 158.549 Q2650.92 159.065 2650.52 159.065 Q2650.26 159.065 2650.1 158.948 Q2649.96 158.831 2649.96 158.713 L2649.93 158.596 Q2649.93 158.175 2650.33 157.472 Q2650.73 156.769 2651.71 156.114 Q2652.7 155.434 2653.96 155.434 Q2655.16 155.434 2656.14 155.715 Q2657.12 155.996 2657.66 156.324 Q2658.23 156.652 2658.72 157.261 Q2659.21 157.847 2659.35 158.128 Q2659.51 158.386 2659.77 158.924 Q2660.57 160.751 2661.08 162.321 Q2661.62 163.866 2663.17 168.762 L2674.15 156.535 Q2674.64 155.95 2674.93 155.95 Q2675.18 155.95 2675.35 156.137 Z" fill="#000000" fill-rule="nonzero" fill-opacity="1" /><path clip-path="url(#clip740)" d="M2714.28 151.47 L2714.28 155.497 Q2712.47 154.572 2710.53 154.109 Q2708.59 153.646 2706.5 153.646 Q2703.33 153.646 2701.73 154.618 Q2700.16 155.59 2700.16 157.534 Q2700.16 159.016 2701.29 159.872 Q2702.43 160.706 2705.85 161.47 L2707.31 161.794 Q2711.85 162.766 2713.75 164.548 Q2715.67 166.308 2715.67 169.479 Q2715.67 173.09 2712.8 175.196 Q2709.95 177.303 2704.95 177.303 Q2702.87 177.303 2700.6 176.886 Q2698.35 176.493 2695.85 175.683 L2695.85 171.284 Q2698.22 172.511 2700.51 173.136 Q2702.8 173.738 2705.04 173.738 Q2708.05 173.738 2709.67 172.72 Q2711.29 171.678 2711.29 169.803 Q2711.29 168.067 2710.11 167.141 Q2708.96 166.215 2705 165.359 L2703.52 165.011 Q2699.56 164.178 2697.8 162.465 Q2696.04 160.729 2696.04 157.72 Q2696.04 154.062 2698.63 152.072 Q2701.23 150.081 2705.99 150.081 Q2708.35 150.081 2710.44 150.428 Q2712.52 150.775 2714.28 151.47 Z" fill="#000000" fill-rule="nonzero" fill-opacity="1" /><path clip-path="url(#clip740)" d="M2744 160.984 L2744 176.632 L2739.74 176.632 L2739.74 161.122 Q2739.74 157.442 2738.31 155.613 Q2736.87 153.785 2734 153.785 Q2730.55 153.785 2728.56 155.984 Q2726.57 158.183 2726.57 161.979 L2726.57 176.632 L2722.29 176.632 L2722.29 140.613 L2726.57 140.613 L2726.57 154.734 Q2728.1 152.396 2730.16 151.238 Q2732.24 150.081 2734.95 150.081 Q2739.42 150.081 2741.71 152.859 Q2744 155.613 2744 160.984 Z" fill="#000000" fill-rule="nonzero" fill-opacity="1" /><path clip-path="url(#clip740)" d="M2764.28 163.599 Q2759.12 163.599 2757.13 164.78 Q2755.14 165.96 2755.14 168.808 Q2755.14 171.076 2756.62 172.419 Q2758.12 173.738 2760.69 173.738 Q2764.23 173.738 2766.36 171.238 Q2768.52 168.715 2768.52 164.548 L2768.52 163.599 L2764.28 163.599 M2772.78 161.84 L2772.78 176.632 L2768.52 176.632 L2768.52 172.696 Q2767.06 175.058 2764.88 176.192 Q2762.71 177.303 2759.56 177.303 Q2755.58 177.303 2753.22 175.081 Q2750.88 172.835 2750.88 169.085 Q2750.88 164.71 2753.79 162.488 Q2756.73 160.266 2762.54 160.266 L2768.52 160.266 L2768.52 159.849 Q2768.52 156.91 2766.57 155.312 Q2764.65 153.692 2761.16 153.692 Q2758.93 153.692 2756.83 154.224 Q2754.72 154.757 2752.78 155.822 L2752.78 151.886 Q2755.11 150.984 2757.31 150.544 Q2759.51 150.081 2761.6 150.081 Q2767.22 150.081 2770 152.997 Q2772.78 155.914 2772.78 161.84 Z" fill="#000000" fill-rule="nonzero" fill-opacity="1" /><path clip-path="url(#clip740)" d="M2796.57 154.687 Q2795.85 154.271 2795 154.085 Q2794.16 153.877 2793.15 153.877 Q2789.53 153.877 2787.59 156.238 Q2785.67 158.576 2785.67 162.974 L2785.67 176.632 L2781.39 176.632 L2781.39 150.706 L2785.67 150.706 L2785.67 154.734 Q2787.01 152.372 2789.16 151.238 Q2791.32 150.081 2794.4 150.081 Q2794.84 150.081 2795.37 150.15 Q2795.9 150.197 2796.55 150.312 L2796.57 154.687 Z" fill="#000000" fill-rule="nonzero" fill-opacity="1" /><path clip-path="url(#clip740)" d="M2822.17 162.604 L2822.17 164.687 L2802.59 164.687 Q2802.87 169.085 2805.23 171.4 Q2807.61 173.692 2811.85 173.692 Q2814.3 173.692 2816.59 173.09 Q2818.91 172.488 2821.18 171.284 L2821.18 175.312 Q2818.89 176.284 2816.48 176.794 Q2814.07 177.303 2811.59 177.303 Q2805.39 177.303 2801.76 173.692 Q2798.15 170.081 2798.15 163.923 Q2798.15 157.558 2801.57 153.831 Q2805.02 150.081 2810.85 150.081 Q2816.09 150.081 2819.12 153.46 Q2822.17 156.817 2822.17 162.604 M2817.91 161.354 Q2817.87 157.859 2815.95 155.775 Q2814.05 153.692 2810.9 153.692 Q2807.34 153.692 2805.18 155.706 Q2803.05 157.72 2802.73 161.377 L2817.91 161.354 Z" fill="#000000" fill-rule="nonzero" fill-opacity="1" /><polyline clip-path="url(#clip740)" style="stroke:#e26f46; stroke-linecap:round; stroke-linejoin:round; stroke-width:20; stroke-opacity:1; fill:none" points="2421.45,222.847 2616.05,222.847 "/>
<path clip-path="url(#clip740)" d="M2672.21 239.06 Q2672.21 239.505 2671.69 239.552 L2670.64 239.552 Q2669.56 239.552 2669.09 239.388 Q2668.63 239.224 2668.09 238.475 Q2667.76 238.006 2666.94 235.828 Q2666.14 233.626 2664.97 230.3 Q2663.82 226.974 2663.05 225.007 L2651.5 238.639 Q2650.71 239.646 2649.91 239.646 Q2649.33 239.646 2648.9 239.248 Q2648.48 238.849 2648.48 238.24 Q2648.48 237.795 2648.65 237.538 Q2648.83 237.28 2649.33 236.765 L2662.58 223.625 L2657.92 210.578 Q2657.03 208.166 2656.52 207.557 Q2656.02 206.948 2654.81 206.737 Q2654.36 206.62 2654.36 206.245 Q2654.36 205.73 2655.23 205.73 Q2659.87 205.73 2661.08 209.126 L2670.87 236.413 Q2671.41 237.983 2671.97 238.639 Q2672.21 238.943 2672.21 239.06 Z" fill="#000000" fill-rule="nonzero" fill-opacity="1" /><path clip-path="url(#clip740)" d="M2710.71 217.069 Q2709.99 216.652 2709.14 216.467 Q2708.3 216.259 2707.29 216.259 Q2703.67 216.259 2701.73 218.62 Q2699.81 220.958 2699.81 225.356 L2699.81 239.013 L2695.53 239.013 L2695.53 213.087 L2699.81 213.087 L2699.81 217.115 Q2701.15 214.754 2703.3 213.62 Q2705.46 212.463 2708.54 212.463 Q2708.98 212.463 2709.51 212.532 Q2710.04 212.578 2710.69 212.694 L2710.71 217.069 Z" fill="#000000" fill-rule="nonzero" fill-opacity="1" /><path clip-path="url(#clip740)" d="M2736.31 224.986 L2736.31 227.069 L2716.73 227.069 Q2717.01 231.467 2719.37 233.782 Q2721.75 236.073 2725.99 236.073 Q2728.44 236.073 2730.73 235.472 Q2733.05 234.87 2735.32 233.666 L2735.32 237.694 Q2733.03 238.666 2730.62 239.175 Q2728.21 239.685 2725.73 239.685 Q2719.53 239.685 2715.9 236.073 Q2712.29 232.462 2712.29 226.305 Q2712.29 219.939 2715.71 216.212 Q2719.16 212.463 2724.99 212.463 Q2730.23 212.463 2733.26 215.842 Q2736.31 219.199 2736.31 224.986 M2732.05 223.736 Q2732.01 220.24 2730.09 218.157 Q2728.19 216.074 2725.04 216.074 Q2721.48 216.074 2719.32 218.087 Q2717.19 220.101 2716.87 223.759 L2732.05 223.736 Z" fill="#000000" fill-rule="nonzero" fill-opacity="1" /><path clip-path="url(#clip740)" d="M2759.83 213.851 L2759.83 217.879 Q2758.03 216.953 2756.08 216.49 Q2754.14 216.027 2752.05 216.027 Q2748.88 216.027 2747.29 217 Q2745.71 217.972 2745.71 219.916 Q2745.71 221.398 2746.85 222.254 Q2747.98 223.087 2751.41 223.851 L2752.86 224.175 Q2757.4 225.148 2759.3 226.93 Q2761.22 228.689 2761.22 231.861 Q2761.22 235.472 2758.35 237.578 Q2755.5 239.685 2750.5 239.685 Q2748.42 239.685 2746.15 239.268 Q2743.91 238.874 2741.41 238.064 L2741.41 233.666 Q2743.77 234.893 2746.06 235.518 Q2748.35 236.12 2750.6 236.12 Q2753.6 236.12 2755.23 235.101 Q2756.85 234.06 2756.85 232.185 Q2756.85 230.449 2755.67 229.523 Q2754.51 228.597 2750.55 227.74 L2749.07 227.393 Q2745.11 226.56 2743.35 224.847 Q2741.59 223.111 2741.59 220.101 Q2741.59 216.444 2744.18 214.453 Q2746.78 212.463 2751.54 212.463 Q2753.91 212.463 2755.99 212.81 Q2758.07 213.157 2759.83 213.851 Z" fill="#000000" fill-rule="nonzero" fill-opacity="1" /><path clip-path="url(#clip740)" d="M2768 213.087 L2772.26 213.087 L2772.26 239.013 L2768 239.013 L2768 213.087 M2768 202.995 L2772.26 202.995 L2772.26 208.388 L2768 208.388 L2768 202.995 Z" fill="#000000" fill-rule="nonzero" fill-opacity="1" /><path clip-path="url(#clip740)" d="M2798.23 217.023 L2798.23 202.995 L2802.49 202.995 L2802.49 239.013 L2798.23 239.013 L2798.23 235.124 Q2796.89 237.439 2794.83 238.573 Q2792.79 239.685 2789.92 239.685 Q2785.23 239.685 2782.26 235.935 Q2779.32 232.185 2779.32 226.074 Q2779.32 219.962 2782.26 216.212 Q2785.23 212.463 2789.92 212.463 Q2792.79 212.463 2794.83 213.597 Q2796.89 214.708 2798.23 217.023 M2783.72 226.074 Q2783.72 230.773 2785.64 233.458 Q2787.59 236.12 2790.97 236.12 Q2794.35 236.12 2796.29 233.458 Q2798.23 230.773 2798.23 226.074 Q2798.23 221.374 2796.29 218.712 Q2794.35 216.027 2790.97 216.027 Q2787.59 216.027 2785.64 218.712 Q2783.72 221.374 2783.72 226.074 Z" fill="#000000" fill-rule="nonzero" fill-opacity="1" /><path clip-path="url(#clip740)" d="M2810.83 228.782 L2810.83 213.087 L2815.09 213.087 L2815.09 228.62 Q2815.09 232.3 2816.52 234.152 Q2817.96 235.981 2820.83 235.981 Q2824.28 235.981 2826.27 233.782 Q2828.28 231.583 2828.28 227.786 L2828.28 213.087 L2832.54 213.087 L2832.54 239.013 L2828.28 239.013 L2828.28 235.032 Q2826.73 237.393 2824.67 238.55 Q2822.63 239.685 2819.92 239.685 Q2815.46 239.685 2813.14 236.907 Q2810.83 234.129 2810.83 228.782 M2821.54 212.463 L2821.54 212.463 Z" fill="#000000" fill-rule="nonzero" fill-opacity="1" /><path clip-path="url(#clip740)" d="M2853.1 225.981 Q2847.93 225.981 2845.94 227.161 Q2843.95 228.342 2843.95 231.189 Q2843.95 233.458 2845.43 234.8 Q2846.94 236.12 2849.51 236.12 Q2853.05 236.12 2855.18 233.62 Q2857.33 231.097 2857.33 226.93 L2857.33 225.981 L2853.1 225.981 M2861.59 224.222 L2861.59 239.013 L2857.33 239.013 L2857.33 235.078 Q2855.87 237.439 2853.7 238.573 Q2851.52 239.685 2848.37 239.685 Q2844.39 239.685 2842.03 237.462 Q2839.69 235.217 2839.69 231.467 Q2839.69 227.092 2842.61 224.87 Q2845.55 222.648 2851.36 222.648 L2857.33 222.648 L2857.33 222.231 Q2857.33 219.291 2855.39 217.694 Q2853.47 216.074 2849.97 216.074 Q2847.75 216.074 2845.64 216.606 Q2843.54 217.138 2841.59 218.203 L2841.59 214.268 Q2843.93 213.365 2846.13 212.925 Q2848.33 212.463 2850.41 212.463 Q2856.03 212.463 2858.81 215.379 Q2861.59 218.296 2861.59 224.222 Z" fill="#000000" fill-rule="nonzero" fill-opacity="1" /><path clip-path="url(#clip740)" d="M2870.36 202.995 L2874.62 202.995 L2874.62 239.013 L2870.36 239.013 L2870.36 202.995 Z" fill="#000000" fill-rule="nonzero" fill-opacity="1" /><path clip-path="url(#clip740)" d="M2915.13 213.851 L2915.13 217.879 Q2913.33 216.953 2911.38 216.49 Q2909.44 216.027 2907.35 216.027 Q2904.18 216.027 2902.59 217 Q2901.01 217.972 2901.01 219.916 Q2901.01 221.398 2902.15 222.254 Q2903.28 223.087 2906.71 223.851 L2908.16 224.175 Q2912.7 225.148 2914.6 226.93 Q2916.52 228.689 2916.52 231.861 Q2916.52 235.472 2913.65 237.578 Q2910.8 239.685 2905.8 239.685 Q2903.72 239.685 2901.45 239.268 Q2899.21 238.874 2896.71 238.064 L2896.71 233.666 Q2899.07 234.893 2901.36 235.518 Q2903.65 236.12 2905.9 236.12 Q2908.91 236.12 2910.53 235.101 Q2912.15 234.06 2912.15 232.185 Q2912.15 230.449 2910.97 229.523 Q2909.81 228.597 2905.85 227.74 L2904.37 227.393 Q2900.41 226.56 2898.65 224.847 Q2896.89 223.111 2896.89 220.101 Q2896.89 216.444 2899.48 214.453 Q2902.08 212.463 2906.84 212.463 Q2909.21 212.463 2911.29 212.81 Q2913.37 213.157 2915.13 213.851 Z" fill="#000000" fill-rule="nonzero" fill-opacity="1" /><path clip-path="url(#clip740)" d="M2944.85 223.365 L2944.85 239.013 L2940.59 239.013 L2940.59 223.504 Q2940.59 219.824 2939.16 217.995 Q2937.72 216.166 2934.85 216.166 Q2931.4 216.166 2929.41 218.365 Q2927.42 220.564 2927.42 224.361 L2927.42 239.013 L2923.14 239.013 L2923.14 202.995 L2927.42 202.995 L2927.42 217.115 Q2928.95 214.777 2931.01 213.62 Q2933.09 212.463 2935.8 212.463 Q2940.27 212.463 2942.56 215.24 Q2944.85 217.995 2944.85 223.365 Z" fill="#000000" fill-rule="nonzero" fill-opacity="1" /><path clip-path="url(#clip740)" d="M2965.13 225.981 Q2959.97 225.981 2957.98 227.161 Q2955.99 228.342 2955.99 231.189 Q2955.99 233.458 2957.47 234.8 Q2958.97 236.12 2961.54 236.12 Q2965.09 236.12 2967.21 233.62 Q2969.37 231.097 2969.37 226.93 L2969.37 225.981 L2965.13 225.981 M2973.63 224.222 L2973.63 239.013 L2969.37 239.013 L2969.37 235.078 Q2967.91 237.439 2965.73 238.573 Q2963.56 239.685 2960.41 239.685 Q2956.43 239.685 2954.07 237.462 Q2951.73 235.217 2951.73 231.467 Q2951.73 227.092 2954.65 224.87 Q2957.59 222.648 2963.4 222.648 L2969.37 222.648 L2969.37 222.231 Q2969.37 219.291 2967.42 217.694 Q2965.5 216.074 2962.01 216.074 Q2959.78 216.074 2957.68 216.606 Q2955.57 217.138 2953.63 218.203 L2953.63 214.268 Q2955.96 213.365 2958.16 212.925 Q2960.36 212.463 2962.45 212.463 Q2968.07 212.463 2970.85 215.379 Q2973.63 218.296 2973.63 224.222 Z" fill="#000000" fill-rule="nonzero" fill-opacity="1" /><path clip-path="url(#clip740)" d="M2997.42 217.069 Q2996.71 216.652 2995.85 216.467 Q2995.02 216.259 2994 216.259 Q2990.39 216.259 2988.44 218.62 Q2986.52 220.958 2986.52 225.356 L2986.52 239.013 L2982.24 239.013 L2982.24 213.087 L2986.52 213.087 L2986.52 217.115 Q2987.86 214.754 2990.02 213.62 Q2992.17 212.463 2995.25 212.463 Q2995.69 212.463 2996.22 212.532 Q2996.75 212.578 2997.4 212.694 L2997.42 217.069 Z" fill="#000000" fill-rule="nonzero" fill-opacity="1" /><path clip-path="url(#clip740)" d="M3023.02 224.986 L3023.02 227.069 L3003.44 227.069 Q3003.72 231.467 3006.08 233.782 Q3008.46 236.073 3012.7 236.073 Q3015.15 236.073 3017.45 235.472 Q3019.76 234.87 3022.03 233.666 L3022.03 237.694 Q3019.74 238.666 3017.33 239.175 Q3014.92 239.685 3012.45 239.685 Q3006.24 239.685 3002.61 236.073 Q2999 232.462 2999 226.305 Q2999 219.939 3002.42 216.212 Q3005.87 212.463 3011.71 212.463 Q3016.94 212.463 3019.97 215.842 Q3023.02 219.199 3023.02 224.986 M3018.77 223.736 Q3018.72 220.24 3016.8 218.157 Q3014.9 216.074 3011.75 216.074 Q3008.19 216.074 3006.03 218.087 Q3003.9 220.101 3003.58 223.759 L3018.77 223.736 Z" fill="#000000" fill-rule="nonzero" fill-opacity="1" /></svg>
