<?xml version="1.0" encoding="utf-8"?>
<svg xmlns="http://www.w3.org/2000/svg" xmlns:xlink="http://www.w3.org/1999/xlink" width="800" height="600" viewBox="0 0 3200 2400">
<defs>
  <clipPath id="clip300">
    <rect x="0" y="0" width="3200" height="2400"/>
  </clipPath>
</defs>
<path clip-path="url(#clip300)" d="M0 2400 L3200 2400 L3200 0 L0 0  Z" fill="#ffffff" fill-rule="evenodd" fill-opacity="1"/>
<defs>
  <clipPath id="clip301">
    <rect x="640" y="0" width="2241" height="2241"/>
  </clipPath>
</defs>
<path clip-path="url(#clip300)" d="M189.385 2204.92 L3152.76 2204.92 L3152.76 47.2441 L189.385 47.2441  Z" fill="#ffffff" fill-rule="evenodd" fill-opacity="1"/>
<defs>
  <clipPath id="clip302">
    <rect x="189" y="47" width="2964" height="2159"/>
  </clipPath>
</defs>
<polyline clip-path="url(#clip302)" style="stroke:#000000; stroke-linecap:round; stroke-linejoin:round; stroke-width:2; stroke-opacity:0.1; fill:none" points="314.029,2204.92 314.029,47.2441 "/>
<polyline clip-path="url(#clip302)" style="stroke:#000000; stroke-linecap:round; stroke-linejoin:round; stroke-width:2; stroke-opacity:0.1; fill:none" points="1053.88,2204.92 1053.88,47.2441 "/>
<polyline clip-path="url(#clip302)" style="stroke:#000000; stroke-linecap:round; stroke-linejoin:round; stroke-width:2; stroke-opacity:0.1; fill:none" points="1793.72,2204.92 1793.72,47.2441 "/>
<polyline clip-path="url(#clip302)" style="stroke:#000000; stroke-linecap:round; stroke-linejoin:round; stroke-width:2; stroke-opacity:0.1; fill:none" points="2533.57,2204.92 2533.57,47.2441 "/>
<polyline clip-path="url(#clip300)" style="stroke:#000000; stroke-linecap:round; stroke-linejoin:round; stroke-width:4; stroke-opacity:1; fill:none" points="189.385,2204.92 3152.76,2204.92 "/>
<polyline clip-path="url(#clip300)" style="stroke:#000000; stroke-linecap:round; stroke-linejoin:round; stroke-width:4; stroke-opacity:1; fill:none" points="314.029,2204.92 314.029,2186.02 "/>
<polyline clip-path="url(#clip300)" style="stroke:#000000; stroke-linecap:round; stroke-linejoin:round; stroke-width:4; stroke-opacity:1; fill:none" points="1053.88,2204.92 1053.88,2186.02 "/>
<polyline clip-path="url(#clip300)" style="stroke:#000000; stroke-linecap:round; stroke-linejoin:round; stroke-width:4; stroke-opacity:1; fill:none" points="1793.72,2204.92 1793.72,2186.02 "/>
<polyline clip-path="url(#clip300)" style="stroke:#000000; stroke-linecap:round; stroke-linejoin:round; stroke-width:4; stroke-opacity:1; fill:none" points="2533.57,2204.92 2533.57,2186.02 "/>
<path clip-path="url(#clip300)" d="M260.314 2256.89 L289.99 2256.89 L289.99 2260.83 L260.314 2260.83 L260.314 2256.89 Z" fill="#000000" fill-rule="nonzero" fill-opacity="1" /><path clip-path="url(#clip300)" d="M310.082 2242.24 Q306.471 2242.24 304.642 2245.8 Q302.837 2249.34 302.837 2256.47 Q302.837 2263.58 304.642 2267.15 Q306.471 2270.69 310.082 2270.69 Q313.716 2270.69 315.522 2267.15 Q317.351 2263.58 317.351 2256.47 Q317.351 2249.34 315.522 2245.8 Q313.716 2242.24 310.082 2242.24 M310.082 2238.53 Q315.892 2238.53 318.948 2243.14 Q322.027 2247.72 322.027 2256.47 Q322.027 2265.2 318.948 2269.81 Q315.892 2274.39 310.082 2274.39 Q304.272 2274.39 301.193 2269.81 Q298.138 2265.2 298.138 2256.47 Q298.138 2247.72 301.193 2243.14 Q304.272 2238.53 310.082 2238.53 Z" fill="#000000" fill-rule="nonzero" fill-opacity="1" /><path clip-path="url(#clip300)" d="M330.244 2267.84 L335.128 2267.84 L335.128 2273.72 L330.244 2273.72 L330.244 2267.84 Z" fill="#000000" fill-rule="nonzero" fill-opacity="1" /><path clip-path="url(#clip300)" d="M358.161 2243.23 L346.355 2261.68 L358.161 2261.68 L358.161 2243.23 M356.934 2239.16 L362.813 2239.16 L362.813 2261.68 L367.744 2261.68 L367.744 2265.57 L362.813 2265.57 L362.813 2273.72 L358.161 2273.72 L358.161 2265.57 L342.559 2265.57 L342.559 2261.06 L356.934 2239.16 Z" fill="#000000" fill-rule="nonzero" fill-opacity="1" /><path clip-path="url(#clip300)" d="M1001.2 2256.89 L1030.88 2256.89 L1030.88 2260.83 L1001.2 2260.83 L1001.2 2256.89 Z" fill="#000000" fill-rule="nonzero" fill-opacity="1" /><path clip-path="url(#clip300)" d="M1050.97 2242.24 Q1047.36 2242.24 1045.53 2245.8 Q1043.73 2249.34 1043.73 2256.47 Q1043.73 2263.58 1045.53 2267.15 Q1047.36 2270.69 1050.97 2270.69 Q1054.61 2270.69 1056.41 2267.15 Q1058.24 2263.58 1058.24 2256.47 Q1058.24 2249.34 1056.41 2245.8 Q1054.61 2242.24 1050.97 2242.24 M1050.97 2238.53 Q1056.78 2238.53 1059.84 2243.14 Q1062.92 2247.72 1062.92 2256.47 Q1062.92 2265.2 1059.84 2269.81 Q1056.78 2274.39 1050.97 2274.39 Q1045.16 2274.39 1042.08 2269.81 Q1039.03 2265.2 1039.03 2256.47 Q1039.03 2247.72 1042.08 2243.14 Q1045.16 2238.53 1050.97 2238.53 Z" fill="#000000" fill-rule="nonzero" fill-opacity="1" /><path clip-path="url(#clip300)" d="M1071.13 2267.84 L1076.02 2267.84 L1076.02 2273.72 L1071.13 2273.72 L1071.13 2267.84 Z" fill="#000000" fill-rule="nonzero" fill-opacity="1" /><path clip-path="url(#clip300)" d="M1090.23 2269.78 L1106.55 2269.78 L1106.55 2273.72 L1084.6 2273.72 L1084.6 2269.78 Q1087.27 2267.03 1091.85 2262.4 Q1096.46 2257.75 1097.64 2256.41 Q1099.88 2253.88 1100.76 2252.15 Q1101.66 2250.39 1101.66 2248.7 Q1101.66 2245.94 1099.72 2244.21 Q1097.8 2242.47 1094.7 2242.47 Q1092.5 2242.47 1090.04 2243.23 Q1087.61 2244 1084.84 2245.55 L1084.84 2240.83 Q1087.66 2239.69 1090.11 2239.11 Q1092.57 2238.53 1094.6 2238.53 Q1099.98 2238.53 1103.17 2241.22 Q1106.36 2243.91 1106.36 2248.4 Q1106.36 2250.53 1105.55 2252.45 Q1104.77 2254.34 1102.66 2256.94 Q1102.08 2257.61 1098.98 2260.83 Q1095.88 2264.02 1090.23 2269.78 Z" fill="#000000" fill-rule="nonzero" fill-opacity="1" /><path clip-path="url(#clip300)" d="M1771.11 2242.24 Q1767.5 2242.24 1765.67 2245.8 Q1763.86 2249.34 1763.86 2256.47 Q1763.86 2263.58 1765.67 2267.15 Q1767.5 2270.69 1771.11 2270.69 Q1774.74 2270.69 1776.55 2267.15 Q1778.38 2263.58 1778.38 2256.47 Q1778.38 2249.34 1776.55 2245.8 Q1774.74 2242.24 1771.11 2242.24 M1771.11 2238.53 Q1776.92 2238.53 1779.97 2243.14 Q1783.05 2247.72 1783.05 2256.47 Q1783.05 2265.2 1779.97 2269.81 Q1776.92 2274.39 1771.11 2274.39 Q1765.3 2274.39 1762.22 2269.81 Q1759.16 2265.2 1759.16 2256.47 Q1759.16 2247.72 1762.22 2243.14 Q1765.3 2238.53 1771.11 2238.53 Z" fill="#000000" fill-rule="nonzero" fill-opacity="1" /><path clip-path="url(#clip300)" d="M1791.27 2267.84 L1796.15 2267.84 L1796.15 2273.72 L1791.27 2273.72 L1791.27 2267.84 Z" fill="#000000" fill-rule="nonzero" fill-opacity="1" /><path clip-path="url(#clip300)" d="M1816.34 2242.24 Q1812.73 2242.24 1810.9 2245.8 Q1809.09 2249.34 1809.09 2256.47 Q1809.09 2263.58 1810.9 2267.15 Q1812.73 2270.69 1816.34 2270.69 Q1819.97 2270.69 1821.78 2267.15 Q1823.61 2263.58 1823.61 2256.47 Q1823.61 2249.34 1821.78 2245.8 Q1819.97 2242.24 1816.34 2242.24 M1816.34 2238.53 Q1822.15 2238.53 1825.2 2243.14 Q1828.28 2247.72 1828.28 2256.47 Q1828.28 2265.2 1825.2 2269.81 Q1822.15 2274.39 1816.34 2274.39 Q1810.53 2274.39 1807.45 2269.81 Q1804.39 2265.2 1804.39 2256.47 Q1804.39 2247.72 1807.45 2243.14 Q1810.53 2238.53 1816.34 2238.53 Z" fill="#000000" fill-rule="nonzero" fill-opacity="1" /><path clip-path="url(#clip300)" d="M2511.75 2242.24 Q2508.14 2242.24 2506.31 2245.8 Q2504.51 2249.34 2504.51 2256.47 Q2504.51 2263.58 2506.31 2267.15 Q2508.14 2270.69 2511.75 2270.69 Q2515.39 2270.69 2517.19 2267.15 Q2519.02 2263.58 2519.02 2256.47 Q2519.02 2249.34 2517.19 2245.8 Q2515.39 2242.24 2511.75 2242.24 M2511.75 2238.53 Q2517.56 2238.53 2520.62 2243.14 Q2523.7 2247.72 2523.7 2256.47 Q2523.7 2265.2 2520.62 2269.81 Q2517.56 2274.39 2511.75 2274.39 Q2505.94 2274.39 2502.86 2269.81 Q2499.81 2265.2 2499.81 2256.47 Q2499.81 2247.72 2502.86 2243.14 Q2505.94 2238.53 2511.75 2238.53 Z" fill="#000000" fill-rule="nonzero" fill-opacity="1" /><path clip-path="url(#clip300)" d="M2531.91 2267.84 L2536.8 2267.84 L2536.8 2273.72 L2531.91 2273.72 L2531.91 2267.84 Z" fill="#000000" fill-rule="nonzero" fill-opacity="1" /><path clip-path="url(#clip300)" d="M2551.01 2269.78 L2567.33 2269.78 L2567.33 2273.72 L2545.39 2273.72 L2545.39 2269.78 Q2548.05 2267.03 2552.63 2262.4 Q2557.24 2257.75 2558.42 2256.41 Q2560.66 2253.88 2561.54 2252.15 Q2562.45 2250.39 2562.45 2248.7 Q2562.45 2245.94 2560.5 2244.21 Q2558.58 2242.47 2555.48 2242.47 Q2553.28 2242.47 2550.83 2243.23 Q2548.4 2244 2545.62 2245.55 L2545.62 2240.83 Q2548.44 2239.69 2550.9 2239.11 Q2553.35 2238.53 2555.39 2238.53 Q2560.76 2238.53 2563.95 2241.22 Q2567.15 2243.91 2567.15 2248.4 Q2567.15 2250.53 2566.34 2252.45 Q2565.55 2254.34 2563.44 2256.94 Q2562.86 2257.61 2559.76 2260.83 Q2556.66 2264.02 2551.01 2269.78 Z" fill="#000000" fill-rule="nonzero" fill-opacity="1" /><path clip-path="url(#clip300)" d="M1623.97 2349.3 Q1623.97 2349.05 1624.84 2347.37 Q1625.71 2345.67 1628.77 2339.58 Q1631.83 2333.46 1634.98 2327.05 L1646.35 2304.18 Q1647.16 2302.74 1648.19 2302.74 Q1649.12 2302.74 1649.54 2303.31 Q1649.96 2303.89 1651.89 2307.79 Q1652.89 2309.69 1653.47 2310.92 L1672.12 2348.24 Q1672.44 2349.05 1672.47 2349.3 Q1672.47 2349.95 1671.34 2349.95 L1625.71 2349.95 Q1623.97 2349.95 1623.97 2349.3 M1628.32 2344.92 L1663.81 2344.92 L1646.06 2309.31 L1628.32 2344.92 Z" fill="#000000" fill-rule="nonzero" fill-opacity="1" /><path clip-path="url(#clip300)" d="M1714.23 2321.77 Q1714.45 2321.99 1714.45 2322.32 Q1714.45 2322.64 1713.71 2323.38 L1698.03 2340.96 Q1704.02 2362.03 1707.3 2362.03 Q1708.3 2362.03 1709.33 2361.25 Q1710.4 2360.51 1710.81 2359.39 Q1710.97 2358.84 1711.14 2358.64 Q1711.3 2358.45 1711.75 2358.45 Q1712.52 2358.45 1712.52 2359.19 Q1712.52 2359.58 1712.17 2360.22 Q1711.81 2360.9 1711.17 2361.64 Q1710.52 2362.41 1709.4 2362.93 Q1708.27 2363.48 1706.92 2363.48 Q1705.24 2363.48 1703.89 2363.09 Q1702.54 2362.7 1701.76 2362.22 Q1700.99 2361.74 1700.28 2360.87 Q1699.61 2360.03 1699.35 2359.51 Q1699.12 2359.03 1698.74 2358.19 Q1697.96 2356.39 1697.26 2354.39 Q1696.55 2352.4 1696.1 2350.95 Q1695.64 2349.5 1694.26 2345.05 L1679.16 2362.03 Q1678.45 2362.73 1678.09 2362.73 Q1677.8 2362.73 1677.55 2362.48 Q1677.29 2362.25 1677.29 2361.96 Q1677.29 2361.64 1678.03 2360.9 L1693.2 2343.96 Q1693.42 2343.73 1693.55 2343.54 Q1693.68 2343.35 1693.68 2343.28 L1693.71 2343.22 Q1693.71 2343.06 1693.13 2341 Q1692.55 2338.93 1691.49 2335.75 Q1690.46 2332.53 1689.49 2330.17 Q1688.88 2328.6 1688.46 2327.63 Q1688.04 2326.66 1687.3 2325.21 Q1686.59 2323.77 1685.85 2323.02 Q1685.11 2322.25 1684.44 2322.25 Q1684.21 2322.25 1683.86 2322.35 Q1683.5 2322.45 1682.92 2322.7 Q1682.38 2322.93 1681.83 2323.57 Q1681.28 2324.18 1680.93 2325.09 Q1680.64 2325.79 1680.09 2325.79 Q1679.74 2325.79 1679.51 2325.63 Q1679.32 2325.47 1679.32 2325.31 L1679.28 2325.15 Q1679.28 2324.57 1679.83 2323.6 Q1680.38 2322.64 1681.73 2321.74 Q1683.08 2320.8 1684.82 2320.8 Q1686.47 2320.8 1687.82 2321.19 Q1689.17 2321.58 1689.91 2322.03 Q1690.69 2322.48 1691.36 2323.31 Q1692.04 2324.12 1692.23 2324.51 Q1692.46 2324.86 1692.81 2325.6 Q1693.91 2328.11 1694.61 2330.27 Q1695.35 2332.4 1697.48 2339.13 L1712.59 2322.32 Q1713.26 2321.51 1713.65 2321.51 Q1714 2321.51 1714.23 2321.77 Z" fill="#000000" fill-rule="nonzero" fill-opacity="1" /><polyline clip-path="url(#clip302)" style="stroke:#000000; stroke-linecap:round; stroke-linejoin:round; stroke-width:2; stroke-opacity:0.1; fill:none" points="189.385,2143.95 3152.76,2143.95 "/>
<polyline clip-path="url(#clip302)" style="stroke:#000000; stroke-linecap:round; stroke-linejoin:round; stroke-width:2; stroke-opacity:0.1; fill:none" points="189.385,1698.6 3152.76,1698.6 "/>
<polyline clip-path="url(#clip302)" style="stroke:#000000; stroke-linecap:round; stroke-linejoin:round; stroke-width:2; stroke-opacity:0.1; fill:none" points="189.385,1253.24 3152.76,1253.24 "/>
<polyline clip-path="url(#clip302)" style="stroke:#000000; stroke-linecap:round; stroke-linejoin:round; stroke-width:2; stroke-opacity:0.1; fill:none" points="189.385,807.877 3152.76,807.877 "/>
<polyline clip-path="url(#clip302)" style="stroke:#000000; stroke-linecap:round; stroke-linejoin:round; stroke-width:2; stroke-opacity:0.1; fill:none" points="189.385,362.517 3152.76,362.517 "/>
<polyline clip-path="url(#clip300)" style="stroke:#000000; stroke-linecap:round; stroke-linejoin:round; stroke-width:4; stroke-opacity:1; fill:none" points="189.385,2204.92 189.385,47.2441 "/>
<polyline clip-path="url(#clip300)" style="stroke:#000000; stroke-linecap:round; stroke-linejoin:round; stroke-width:4; stroke-opacity:1; fill:none" points="189.385,2143.95 208.283,2143.95 "/>
<polyline clip-path="url(#clip300)" style="stroke:#000000; stroke-linecap:round; stroke-linejoin:round; stroke-width:4; stroke-opacity:1; fill:none" points="189.385,1698.6 208.283,1698.6 "/>
<polyline clip-path="url(#clip300)" style="stroke:#000000; stroke-linecap:round; stroke-linejoin:round; stroke-width:4; stroke-opacity:1; fill:none" points="189.385,1253.24 208.283,1253.24 "/>
<polyline clip-path="url(#clip300)" style="stroke:#000000; stroke-linecap:round; stroke-linejoin:round; stroke-width:4; stroke-opacity:1; fill:none" points="189.385,807.877 208.283,807.877 "/>
<polyline clip-path="url(#clip300)" style="stroke:#000000; stroke-linecap:round; stroke-linejoin:round; stroke-width:4; stroke-opacity:1; fill:none" points="189.385,362.517 208.283,362.517 "/>
<path clip-path="url(#clip300)" d="M129.441 2129.75 Q125.83 2129.75 124.001 2133.32 Q122.195 2136.86 122.195 2143.99 Q122.195 2151.1 124.001 2154.66 Q125.83 2158.2 129.441 2158.2 Q133.075 2158.2 134.881 2154.66 Q136.709 2151.1 136.709 2143.99 Q136.709 2136.86 134.881 2133.32 Q133.075 2129.75 129.441 2129.75 M129.441 2126.05 Q135.251 2126.05 138.307 2130.66 Q141.385 2135.24 141.385 2143.99 Q141.385 2152.72 138.307 2157.32 Q135.251 2161.91 129.441 2161.91 Q123.631 2161.91 120.552 2157.32 Q117.496 2152.72 117.496 2143.99 Q117.496 2135.24 120.552 2130.66 Q123.631 2126.05 129.441 2126.05 Z" fill="#000000" fill-rule="nonzero" fill-opacity="1" /><path clip-path="url(#clip300)" d="M121.478 1711.94 L129.117 1711.94 L129.117 1685.57 L120.807 1687.24 L120.807 1682.98 L129.07 1681.32 L133.746 1681.32 L133.746 1711.94 L141.385 1711.94 L141.385 1715.88 L121.478 1715.88 L121.478 1711.94 Z" fill="#000000" fill-rule="nonzero" fill-opacity="1" /><path clip-path="url(#clip300)" d="M125.066 1266.58 L141.385 1266.58 L141.385 1270.52 L119.441 1270.52 L119.441 1266.58 Q122.103 1263.83 126.686 1259.2 Q131.293 1254.54 132.473 1253.2 Q134.719 1250.68 135.598 1248.94 Q136.501 1247.18 136.501 1245.49 Q136.501 1242.74 134.557 1241 Q132.635 1239.27 129.533 1239.27 Q127.334 1239.27 124.881 1240.03 Q122.45 1240.79 119.672 1242.34 L119.672 1237.62 Q122.496 1236.49 124.95 1235.91 Q127.404 1235.33 129.441 1235.33 Q134.811 1235.33 138.006 1238.02 Q141.2 1240.7 141.2 1245.19 Q141.2 1247.32 140.39 1249.24 Q139.603 1251.14 137.496 1253.73 Q136.918 1254.41 133.816 1257.62 Q130.714 1260.82 125.066 1266.58 Z" fill="#000000" fill-rule="nonzero" fill-opacity="1" /><path clip-path="url(#clip300)" d="M134.256 806.523 Q137.612 807.24 139.487 809.509 Q141.385 811.777 141.385 815.11 Q141.385 820.226 137.867 823.027 Q134.348 825.828 127.867 825.828 Q125.691 825.828 123.376 825.388 Q121.084 824.971 118.631 824.115 L118.631 819.601 Q120.575 820.735 122.89 821.314 Q125.205 821.893 127.728 821.893 Q132.126 821.893 134.418 820.157 Q136.732 818.421 136.732 815.11 Q136.732 812.055 134.58 810.342 Q132.45 808.606 128.631 808.606 L124.603 808.606 L124.603 804.763 L128.816 804.763 Q132.265 804.763 134.094 803.398 Q135.922 802.009 135.922 799.416 Q135.922 796.754 134.024 795.342 Q132.149 793.907 128.631 793.907 Q126.709 793.907 124.51 794.323 Q122.311 794.74 119.672 795.62 L119.672 791.453 Q122.334 790.712 124.649 790.342 Q126.987 789.972 129.047 789.972 Q134.371 789.972 137.473 792.402 Q140.575 794.81 140.575 798.93 Q140.575 801.8 138.932 803.791 Q137.288 805.759 134.256 806.523 Z" fill="#000000" fill-rule="nonzero" fill-opacity="1" /><path clip-path="url(#clip300)" d="M131.802 349.311 L119.996 367.76 L131.802 367.76 L131.802 349.311 M130.575 345.237 L136.455 345.237 L136.455 367.76 L141.385 367.76 L141.385 371.649 L136.455 371.649 L136.455 379.797 L131.802 379.797 L131.802 371.649 L116.2 371.649 L116.2 367.135 L130.575 345.237 Z" fill="#000000" fill-rule="nonzero" fill-opacity="1" /><path clip-path="url(#clip300)" d="M23.7071 1216.81 L4.41896 1216.81 L4.41896 1210.95 L53.9442 1210.95 L53.9442 1216.81 L48.597 1216.81 Q51.7798 1218.66 53.3394 1221.49 Q54.8672 1224.29 54.8672 1228.24 Q54.8672 1234.7 49.711 1238.77 Q44.5547 1242.81 36.152 1242.81 Q27.7493 1242.81 22.5931 1238.77 Q17.4368 1234.7 17.4368 1228.24 Q17.4368 1224.29 18.9964 1221.49 Q20.5242 1218.66 23.7071 1216.81 M36.152 1236.77 Q42.6132 1236.77 46.3053 1234.12 Q49.9656 1231.45 49.9656 1226.8 Q49.9656 1222.16 46.3053 1219.48 Q42.6132 1216.81 36.152 1216.81 Q29.6908 1216.81 26.0305 1219.48 Q22.3384 1222.16 22.3384 1226.8 Q22.3384 1231.45 26.0305 1234.12 Q29.6908 1236.77 36.152 1236.77 Z" fill="#000000" fill-rule="nonzero" fill-opacity="1" /><path clip-path="url(#clip300)" d="M34.6561 1168.4 L37.5206 1168.4 L37.5206 1195.32 Q43.5681 1194.94 46.7509 1191.7 Q49.9019 1188.42 49.9019 1182.59 Q49.9019 1179.22 49.0744 1176.07 Q48.2469 1172.89 46.5918 1169.77 L52.1299 1169.77 Q53.4667 1172.92 54.167 1176.23 Q54.8672 1179.54 54.8672 1182.94 Q54.8672 1191.47 49.9019 1196.47 Q44.9367 1201.44 36.4703 1201.44 Q27.7174 1201.44 22.5931 1196.73 Q17.4368 1191.98 17.4368 1183.96 Q17.4368 1176.77 22.0838 1172.6 Q26.6989 1168.4 34.6561 1168.4 M32.9373 1174.25 Q28.1312 1174.32 25.2666 1176.96 Q22.4021 1179.57 22.4021 1183.9 Q22.4021 1188.8 25.1712 1191.76 Q27.9402 1194.69 32.9692 1195.13 L32.9373 1174.25 Z" fill="#000000" fill-rule="nonzero" fill-opacity="1" /><path clip-path="url(#clip300)" d="M32.4281 1129.15 L53.9442 1129.15 L53.9442 1135.01 L32.619 1135.01 Q27.5583 1135.01 25.0438 1136.98 Q22.5294 1138.96 22.5294 1142.9 Q22.5294 1147.65 25.5531 1150.38 Q28.5768 1153.12 33.7967 1153.12 L53.9442 1153.12 L53.9442 1159.01 L18.2962 1159.01 L18.2962 1153.12 L23.8344 1153.12 Q20.6197 1151.02 19.0283 1148.19 Q17.4368 1145.32 17.4368 1141.6 Q17.4368 1135.46 21.2563 1132.3 Q25.0438 1129.15 32.4281 1129.15 Z" fill="#000000" fill-rule="nonzero" fill-opacity="1" /><path clip-path="url(#clip300)" d="M19.3465 1094.75 L24.8847 1094.75 Q23.6116 1097.23 22.975 1099.9 Q22.3384 1102.58 22.3384 1105.44 Q22.3384 1109.8 23.6752 1112 Q25.012 1114.16 27.6856 1114.16 Q29.7226 1114.16 30.9003 1112.6 Q32.0461 1111.04 33.0965 1106.33 L33.5421 1104.33 Q34.8789 1098.09 37.3297 1095.48 Q39.7486 1092.84 44.1091 1092.84 Q49.0744 1092.84 51.9708 1096.78 Q54.8672 1100.7 54.8672 1107.57 Q54.8672 1110.44 54.2943 1113.56 Q53.7532 1116.64 52.6392 1120.08 L46.5918 1120.08 Q48.2787 1116.84 49.138 1113.68 Q49.9656 1110.53 49.9656 1107.45 Q49.9656 1103.31 48.5651 1101.08 Q47.1329 1098.85 44.5547 1098.85 Q42.1676 1098.85 40.8945 1100.48 Q39.6213 1102.07 38.4437 1107.51 L37.9662 1109.55 Q36.8204 1114.99 34.4651 1117.41 Q32.078 1119.83 27.9402 1119.83 Q22.9113 1119.83 20.1741 1116.26 Q17.4368 1112.7 17.4368 1106.14 Q17.4368 1102.89 17.9143 1100.03 Q18.3917 1097.17 19.3465 1094.75 Z" fill="#000000" fill-rule="nonzero" fill-opacity="1" /><path clip-path="url(#clip300)" d="M18.2962 1083.51 L18.2962 1077.65 L53.9442 1077.65 L53.9442 1083.51 L18.2962 1083.51 M4.41896 1083.51 L4.41896 1077.65 L11.835 1077.65 L11.835 1083.51 L4.41896 1083.51 Z" fill="#000000" fill-rule="nonzero" fill-opacity="1" /><path clip-path="url(#clip300)" d="M8.17473 1059.61 L18.2962 1059.61 L18.2962 1047.55 L22.8477 1047.55 L22.8477 1059.61 L42.1994 1059.61 Q46.5599 1059.61 47.8013 1058.43 Q49.0426 1057.22 49.0426 1053.56 L49.0426 1047.55 L53.9442 1047.55 L53.9442 1053.56 Q53.9442 1060.34 51.4297 1062.92 Q48.8834 1065.5 42.1994 1065.5 L22.8477 1065.5 L22.8477 1069.79 L18.2962 1069.79 L18.2962 1065.5 L8.17473 1065.5 L8.17473 1059.61 Z" fill="#000000" fill-rule="nonzero" fill-opacity="1" /><path clip-path="url(#clip300)" d="M57.2543 1025.01 Q63.62 1027.49 65.5616 1029.85 Q67.5031 1032.2 67.5031 1036.15 L67.5031 1040.83 L62.6015 1040.83 L62.6015 1037.39 Q62.6015 1034.97 61.4557 1033.64 Q60.3099 1032.3 56.0448 1030.68 L53.3712 1029.63 L18.2962 1044.04 L18.2962 1037.84 L46.178 1026.7 L18.2962 1015.56 L18.2962 1009.35 L57.2543 1025.01 Z" fill="#000000" fill-rule="nonzero" fill-opacity="1" /><polyline clip-path="url(#clip302)" style="stroke:#009af9; stroke-linecap:round; stroke-linejoin:round; stroke-width:20; stroke-opacity:1; fill:none" points="273.254,2143.85 287.303,2143.85 301.351,2143.84 315.399,2143.83 329.448,2143.81 343.496,2143.78 357.545,2143.75 371.593,2143.71 385.641,2143.66 399.69,2143.59 413.738,2143.51 427.787,2143.42 441.835,2143.3 455.883,2143.16 469.932,2142.99 483.98,2142.79 498.029,2142.55 512.077,2142.27 526.125,2141.93 540.174,2141.54 554.222,2141.07 568.271,2140.53 582.319,2139.89 596.368,2139.14 610.416,2138.27 624.464,2137.27 638.513,2136.1 652.561,2134.75 666.61,2133.21 680.658,2131.43 694.706,2129.39 708.755,2127.07 722.803,2124.43 736.852,2121.43 750.9,2118.03 764.948,2114.2 778.997,2109.88 793.045,2105.04 807.094,2099.61 821.142,2093.55 835.19,2086.8 849.239,2079.3 863.287,2071 877.336,2061.83 891.384,2051.72 905.432,2040.62 919.481,2028.45 933.529,2015.15 947.578,2000.66 961.626,1984.9 975.674,1967.82 989.723,1949.35 1003.77,1929.44 1017.82,1908.02 1031.87,1885.05 1045.92,1860.47 1059.96,1834.26 1074.01,1806.36 1088.06,1776.76 1102.11,1745.43 1116.16,1712.37 1130.21,1677.57 1144.26,1641.04 1158.3,1602.8 1172.35,1562.88 1186.4,1521.32 1200.45,1478.18 1214.5,1433.52 1228.55,1387.42 1242.59,1339.98 1256.64,1291.29 1270.69,1241.48 1284.74,1190.67 1298.79,1139.01 1312.84,1086.64 1326.88,1033.73 1340.93,980.449 1354.98,926.986 1369.03,873.529 1383.08,820.276 1397.13,767.431 1411.18,715.205 1425.22,663.811 1439.27,613.464 1453.32,564.381 1467.37,516.778 1481.42,470.87 1495.47,426.868 1509.51,384.976 1523.56,345.395 1537.61,308.316 1551.66,273.92 1565.71,242.379 1579.76,213.852 1593.8,188.485 1607.85,166.408 1621.9,147.736 1635.95,132.57 1650,120.99 1664.05,113.06 1678.09,108.825 1692.14,108.31 1706.19,111.523 1720.24,118.45 1734.29,129.059 1748.34,143.299 1762.39,161.1 1776.43,182.374 1790.48,207.015 1804.53,234.902 1818.58,265.895 1832.63,299.841 1846.68,336.575 1860.72,375.917 1874.77,417.677 1888.82,461.657 1902.87,507.65 1916.92,555.441 1930.97,604.812 1945.01,655.543 1959.06,707.408 1973.11,760.186 1987.16,813.655 2001.21,867.595 2015.26,921.792 2029.3,976.039 2043.35,1030.13 2057.4,1083.88 2071.45,1137.1 2085.5,1189.62 2099.55,1241.27 2113.6,1291.91 2127.64,1341.4 2141.69,1389.61 2155.74,1436.43 2169.79,1481.77 2183.84,1525.54 2197.89,1567.67 2211.93,1608.11 2225.98,1646.8 2240.03,1683.71 2254.08,1718.84 2268.13,1752.16 2282.18,1783.69 2296.22,1813.43 2310.27,1841.41 2324.32,1867.65 2338.37,1892.2 2352.42,1915.1 2366.47,1936.41 2380.52,1956.17 2394.56,1974.45 2408.61,1991.32 2422.66,2006.84 2436.71,2021.07 2450.76,2034.09 2464.81,2045.97 2478.85,2056.78 2492.9,2066.58 2506.95,2075.46 2521,2083.46 2535.05,2090.66 2549.1,2097.12 2563.14,2102.9 2577.19,2108.06 2591.24,2112.65 2605.29,2116.72 2619.34,2120.32 2633.39,2123.5 2647.43,2126.29 2661.48,2128.75 2675.53,2130.89 2689.58,2132.76 2703.63,2134.39 2717.68,2135.81 2731.73,2137.03 2745.77,2138.08 2759.82,2138.99 2773.87,2139.77 2787.92,2140.43 2801.97,2141 2816.02,2141.48 2830.06,2141.89 2844.11,2142.24 2858.16,2142.53 2872.21,2142.77 2886.26,2142.98 2900.31,2143.15 2914.35,2143.29 2928.4,2143.41 2942.45,2143.51 2956.5,2143.59 2970.55,2143.66 2984.6,2143.71 2998.64,2143.75 3012.69,2143.79 3026.74,2143.81 3040.79,2143.83 3054.84,2143.84 3068.89,2143.85 "/>
</svg>
