<?xml version="1.0" encoding="utf-8"?>
<svg xmlns="http://www.w3.org/2000/svg" xmlns:xlink="http://www.w3.org/1999/xlink" width="800" height="600" viewBox="0 0 3200 2400">
<defs>
  <clipPath id="clip220">
    <rect x="0" y="0" width="3200" height="2400"/>
  </clipPath>
</defs>
<path clip-path="url(#clip220)" d="M0 2400 L3200 2400 L3200 0 L0 0  Z" fill="#ffffff" fill-rule="evenodd" fill-opacity="1"/>
<defs>
  <clipPath id="clip221">
    <rect x="640" y="0" width="2241" height="2241"/>
  </clipPath>
</defs>
<path clip-path="url(#clip220)" d="M188.089 2204.92 L3152.76 2204.92 L3152.76 47.2441 L188.089 47.2441  Z" fill="#ffffff" fill-rule="evenodd" fill-opacity="1"/>
<defs>
  <clipPath id="clip222">
    <rect x="188" y="47" width="2966" height="2159"/>
  </clipPath>
</defs>
<polyline clip-path="url(#clip222)" style="stroke:#000000; stroke-linecap:round; stroke-linejoin:round; stroke-width:2; stroke-opacity:0.1; fill:none" points="529.933,2204.92 529.933,47.2441 "/>
<polyline clip-path="url(#clip222)" style="stroke:#000000; stroke-linecap:round; stroke-linejoin:round; stroke-width:2; stroke-opacity:0.1; fill:none" points="1188.54,2204.92 1188.54,47.2441 "/>
<polyline clip-path="url(#clip222)" style="stroke:#000000; stroke-linecap:round; stroke-linejoin:round; stroke-width:2; stroke-opacity:0.1; fill:none" points="1847.15,2204.92 1847.15,47.2441 "/>
<polyline clip-path="url(#clip222)" style="stroke:#000000; stroke-linecap:round; stroke-linejoin:round; stroke-width:2; stroke-opacity:0.1; fill:none" points="2505.76,2204.92 2505.76,47.2441 "/>
<polyline clip-path="url(#clip220)" style="stroke:#000000; stroke-linecap:round; stroke-linejoin:round; stroke-width:4; stroke-opacity:1; fill:none" points="188.089,2204.92 3152.76,2204.92 "/>
<polyline clip-path="url(#clip220)" style="stroke:#000000; stroke-linecap:round; stroke-linejoin:round; stroke-width:4; stroke-opacity:1; fill:none" points="529.933,2204.92 529.933,2186.02 "/>
<polyline clip-path="url(#clip220)" style="stroke:#000000; stroke-linecap:round; stroke-linejoin:round; stroke-width:4; stroke-opacity:1; fill:none" points="1188.54,2204.92 1188.54,2186.02 "/>
<polyline clip-path="url(#clip220)" style="stroke:#000000; stroke-linecap:round; stroke-linejoin:round; stroke-width:4; stroke-opacity:1; fill:none" points="1847.15,2204.92 1847.15,2186.02 "/>
<polyline clip-path="url(#clip220)" style="stroke:#000000; stroke-linecap:round; stroke-linejoin:round; stroke-width:4; stroke-opacity:1; fill:none" points="2505.76,2204.92 2505.76,2186.02 "/>
<path clip-path="url(#clip220)" d="M461.38 2256.89 L491.055 2256.89 L491.055 2260.83 L461.38 2260.83 L461.38 2256.89 Z" fill="#000000" fill-rule="nonzero" fill-opacity="1" /><path clip-path="url(#clip220)" d="M511.148 2242.24 Q507.537 2242.24 505.708 2245.8 Q503.903 2249.34 503.903 2256.47 Q503.903 2263.58 505.708 2267.15 Q507.537 2270.69 511.148 2270.69 Q514.782 2270.69 516.588 2267.15 Q518.416 2263.58 518.416 2256.47 Q518.416 2249.34 516.588 2245.8 Q514.782 2242.24 511.148 2242.24 M511.148 2238.53 Q516.958 2238.53 520.014 2243.14 Q523.092 2247.72 523.092 2256.47 Q523.092 2265.2 520.014 2269.81 Q516.958 2274.39 511.148 2274.39 Q505.338 2274.39 502.259 2269.81 Q499.204 2265.2 499.204 2256.47 Q499.204 2247.72 502.259 2243.14 Q505.338 2238.53 511.148 2238.53 Z" fill="#000000" fill-rule="nonzero" fill-opacity="1" /><path clip-path="url(#clip220)" d="M531.31 2267.84 L536.194 2267.84 L536.194 2273.72 L531.31 2273.72 L531.31 2267.84 Z" fill="#000000" fill-rule="nonzero" fill-opacity="1" /><path clip-path="url(#clip220)" d="M546.426 2239.16 L564.782 2239.16 L564.782 2243.1 L550.708 2243.1 L550.708 2251.57 Q551.726 2251.22 552.745 2251.06 Q553.763 2250.87 554.782 2250.87 Q560.569 2250.87 563.949 2254.04 Q567.328 2257.22 567.328 2262.63 Q567.328 2268.21 563.856 2271.31 Q560.384 2274.39 554.064 2274.39 Q551.888 2274.39 549.62 2274.02 Q547.375 2273.65 544.967 2272.91 L544.967 2268.21 Q547.051 2269.34 549.273 2269.9 Q551.495 2270.46 553.972 2270.46 Q557.976 2270.46 560.314 2268.35 Q562.652 2266.24 562.652 2262.63 Q562.652 2259.02 560.314 2256.91 Q557.976 2254.81 553.972 2254.81 Q552.097 2254.81 550.222 2255.22 Q548.37 2255.64 546.426 2256.52 L546.426 2239.16 Z" fill="#000000" fill-rule="nonzero" fill-opacity="1" /><path clip-path="url(#clip220)" d="M586.541 2242.24 Q582.93 2242.24 581.101 2245.8 Q579.296 2249.34 579.296 2256.47 Q579.296 2263.58 581.101 2267.15 Q582.93 2270.69 586.541 2270.69 Q590.175 2270.69 591.981 2267.15 Q593.81 2263.58 593.81 2256.47 Q593.81 2249.34 591.981 2245.8 Q590.175 2242.24 586.541 2242.24 M586.541 2238.53 Q592.351 2238.53 595.407 2243.14 Q598.485 2247.72 598.485 2256.47 Q598.485 2265.2 595.407 2269.81 Q592.351 2274.39 586.541 2274.39 Q580.731 2274.39 577.652 2269.81 Q574.597 2265.2 574.597 2256.47 Q574.597 2247.72 577.652 2243.14 Q580.731 2238.53 586.541 2238.53 Z" fill="#000000" fill-rule="nonzero" fill-opacity="1" /><path clip-path="url(#clip220)" d="M1120.49 2256.89 L1150.16 2256.89 L1150.16 2260.83 L1120.49 2260.83 L1120.49 2256.89 Z" fill="#000000" fill-rule="nonzero" fill-opacity="1" /><path clip-path="url(#clip220)" d="M1170.25 2242.24 Q1166.64 2242.24 1164.81 2245.8 Q1163.01 2249.34 1163.01 2256.47 Q1163.01 2263.58 1164.81 2267.15 Q1166.64 2270.69 1170.25 2270.69 Q1173.89 2270.69 1175.69 2267.15 Q1177.52 2263.58 1177.52 2256.47 Q1177.52 2249.34 1175.69 2245.8 Q1173.89 2242.24 1170.25 2242.24 M1170.25 2238.53 Q1176.06 2238.53 1179.12 2243.14 Q1182.2 2247.72 1182.2 2256.47 Q1182.2 2265.2 1179.12 2269.81 Q1176.06 2274.39 1170.25 2274.39 Q1164.44 2274.39 1161.36 2269.81 Q1158.31 2265.2 1158.31 2256.47 Q1158.31 2247.72 1161.36 2243.14 Q1164.44 2238.53 1170.25 2238.53 Z" fill="#000000" fill-rule="nonzero" fill-opacity="1" /><path clip-path="url(#clip220)" d="M1190.42 2267.84 L1195.3 2267.84 L1195.3 2273.72 L1190.42 2273.72 L1190.42 2267.84 Z" fill="#000000" fill-rule="nonzero" fill-opacity="1" /><path clip-path="url(#clip220)" d="M1209.51 2269.78 L1225.83 2269.78 L1225.83 2273.72 L1203.89 2273.72 L1203.89 2269.78 Q1206.55 2267.03 1211.13 2262.4 Q1215.74 2257.75 1216.92 2256.41 Q1219.17 2253.88 1220.04 2252.15 Q1220.95 2250.39 1220.95 2248.7 Q1220.95 2245.94 1219 2244.21 Q1217.08 2242.47 1213.98 2242.47 Q1211.78 2242.47 1209.33 2243.23 Q1206.9 2244 1204.12 2245.55 L1204.12 2240.83 Q1206.94 2239.69 1209.4 2239.11 Q1211.85 2238.53 1213.89 2238.53 Q1219.26 2238.53 1222.45 2241.22 Q1225.65 2243.91 1225.65 2248.4 Q1225.65 2250.53 1224.84 2252.45 Q1224.05 2254.34 1221.94 2256.94 Q1221.36 2257.61 1218.26 2260.83 Q1215.16 2264.02 1209.51 2269.78 Z" fill="#000000" fill-rule="nonzero" fill-opacity="1" /><path clip-path="url(#clip220)" d="M1235.69 2239.16 L1254.05 2239.16 L1254.05 2243.1 L1239.98 2243.1 L1239.98 2251.57 Q1240.99 2251.22 1242.01 2251.06 Q1243.03 2250.87 1244.05 2250.87 Q1249.84 2250.87 1253.22 2254.04 Q1256.6 2257.22 1256.6 2262.63 Q1256.6 2268.21 1253.12 2271.31 Q1249.65 2274.39 1243.33 2274.39 Q1241.16 2274.39 1238.89 2274.02 Q1236.64 2273.65 1234.23 2272.91 L1234.23 2268.21 Q1236.32 2269.34 1238.54 2269.9 Q1240.76 2270.46 1243.24 2270.46 Q1247.24 2270.46 1249.58 2268.35 Q1251.92 2266.24 1251.92 2262.63 Q1251.92 2259.02 1249.58 2256.91 Q1247.24 2254.81 1243.24 2254.81 Q1241.36 2254.81 1239.49 2255.22 Q1237.64 2255.64 1235.69 2256.52 L1235.69 2239.16 Z" fill="#000000" fill-rule="nonzero" fill-opacity="1" /><path clip-path="url(#clip220)" d="M1809.45 2242.24 Q1805.84 2242.24 1804.01 2245.8 Q1802.21 2249.34 1802.21 2256.47 Q1802.21 2263.58 1804.01 2267.15 Q1805.84 2270.69 1809.45 2270.69 Q1813.09 2270.69 1814.89 2267.15 Q1816.72 2263.58 1816.72 2256.47 Q1816.72 2249.34 1814.89 2245.8 Q1813.09 2242.24 1809.45 2242.24 M1809.45 2238.53 Q1815.26 2238.53 1818.32 2243.14 Q1821.4 2247.72 1821.4 2256.47 Q1821.4 2265.2 1818.32 2269.81 Q1815.26 2274.39 1809.45 2274.39 Q1803.64 2274.39 1800.56 2269.81 Q1797.51 2265.2 1797.51 2256.47 Q1797.51 2247.72 1800.56 2243.14 Q1803.64 2238.53 1809.45 2238.53 Z" fill="#000000" fill-rule="nonzero" fill-opacity="1" /><path clip-path="url(#clip220)" d="M1829.61 2267.84 L1834.5 2267.84 L1834.5 2273.72 L1829.61 2273.72 L1829.61 2267.84 Z" fill="#000000" fill-rule="nonzero" fill-opacity="1" /><path clip-path="url(#clip220)" d="M1854.68 2242.24 Q1851.07 2242.24 1849.24 2245.8 Q1847.44 2249.34 1847.44 2256.47 Q1847.44 2263.58 1849.24 2267.15 Q1851.07 2270.69 1854.68 2270.69 Q1858.32 2270.69 1860.12 2267.15 Q1861.95 2263.58 1861.95 2256.47 Q1861.95 2249.34 1860.12 2245.8 Q1858.32 2242.24 1854.68 2242.24 M1854.68 2238.53 Q1860.49 2238.53 1863.55 2243.14 Q1866.63 2247.72 1866.63 2256.47 Q1866.63 2265.2 1863.55 2269.81 Q1860.49 2274.39 1854.68 2274.39 Q1848.87 2274.39 1845.79 2269.81 Q1842.74 2265.2 1842.74 2256.47 Q1842.74 2247.72 1845.79 2243.14 Q1848.87 2238.53 1854.68 2238.53 Z" fill="#000000" fill-rule="nonzero" fill-opacity="1" /><path clip-path="url(#clip220)" d="M1884.84 2242.24 Q1881.23 2242.24 1879.41 2245.8 Q1877.6 2249.34 1877.6 2256.47 Q1877.6 2263.58 1879.41 2267.15 Q1881.23 2270.69 1884.84 2270.69 Q1888.48 2270.69 1890.28 2267.15 Q1892.11 2263.58 1892.11 2256.47 Q1892.11 2249.34 1890.28 2245.8 Q1888.48 2242.24 1884.84 2242.24 M1884.84 2238.53 Q1890.66 2238.53 1893.71 2243.14 Q1896.79 2247.72 1896.79 2256.47 Q1896.79 2265.2 1893.71 2269.81 Q1890.66 2274.39 1884.84 2274.39 Q1879.03 2274.39 1875.96 2269.81 Q1872.9 2265.2 1872.9 2256.47 Q1872.9 2247.72 1875.96 2243.14 Q1879.03 2238.53 1884.84 2238.53 Z" fill="#000000" fill-rule="nonzero" fill-opacity="1" /><path clip-path="url(#clip220)" d="M2468.56 2242.24 Q2464.95 2242.24 2463.12 2245.8 Q2461.31 2249.34 2461.31 2256.47 Q2461.31 2263.58 2463.12 2267.15 Q2464.95 2270.69 2468.56 2270.69 Q2472.19 2270.69 2474 2267.15 Q2475.83 2263.58 2475.83 2256.47 Q2475.83 2249.34 2474 2245.8 Q2472.19 2242.24 2468.56 2242.24 M2468.56 2238.53 Q2474.37 2238.53 2477.42 2243.14 Q2480.5 2247.72 2480.5 2256.47 Q2480.5 2265.2 2477.42 2269.81 Q2474.37 2274.39 2468.56 2274.39 Q2462.75 2274.39 2459.67 2269.81 Q2456.61 2265.2 2456.61 2256.47 Q2456.61 2247.72 2459.67 2243.14 Q2462.75 2238.53 2468.56 2238.53 Z" fill="#000000" fill-rule="nonzero" fill-opacity="1" /><path clip-path="url(#clip220)" d="M2488.72 2267.84 L2493.6 2267.84 L2493.6 2273.72 L2488.72 2273.72 L2488.72 2267.84 Z" fill="#000000" fill-rule="nonzero" fill-opacity="1" /><path clip-path="url(#clip220)" d="M2507.82 2269.78 L2524.14 2269.78 L2524.14 2273.72 L2502.19 2273.72 L2502.19 2269.78 Q2504.85 2267.03 2509.44 2262.4 Q2514.04 2257.75 2515.22 2256.41 Q2517.47 2253.88 2518.35 2252.15 Q2519.25 2250.39 2519.25 2248.7 Q2519.25 2245.94 2517.31 2244.21 Q2515.39 2242.47 2512.28 2242.47 Q2510.08 2242.47 2507.63 2243.23 Q2505.2 2244 2502.42 2245.55 L2502.42 2240.83 Q2505.25 2239.69 2507.7 2239.11 Q2510.15 2238.53 2512.19 2238.53 Q2517.56 2238.53 2520.76 2241.22 Q2523.95 2243.91 2523.95 2248.4 Q2523.95 2250.53 2523.14 2252.45 Q2522.35 2254.34 2520.25 2256.94 Q2519.67 2257.61 2516.57 2260.83 Q2513.46 2264.02 2507.82 2269.78 Z" fill="#000000" fill-rule="nonzero" fill-opacity="1" /><path clip-path="url(#clip220)" d="M2534 2239.16 L2552.35 2239.16 L2552.35 2243.1 L2538.28 2243.1 L2538.28 2251.57 Q2539.3 2251.22 2540.32 2251.06 Q2541.33 2250.87 2542.35 2250.87 Q2548.14 2250.87 2551.52 2254.04 Q2554.9 2257.22 2554.9 2262.63 Q2554.9 2268.21 2551.43 2271.31 Q2547.96 2274.39 2541.64 2274.39 Q2539.46 2274.39 2537.19 2274.02 Q2534.95 2273.65 2532.54 2272.91 L2532.54 2268.21 Q2534.62 2269.34 2536.84 2269.9 Q2539.07 2270.46 2541.54 2270.46 Q2545.55 2270.46 2547.89 2268.35 Q2550.22 2266.24 2550.22 2262.63 Q2550.22 2259.02 2547.89 2256.91 Q2545.55 2254.81 2541.54 2254.81 Q2539.67 2254.81 2537.79 2255.22 Q2535.94 2255.64 2534 2256.52 L2534 2239.16 Z" fill="#000000" fill-rule="nonzero" fill-opacity="1" /><path clip-path="url(#clip220)" d="M1624.21 2355.58 Q1624.21 2355.32 1625.08 2353.64 Q1625.95 2351.94 1629.01 2345.85 Q1632.07 2339.73 1635.23 2333.32 L1646.6 2310.46 Q1647.4 2309.01 1648.43 2309.01 Q1649.37 2309.01 1649.78 2309.59 Q1650.2 2310.17 1652.14 2314.06 Q1653.13 2315.96 1653.71 2317.19 L1672.36 2354.51 Q1672.68 2355.32 1672.71 2355.58 Q1672.71 2356.22 1671.59 2356.22 L1625.95 2356.22 Q1624.21 2356.22 1624.21 2355.58 M1628.56 2351.2 L1664.05 2351.2 L1646.31 2315.58 L1628.56 2351.2 Z" fill="#000000" fill-rule="nonzero" fill-opacity="1" /><path clip-path="url(#clip220)" d="M1711.21 2356.28 Q1711.21 2356.9 1710.5 2356.96 L1709.05 2356.96 Q1707.57 2356.96 1706.93 2356.74 Q1706.28 2356.51 1705.54 2355.48 Q1705.09 2354.83 1703.96 2351.84 Q1702.87 2348.81 1701.26 2344.24 Q1699.68 2339.67 1698.62 2336.96 L1682.74 2355.7 Q1681.65 2357.09 1680.55 2357.09 Q1679.75 2357.09 1679.17 2356.54 Q1678.59 2355.99 1678.59 2355.16 Q1678.59 2354.55 1678.81 2354.19 Q1679.07 2353.84 1679.75 2353.13 L1697.97 2335.06 L1691.57 2317.12 Q1690.34 2313.8 1689.63 2312.97 Q1688.96 2312.13 1687.28 2311.84 Q1686.67 2311.68 1686.67 2311.16 Q1686.67 2310.46 1687.86 2310.46 Q1694.24 2310.46 1695.91 2315.13 L1709.38 2352.64 Q1710.12 2354.8 1710.89 2355.7 Q1711.21 2356.12 1711.21 2356.28 Z" fill="#000000" fill-rule="nonzero" fill-opacity="1" /><polyline clip-path="url(#clip222)" style="stroke:#000000; stroke-linecap:round; stroke-linejoin:round; stroke-width:2; stroke-opacity:0.1; fill:none" points="188.089,2143.9 3152.76,2143.9 "/>
<polyline clip-path="url(#clip222)" style="stroke:#000000; stroke-linecap:round; stroke-linejoin:round; stroke-width:2; stroke-opacity:0.1; fill:none" points="188.089,1449.53 3152.76,1449.53 "/>
<polyline clip-path="url(#clip222)" style="stroke:#000000; stroke-linecap:round; stroke-linejoin:round; stroke-width:2; stroke-opacity:0.1; fill:none" points="188.089,755.159 3152.76,755.159 "/>
<polyline clip-path="url(#clip222)" style="stroke:#000000; stroke-linecap:round; stroke-linejoin:round; stroke-width:2; stroke-opacity:0.1; fill:none" points="188.089,60.7866 3152.76,60.7866 "/>
<polyline clip-path="url(#clip220)" style="stroke:#000000; stroke-linecap:round; stroke-linejoin:round; stroke-width:4; stroke-opacity:1; fill:none" points="188.089,2204.92 188.089,47.2441 "/>
<polyline clip-path="url(#clip220)" style="stroke:#000000; stroke-linecap:round; stroke-linejoin:round; stroke-width:4; stroke-opacity:1; fill:none" points="188.089,2143.9 206.987,2143.9 "/>
<polyline clip-path="url(#clip220)" style="stroke:#000000; stroke-linecap:round; stroke-linejoin:round; stroke-width:4; stroke-opacity:1; fill:none" points="188.089,1449.53 206.987,1449.53 "/>
<polyline clip-path="url(#clip220)" style="stroke:#000000; stroke-linecap:round; stroke-linejoin:round; stroke-width:4; stroke-opacity:1; fill:none" points="188.089,755.159 206.987,755.159 "/>
<polyline clip-path="url(#clip220)" style="stroke:#000000; stroke-linecap:round; stroke-linejoin:round; stroke-width:4; stroke-opacity:1; fill:none" points="188.089,60.7866 206.987,60.7866 "/>
<path clip-path="url(#clip220)" d="M128.145 2129.7 Q124.533 2129.7 122.705 2133.27 Q120.899 2136.81 120.899 2143.94 Q120.899 2151.04 122.705 2154.61 Q124.533 2158.15 128.145 2158.15 Q131.779 2158.15 133.584 2154.61 Q135.413 2151.04 135.413 2143.94 Q135.413 2136.81 133.584 2133.27 Q131.779 2129.7 128.145 2129.7 M128.145 2126 Q133.955 2126 137.01 2130.6 Q140.089 2135.19 140.089 2143.94 Q140.089 2152.66 137.01 2157.27 Q133.955 2161.85 128.145 2161.85 Q122.334 2161.85 119.256 2157.27 Q116.2 2152.66 116.2 2143.94 Q116.2 2135.19 119.256 2130.6 Q122.334 2126 128.145 2126 Z" fill="#000000" fill-rule="nonzero" fill-opacity="1" /><path clip-path="url(#clip220)" d="M120.182 1462.88 L127.82 1462.88 L127.82 1436.51 L119.51 1438.18 L119.51 1433.92 L127.774 1432.25 L132.45 1432.25 L132.45 1462.88 L140.089 1462.88 L140.089 1466.81 L120.182 1466.81 L120.182 1462.88 Z" fill="#000000" fill-rule="nonzero" fill-opacity="1" /><path clip-path="url(#clip220)" d="M123.77 768.504 L140.089 768.504 L140.089 772.439 L118.145 772.439 L118.145 768.504 Q120.807 765.749 125.39 761.119 Q129.996 756.467 131.177 755.124 Q133.422 752.601 134.302 750.865 Q135.205 749.106 135.205 747.416 Q135.205 744.661 133.26 742.925 Q131.339 741.189 128.237 741.189 Q126.038 741.189 123.584 741.953 Q121.154 742.717 118.376 744.268 L118.376 739.546 Q121.2 738.411 123.654 737.833 Q126.108 737.254 128.145 737.254 Q133.515 737.254 136.709 739.939 Q139.904 742.624 139.904 747.115 Q139.904 749.245 139.094 751.166 Q138.307 753.064 136.2 755.657 Q135.621 756.328 132.52 759.545 Q129.418 762.74 123.77 768.504 Z" fill="#000000" fill-rule="nonzero" fill-opacity="1" /><path clip-path="url(#clip220)" d="M132.959 59.4324 Q136.316 60.15 138.191 62.4185 Q140.089 64.687 140.089 68.0203 Q140.089 73.1361 136.57 75.937 Q133.052 78.7379 126.57 78.7379 Q124.395 78.7379 122.08 78.2981 Q119.788 77.8814 117.334 77.0249 L117.334 72.5111 Q119.279 73.6453 121.594 74.224 Q123.908 74.8027 126.432 74.8027 Q130.83 74.8027 133.121 73.0666 Q135.436 71.3305 135.436 68.0203 Q135.436 64.9648 133.283 63.2518 Q131.154 61.5157 127.334 61.5157 L123.307 61.5157 L123.307 57.6732 L127.52 57.6732 Q130.969 57.6732 132.797 56.3074 Q134.626 54.9186 134.626 52.326 Q134.626 49.664 132.728 48.2519 Q130.853 46.8167 127.334 46.8167 Q125.413 46.8167 123.214 47.2334 Q121.015 47.6501 118.376 48.5297 L118.376 44.3631 Q121.038 43.6223 123.353 43.252 Q125.691 42.8816 127.751 42.8816 Q133.075 42.8816 136.177 45.3121 Q139.279 47.7195 139.279 51.8399 Q139.279 54.7102 137.635 56.701 Q135.992 58.6685 132.959 59.4324 Z" fill="#000000" fill-rule="nonzero" fill-opacity="1" /><path clip-path="url(#clip220)" d="M23.7071 1216.81 L4.41896 1216.81 L4.41896 1210.95 L53.9442 1210.95 L53.9442 1216.81 L48.597 1216.81 Q51.7798 1218.66 53.3394 1221.49 Q54.8672 1224.29 54.8672 1228.24 Q54.8672 1234.7 49.711 1238.77 Q44.5547 1242.81 36.152 1242.81 Q27.7493 1242.81 22.5931 1238.77 Q17.4368 1234.7 17.4368 1228.24 Q17.4368 1224.29 18.9964 1221.49 Q20.5242 1218.66 23.7071 1216.81 M36.152 1236.77 Q42.6132 1236.77 46.3053 1234.12 Q49.9656 1231.45 49.9656 1226.8 Q49.9656 1222.16 46.3053 1219.48 Q42.6132 1216.81 36.152 1216.81 Q29.6908 1216.81 26.0305 1219.48 Q22.3384 1222.16 22.3384 1226.8 Q22.3384 1231.45 26.0305 1234.12 Q29.6908 1236.77 36.152 1236.77 Z" fill="#000000" fill-rule="nonzero" fill-opacity="1" /><path clip-path="url(#clip220)" d="M34.6561 1168.4 L37.5206 1168.4 L37.5206 1195.32 Q43.5681 1194.94 46.7509 1191.7 Q49.9019 1188.42 49.9019 1182.59 Q49.9019 1179.22 49.0744 1176.07 Q48.2469 1172.89 46.5918 1169.77 L52.1299 1169.77 Q53.4667 1172.92 54.167 1176.23 Q54.8672 1179.54 54.8672 1182.94 Q54.8672 1191.47 49.9019 1196.47 Q44.9367 1201.44 36.4703 1201.44 Q27.7174 1201.44 22.5931 1196.73 Q17.4368 1191.98 17.4368 1183.96 Q17.4368 1176.77 22.0838 1172.6 Q26.6989 1168.4 34.6561 1168.4 M32.9373 1174.25 Q28.1312 1174.32 25.2666 1176.96 Q22.4021 1179.57 22.4021 1183.9 Q22.4021 1188.8 25.1712 1191.76 Q27.9402 1194.69 32.9692 1195.13 L32.9373 1174.25 Z" fill="#000000" fill-rule="nonzero" fill-opacity="1" /><path clip-path="url(#clip220)" d="M32.4281 1129.15 L53.9442 1129.15 L53.9442 1135.01 L32.619 1135.01 Q27.5583 1135.01 25.0438 1136.98 Q22.5294 1138.96 22.5294 1142.9 Q22.5294 1147.65 25.5531 1150.38 Q28.5768 1153.12 33.7967 1153.12 L53.9442 1153.12 L53.9442 1159.01 L18.2962 1159.01 L18.2962 1153.12 L23.8344 1153.12 Q20.6197 1151.02 19.0283 1148.19 Q17.4368 1145.32 17.4368 1141.6 Q17.4368 1135.46 21.2563 1132.3 Q25.0438 1129.15 32.4281 1129.15 Z" fill="#000000" fill-rule="nonzero" fill-opacity="1" /><path clip-path="url(#clip220)" d="M19.3465 1094.75 L24.8847 1094.75 Q23.6116 1097.23 22.975 1099.9 Q22.3384 1102.58 22.3384 1105.44 Q22.3384 1109.8 23.6752 1112 Q25.012 1114.16 27.6856 1114.16 Q29.7226 1114.16 30.9003 1112.6 Q32.0461 1111.04 33.0965 1106.33 L33.5421 1104.33 Q34.8789 1098.09 37.3297 1095.48 Q39.7486 1092.84 44.1091 1092.84 Q49.0744 1092.84 51.9708 1096.78 Q54.8672 1100.7 54.8672 1107.57 Q54.8672 1110.44 54.2943 1113.56 Q53.7532 1116.64 52.6392 1120.08 L46.5918 1120.08 Q48.2787 1116.84 49.138 1113.68 Q49.9656 1110.53 49.9656 1107.45 Q49.9656 1103.31 48.5651 1101.08 Q47.1329 1098.85 44.5547 1098.85 Q42.1676 1098.85 40.8945 1100.48 Q39.6213 1102.07 38.4437 1107.51 L37.9662 1109.55 Q36.8204 1114.99 34.4651 1117.41 Q32.078 1119.83 27.9402 1119.83 Q22.9113 1119.83 20.1741 1116.26 Q17.4368 1112.7 17.4368 1106.14 Q17.4368 1102.89 17.9143 1100.03 Q18.3917 1097.17 19.3465 1094.75 Z" fill="#000000" fill-rule="nonzero" fill-opacity="1" /><path clip-path="url(#clip220)" d="M18.2962 1083.51 L18.2962 1077.65 L53.9442 1077.65 L53.9442 1083.51 L18.2962 1083.51 M4.41896 1083.51 L4.41896 1077.65 L11.835 1077.65 L11.835 1083.51 L4.41896 1083.51 Z" fill="#000000" fill-rule="nonzero" fill-opacity="1" /><path clip-path="url(#clip220)" d="M8.17473 1059.61 L18.2962 1059.61 L18.2962 1047.55 L22.8477 1047.55 L22.8477 1059.61 L42.1994 1059.61 Q46.5599 1059.61 47.8013 1058.43 Q49.0426 1057.22 49.0426 1053.56 L49.0426 1047.55 L53.9442 1047.55 L53.9442 1053.56 Q53.9442 1060.34 51.4297 1062.92 Q48.8834 1065.5 42.1994 1065.5 L22.8477 1065.5 L22.8477 1069.79 L18.2962 1069.79 L18.2962 1065.5 L8.17473 1065.5 L8.17473 1059.61 Z" fill="#000000" fill-rule="nonzero" fill-opacity="1" /><path clip-path="url(#clip220)" d="M57.2543 1025.01 Q63.62 1027.49 65.5616 1029.85 Q67.5031 1032.2 67.5031 1036.15 L67.5031 1040.83 L62.6015 1040.83 L62.6015 1037.39 Q62.6015 1034.97 61.4557 1033.64 Q60.3099 1032.3 56.0448 1030.68 L53.3712 1029.63 L18.2962 1044.04 L18.2962 1037.84 L46.178 1026.7 L18.2962 1015.56 L18.2962 1009.35 L57.2543 1025.01 Z" fill="#000000" fill-rule="nonzero" fill-opacity="1" /><polyline clip-path="url(#clip222)" style="stroke:#009af9; stroke-linecap:round; stroke-linejoin:round; stroke-width:20; stroke-opacity:1; fill:none" points="271.995,2143.85 286.049,2143.85 300.104,2143.84 314.158,2143.83 328.213,2143.81 342.267,2143.78 356.322,2143.74 370.376,2143.69 384.431,2143.63 398.486,2143.55 412.54,2143.44 426.595,2143.31 440.649,2143.15 454.704,2142.94 468.758,2142.69 482.813,2142.37 496.867,2141.99 510.922,2141.52 524.977,2140.95 539.031,2140.26 553.086,2139.44 567.14,2138.46 581.195,2137.3 595.249,2135.93 609.304,2134.32 623.358,2132.44 637.413,2130.27 651.467,2127.76 665.522,2124.89 679.577,2121.61 693.631,2117.88 707.686,2113.68 721.74,2108.96 735.795,2103.7 749.849,2097.84 763.904,2091.37 777.958,2084.26 792.013,2076.48 806.068,2068 820.122,2058.83 834.177,2048.93 848.231,2038.32 862.286,2026.98 876.34,2014.92 890.395,2002.16 904.449,1988.7 918.504,1974.56 932.558,1959.76 946.613,1944.31 960.668,1928.25 974.722,1911.58 988.777,1894.32 1002.83,1876.48 1016.89,1858.06 1030.94,1839.05 1044.99,1819.44 1059.05,1799.2 1073.1,1778.29 1087.16,1756.66 1101.21,1734.26 1115.27,1711 1129.32,1686.8 1143.38,1661.57 1157.43,1635.22 1171.49,1607.64 1185.54,1578.73 1199.59,1548.4 1213.65,1516.55 1227.7,1483.11 1241.76,1448.02 1255.81,1411.22 1269.87,1372.7 1283.92,1332.47 1297.98,1290.56 1312.03,1247.04 1326.09,1202 1340.14,1155.58 1354.2,1107.94 1368.25,1059.26 1382.3,1009.78 1396.36,959.72 1410.41,909.355 1424.47,858.958 1438.52,808.812 1452.58,759.204 1466.63,710.418 1480.69,662.725 1494.74,616.383 1508.8,571.629 1522.85,528.673 1536.9,487.694 1550.96,448.84 1565.01,412.221 1579.07,377.915 1593.12,345.959 1607.18,316.361 1621.23,289.094 1635.29,264.104 1649.34,241.316 1663.4,220.637 1677.45,201.962 1691.5,185.185 1705.56,170.201 1719.61,156.915 1733.67,145.25 1747.72,135.151 1761.78,126.593 1775.83,119.579 1789.89,114.15 1803.94,110.382 1818,108.387 1832.05,108.31 1846.1,110.328 1860.16,114.641 1874.21,121.468 1888.27,131.04 1902.32,143.588 1916.38,159.337 1930.43,178.494 1944.49,201.242 1958.54,227.725 1972.6,258.048 1986.65,292.263 2000.7,330.367 2014.76,372.3 2028.81,417.939 2042.87,467.105 2056.92,519.559 2070.98,575.008 2085.03,633.113 2099.09,693.496 2113.14,755.747 2127.2,819.432 2141.25,884.107 2155.3,949.324 2169.36,1014.64 2183.41,1079.64 2197.47,1143.91 2211.52,1207.07 2225.58,1268.81 2239.63,1328.81 2253.69,1386.82 2267.74,1442.62 2281.8,1496.06 2295.85,1546.99 2309.9,1595.33 2323.96,1641.04 2338.01,1684.09 2352.07,1724.49 2366.12,1762.27 2380.18,1797.51 2394.23,1830.26 2408.29,1860.62 2422.34,1888.69 2436.4,1914.56 2450.45,1938.35 2464.5,1960.17 2478.56,1980.13 2492.61,1998.35 2506.67,2014.92 2520.72,2029.95 2534.78,2043.56 2548.83,2055.83 2562.89,2066.86 2576.94,2076.76 2591,2085.59 2605.05,2093.45 2619.1,2100.43 2633.16,2106.58 2647.21,2112 2661.27,2116.75 2675.32,2120.88 2689.38,2124.48 2703.43,2127.58 2717.49,2130.25 2731.54,2132.54 2745.6,2134.49 2759.65,2136.14 2773.7,2137.53 2787.76,2138.7 2801.81,2139.68 2815.87,2140.49 2829.92,2141.15 2843.98,2141.7 2858.03,2142.15 2872.09,2142.52 2886.14,2142.81 2900.2,2143.05 2914.25,2143.23 2928.3,2143.38 2942.36,2143.5 2956.41,2143.6 2970.47,2143.67 2984.52,2143.72 2998.58,2143.77 3012.63,2143.8 3026.69,2143.82 3040.74,2143.84 3054.8,2143.85 3068.85,2143.85 "/>
</svg>
