<?xml version="1.0" encoding="utf-8"?>
<svg xmlns="http://www.w3.org/2000/svg" xmlns:xlink="http://www.w3.org/1999/xlink" width="800" height="600" viewBox="0 0 3200 2400">
<defs>
  <clipPath id="clip020">
    <rect x="0" y="0" width="3200" height="2400"/>
  </clipPath>
</defs>
<path clip-path="url(#clip020)" d="M0 2400 L3200 2400 L3200 0 L0 0  Z" fill="#ffffff" fill-rule="evenodd" fill-opacity="1"/>
<defs>
  <clipPath id="clip021">
    <rect x="640" y="0" width="2241" height="2241"/>
  </clipPath>
</defs>
<path clip-path="url(#clip020)" d="M189.385 2204.92 L3152.76 2204.92 L3152.76 47.2441 L189.385 47.2441  Z" fill="#ffffff" fill-rule="evenodd" fill-opacity="1"/>
<defs>
  <clipPath id="clip022">
    <rect x="189" y="47" width="2964" height="2159"/>
  </clipPath>
</defs>
<polyline clip-path="url(#clip022)" style="stroke:#000000; stroke-linecap:round; stroke-linejoin:round; stroke-width:2; stroke-opacity:0.1; fill:none" points="752.32,2204.92 752.32,47.2441 "/>
<polyline clip-path="url(#clip022)" style="stroke:#000000; stroke-linecap:round; stroke-linejoin:round; stroke-width:2; stroke-opacity:0.1; fill:none" points="1360.16,2204.92 1360.16,47.2441 "/>
<polyline clip-path="url(#clip022)" style="stroke:#000000; stroke-linecap:round; stroke-linejoin:round; stroke-width:2; stroke-opacity:0.1; fill:none" points="1968.01,2204.92 1968.01,47.2441 "/>
<polyline clip-path="url(#clip022)" style="stroke:#000000; stroke-linecap:round; stroke-linejoin:round; stroke-width:2; stroke-opacity:0.1; fill:none" points="2575.85,2204.92 2575.85,47.2441 "/>
<polyline clip-path="url(#clip020)" style="stroke:#000000; stroke-linecap:round; stroke-linejoin:round; stroke-width:4; stroke-opacity:1; fill:none" points="189.385,2204.92 3152.76,2204.92 "/>
<polyline clip-path="url(#clip020)" style="stroke:#000000; stroke-linecap:round; stroke-linejoin:round; stroke-width:4; stroke-opacity:1; fill:none" points="752.32,2204.92 752.32,2186.02 "/>
<polyline clip-path="url(#clip020)" style="stroke:#000000; stroke-linecap:round; stroke-linejoin:round; stroke-width:4; stroke-opacity:1; fill:none" points="1360.16,2204.92 1360.16,2186.02 "/>
<polyline clip-path="url(#clip020)" style="stroke:#000000; stroke-linecap:round; stroke-linejoin:round; stroke-width:4; stroke-opacity:1; fill:none" points="1968.01,2204.92 1968.01,2186.02 "/>
<polyline clip-path="url(#clip020)" style="stroke:#000000; stroke-linecap:round; stroke-linejoin:round; stroke-width:4; stroke-opacity:1; fill:none" points="2575.85,2204.92 2575.85,2186.02 "/>
<path clip-path="url(#clip020)" d="M729.704 2242.24 Q726.093 2242.24 724.264 2245.8 Q722.459 2249.34 722.459 2256.47 Q722.459 2263.58 724.264 2267.15 Q726.093 2270.69 729.704 2270.69 Q733.338 2270.69 735.144 2267.15 Q736.973 2263.58 736.973 2256.47 Q736.973 2249.34 735.144 2245.8 Q733.338 2242.24 729.704 2242.24 M729.704 2238.53 Q735.514 2238.53 738.57 2243.14 Q741.649 2247.72 741.649 2256.47 Q741.649 2265.2 738.57 2269.81 Q735.514 2274.39 729.704 2274.39 Q723.894 2274.39 720.815 2269.81 Q717.76 2265.2 717.76 2256.47 Q717.76 2247.72 720.815 2243.14 Q723.894 2238.53 729.704 2238.53 Z" fill="#000000" fill-rule="nonzero" fill-opacity="1" /><path clip-path="url(#clip020)" d="M749.866 2267.84 L754.75 2267.84 L754.75 2273.72 L749.866 2273.72 L749.866 2267.84 Z" fill="#000000" fill-rule="nonzero" fill-opacity="1" /><path clip-path="url(#clip020)" d="M774.935 2242.24 Q771.324 2242.24 769.496 2245.8 Q767.69 2249.34 767.69 2256.47 Q767.69 2263.58 769.496 2267.15 Q771.324 2270.69 774.935 2270.69 Q778.57 2270.69 780.375 2267.15 Q782.204 2263.58 782.204 2256.47 Q782.204 2249.34 780.375 2245.8 Q778.57 2242.24 774.935 2242.24 M774.935 2238.53 Q780.746 2238.53 783.801 2243.14 Q786.88 2247.72 786.88 2256.47 Q786.88 2265.2 783.801 2269.81 Q780.746 2274.39 774.935 2274.39 Q769.125 2274.39 766.047 2269.81 Q762.991 2265.2 762.991 2256.47 Q762.991 2247.72 766.047 2243.14 Q769.125 2238.53 774.935 2238.53 Z" fill="#000000" fill-rule="nonzero" fill-opacity="1" /><path clip-path="url(#clip020)" d="M1338.35 2242.24 Q1334.74 2242.24 1332.91 2245.8 Q1331.1 2249.34 1331.1 2256.47 Q1331.1 2263.58 1332.91 2267.15 Q1334.74 2270.69 1338.35 2270.69 Q1341.98 2270.69 1343.79 2267.15 Q1345.62 2263.58 1345.62 2256.47 Q1345.62 2249.34 1343.79 2245.8 Q1341.98 2242.24 1338.35 2242.24 M1338.35 2238.53 Q1344.16 2238.53 1347.21 2243.14 Q1350.29 2247.72 1350.29 2256.47 Q1350.29 2265.2 1347.21 2269.81 Q1344.16 2274.39 1338.35 2274.39 Q1332.54 2274.39 1329.46 2269.81 Q1326.4 2265.2 1326.4 2256.47 Q1326.4 2247.72 1329.46 2243.14 Q1332.54 2238.53 1338.35 2238.53 Z" fill="#000000" fill-rule="nonzero" fill-opacity="1" /><path clip-path="url(#clip020)" d="M1358.51 2267.84 L1363.39 2267.84 L1363.39 2273.72 L1358.51 2273.72 L1358.51 2267.84 Z" fill="#000000" fill-rule="nonzero" fill-opacity="1" /><path clip-path="url(#clip020)" d="M1377.61 2269.78 L1393.93 2269.78 L1393.93 2273.72 L1371.98 2273.72 L1371.98 2269.78 Q1374.64 2267.03 1379.23 2262.4 Q1383.83 2257.75 1385.01 2256.41 Q1387.26 2253.88 1388.14 2252.15 Q1389.04 2250.39 1389.04 2248.7 Q1389.04 2245.94 1387.1 2244.21 Q1385.18 2242.47 1382.07 2242.47 Q1379.87 2242.47 1377.42 2243.23 Q1374.99 2244 1372.21 2245.55 L1372.21 2240.83 Q1375.04 2239.69 1377.49 2239.11 Q1379.94 2238.53 1381.98 2238.53 Q1387.35 2238.53 1390.55 2241.22 Q1393.74 2243.91 1393.74 2248.4 Q1393.74 2250.53 1392.93 2252.45 Q1392.14 2254.34 1390.04 2256.94 Q1389.46 2257.61 1386.36 2260.83 Q1383.25 2264.02 1377.61 2269.78 Z" fill="#000000" fill-rule="nonzero" fill-opacity="1" /><path clip-path="url(#clip020)" d="M1945.15 2242.24 Q1941.54 2242.24 1939.71 2245.8 Q1937.9 2249.34 1937.9 2256.47 Q1937.9 2263.58 1939.71 2267.15 Q1941.54 2270.69 1945.15 2270.69 Q1948.78 2270.69 1950.59 2267.15 Q1952.42 2263.58 1952.42 2256.47 Q1952.42 2249.34 1950.59 2245.8 Q1948.78 2242.24 1945.15 2242.24 M1945.15 2238.53 Q1950.96 2238.53 1954.01 2243.14 Q1957.09 2247.72 1957.09 2256.47 Q1957.09 2265.2 1954.01 2269.81 Q1950.96 2274.39 1945.15 2274.39 Q1939.34 2274.39 1936.26 2269.81 Q1933.2 2265.2 1933.2 2256.47 Q1933.2 2247.72 1936.26 2243.14 Q1939.34 2238.53 1945.15 2238.53 Z" fill="#000000" fill-rule="nonzero" fill-opacity="1" /><path clip-path="url(#clip020)" d="M1965.31 2267.84 L1970.2 2267.84 L1970.2 2273.72 L1965.31 2273.72 L1965.31 2267.84 Z" fill="#000000" fill-rule="nonzero" fill-opacity="1" /><path clip-path="url(#clip020)" d="M1993.23 2243.23 L1981.42 2261.68 L1993.23 2261.68 L1993.23 2243.23 M1992 2239.16 L1997.88 2239.16 L1997.88 2261.68 L2002.81 2261.68 L2002.81 2265.57 L1997.88 2265.57 L1997.88 2273.72 L1993.23 2273.72 L1993.23 2265.57 L1977.63 2265.57 L1977.63 2261.06 L1992 2239.16 Z" fill="#000000" fill-rule="nonzero" fill-opacity="1" /><path clip-path="url(#clip020)" d="M2553.15 2242.24 Q2549.54 2242.24 2547.72 2245.8 Q2545.91 2249.34 2545.91 2256.47 Q2545.91 2263.58 2547.72 2267.15 Q2549.54 2270.69 2553.15 2270.69 Q2556.79 2270.69 2558.59 2267.15 Q2560.42 2263.58 2560.42 2256.47 Q2560.42 2249.34 2558.59 2245.8 Q2556.79 2242.24 2553.15 2242.24 M2553.15 2238.53 Q2558.97 2238.53 2562.02 2243.14 Q2565.1 2247.72 2565.1 2256.47 Q2565.1 2265.2 2562.02 2269.81 Q2558.97 2274.39 2553.15 2274.39 Q2547.34 2274.39 2544.27 2269.81 Q2541.21 2265.2 2541.21 2256.47 Q2541.21 2247.72 2544.27 2243.14 Q2547.34 2238.53 2553.15 2238.53 Z" fill="#000000" fill-rule="nonzero" fill-opacity="1" /><path clip-path="url(#clip020)" d="M2573.32 2267.84 L2578.2 2267.84 L2578.2 2273.72 L2573.32 2273.72 L2573.32 2267.84 Z" fill="#000000" fill-rule="nonzero" fill-opacity="1" /><path clip-path="url(#clip020)" d="M2598.96 2254.58 Q2595.82 2254.58 2593.96 2256.73 Q2592.14 2258.88 2592.14 2262.63 Q2592.14 2266.36 2593.96 2268.53 Q2595.82 2270.69 2598.96 2270.69 Q2602.11 2270.69 2603.94 2268.53 Q2605.79 2266.36 2605.79 2262.63 Q2605.79 2258.88 2603.94 2256.73 Q2602.11 2254.58 2598.96 2254.58 M2608.25 2239.92 L2608.25 2244.18 Q2606.49 2243.35 2604.68 2242.91 Q2602.9 2242.47 2601.14 2242.47 Q2596.51 2242.47 2594.06 2245.59 Q2591.63 2248.72 2591.28 2255.04 Q2592.65 2253.03 2594.71 2251.96 Q2596.77 2250.87 2599.24 2250.87 Q2604.45 2250.87 2607.46 2254.04 Q2610.49 2257.19 2610.49 2262.63 Q2610.49 2267.96 2607.34 2271.17 Q2604.2 2274.39 2598.96 2274.39 Q2592.97 2274.39 2589.8 2269.81 Q2586.63 2265.2 2586.63 2256.47 Q2586.63 2248.28 2590.52 2243.42 Q2594.4 2238.53 2600.96 2238.53 Q2602.71 2238.53 2604.5 2238.88 Q2606.3 2239.23 2608.25 2239.92 Z" fill="#000000" fill-rule="nonzero" fill-opacity="1" /><path clip-path="url(#clip020)" d="M1684.67 2355.57 Q1684.67 2356.18 1683.96 2356.24 L1682.51 2356.24 Q1681.03 2356.24 1680.39 2356.02 Q1679.74 2355.79 1679 2354.76 Q1678.55 2354.12 1677.43 2351.12 Q1676.33 2348.09 1674.72 2343.52 Q1673.14 2338.95 1672.08 2336.24 L1656.2 2354.99 Q1655.11 2356.37 1654.01 2356.37 Q1653.21 2356.37 1652.63 2355.82 Q1652.05 2355.28 1652.05 2354.44 Q1652.05 2353.83 1652.27 2353.47 Q1652.53 2353.12 1653.21 2352.41 L1671.44 2334.34 L1665.03 2316.4 Q1663.8 2313.09 1663.09 2312.25 Q1662.42 2311.41 1660.74 2311.12 Q1660.13 2310.96 1660.13 2310.45 Q1660.13 2309.74 1661.32 2309.74 Q1667.7 2309.74 1669.37 2314.41 L1682.84 2351.93 Q1683.58 2354.08 1684.35 2354.99 Q1684.67 2355.4 1684.67 2355.57 Z" fill="#000000" fill-rule="nonzero" fill-opacity="1" /><polyline clip-path="url(#clip022)" style="stroke:#000000; stroke-linecap:round; stroke-linejoin:round; stroke-width:2; stroke-opacity:0.1; fill:none" points="189.385,2143.9 3152.76,2143.9 "/>
<polyline clip-path="url(#clip022)" style="stroke:#000000; stroke-linecap:round; stroke-linejoin:round; stroke-width:2; stroke-opacity:0.1; fill:none" points="189.385,1746.46 3152.76,1746.46 "/>
<polyline clip-path="url(#clip022)" style="stroke:#000000; stroke-linecap:round; stroke-linejoin:round; stroke-width:2; stroke-opacity:0.1; fill:none" points="189.385,1349.03 3152.76,1349.03 "/>
<polyline clip-path="url(#clip022)" style="stroke:#000000; stroke-linecap:round; stroke-linejoin:round; stroke-width:2; stroke-opacity:0.1; fill:none" points="189.385,951.594 3152.76,951.594 "/>
<polyline clip-path="url(#clip022)" style="stroke:#000000; stroke-linecap:round; stroke-linejoin:round; stroke-width:2; stroke-opacity:0.1; fill:none" points="189.385,554.16 3152.76,554.16 "/>
<polyline clip-path="url(#clip022)" style="stroke:#000000; stroke-linecap:round; stroke-linejoin:round; stroke-width:2; stroke-opacity:0.1; fill:none" points="189.385,156.726 3152.76,156.726 "/>
<polyline clip-path="url(#clip020)" style="stroke:#000000; stroke-linecap:round; stroke-linejoin:round; stroke-width:4; stroke-opacity:1; fill:none" points="189.385,2204.92 189.385,47.2441 "/>
<polyline clip-path="url(#clip020)" style="stroke:#000000; stroke-linecap:round; stroke-linejoin:round; stroke-width:4; stroke-opacity:1; fill:none" points="189.385,2143.9 208.283,2143.9 "/>
<polyline clip-path="url(#clip020)" style="stroke:#000000; stroke-linecap:round; stroke-linejoin:round; stroke-width:4; stroke-opacity:1; fill:none" points="189.385,1746.46 208.283,1746.46 "/>
<polyline clip-path="url(#clip020)" style="stroke:#000000; stroke-linecap:round; stroke-linejoin:round; stroke-width:4; stroke-opacity:1; fill:none" points="189.385,1349.03 208.283,1349.03 "/>
<polyline clip-path="url(#clip020)" style="stroke:#000000; stroke-linecap:round; stroke-linejoin:round; stroke-width:4; stroke-opacity:1; fill:none" points="189.385,951.594 208.283,951.594 "/>
<polyline clip-path="url(#clip020)" style="stroke:#000000; stroke-linecap:round; stroke-linejoin:round; stroke-width:4; stroke-opacity:1; fill:none" points="189.385,554.16 208.283,554.16 "/>
<polyline clip-path="url(#clip020)" style="stroke:#000000; stroke-linecap:round; stroke-linejoin:round; stroke-width:4; stroke-opacity:1; fill:none" points="189.385,156.726 208.283,156.726 "/>
<path clip-path="url(#clip020)" d="M129.441 2129.7 Q125.83 2129.7 124.001 2133.26 Q122.195 2136.8 122.195 2143.93 Q122.195 2151.04 124.001 2154.6 Q125.83 2158.15 129.441 2158.15 Q133.075 2158.15 134.881 2154.6 Q136.709 2151.04 136.709 2143.93 Q136.709 2136.8 134.881 2133.26 Q133.075 2129.7 129.441 2129.7 M129.441 2125.99 Q135.251 2125.99 138.307 2130.6 Q141.385 2135.18 141.385 2143.93 Q141.385 2152.66 138.307 2157.27 Q135.251 2161.85 129.441 2161.85 Q123.631 2161.85 120.552 2157.27 Q117.496 2152.66 117.496 2143.93 Q117.496 2135.18 120.552 2130.6 Q123.631 2125.99 129.441 2125.99 Z" fill="#000000" fill-rule="nonzero" fill-opacity="1" /><path clip-path="url(#clip020)" d="M121.478 1759.81 L129.117 1759.81 L129.117 1733.44 L120.807 1735.11 L120.807 1730.85 L129.07 1729.18 L133.746 1729.18 L133.746 1759.81 L141.385 1759.81 L141.385 1763.74 L121.478 1763.74 L121.478 1759.81 Z" fill="#000000" fill-rule="nonzero" fill-opacity="1" /><path clip-path="url(#clip020)" d="M125.066 1362.37 L141.385 1362.37 L141.385 1366.31 L119.441 1366.31 L119.441 1362.37 Q122.103 1359.62 126.686 1354.99 Q131.293 1350.34 132.473 1348.99 Q134.719 1346.47 135.598 1344.73 Q136.501 1342.98 136.501 1341.29 Q136.501 1338.53 134.557 1336.8 Q132.635 1335.06 129.533 1335.06 Q127.334 1335.06 124.881 1335.82 Q122.45 1336.59 119.672 1338.14 L119.672 1333.42 Q122.496 1332.28 124.95 1331.7 Q127.404 1331.12 129.441 1331.12 Q134.811 1331.12 138.006 1333.81 Q141.2 1336.49 141.2 1340.98 Q141.2 1343.11 140.39 1345.04 Q139.603 1346.93 137.496 1349.53 Q136.918 1350.2 133.816 1353.42 Q130.714 1356.61 125.066 1362.37 Z" fill="#000000" fill-rule="nonzero" fill-opacity="1" /><path clip-path="url(#clip020)" d="M134.256 950.24 Q137.612 950.958 139.487 953.226 Q141.385 955.495 141.385 958.828 Q141.385 963.944 137.867 966.745 Q134.348 969.546 127.867 969.546 Q125.691 969.546 123.376 969.106 Q121.084 968.689 118.631 967.833 L118.631 963.319 Q120.575 964.453 122.89 965.032 Q125.205 965.611 127.728 965.611 Q132.126 965.611 134.418 963.875 Q136.732 962.138 136.732 958.828 Q136.732 955.773 134.58 954.06 Q132.45 952.324 128.631 952.324 L124.603 952.324 L124.603 948.481 L128.816 948.481 Q132.265 948.481 134.094 947.115 Q135.922 945.726 135.922 943.134 Q135.922 940.472 134.024 939.06 Q132.149 937.625 128.631 937.625 Q126.709 937.625 124.51 938.041 Q122.311 938.458 119.672 939.338 L119.672 935.171 Q122.334 934.43 124.649 934.06 Q126.987 933.689 129.047 933.689 Q134.371 933.689 137.473 936.12 Q140.575 938.527 140.575 942.648 Q140.575 945.518 138.932 947.509 Q137.288 949.476 134.256 950.24 Z" fill="#000000" fill-rule="nonzero" fill-opacity="1" /><path clip-path="url(#clip020)" d="M131.802 540.954 L119.996 559.403 L131.802 559.403 L131.802 540.954 M130.575 536.88 L136.455 536.88 L136.455 559.403 L141.385 559.403 L141.385 563.292 L136.455 563.292 L136.455 571.44 L131.802 571.44 L131.802 563.292 L116.2 563.292 L116.2 558.778 L130.575 536.88 Z" fill="#000000" fill-rule="nonzero" fill-opacity="1" /><path clip-path="url(#clip020)" d="M120.483 139.446 L138.839 139.446 L138.839 143.381 L124.765 143.381 L124.765 151.853 Q125.783 151.506 126.802 151.344 Q127.82 151.159 128.839 151.159 Q134.626 151.159 138.006 154.33 Q141.385 157.501 141.385 162.918 Q141.385 168.497 137.913 171.598 Q134.441 174.677 128.121 174.677 Q125.945 174.677 123.677 174.307 Q121.432 173.936 119.024 173.196 L119.024 168.497 Q121.108 169.631 123.33 170.186 Q125.552 170.742 128.029 170.742 Q132.033 170.742 134.371 168.636 Q136.709 166.529 136.709 162.918 Q136.709 159.307 134.371 157.2 Q132.033 155.094 128.029 155.094 Q126.154 155.094 124.279 155.511 Q122.427 155.927 120.483 156.807 L120.483 139.446 Z" fill="#000000" fill-rule="nonzero" fill-opacity="1" /><path clip-path="url(#clip020)" d="M23.7071 1216.81 L4.41896 1216.81 L4.41896 1210.95 L53.9442 1210.95 L53.9442 1216.81 L48.597 1216.81 Q51.7798 1218.66 53.3394 1221.49 Q54.8672 1224.29 54.8672 1228.24 Q54.8672 1234.7 49.711 1238.77 Q44.5547 1242.81 36.152 1242.81 Q27.7493 1242.81 22.5931 1238.77 Q17.4368 1234.7 17.4368 1228.24 Q17.4368 1224.29 18.9964 1221.49 Q20.5242 1218.66 23.7071 1216.81 M36.152 1236.77 Q42.6132 1236.77 46.3053 1234.12 Q49.9656 1231.45 49.9656 1226.8 Q49.9656 1222.16 46.3053 1219.48 Q42.6132 1216.81 36.152 1216.81 Q29.6908 1216.81 26.0305 1219.48 Q22.3384 1222.16 22.3384 1226.8 Q22.3384 1231.45 26.0305 1234.12 Q29.6908 1236.77 36.152 1236.77 Z" fill="#000000" fill-rule="nonzero" fill-opacity="1" /><path clip-path="url(#clip020)" d="M34.6561 1168.4 L37.5206 1168.4 L37.5206 1195.32 Q43.5681 1194.94 46.7509 1191.7 Q49.9019 1188.42 49.9019 1182.59 Q49.9019 1179.22 49.0744 1176.07 Q48.2469 1172.89 46.5918 1169.77 L52.1299 1169.77 Q53.4667 1172.92 54.167 1176.23 Q54.8672 1179.54 54.8672 1182.94 Q54.8672 1191.47 49.9019 1196.47 Q44.9367 1201.44 36.4703 1201.44 Q27.7174 1201.44 22.5931 1196.73 Q17.4368 1191.98 17.4368 1183.96 Q17.4368 1176.77 22.0838 1172.6 Q26.6989 1168.4 34.6561 1168.4 M32.9373 1174.25 Q28.1312 1174.32 25.2666 1176.96 Q22.4021 1179.57 22.4021 1183.9 Q22.4021 1188.8 25.1712 1191.76 Q27.9402 1194.69 32.9692 1195.13 L32.9373 1174.25 Z" fill="#000000" fill-rule="nonzero" fill-opacity="1" /><path clip-path="url(#clip020)" d="M32.4281 1129.15 L53.9442 1129.15 L53.9442 1135.01 L32.619 1135.01 Q27.5583 1135.01 25.0438 1136.98 Q22.5294 1138.96 22.5294 1142.9 Q22.5294 1147.65 25.5531 1150.38 Q28.5768 1153.12 33.7967 1153.12 L53.9442 1153.12 L53.9442 1159.01 L18.2962 1159.01 L18.2962 1153.12 L23.8344 1153.12 Q20.6197 1151.02 19.0283 1148.19 Q17.4368 1145.32 17.4368 1141.6 Q17.4368 1135.46 21.2563 1132.3 Q25.0438 1129.15 32.4281 1129.15 Z" fill="#000000" fill-rule="nonzero" fill-opacity="1" /><path clip-path="url(#clip020)" d="M19.3465 1094.75 L24.8847 1094.75 Q23.6116 1097.23 22.975 1099.9 Q22.3384 1102.58 22.3384 1105.44 Q22.3384 1109.8 23.6752 1112 Q25.012 1114.16 27.6856 1114.16 Q29.7226 1114.16 30.9003 1112.6 Q32.0461 1111.04 33.0965 1106.33 L33.5421 1104.33 Q34.8789 1098.09 37.3297 1095.48 Q39.7486 1092.84 44.1091 1092.84 Q49.0744 1092.84 51.9708 1096.78 Q54.8672 1100.7 54.8672 1107.57 Q54.8672 1110.44 54.2943 1113.56 Q53.7532 1116.64 52.6392 1120.08 L46.5918 1120.08 Q48.2787 1116.84 49.138 1113.68 Q49.9656 1110.53 49.9656 1107.45 Q49.9656 1103.31 48.5651 1101.08 Q47.1329 1098.85 44.5547 1098.85 Q42.1676 1098.85 40.8945 1100.48 Q39.6213 1102.07 38.4437 1107.51 L37.9662 1109.55 Q36.8204 1114.99 34.4651 1117.41 Q32.078 1119.83 27.9402 1119.83 Q22.9113 1119.83 20.1741 1116.26 Q17.4368 1112.7 17.4368 1106.14 Q17.4368 1102.89 17.9143 1100.03 Q18.3917 1097.17 19.3465 1094.75 Z" fill="#000000" fill-rule="nonzero" fill-opacity="1" /><path clip-path="url(#clip020)" d="M18.2962 1083.51 L18.2962 1077.65 L53.9442 1077.65 L53.9442 1083.51 L18.2962 1083.51 M4.41896 1083.51 L4.41896 1077.65 L11.835 1077.65 L11.835 1083.51 L4.41896 1083.51 Z" fill="#000000" fill-rule="nonzero" fill-opacity="1" /><path clip-path="url(#clip020)" d="M8.17473 1059.61 L18.2962 1059.61 L18.2962 1047.55 L22.8477 1047.55 L22.8477 1059.61 L42.1994 1059.61 Q46.5599 1059.61 47.8013 1058.43 Q49.0426 1057.22 49.0426 1053.56 L49.0426 1047.55 L53.9442 1047.55 L53.9442 1053.56 Q53.9442 1060.34 51.4297 1062.92 Q48.8834 1065.5 42.1994 1065.5 L22.8477 1065.5 L22.8477 1069.79 L18.2962 1069.79 L18.2962 1065.5 L8.17473 1065.5 L8.17473 1059.61 Z" fill="#000000" fill-rule="nonzero" fill-opacity="1" /><path clip-path="url(#clip020)" d="M57.2543 1025.01 Q63.62 1027.49 65.5616 1029.85 Q67.5031 1032.2 67.5031 1036.15 L67.5031 1040.83 L62.6015 1040.83 L62.6015 1037.39 Q62.6015 1034.97 61.4557 1033.64 Q60.3099 1032.3 56.0448 1030.68 L53.3712 1029.63 L18.2962 1044.04 L18.2962 1037.84 L46.178 1026.7 L18.2962 1015.56 L18.2962 1009.35 L57.2543 1025.01 Z" fill="#000000" fill-rule="nonzero" fill-opacity="1" /><polyline clip-path="url(#clip022)" style="stroke:#009af9; stroke-linecap:round; stroke-linejoin:round; stroke-width:20; stroke-opacity:1; fill:none" points="273.254,2143.85 287.303,2143.84 301.351,2143.82 315.399,2143.79 329.448,2143.74 343.496,2143.68 357.545,2143.6 371.593,2143.48 385.641,2143.32 399.69,2143.1 413.738,2142.82 427.787,2142.44 441.835,2141.94 455.883,2141.28 469.932,2140.44 483.98,2139.36 498.029,2137.99 512.077,2136.27 526.125,2134.11 540.174,2131.44 554.222,2128.15 568.271,2124.15 582.319,2119.3 596.368,2113.5 610.416,2106.59 624.464,2098.45 638.513,2088.92 652.561,2077.87 666.61,2065.14 680.658,2050.62 694.706,2034.19 708.755,2015.73 722.803,1995.17 736.852,1972.45 750.9,1947.56 764.948,1920.48 778.997,1891.27 793.045,1860 807.094,1826.78 821.142,1791.73 835.19,1755.03 849.239,1716.86 863.287,1677.43 877.336,1636.94 891.384,1595.6 905.432,1553.62 919.481,1511.18 933.529,1468.47 947.578,1425.62 961.626,1382.76 975.674,1339.98 989.723,1297.36 1003.77,1254.96 1017.82,1212.81 1031.87,1170.95 1045.92,1129.42 1059.96,1088.26 1074.01,1047.56 1088.06,1007.42 1102.11,967.966 1116.16,929.386 1130.21,891.897 1144.26,855.754 1158.3,821.246 1172.35,788.686 1186.4,758.402 1200.45,730.722 1214.5,705.963 1228.55,684.415 1242.59,666.331 1256.64,651.911 1270.69,641.297 1284.74,634.565 1298.79,631.723 1312.84,632.708 1326.88,637.395 1340.93,645.601 1354.98,657.091 1369.03,671.598 1383.08,688.826 1397.13,708.466 1411.18,730.213 1425.22,753.767 1439.27,778.851 1453.32,805.215 1467.37,832.639 1481.42,860.939 1495.47,889.964 1509.51,919.598 1523.56,949.752 1537.61,980.363 1551.66,1011.39 1565.71,1042.8 1579.76,1074.57 1593.8,1106.68 1607.85,1139.12 1621.9,1171.85 1635.95,1204.85 1650,1238.07 1664.05,1271.47 1678.09,1304.98 1692.14,1338.52 1706.19,1372.02 1720.24,1405.39 1734.29,1438.54 1748.34,1471.36 1762.39,1503.77 1776.43,1535.65 1790.48,1566.92 1804.53,1597.48 1818.58,1627.24 1832.63,1656.13 1846.68,1684.08 1860.72,1711.02 1874.77,1736.91 1888.82,1761.71 1902.87,1785.41 1916.92,1808 1930.97,1829.49 1945.01,1849.88 1959.06,1869.21 1973.11,1887.51 1987.16,1904.82 2001.21,1921.19 2015.26,1936.67 2029.3,1951.29 2043.35,1965.1 2057.4,1978.14 2071.45,1990.42 2085.5,2001.98 2099.55,2012.82 2113.6,2022.94 2127.64,2032.35 2141.69,2041.03 2155.74,2048.97 2169.79,2056.16 2183.84,2062.58 2197.89,2068.23 2211.93,2073.09 2225.98,2077.19 2240.03,2080.52 2254.08,2083.11 2268.13,2085.01 2282.18,2086.27 2296.22,2086.93 2310.27,2087.09 2324.32,2086.82 2338.37,2086.21 2352.42,2085.37 2366.47,2084.38 2380.52,2083.36 2394.56,2082.38 2408.61,2081.56 2422.66,2080.95 2436.71,2080.64 2450.76,2080.67 2464.81,2081.09 2478.85,2081.92 2492.9,2083.17 2506.95,2084.83 2521,2086.88 2535.05,2089.29 2549.1,2092.01 2563.14,2095 2577.19,2098.19 2591.24,2101.52 2605.29,2104.94 2619.34,2108.38 2633.39,2111.78 2647.43,2115.11 2661.48,2118.31 2675.53,2121.34 2689.58,2124.18 2703.63,2126.81 2717.68,2129.22 2731.73,2131.39 2745.77,2133.33 2759.82,2135.05 2773.87,2136.55 2787.92,2137.85 2801.97,2138.96 2816.02,2139.9 2830.06,2140.69 2844.11,2141.34 2858.16,2141.88 2872.21,2142.32 2886.26,2142.67 2900.31,2142.96 2914.35,2143.18 2928.4,2143.35 2942.45,2143.49 2956.5,2143.59 2970.55,2143.67 2984.6,2143.73 2998.64,2143.78 3012.69,2143.81 3026.74,2143.83 3040.79,2143.84 3054.84,2143.85 3068.89,2143.85 "/>
<polyline clip-path="url(#clip022)" style="stroke:#e26f46; stroke-linecap:round; stroke-linejoin:round; stroke-width:20; stroke-opacity:1; fill:none" points="329.684,2143.82 341.459,2143.8 353.234,2143.77 365.009,2143.72 376.784,2143.67 388.559,2143.59 400.334,2143.49 412.11,2143.36 423.885,2143.19 435.66,2142.97 447.435,2142.69 459.21,2142.33 470.985,2141.88 482.76,2141.31 494.535,2140.6 506.311,2139.72 518.086,2138.63 529.861,2137.28 541.636,2135.64 553.411,2133.64 565.186,2131.23 576.961,2128.32 588.737,2124.86 600.512,2120.73 612.287,2115.86 624.062,2110.12 635.837,2103.42 647.612,2095.62 659.387,2086.59 671.162,2076.2 682.938,2064.3 694.713,2050.74 706.488,2035.38 718.263,2018.05 730.038,1998.61 741.813,1976.91 753.588,1952.8 765.363,1926.15 777.139,1896.84 788.914,1864.75 800.689,1829.78 812.464,1791.87 824.239,1750.97 836.014,1707.04 847.789,1660.08 859.564,1610.14 871.34,1557.27 883.115,1501.58 894.89,1443.19 906.665,1382.29 918.44,1319.08 930.215,1253.81 941.99,1186.76 953.765,1118.27 965.541,1048.68 977.316,978.399 989.091,907.832 1000.87,837.429 1012.64,767.657 1024.42,699 1036.19,631.951 1047.97,567.008 1059.74,504.667 1071.52,445.417 1083.29,389.728 1095.07,338.05 1106.84,290.802 1118.62,248.368 1130.39,211.089 1142.17,179.258 1153.94,153.119 1165.72,132.858 1177.49,118.601 1189.27,110.416 1201.04,108.31 1212.82,112.229 1224.59,122.059 1236.37,137.632 1248.14,158.725 1259.92,185.068 1271.69,216.346 1283.47,252.208 1295.24,292.27 1307.02,336.124 1318.79,383.341 1330.57,433.48 1342.34,486.093 1354.12,540.731 1365.89,596.951 1377.67,654.318 1389.45,712.412 1401.22,770.831 1413,829.195 1424.77,887.149 1436.55,944.364 1448.32,1000.54 1460.1,1055.42 1471.87,1108.75 1483.65,1160.35 1495.42,1210.03 1507.2,1257.68 1518.97,1303.18 1530.75,1346.47 1542.52,1387.51 1554.3,1426.31 1566.07,1462.88 1577.85,1497.28 1589.62,1529.58 1601.4,1559.88 1613.17,1588.3 1624.95,1614.95 1636.72,1640 1648.5,1663.56 1660.27,1685.81 1672.05,1706.87 1683.82,1726.89 1695.6,1746.01 1707.37,1764.33 1719.15,1781.97 1730.92,1799.01 1742.7,1815.53 1754.47,1831.57 1766.25,1847.17 1778.02,1862.36 1789.8,1877.13 1801.57,1891.47 1813.35,1905.37 1825.12,1918.79 1836.9,1931.69 1848.68,1944.04 1860.45,1955.81 1872.23,1966.95 1884,1977.44 1895.78,1987.26 1907.55,1996.39 1919.33,2004.83 1931.1,2012.59 1942.88,2019.7 1954.65,2026.17 1966.43,2032.05 1978.2,2037.38 1989.98,2042.22 2001.75,2046.63 2013.53,2050.66 2025.3,2054.39 2037.08,2057.86 2048.85,2061.14 2060.63,2064.29 2072.4,2067.34 2084.18,2070.35 2095.95,2073.34 2107.73,2076.35 2119.5,2079.39 2131.28,2082.47 2143.05,2085.6 2154.83,2088.78 2166.6,2091.99 2178.38,2095.22 2190.15,2098.46 2201.93,2101.68 2213.7,2104.87 2225.48,2108 2237.25,2111.05 2249.03,2114.01 2260.8,2116.84 2272.58,2119.54 2284.35,2122.1 2296.13,2124.49 2307.91,2126.72 2319.68,2128.79 2331.46,2130.68 2343.23,2132.4 2355.01,2133.96 2366.78,2135.35 2378.56,2136.59 2390.33,2137.69 2402.11,2138.66 2413.88,2139.5 2425.66,2140.23 2437.43,2140.85 2449.21,2141.39 2460.98,2141.84 2472.76,2142.22 2484.53,2142.54 2496.31,2142.8 2508.08,2143.02 2519.86,2143.2 2531.63,2143.35 2543.41,2143.46 2555.18,2143.56 2566.96,2143.63 2578.73,2143.69 2590.51,2143.74 2602.28,2143.77 2614.06,2143.8 2625.83,2143.82 2637.61,2143.83 2649.38,2143.83 2661.16,2143.83 2672.93,2143.83 "/>
<path clip-path="url(#clip020)" d="M2709.94 274.687 L3053.98 274.687 L3053.98 119.167 L2709.94 119.167  Z" fill="#ffffff" fill-rule="evenodd" fill-opacity="1"/>
<polyline clip-path="url(#clip020)" style="stroke:#000000; stroke-linecap:round; stroke-linejoin:round; stroke-width:4; stroke-opacity:1; fill:none" points="2709.94,274.687 3053.98,274.687 3053.98,119.167 2709.94,119.167 2709.94,274.687 "/>
<polyline clip-path="url(#clip020)" style="stroke:#009af9; stroke-linecap:round; stroke-linejoin:round; stroke-width:20; stroke-opacity:1; fill:none" points="2742.86,171.007 2940.42,171.007 "/>
<path clip-path="url(#clip020)" d="M2997.07 180.21 Q2997.07 180.655 2996.56 180.702 L2995.5 180.702 Q2994.43 180.702 2993.96 180.538 Q2993.49 180.374 2992.95 179.624 Q2992.62 179.156 2991.8 176.978 Q2991.01 174.776 2989.84 171.45 Q2988.69 168.124 2987.91 166.156 L2976.37 179.788 Q2975.57 180.795 2974.77 180.795 Q2974.19 180.795 2973.77 180.397 Q2973.35 179.999 2973.35 179.39 Q2973.35 178.945 2973.51 178.687 Q2973.7 178.43 2974.19 177.915 L2987.45 164.775 L2982.79 151.728 Q2981.9 149.316 2981.38 148.707 Q2980.89 148.098 2979.67 147.887 Q2979.22 147.77 2979.22 147.395 Q2979.22 146.88 2980.09 146.88 Q2984.73 146.88 2985.95 150.276 L2995.74 177.563 Q2996.28 179.132 2996.84 179.788 Q2997.07 180.093 2997.07 180.21 Z" fill="#000000" fill-rule="nonzero" fill-opacity="1" /><path clip-path="url(#clip020)" d="M3001.95 183.34 Q3001.95 178.405 3003.19 175.716 Q3004.93 171.716 3009.03 171.716 Q3009.9 171.716 3010.8 171.962 Q3011.72 172.191 3012.86 173.093 Q3014.03 173.995 3014.73 175.47 Q3016.08 178.323 3016.08 183.34 Q3016.08 188.242 3014.83 190.915 Q3013.01 194.817 3009 194.817 Q3007.49 194.817 3005.95 194.047 Q3004.42 193.276 3003.45 191.423 Q3001.95 188.652 3001.95 183.34 M3004.73 182.93 Q3004.73 187.997 3005.09 190.013 Q3005.5 192.194 3006.62 193.145 Q3007.75 194.079 3009 194.079 Q3010.34 194.079 3011.45 193.079 Q3012.59 192.063 3012.93 189.882 Q3013.31 187.734 3013.29 182.93 Q3013.29 178.257 3012.96 176.388 Q3012.52 174.208 3011.34 173.339 Q3010.18 172.453 3009 172.453 Q3008.55 172.453 3008.08 172.585 Q3007.62 172.716 3006.95 173.093 Q3006.27 173.47 3005.75 174.404 Q3005.24 175.339 3004.99 176.749 Q3004.73 178.569 3004.73 182.93 Z" fill="#000000" fill-rule="nonzero" fill-opacity="1" /><polyline clip-path="url(#clip020)" style="stroke:#e26f46; stroke-linecap:round; stroke-linejoin:round; stroke-width:20; stroke-opacity:1; fill:none" points="2742.86,222.847 2940.42,222.847 "/>
<path clip-path="url(#clip020)" d="M2997.07 232.415 Q2997.07 232.86 2996.56 232.906 L2995.5 232.906 Q2994.43 232.906 2993.96 232.742 Q2993.49 232.578 2992.95 231.829 Q2992.62 231.36 2991.8 229.182 Q2991.01 226.98 2989.84 223.655 Q2988.69 220.329 2987.91 218.361 L2976.37 231.993 Q2975.57 233 2974.77 233 Q2974.19 233 2973.77 232.602 Q2973.35 232.204 2973.35 231.595 Q2973.35 231.15 2973.51 230.892 Q2973.7 230.634 2974.19 230.119 L2987.45 216.979 L2982.79 203.933 Q2981.9 201.52 2981.38 200.911 Q2980.89 200.302 2979.67 200.092 Q2979.22 199.974 2979.22 199.6 Q2979.22 199.084 2980.09 199.084 Q2984.73 199.084 2985.95 202.481 L2995.74 229.768 Q2996.28 231.337 2996.84 231.993 Q2997.07 232.297 2997.07 232.415 Z" fill="#000000" fill-rule="nonzero" fill-opacity="1" /><path clip-path="url(#clip020)" d="M3001.95 227.117 L3001.95 226.068 Q3005.98 226.068 3008.06 223.92 Q3008.63 223.92 3008.73 224.051 Q3008.83 224.182 3008.83 224.789 L3008.83 243.628 Q3008.83 244.628 3009.32 244.939 Q3009.82 245.251 3011.96 245.251 L3013.03 245.251 L3013.03 246.284 Q3011.85 246.186 3007.59 246.186 Q3003.32 246.186 3002.16 246.284 L3002.16 245.251 L3003.22 245.251 Q3005.34 245.251 3005.85 244.956 Q3006.36 244.644 3006.36 243.628 L3006.36 226.232 Q3004.6 227.117 3001.95 227.117 Z" fill="#000000" fill-rule="nonzero" fill-opacity="1" /></svg>
