<?xml version="1.0" encoding="utf-8"?>
<svg xmlns="http://www.w3.org/2000/svg" xmlns:xlink="http://www.w3.org/1999/xlink" width="800" height="600" viewBox="0 0 3200 2400">
<defs>
  <clipPath id="clip500">
    <rect x="0" y="0" width="3200" height="2400"/>
  </clipPath>
</defs>
<path clip-path="url(#clip500)" d="M0 2400 L3200 2400 L3200 0 L0 0  Z" fill="#ffffff" fill-rule="evenodd" fill-opacity="1"/>
<defs>
  <clipPath id="clip501">
    <rect x="640" y="0" width="2241" height="2241"/>
  </clipPath>
</defs>
<path clip-path="url(#clip500)" d="M233.806 2204.92 L3152.76 2204.92 L3152.76 47.2441 L233.806 47.2441  Z" fill="#ffffff" fill-rule="evenodd" fill-opacity="1"/>
<defs>
  <clipPath id="clip502">
    <rect x="233" y="47" width="2920" height="2159"/>
  </clipPath>
</defs>
<polyline clip-path="url(#clip502)" style="stroke:#000000; stroke-linecap:round; stroke-linejoin:round; stroke-width:2; stroke-opacity:0.1; fill:none" points="233.806,2204.92 233.806,47.2441 "/>
<polyline clip-path="url(#clip502)" style="stroke:#000000; stroke-linecap:round; stroke-linejoin:round; stroke-width:2; stroke-opacity:0.1; fill:none" points="720.298,2204.92 720.298,47.2441 "/>
<polyline clip-path="url(#clip502)" style="stroke:#000000; stroke-linecap:round; stroke-linejoin:round; stroke-width:2; stroke-opacity:0.1; fill:none" points="1206.79,2204.92 1206.79,47.2441 "/>
<polyline clip-path="url(#clip502)" style="stroke:#000000; stroke-linecap:round; stroke-linejoin:round; stroke-width:2; stroke-opacity:0.1; fill:none" points="1693.28,2204.92 1693.28,47.2441 "/>
<polyline clip-path="url(#clip502)" style="stroke:#000000; stroke-linecap:round; stroke-linejoin:round; stroke-width:2; stroke-opacity:0.1; fill:none" points="2179.77,2204.92 2179.77,47.2441 "/>
<polyline clip-path="url(#clip502)" style="stroke:#000000; stroke-linecap:round; stroke-linejoin:round; stroke-width:2; stroke-opacity:0.1; fill:none" points="2666.26,2204.92 2666.26,47.2441 "/>
<polyline clip-path="url(#clip500)" style="stroke:#000000; stroke-linecap:round; stroke-linejoin:round; stroke-width:4; stroke-opacity:1; fill:none" points="233.806,2204.92 3152.76,2204.92 "/>
<polyline clip-path="url(#clip500)" style="stroke:#000000; stroke-linecap:round; stroke-linejoin:round; stroke-width:4; stroke-opacity:1; fill:none" points="233.806,2204.92 233.806,2186.02 "/>
<polyline clip-path="url(#clip500)" style="stroke:#000000; stroke-linecap:round; stroke-linejoin:round; stroke-width:4; stroke-opacity:1; fill:none" points="720.298,2204.92 720.298,2186.02 "/>
<polyline clip-path="url(#clip500)" style="stroke:#000000; stroke-linecap:round; stroke-linejoin:round; stroke-width:4; stroke-opacity:1; fill:none" points="1206.79,2204.92 1206.79,2186.02 "/>
<polyline clip-path="url(#clip500)" style="stroke:#000000; stroke-linecap:round; stroke-linejoin:round; stroke-width:4; stroke-opacity:1; fill:none" points="1693.28,2204.92 1693.28,2186.02 "/>
<polyline clip-path="url(#clip500)" style="stroke:#000000; stroke-linecap:round; stroke-linejoin:round; stroke-width:4; stroke-opacity:1; fill:none" points="2179.77,2204.92 2179.77,2186.02 "/>
<polyline clip-path="url(#clip500)" style="stroke:#000000; stroke-linecap:round; stroke-linejoin:round; stroke-width:4; stroke-opacity:1; fill:none" points="2666.26,2204.92 2666.26,2186.02 "/>
<path clip-path="url(#clip500)" d="M211.191 2242.24 Q207.58 2242.24 205.751 2245.8 Q203.945 2249.34 203.945 2256.47 Q203.945 2263.58 205.751 2267.15 Q207.58 2270.69 211.191 2270.69 Q214.825 2270.69 216.63 2267.15 Q218.459 2263.58 218.459 2256.47 Q218.459 2249.34 216.63 2245.8 Q214.825 2242.24 211.191 2242.24 M211.191 2238.53 Q217.001 2238.53 220.056 2243.14 Q223.135 2247.72 223.135 2256.47 Q223.135 2265.2 220.056 2269.81 Q217.001 2274.39 211.191 2274.39 Q205.38 2274.39 202.302 2269.81 Q199.246 2265.2 199.246 2256.47 Q199.246 2247.72 202.302 2243.14 Q205.38 2238.53 211.191 2238.53 Z" fill="#000000" fill-rule="nonzero" fill-opacity="1" /><path clip-path="url(#clip500)" d="M231.353 2267.84 L236.237 2267.84 L236.237 2273.72 L231.353 2273.72 L231.353 2267.84 Z" fill="#000000" fill-rule="nonzero" fill-opacity="1" /><path clip-path="url(#clip500)" d="M256.422 2242.24 Q252.811 2242.24 250.982 2245.8 Q249.177 2249.34 249.177 2256.47 Q249.177 2263.58 250.982 2267.15 Q252.811 2270.69 256.422 2270.69 Q260.056 2270.69 261.862 2267.15 Q263.69 2263.58 263.69 2256.47 Q263.69 2249.34 261.862 2245.8 Q260.056 2242.24 256.422 2242.24 M256.422 2238.53 Q262.232 2238.53 265.288 2243.14 Q268.366 2247.72 268.366 2256.47 Q268.366 2265.2 265.288 2269.81 Q262.232 2274.39 256.422 2274.39 Q250.612 2274.39 247.533 2269.81 Q244.478 2265.2 244.478 2256.47 Q244.478 2247.72 247.533 2243.14 Q250.612 2238.53 256.422 2238.53 Z" fill="#000000" fill-rule="nonzero" fill-opacity="1" /><path clip-path="url(#clip500)" d="M698.296 2242.24 Q694.685 2242.24 692.856 2245.8 Q691.05 2249.34 691.05 2256.47 Q691.05 2263.58 692.856 2267.15 Q694.685 2270.69 698.296 2270.69 Q701.93 2270.69 703.735 2267.15 Q705.564 2263.58 705.564 2256.47 Q705.564 2249.34 703.735 2245.8 Q701.93 2242.24 698.296 2242.24 M698.296 2238.53 Q704.106 2238.53 707.161 2243.14 Q710.24 2247.72 710.24 2256.47 Q710.24 2265.2 707.161 2269.81 Q704.106 2274.39 698.296 2274.39 Q692.486 2274.39 689.407 2269.81 Q686.351 2265.2 686.351 2256.47 Q686.351 2247.72 689.407 2243.14 Q692.486 2238.53 698.296 2238.53 Z" fill="#000000" fill-rule="nonzero" fill-opacity="1" /><path clip-path="url(#clip500)" d="M718.458 2267.84 L723.342 2267.84 L723.342 2273.72 L718.458 2273.72 L718.458 2267.84 Z" fill="#000000" fill-rule="nonzero" fill-opacity="1" /><path clip-path="url(#clip500)" d="M734.337 2269.78 L741.976 2269.78 L741.976 2243.42 L733.666 2245.09 L733.666 2240.83 L741.93 2239.16 L746.606 2239.16 L746.606 2269.78 L754.244 2269.78 L754.244 2273.72 L734.337 2273.72 L734.337 2269.78 Z" fill="#000000" fill-rule="nonzero" fill-opacity="1" /><path clip-path="url(#clip500)" d="M1184.97 2242.24 Q1181.36 2242.24 1179.53 2245.8 Q1177.73 2249.34 1177.73 2256.47 Q1177.73 2263.58 1179.53 2267.15 Q1181.36 2270.69 1184.97 2270.69 Q1188.61 2270.69 1190.41 2267.15 Q1192.24 2263.58 1192.24 2256.47 Q1192.24 2249.34 1190.41 2245.8 Q1188.61 2242.24 1184.97 2242.24 M1184.97 2238.53 Q1190.78 2238.53 1193.84 2243.14 Q1196.92 2247.72 1196.92 2256.47 Q1196.92 2265.2 1193.84 2269.81 Q1190.78 2274.39 1184.97 2274.39 Q1179.16 2274.39 1176.08 2269.81 Q1173.03 2265.2 1173.03 2256.47 Q1173.03 2247.72 1176.08 2243.14 Q1179.16 2238.53 1184.97 2238.53 Z" fill="#000000" fill-rule="nonzero" fill-opacity="1" /><path clip-path="url(#clip500)" d="M1205.13 2267.84 L1210.02 2267.84 L1210.02 2273.72 L1205.13 2273.72 L1205.13 2267.84 Z" fill="#000000" fill-rule="nonzero" fill-opacity="1" /><path clip-path="url(#clip500)" d="M1224.23 2269.78 L1240.55 2269.78 L1240.55 2273.72 L1218.61 2273.72 L1218.61 2269.78 Q1221.27 2267.03 1225.85 2262.4 Q1230.46 2257.75 1231.64 2256.41 Q1233.88 2253.88 1234.76 2252.15 Q1235.67 2250.39 1235.67 2248.7 Q1235.67 2245.94 1233.72 2244.21 Q1231.8 2242.47 1228.7 2242.47 Q1226.5 2242.47 1224.05 2243.23 Q1221.62 2244 1218.84 2245.55 L1218.84 2240.83 Q1221.66 2239.69 1224.12 2239.11 Q1226.57 2238.53 1228.61 2238.53 Q1233.98 2238.53 1237.17 2241.22 Q1240.37 2243.91 1240.37 2248.4 Q1240.37 2250.53 1239.56 2252.45 Q1238.77 2254.34 1236.66 2256.94 Q1236.08 2257.61 1232.98 2260.83 Q1229.88 2264.02 1224.23 2269.78 Z" fill="#000000" fill-rule="nonzero" fill-opacity="1" /><path clip-path="url(#clip500)" d="M1670.99 2242.24 Q1667.38 2242.24 1665.55 2245.8 Q1663.74 2249.34 1663.74 2256.47 Q1663.74 2263.58 1665.55 2267.15 Q1667.38 2270.69 1670.99 2270.69 Q1674.62 2270.69 1676.43 2267.15 Q1678.26 2263.58 1678.26 2256.47 Q1678.26 2249.34 1676.43 2245.8 Q1674.62 2242.24 1670.99 2242.24 M1670.99 2238.53 Q1676.8 2238.53 1679.86 2243.14 Q1682.93 2247.72 1682.93 2256.47 Q1682.93 2265.2 1679.86 2269.81 Q1676.8 2274.39 1670.99 2274.39 Q1665.18 2274.39 1662.1 2269.81 Q1659.05 2265.2 1659.05 2256.47 Q1659.05 2247.72 1662.1 2243.14 Q1665.18 2238.53 1670.99 2238.53 Z" fill="#000000" fill-rule="nonzero" fill-opacity="1" /><path clip-path="url(#clip500)" d="M1691.15 2267.84 L1696.04 2267.84 L1696.04 2273.72 L1691.15 2273.72 L1691.15 2267.84 Z" fill="#000000" fill-rule="nonzero" fill-opacity="1" /><path clip-path="url(#clip500)" d="M1720.39 2255.09 Q1723.74 2255.8 1725.62 2258.07 Q1727.52 2260.34 1727.52 2263.67 Q1727.52 2268.79 1724 2271.59 Q1720.48 2274.39 1714 2274.39 Q1711.82 2274.39 1709.51 2273.95 Q1707.22 2273.53 1704.76 2272.68 L1704.76 2268.16 Q1706.71 2269.3 1709.02 2269.88 Q1711.34 2270.46 1713.86 2270.46 Q1718.26 2270.46 1720.55 2268.72 Q1722.86 2266.98 1722.86 2263.67 Q1722.86 2260.62 1720.71 2258.91 Q1718.58 2257.17 1714.76 2257.17 L1710.73 2257.17 L1710.73 2253.33 L1714.95 2253.33 Q1718.4 2253.33 1720.23 2251.96 Q1722.05 2250.57 1722.05 2247.98 Q1722.05 2245.32 1720.16 2243.91 Q1718.28 2242.47 1714.76 2242.47 Q1712.84 2242.47 1710.64 2242.89 Q1708.44 2243.3 1705.8 2244.18 L1705.8 2240.02 Q1708.47 2239.28 1710.78 2238.91 Q1713.12 2238.53 1715.18 2238.53 Q1720.5 2238.53 1723.6 2240.97 Q1726.71 2243.37 1726.71 2247.49 Q1726.71 2250.36 1725.06 2252.35 Q1723.42 2254.32 1720.39 2255.09 Z" fill="#000000" fill-rule="nonzero" fill-opacity="1" /><path clip-path="url(#clip500)" d="M2156.91 2242.24 Q2153.3 2242.24 2151.47 2245.8 Q2149.67 2249.34 2149.67 2256.47 Q2149.67 2263.58 2151.47 2267.15 Q2153.3 2270.69 2156.91 2270.69 Q2160.55 2270.69 2162.35 2267.15 Q2164.18 2263.58 2164.18 2256.47 Q2164.18 2249.34 2162.35 2245.8 Q2160.55 2242.24 2156.91 2242.24 M2156.91 2238.53 Q2162.72 2238.53 2165.78 2243.14 Q2168.86 2247.72 2168.86 2256.47 Q2168.86 2265.2 2165.78 2269.81 Q2162.72 2274.39 2156.91 2274.39 Q2151.1 2274.39 2148.03 2269.81 Q2144.97 2265.2 2144.97 2256.47 Q2144.97 2247.72 2148.03 2243.14 Q2151.1 2238.53 2156.91 2238.53 Z" fill="#000000" fill-rule="nonzero" fill-opacity="1" /><path clip-path="url(#clip500)" d="M2177.08 2267.84 L2181.96 2267.84 L2181.96 2273.72 L2177.08 2273.72 L2177.08 2267.84 Z" fill="#000000" fill-rule="nonzero" fill-opacity="1" /><path clip-path="url(#clip500)" d="M2204.99 2243.23 L2193.19 2261.68 L2204.99 2261.68 L2204.99 2243.23 M2203.77 2239.16 L2209.65 2239.16 L2209.65 2261.68 L2214.58 2261.68 L2214.58 2265.57 L2209.65 2265.57 L2209.65 2273.72 L2204.99 2273.72 L2204.99 2265.57 L2189.39 2265.57 L2189.39 2261.06 L2203.77 2239.16 Z" fill="#000000" fill-rule="nonzero" fill-opacity="1" /><path clip-path="url(#clip500)" d="M2644.15 2242.24 Q2640.54 2242.24 2638.71 2245.8 Q2636.9 2249.34 2636.9 2256.47 Q2636.9 2263.58 2638.71 2267.15 Q2640.54 2270.69 2644.15 2270.69 Q2647.78 2270.69 2649.59 2267.15 Q2651.41 2263.58 2651.41 2256.47 Q2651.41 2249.34 2649.59 2245.8 Q2647.78 2242.24 2644.15 2242.24 M2644.15 2238.53 Q2649.96 2238.53 2653.01 2243.14 Q2656.09 2247.72 2656.09 2256.47 Q2656.09 2265.2 2653.01 2269.81 Q2649.96 2274.39 2644.15 2274.39 Q2638.34 2274.39 2635.26 2269.81 Q2632.2 2265.2 2632.2 2256.47 Q2632.2 2247.72 2635.26 2243.14 Q2638.34 2238.53 2644.15 2238.53 Z" fill="#000000" fill-rule="nonzero" fill-opacity="1" /><path clip-path="url(#clip500)" d="M2664.31 2267.84 L2669.19 2267.84 L2669.19 2273.72 L2664.31 2273.72 L2664.31 2267.84 Z" fill="#000000" fill-rule="nonzero" fill-opacity="1" /><path clip-path="url(#clip500)" d="M2679.42 2239.16 L2697.78 2239.16 L2697.78 2243.1 L2683.71 2243.1 L2683.71 2251.57 Q2684.72 2251.22 2685.74 2251.06 Q2686.76 2250.87 2687.78 2250.87 Q2693.57 2250.87 2696.95 2254.04 Q2700.33 2257.22 2700.33 2262.63 Q2700.33 2268.21 2696.85 2271.31 Q2693.38 2274.39 2687.06 2274.39 Q2684.89 2274.39 2682.62 2274.02 Q2680.37 2273.65 2677.97 2272.91 L2677.97 2268.21 Q2680.05 2269.34 2682.27 2269.9 Q2684.49 2270.46 2686.97 2270.46 Q2690.97 2270.46 2693.31 2268.35 Q2695.65 2266.24 2695.65 2262.63 Q2695.65 2259.02 2693.31 2256.91 Q2690.97 2254.81 2686.97 2254.81 Q2685.1 2254.81 2683.22 2255.22 Q2681.37 2255.64 2679.42 2256.52 L2679.42 2239.16 Z" fill="#000000" fill-rule="nonzero" fill-opacity="1" /><path clip-path="url(#clip500)" d="M1693.1 2345.93 Q1693.1 2346.54 1692.39 2346.6 L1690.94 2346.6 Q1689.46 2346.6 1688.82 2346.38 Q1688.17 2346.15 1687.43 2345.12 Q1686.98 2344.48 1685.86 2341.48 Q1684.76 2338.46 1683.15 2333.88 Q1681.57 2329.31 1680.51 2326.6 L1664.63 2345.35 Q1663.54 2346.73 1662.44 2346.73 Q1661.64 2346.73 1661.06 2346.18 Q1660.48 2345.64 1660.48 2344.8 Q1660.48 2344.19 1660.7 2343.83 Q1660.96 2343.48 1661.64 2342.77 L1679.87 2324.7 L1673.46 2306.76 Q1672.23 2303.45 1671.52 2302.61 Q1670.85 2301.77 1669.17 2301.48 Q1668.56 2301.32 1668.56 2300.81 Q1668.56 2300.1 1669.75 2300.1 Q1676.13 2300.1 1677.8 2304.77 L1691.27 2342.29 Q1692.01 2344.45 1692.78 2345.35 Q1693.1 2345.77 1693.1 2345.93 Z" fill="#000000" fill-rule="nonzero" fill-opacity="1" /><path clip-path="url(#clip500)" d="M1699.81 2350.22 Q1699.81 2343.43 1701.52 2339.74 Q1703.91 2334.24 1709.55 2334.24 Q1710.74 2334.24 1711.98 2334.58 Q1713.25 2334.89 1714.82 2336.13 Q1716.42 2337.37 1717.39 2339.4 Q1719.24 2343.32 1719.24 2350.22 Q1719.24 2356.96 1717.53 2360.64 Q1715.03 2366 1709.5 2366 Q1707.43 2366 1705.31 2364.94 Q1703.21 2363.88 1701.88 2361.33 Q1699.81 2357.52 1699.81 2350.22 M1703.64 2349.66 Q1703.64 2356.62 1704.14 2359.4 Q1704.7 2362.39 1706.23 2363.7 Q1707.79 2364.99 1709.5 2364.99 Q1711.35 2364.99 1712.88 2363.61 Q1714.44 2362.21 1714.91 2359.22 Q1715.43 2356.26 1715.41 2349.66 Q1715.41 2343.23 1714.96 2340.66 Q1714.35 2337.66 1712.73 2336.47 Q1711.13 2335.25 1709.5 2335.25 Q1708.89 2335.25 1708.24 2335.43 Q1707.61 2335.61 1706.69 2336.13 Q1705.76 2336.65 1705.04 2337.93 Q1704.34 2339.22 1704 2341.16 Q1703.64 2343.66 1703.64 2349.66 Z" fill="#000000" fill-rule="nonzero" fill-opacity="1" /><polyline clip-path="url(#clip502)" style="stroke:#000000; stroke-linecap:round; stroke-linejoin:round; stroke-width:2; stroke-opacity:0.1; fill:none" points="233.806,2204.92 3152.76,2204.92 "/>
<polyline clip-path="url(#clip502)" style="stroke:#000000; stroke-linecap:round; stroke-linejoin:round; stroke-width:2; stroke-opacity:0.1; fill:none" points="233.806,1845.31 3152.76,1845.31 "/>
<polyline clip-path="url(#clip502)" style="stroke:#000000; stroke-linecap:round; stroke-linejoin:round; stroke-width:2; stroke-opacity:0.1; fill:none" points="233.806,1485.69 3152.76,1485.69 "/>
<polyline clip-path="url(#clip502)" style="stroke:#000000; stroke-linecap:round; stroke-linejoin:round; stroke-width:2; stroke-opacity:0.1; fill:none" points="233.806,1126.08 3152.76,1126.08 "/>
<polyline clip-path="url(#clip502)" style="stroke:#000000; stroke-linecap:round; stroke-linejoin:round; stroke-width:2; stroke-opacity:0.1; fill:none" points="233.806,766.469 3152.76,766.469 "/>
<polyline clip-path="url(#clip502)" style="stroke:#000000; stroke-linecap:round; stroke-linejoin:round; stroke-width:2; stroke-opacity:0.1; fill:none" points="233.806,406.857 3152.76,406.857 "/>
<polyline clip-path="url(#clip500)" style="stroke:#000000; stroke-linecap:round; stroke-linejoin:round; stroke-width:4; stroke-opacity:1; fill:none" points="233.806,2204.92 233.806,47.2441 "/>
<polyline clip-path="url(#clip500)" style="stroke:#000000; stroke-linecap:round; stroke-linejoin:round; stroke-width:4; stroke-opacity:1; fill:none" points="233.806,2204.92 252.704,2204.92 "/>
<polyline clip-path="url(#clip500)" style="stroke:#000000; stroke-linecap:round; stroke-linejoin:round; stroke-width:4; stroke-opacity:1; fill:none" points="233.806,1845.31 252.704,1845.31 "/>
<polyline clip-path="url(#clip500)" style="stroke:#000000; stroke-linecap:round; stroke-linejoin:round; stroke-width:4; stroke-opacity:1; fill:none" points="233.806,1485.69 252.704,1485.69 "/>
<polyline clip-path="url(#clip500)" style="stroke:#000000; stroke-linecap:round; stroke-linejoin:round; stroke-width:4; stroke-opacity:1; fill:none" points="233.806,1126.08 252.704,1126.08 "/>
<polyline clip-path="url(#clip500)" style="stroke:#000000; stroke-linecap:round; stroke-linejoin:round; stroke-width:4; stroke-opacity:1; fill:none" points="233.806,766.469 252.704,766.469 "/>
<polyline clip-path="url(#clip500)" style="stroke:#000000; stroke-linecap:round; stroke-linejoin:round; stroke-width:4; stroke-opacity:1; fill:none" points="233.806,406.857 252.704,406.857 "/>
<path clip-path="url(#clip500)" d="M128.631 2190.72 Q125.02 2190.72 123.191 2194.28 Q121.385 2197.82 121.385 2204.95 Q121.385 2212.06 123.191 2215.63 Q125.02 2219.17 128.631 2219.17 Q132.265 2219.17 134.07 2215.63 Q135.899 2212.06 135.899 2204.95 Q135.899 2197.82 134.07 2194.28 Q132.265 2190.72 128.631 2190.72 M128.631 2187.01 Q134.441 2187.01 137.496 2191.62 Q140.575 2196.2 140.575 2204.95 Q140.575 2213.68 137.496 2218.29 Q134.441 2222.87 128.631 2222.87 Q122.82 2222.87 119.742 2218.29 Q116.686 2213.68 116.686 2204.95 Q116.686 2196.2 119.742 2191.62 Q122.82 2187.01 128.631 2187.01 Z" fill="#000000" fill-rule="nonzero" fill-opacity="1" /><path clip-path="url(#clip500)" d="M148.793 2216.32 L153.677 2216.32 L153.677 2222.2 L148.793 2222.2 L148.793 2216.32 Z" fill="#000000" fill-rule="nonzero" fill-opacity="1" /><path clip-path="url(#clip500)" d="M173.862 2190.72 Q170.251 2190.72 168.422 2194.28 Q166.617 2197.82 166.617 2204.95 Q166.617 2212.06 168.422 2215.63 Q170.251 2219.17 173.862 2219.17 Q177.496 2219.17 179.302 2215.63 Q181.13 2212.06 181.13 2204.95 Q181.13 2197.82 179.302 2194.28 Q177.496 2190.72 173.862 2190.72 M173.862 2187.01 Q179.672 2187.01 182.728 2191.62 Q185.806 2196.2 185.806 2204.95 Q185.806 2213.68 182.728 2218.29 Q179.672 2222.87 173.862 2222.87 Q168.052 2222.87 164.973 2218.29 Q161.918 2213.68 161.918 2204.95 Q161.918 2196.2 164.973 2191.62 Q168.052 2187.01 173.862 2187.01 Z" fill="#000000" fill-rule="nonzero" fill-opacity="1" /><path clip-path="url(#clip500)" d="M129.857 1831.11 Q126.246 1831.11 124.418 1834.67 Q122.612 1838.21 122.612 1845.34 Q122.612 1852.45 124.418 1856.01 Q126.246 1859.55 129.857 1859.55 Q133.492 1859.55 135.297 1856.01 Q137.126 1852.45 137.126 1845.34 Q137.126 1838.21 135.297 1834.67 Q133.492 1831.11 129.857 1831.11 M129.857 1827.4 Q135.668 1827.4 138.723 1832.01 Q141.802 1836.59 141.802 1845.34 Q141.802 1854.07 138.723 1858.68 Q135.668 1863.26 129.857 1863.26 Q124.047 1863.26 120.969 1858.68 Q117.913 1854.07 117.913 1845.34 Q117.913 1836.59 120.969 1832.01 Q124.047 1827.4 129.857 1827.4 Z" fill="#000000" fill-rule="nonzero" fill-opacity="1" /><path clip-path="url(#clip500)" d="M150.019 1856.71 L154.904 1856.71 L154.904 1862.59 L150.019 1862.59 L150.019 1856.71 Z" fill="#000000" fill-rule="nonzero" fill-opacity="1" /><path clip-path="url(#clip500)" d="M165.899 1858.65 L173.538 1858.65 L173.538 1832.29 L165.228 1833.95 L165.228 1829.69 L173.492 1828.03 L178.167 1828.03 L178.167 1858.65 L185.806 1858.65 L185.806 1862.59 L165.899 1862.59 L165.899 1858.65 Z" fill="#000000" fill-rule="nonzero" fill-opacity="1" /><path clip-path="url(#clip500)" d="M130.228 1471.49 Q126.617 1471.49 124.788 1475.06 Q122.983 1478.6 122.983 1485.73 Q122.983 1492.84 124.788 1496.4 Q126.617 1499.94 130.228 1499.94 Q133.862 1499.94 135.668 1496.4 Q137.496 1492.84 137.496 1485.73 Q137.496 1478.6 135.668 1475.06 Q133.862 1471.49 130.228 1471.49 M130.228 1467.79 Q136.038 1467.79 139.094 1472.4 Q142.172 1476.98 142.172 1485.73 Q142.172 1494.46 139.094 1499.06 Q136.038 1503.65 130.228 1503.65 Q124.418 1503.65 121.339 1499.06 Q118.283 1494.46 118.283 1485.73 Q118.283 1476.98 121.339 1472.4 Q124.418 1467.79 130.228 1467.79 Z" fill="#000000" fill-rule="nonzero" fill-opacity="1" /><path clip-path="url(#clip500)" d="M150.39 1497.09 L155.274 1497.09 L155.274 1502.97 L150.39 1502.97 L150.39 1497.09 Z" fill="#000000" fill-rule="nonzero" fill-opacity="1" /><path clip-path="url(#clip500)" d="M169.487 1499.04 L185.806 1499.04 L185.806 1502.97 L163.862 1502.97 L163.862 1499.04 Q166.524 1496.28 171.107 1491.66 Q175.714 1487 176.894 1485.66 Q179.14 1483.14 180.019 1481.4 Q180.922 1479.64 180.922 1477.95 Q180.922 1475.2 178.978 1473.46 Q177.056 1471.72 173.954 1471.72 Q171.755 1471.72 169.302 1472.49 Q166.871 1473.25 164.093 1474.8 L164.093 1470.08 Q166.917 1468.95 169.371 1468.37 Q171.825 1467.79 173.862 1467.79 Q179.232 1467.79 182.427 1470.47 Q185.621 1473.16 185.621 1477.65 Q185.621 1479.78 184.811 1481.7 Q184.024 1483.6 181.917 1486.19 Q181.339 1486.86 178.237 1490.08 Q175.135 1493.28 169.487 1499.04 Z" fill="#000000" fill-rule="nonzero" fill-opacity="1" /><path clip-path="url(#clip500)" d="M129.279 1111.88 Q125.668 1111.88 123.839 1115.45 Q122.033 1118.99 122.033 1126.12 Q122.033 1133.22 123.839 1136.79 Q125.668 1140.33 129.279 1140.33 Q132.913 1140.33 134.719 1136.79 Q136.547 1133.22 136.547 1126.12 Q136.547 1118.99 134.719 1115.45 Q132.913 1111.88 129.279 1111.88 M129.279 1108.18 Q135.089 1108.18 138.144 1112.78 Q141.223 1117.37 141.223 1126.12 Q141.223 1134.84 138.144 1139.45 Q135.089 1144.03 129.279 1144.03 Q123.469 1144.03 120.39 1139.45 Q117.334 1134.84 117.334 1126.12 Q117.334 1117.37 120.39 1112.78 Q123.469 1108.18 129.279 1108.18 Z" fill="#000000" fill-rule="nonzero" fill-opacity="1" /><path clip-path="url(#clip500)" d="M149.441 1137.48 L154.325 1137.48 L154.325 1143.36 L149.441 1143.36 L149.441 1137.48 Z" fill="#000000" fill-rule="nonzero" fill-opacity="1" /><path clip-path="url(#clip500)" d="M178.677 1124.73 Q182.033 1125.45 183.908 1127.71 Q185.806 1129.98 185.806 1133.32 Q185.806 1138.43 182.288 1141.23 Q178.769 1144.03 172.288 1144.03 Q170.112 1144.03 167.797 1143.59 Q165.505 1143.18 163.052 1142.32 L163.052 1137.81 Q164.996 1138.94 167.311 1139.52 Q169.626 1140.1 172.149 1140.1 Q176.547 1140.1 178.839 1138.36 Q181.154 1136.63 181.154 1133.32 Q181.154 1130.26 179.001 1128.55 Q176.871 1126.81 173.052 1126.81 L169.024 1126.81 L169.024 1122.97 L173.237 1122.97 Q176.686 1122.97 178.515 1121.6 Q180.343 1120.21 180.343 1117.62 Q180.343 1114.96 178.445 1113.55 Q176.57 1112.11 173.052 1112.11 Q171.13 1112.11 168.931 1112.53 Q166.732 1112.95 164.093 1113.83 L164.093 1109.66 Q166.755 1108.92 169.07 1108.55 Q171.408 1108.18 173.468 1108.18 Q178.792 1108.18 181.894 1110.61 Q184.996 1113.01 184.996 1117.14 Q184.996 1120.01 183.353 1122 Q181.709 1123.96 178.677 1124.73 Z" fill="#000000" fill-rule="nonzero" fill-opacity="1" /><path clip-path="url(#clip500)" d="M128.145 752.268 Q124.533 752.268 122.705 755.833 Q120.899 759.374 120.899 766.504 Q120.899 773.611 122.705 777.175 Q124.533 780.717 128.145 780.717 Q131.779 780.717 133.584 777.175 Q135.413 773.611 135.413 766.504 Q135.413 759.374 133.584 755.833 Q131.779 752.268 128.145 752.268 M128.145 748.564 Q133.955 748.564 137.01 753.171 Q140.089 757.754 140.089 766.504 Q140.089 775.231 137.01 779.837 Q133.955 784.421 128.145 784.421 Q122.334 784.421 119.256 779.837 Q116.2 775.231 116.2 766.504 Q116.2 757.754 119.256 753.171 Q122.334 748.564 128.145 748.564 Z" fill="#000000" fill-rule="nonzero" fill-opacity="1" /><path clip-path="url(#clip500)" d="M148.306 777.87 L153.191 777.87 L153.191 783.749 L148.306 783.749 L148.306 777.87 Z" fill="#000000" fill-rule="nonzero" fill-opacity="1" /><path clip-path="url(#clip500)" d="M176.223 753.263 L164.417 771.712 L176.223 771.712 L176.223 753.263 M174.996 749.189 L180.876 749.189 L180.876 771.712 L185.806 771.712 L185.806 775.601 L180.876 775.601 L180.876 783.749 L176.223 783.749 L176.223 775.601 L160.621 775.601 L160.621 771.087 L174.996 749.189 Z" fill="#000000" fill-rule="nonzero" fill-opacity="1" /><path clip-path="url(#clip500)" d="M129.626 392.655 Q126.015 392.655 124.186 396.22 Q122.381 399.762 122.381 406.891 Q122.381 413.998 124.186 417.563 Q126.015 421.104 129.626 421.104 Q133.26 421.104 135.066 417.563 Q136.894 413.998 136.894 406.891 Q136.894 399.762 135.066 396.22 Q133.26 392.655 129.626 392.655 M129.626 388.952 Q135.436 388.952 138.492 393.558 Q141.57 398.141 141.57 406.891 Q141.57 415.618 138.492 420.225 Q135.436 424.808 129.626 424.808 Q123.816 424.808 120.737 420.225 Q117.682 415.618 117.682 406.891 Q117.682 398.141 120.737 393.558 Q123.816 388.952 129.626 388.952 Z" fill="#000000" fill-rule="nonzero" fill-opacity="1" /><path clip-path="url(#clip500)" d="M149.788 418.257 L154.672 418.257 L154.672 424.137 L149.788 424.137 L149.788 418.257 Z" fill="#000000" fill-rule="nonzero" fill-opacity="1" /><path clip-path="url(#clip500)" d="M164.904 389.577 L183.26 389.577 L183.26 393.512 L169.186 393.512 L169.186 401.984 Q170.204 401.637 171.223 401.475 Q172.242 401.29 173.26 401.29 Q179.047 401.29 182.427 404.461 Q185.806 407.632 185.806 413.049 Q185.806 418.627 182.334 421.729 Q178.862 424.808 172.542 424.808 Q170.367 424.808 168.098 424.438 Q165.853 424.067 163.445 423.327 L163.445 418.627 Q165.529 419.762 167.751 420.317 Q169.973 420.873 172.45 420.873 Q176.454 420.873 178.792 418.766 Q181.13 416.66 181.13 413.049 Q181.13 409.438 178.792 407.331 Q176.454 405.225 172.45 405.225 Q170.575 405.225 168.7 405.641 Q166.848 406.058 164.904 406.938 L164.904 389.577 Z" fill="#000000" fill-rule="nonzero" fill-opacity="1" /><path clip-path="url(#clip500)" d="M52.8467 1124.18 Q53.4586 1124.18 53.5231 1124.89 L53.5231 1126.34 Q53.5231 1127.82 53.2976 1128.47 Q53.0722 1129.11 52.0416 1129.85 Q51.3975 1130.3 48.4023 1131.43 Q45.375 1132.52 40.8017 1134.13 Q36.2285 1135.71 33.5232 1136.78 L52.267 1152.65 Q53.6519 1153.75 53.6519 1154.84 Q53.6519 1155.65 53.1044 1156.23 Q52.5569 1156.81 51.7195 1156.81 Q51.1076 1156.81 50.7534 1156.58 Q50.3991 1156.32 49.6906 1155.65 L31.6231 1137.42 L13.6844 1143.83 Q10.3672 1145.05 9.52985 1145.76 Q8.6925 1146.44 8.40265 1148.11 Q8.24162 1148.72 7.72632 1148.72 Q7.0178 1148.72 7.0178 1147.53 Q7.0178 1141.16 11.6876 1139.48 L49.2075 1126.02 Q51.3653 1125.28 52.267 1124.5 Q52.6857 1124.18 52.8467 1124.18 Z" fill="#000000" fill-rule="nonzero" fill-opacity="1" /><path clip-path="url(#clip500)" d="M45.5524 1117.48 L44.1096 1117.48 Q44.1096 1111.93 41.1563 1109.07 Q41.1563 1108.28 41.3367 1108.14 Q41.517 1108.01 42.3512 1108.01 L68.2543 1108.01 Q69.6295 1108.01 70.0579 1107.33 Q70.4862 1106.65 70.4862 1103.7 L70.4862 1102.24 L71.9065 1102.24 Q71.7712 1103.86 71.7712 1109.72 Q71.7712 1115.58 71.9065 1117.18 L70.4862 1117.18 L70.4862 1115.72 Q70.4862 1112.81 70.0804 1112.11 Q69.6521 1111.41 68.2543 1111.41 L44.3351 1111.41 Q45.5524 1113.82 45.5524 1117.48 Z" fill="#000000" fill-rule="nonzero" fill-opacity="1" /><circle clip-path="url(#clip502)" cx="1496.27" cy="1916.51" r="14.4" fill="#009af9" fill-rule="evenodd" fill-opacity="1" stroke="#000000" stroke-opacity="1" stroke-width="4.8"/>
<circle clip-path="url(#clip502)" cx="1289.74" cy="1840.33" r="14.4" fill="#009af9" fill-rule="evenodd" fill-opacity="1" stroke="#000000" stroke-opacity="1" stroke-width="4.8"/>
<circle clip-path="url(#clip502)" cx="2143.21" cy="1402.26" r="14.4" fill="#009af9" fill-rule="evenodd" fill-opacity="1" stroke="#000000" stroke-opacity="1" stroke-width="4.8"/>
<circle clip-path="url(#clip502)" cx="1132.35" cy="1803.01" r="14.4" fill="#009af9" fill-rule="evenodd" fill-opacity="1" stroke="#000000" stroke-opacity="1" stroke-width="4.8"/>
<circle clip-path="url(#clip502)" cx="1680.7" cy="1785.16" r="14.4" fill="#009af9" fill-rule="evenodd" fill-opacity="1" stroke="#000000" stroke-opacity="1" stroke-width="4.8"/>
<circle clip-path="url(#clip502)" cx="1061.56" cy="1495.48" r="14.4" fill="#009af9" fill-rule="evenodd" fill-opacity="1" stroke="#000000" stroke-opacity="1" stroke-width="4.8"/>
<circle clip-path="url(#clip502)" cx="1273.23" cy="1756.14" r="14.4" fill="#009af9" fill-rule="evenodd" fill-opacity="1" stroke="#000000" stroke-opacity="1" stroke-width="4.8"/>
<circle clip-path="url(#clip502)" cx="2968.98" cy="1326.34" r="14.4" fill="#009af9" fill-rule="evenodd" fill-opacity="1" stroke="#000000" stroke-opacity="1" stroke-width="4.8"/>
<circle clip-path="url(#clip502)" cx="1523.89" cy="1608.46" r="14.4" fill="#009af9" fill-rule="evenodd" fill-opacity="1" stroke="#000000" stroke-opacity="1" stroke-width="4.8"/>
<circle clip-path="url(#clip502)" cx="1009.58" cy="1695.18" r="14.4" fill="#009af9" fill-rule="evenodd" fill-opacity="1" stroke="#000000" stroke-opacity="1" stroke-width="4.8"/>
<circle clip-path="url(#clip502)" cx="1392.34" cy="1750.6" r="14.4" fill="#009af9" fill-rule="evenodd" fill-opacity="1" stroke="#000000" stroke-opacity="1" stroke-width="4.8"/>
<circle clip-path="url(#clip502)" cx="955.142" cy="1789.92" r="14.4" fill="#009af9" fill-rule="evenodd" fill-opacity="1" stroke="#000000" stroke-opacity="1" stroke-width="4.8"/>
<circle clip-path="url(#clip502)" cx="911.148" cy="1043.46" r="14.4" fill="#009af9" fill-rule="evenodd" fill-opacity="1" stroke="#000000" stroke-opacity="1" stroke-width="4.8"/>
<circle clip-path="url(#clip502)" cx="1545.37" cy="1615.11" r="14.4" fill="#009af9" fill-rule="evenodd" fill-opacity="1" stroke="#000000" stroke-opacity="1" stroke-width="4.8"/>
<circle clip-path="url(#clip502)" cx="581.836" cy="1734.78" r="14.4" fill="#009af9" fill-rule="evenodd" fill-opacity="1" stroke="#000000" stroke-opacity="1" stroke-width="4.8"/>
<circle clip-path="url(#clip502)" cx="655.983" cy="1617.79" r="14.4" fill="#009af9" fill-rule="evenodd" fill-opacity="1" stroke="#000000" stroke-opacity="1" stroke-width="4.8"/>
<circle clip-path="url(#clip502)" cx="1813.23" cy="1982.05" r="14.4" fill="#009af9" fill-rule="evenodd" fill-opacity="1" stroke="#000000" stroke-opacity="1" stroke-width="4.8"/>
<circle clip-path="url(#clip502)" cx="1667.78" cy="1685.43" r="14.4" fill="#009af9" fill-rule="evenodd" fill-opacity="1" stroke="#000000" stroke-opacity="1" stroke-width="4.8"/>
<circle clip-path="url(#clip502)" cx="1551.57" cy="1414.21" r="14.4" fill="#009af9" fill-rule="evenodd" fill-opacity="1" stroke="#000000" stroke-opacity="1" stroke-width="4.8"/>
<circle clip-path="url(#clip502)" cx="1173.96" cy="1582.3" r="14.4" fill="#009af9" fill-rule="evenodd" fill-opacity="1" stroke="#000000" stroke-opacity="1" stroke-width="4.8"/>
<circle clip-path="url(#clip502)" cx="669.526" cy="1350.36" r="14.4" fill="#009af9" fill-rule="evenodd" fill-opacity="1" stroke="#000000" stroke-opacity="1" stroke-width="4.8"/>
<circle clip-path="url(#clip502)" cx="1389.69" cy="1134.15" r="14.4" fill="#009af9" fill-rule="evenodd" fill-opacity="1" stroke="#000000" stroke-opacity="1" stroke-width="4.8"/>
<circle clip-path="url(#clip502)" cx="873.688" cy="1819.98" r="14.4" fill="#009af9" fill-rule="evenodd" fill-opacity="1" stroke="#000000" stroke-opacity="1" stroke-width="4.8"/>
<circle clip-path="url(#clip502)" cx="1006.26" cy="1783.9" r="14.4" fill="#009af9" fill-rule="evenodd" fill-opacity="1" stroke="#000000" stroke-opacity="1" stroke-width="4.8"/>
<circle clip-path="url(#clip502)" cx="553.082" cy="1694.56" r="14.4" fill="#009af9" fill-rule="evenodd" fill-opacity="1" stroke="#000000" stroke-opacity="1" stroke-width="4.8"/>
<circle clip-path="url(#clip502)" cx="502.604" cy="1974.44" r="14.4" fill="#009af9" fill-rule="evenodd" fill-opacity="1" stroke="#000000" stroke-opacity="1" stroke-width="4.8"/>
<circle clip-path="url(#clip502)" cx="1018.72" cy="1481.78" r="14.4" fill="#009af9" fill-rule="evenodd" fill-opacity="1" stroke="#000000" stroke-opacity="1" stroke-width="4.8"/>
<circle clip-path="url(#clip502)" cx="1038.66" cy="1410.8" r="14.4" fill="#009af9" fill-rule="evenodd" fill-opacity="1" stroke="#000000" stroke-opacity="1" stroke-width="4.8"/>
<circle clip-path="url(#clip502)" cx="1370.2" cy="1596.77" r="14.4" fill="#009af9" fill-rule="evenodd" fill-opacity="1" stroke="#000000" stroke-opacity="1" stroke-width="4.8"/>
<circle clip-path="url(#clip502)" cx="882.646" cy="1617.86" r="14.4" fill="#009af9" fill-rule="evenodd" fill-opacity="1" stroke="#000000" stroke-opacity="1" stroke-width="4.8"/>
<circle clip-path="url(#clip502)" cx="1141.1" cy="1985.77" r="14.4" fill="#009af9" fill-rule="evenodd" fill-opacity="1" stroke="#000000" stroke-opacity="1" stroke-width="4.8"/>
<circle clip-path="url(#clip502)" cx="1104.77" cy="1685.32" r="14.4" fill="#009af9" fill-rule="evenodd" fill-opacity="1" stroke="#000000" stroke-opacity="1" stroke-width="4.8"/>
<circle clip-path="url(#clip502)" cx="689.607" cy="1720.48" r="14.4" fill="#009af9" fill-rule="evenodd" fill-opacity="1" stroke="#000000" stroke-opacity="1" stroke-width="4.8"/>
<circle clip-path="url(#clip502)" cx="1892.52" cy="1836.03" r="14.4" fill="#009af9" fill-rule="evenodd" fill-opacity="1" stroke="#000000" stroke-opacity="1" stroke-width="4.8"/>
<circle clip-path="url(#clip502)" cx="1390.85" cy="1644.99" r="14.4" fill="#009af9" fill-rule="evenodd" fill-opacity="1" stroke="#000000" stroke-opacity="1" stroke-width="4.8"/>
<circle clip-path="url(#clip502)" cx="1095.95" cy="1717.9" r="14.4" fill="#009af9" fill-rule="evenodd" fill-opacity="1" stroke="#000000" stroke-opacity="1" stroke-width="4.8"/>
<circle clip-path="url(#clip502)" cx="1949.56" cy="651.597" r="14.4" fill="#009af9" fill-rule="evenodd" fill-opacity="1" stroke="#000000" stroke-opacity="1" stroke-width="4.8"/>
<circle clip-path="url(#clip502)" cx="695.532" cy="1594.75" r="14.4" fill="#009af9" fill-rule="evenodd" fill-opacity="1" stroke="#000000" stroke-opacity="1" stroke-width="4.8"/>
<circle clip-path="url(#clip502)" cx="2324.18" cy="1610.81" r="14.4" fill="#009af9" fill-rule="evenodd" fill-opacity="1" stroke="#000000" stroke-opacity="1" stroke-width="4.8"/>
<circle clip-path="url(#clip502)" cx="793.069" cy="1596.92" r="14.4" fill="#009af9" fill-rule="evenodd" fill-opacity="1" stroke="#000000" stroke-opacity="1" stroke-width="4.8"/>
<circle clip-path="url(#clip502)" cx="1206.75" cy="1908.43" r="14.4" fill="#009af9" fill-rule="evenodd" fill-opacity="1" stroke="#000000" stroke-opacity="1" stroke-width="4.8"/>
<circle clip-path="url(#clip502)" cx="1154.92" cy="1288.08" r="14.4" fill="#009af9" fill-rule="evenodd" fill-opacity="1" stroke="#000000" stroke-opacity="1" stroke-width="4.8"/>
<circle clip-path="url(#clip502)" cx="439.943" cy="1799.68" r="14.4" fill="#009af9" fill-rule="evenodd" fill-opacity="1" stroke="#000000" stroke-opacity="1" stroke-width="4.8"/>
<circle clip-path="url(#clip502)" cx="1853.55" cy="1499.94" r="14.4" fill="#009af9" fill-rule="evenodd" fill-opacity="1" stroke="#000000" stroke-opacity="1" stroke-width="4.8"/>
<circle clip-path="url(#clip502)" cx="1031.53" cy="1663.32" r="14.4" fill="#009af9" fill-rule="evenodd" fill-opacity="1" stroke="#000000" stroke-opacity="1" stroke-width="4.8"/>
<circle clip-path="url(#clip502)" cx="1576.79" cy="1026.68" r="14.4" fill="#009af9" fill-rule="evenodd" fill-opacity="1" stroke="#000000" stroke-opacity="1" stroke-width="4.8"/>
<circle clip-path="url(#clip502)" cx="1504.52" cy="1513.74" r="14.4" fill="#009af9" fill-rule="evenodd" fill-opacity="1" stroke="#000000" stroke-opacity="1" stroke-width="4.8"/>
<circle clip-path="url(#clip502)" cx="1725.02" cy="1554.86" r="14.4" fill="#009af9" fill-rule="evenodd" fill-opacity="1" stroke="#000000" stroke-opacity="1" stroke-width="4.8"/>
<circle clip-path="url(#clip502)" cx="1068.11" cy="1093.77" r="14.4" fill="#009af9" fill-rule="evenodd" fill-opacity="1" stroke="#000000" stroke-opacity="1" stroke-width="4.8"/>
<circle clip-path="url(#clip502)" cx="988.466" cy="1444.3" r="14.4" fill="#009af9" fill-rule="evenodd" fill-opacity="1" stroke="#000000" stroke-opacity="1" stroke-width="4.8"/>
<circle clip-path="url(#clip502)" cx="1284.16" cy="1848.34" r="14.4" fill="#009af9" fill-rule="evenodd" fill-opacity="1" stroke="#000000" stroke-opacity="1" stroke-width="4.8"/>
<circle clip-path="url(#clip502)" cx="631.231" cy="1722.52" r="14.4" fill="#009af9" fill-rule="evenodd" fill-opacity="1" stroke="#000000" stroke-opacity="1" stroke-width="4.8"/>
<polyline clip-path="url(#clip502)" style="stroke:#e26f46; stroke-linecap:round; stroke-linejoin:round; stroke-width:20; stroke-opacity:1; fill:none" points="233.806,2204.92 236.728,2202.76 239.65,2200.6 242.572,2198.44 245.494,2196.28 248.416,2194.12 251.337,2191.96 254.259,2189.8 257.181,2187.64 260.103,2185.48 263.025,2183.32 265.947,2181.16 268.869,2179 271.791,2176.84 274.712,2174.68 277.634,2172.52 280.556,2170.36 283.478,2168.2 286.4,2166.04 289.322,2163.88 292.244,2161.72 295.166,2159.56 298.087,2157.4 301.009,2155.24 303.931,2153.08 306.853,2150.92 309.775,2148.76 312.697,2146.6 315.619,2144.44 318.541,2142.28 321.462,2140.12 324.384,2137.96 327.306,2135.81 330.228,2133.65 333.15,2131.49 336.072,2129.33 338.994,2127.17 341.916,2125.01 344.837,2122.85 347.759,2120.69 350.681,2118.53 353.603,2116.37 356.525,2114.21 359.447,2112.05 362.369,2109.89 365.29,2107.73 368.212,2105.57 371.134,2103.41 374.056,2101.25 376.978,2099.09 379.9,2096.93 382.822,2094.77 385.744,2092.61 388.665,2090.45 391.587,2088.29 394.509,2086.13 397.431,2083.97 400.353,2081.81 403.275,2079.65 406.197,2077.49 409.119,2075.33 412.04,2073.17 414.962,2071.01 417.884,2068.85 420.806,2066.69 423.728,2064.53 426.65,2062.37 429.572,2060.21 432.494,2058.05 435.415,2055.89 438.337,2053.73 441.259,2051.57 444.181,2049.41 447.103,2047.25 450.025,2045.09 452.947,2042.93 455.869,2040.77 458.79,2038.61 461.712,2036.45 464.634,2034.29 467.556,2032.13 470.478,2029.97 473.4,2027.81 476.322,2025.65 479.243,2023.49 482.165,2021.33 485.087,2019.17 488.009,2017.01 490.931,2014.85 493.853,2012.69 496.775,2010.53 499.697,2008.37 502.618,2006.21 505.54,2004.06 508.462,2001.9 511.384,1999.74 514.306,1997.58 517.228,1995.42 520.15,1993.26 523.072,1991.1 525.993,1988.94 528.915,1986.78 531.837,1984.62 534.759,1982.46 537.681,1980.3 540.603,1978.14 543.525,1975.98 546.447,1973.82 549.368,1971.66 552.29,1969.5 555.212,1967.34 558.134,1965.18 561.056,1963.02 563.978,1960.86 566.9,1958.7 569.821,1956.54 572.743,1954.38 575.665,1952.22 578.587,1950.06 581.509,1947.9 584.431,1945.74 587.353,1943.58 590.275,1941.42 593.196,1939.26 596.118,1937.1 599.04,1934.94 601.962,1932.78 604.884,1930.62 607.806,1928.46 610.728,1926.3 613.65,1924.14 616.571,1921.98 619.493,1919.82 622.415,1917.66 625.337,1915.5 628.259,1913.34 631.181,1911.18 634.103,1909.02 637.025,1906.86 639.946,1904.7 642.868,1902.54 645.79,1900.38 648.712,1898.22 651.634,1896.06 654.556,1893.9 657.478,1891.74 660.4,1889.58 663.321,1887.42 666.243,1885.26 669.165,1883.1 672.087,1880.94 675.009,1878.78 677.931,1876.62 680.853,1874.46 683.774,1872.31 686.696,1870.15 689.618,1867.99 692.54,1865.83 695.462,1863.67 698.384,1861.51 701.306,1859.35 704.228,1857.19 707.149,1855.03 710.071,1852.87 712.993,1850.71 715.915,1848.55 718.837,1846.39 721.759,1844.23 724.681,1842.07 727.603,1839.91 730.524,1837.75 733.446,1835.59 736.368,1833.43 739.29,1831.27 742.212,1829.11 745.134,1826.95 748.056,1824.79 750.978,1822.63 753.899,1820.47 756.821,1818.31 759.743,1816.15 762.665,1813.99 765.587,1811.83 768.509,1809.67 771.431,1807.51 774.352,1805.35 777.274,1803.19 780.196,1801.03 783.118,1798.87 786.04,1796.71 788.962,1794.55 791.884,1792.39 794.806,1790.23 797.727,1788.07 800.649,1785.91 803.571,1783.75 806.493,1781.59 809.415,1779.43 812.337,1777.27 815.259,1775.11 818.181,1772.95 821.102,1770.79 824.024,1768.63 826.946,1766.47 829.868,1764.31 832.79,1762.15 835.712,1759.99 838.634,1757.83 841.556,1755.67 844.477,1753.51 847.399,1751.35 850.321,1749.19 853.243,1747.03 856.165,1744.87 859.087,1742.72 862.009,1740.56 864.931,1738.4 867.852,1736.24 870.774,1734.08 873.696,1731.92 876.618,1729.76 879.54,1727.6 882.462,1725.44 885.384,1723.28 888.305,1721.12 891.227,1718.96 894.149,1716.8 897.071,1714.64 899.993,1712.48 902.915,1710.32 905.837,1708.16 908.759,1706 911.68,1703.84 914.602,1701.68 917.524,1699.52 920.446,1697.36 923.368,1695.2 926.29,1693.04 929.212,1690.88 932.134,1688.72 935.055,1686.56 937.977,1684.4 940.899,1682.24 943.821,1680.08 946.743,1677.92 949.665,1675.76 952.587,1673.6 955.509,1671.44 958.43,1669.28 961.352,1667.12 964.274,1664.96 967.196,1662.8 970.118,1660.64 973.04,1658.48 975.962,1656.32 978.884,1654.16 981.805,1652 984.727,1649.84 987.649,1647.68 990.571,1645.52 993.493,1643.36 996.415,1641.2 999.337,1639.04 1002.26,1636.88 1005.18,1634.72 1008.1,1632.56 1011.02,1630.4 1013.95,1628.24 1016.87,1626.08 1019.79,1623.92 1022.71,1621.76 1025.63,1619.6 1028.56,1617.44 1031.48,1615.28 1034.4,1613.12 1037.32,1610.97 1040.24,1608.81 1043.16,1606.65 1046.09,1604.49 1049.01,1602.33 1051.93,1600.17 1054.85,1598.01 1057.77,1595.85 1060.7,1593.69 1063.62,1591.53 1066.54,1589.37 1069.46,1587.21 1072.38,1585.05 1075.31,1582.89 1078.23,1580.73 1081.15,1578.57 1084.07,1576.41 1086.99,1574.25 1089.91,1572.09 1092.84,1569.93 1095.76,1567.77 1098.68,1565.61 1101.6,1563.45 1104.52,1561.29 1107.45,1559.13 1110.37,1556.97 1113.29,1554.81 1116.21,1552.65 1119.13,1550.49 1122.06,1548.33 1124.98,1546.17 1127.9,1544.01 1130.82,1541.85 1133.74,1539.69 1136.66,1537.53 1139.59,1535.37 1142.51,1533.21 1145.43,1531.05 1148.35,1528.89 1151.27,1526.73 1154.2,1524.57 1157.12,1522.41 1160.04,1520.25 1162.96,1518.09 1165.88,1515.93 1168.81,1513.77 1171.73,1511.61 1174.65,1509.45 1177.57,1507.29 1180.49,1505.13 1183.41,1502.97 1186.34,1500.81 1189.26,1498.65 1192.18,1496.49 1195.1,1494.33 1198.02,1492.17 1200.95,1490.01 1203.87,1487.85 1206.79,1485.69 1209.71,1483.53 1212.63,1481.37 1215.56,1479.22 1218.48,1477.06 1221.4,1474.9 1224.32,1472.74 1227.24,1470.58 1230.16,1468.42 1233.09,1466.26 1236.01,1464.1 1238.93,1461.94 1241.85,1459.78 1244.77,1457.62 1247.7,1455.46 1250.62,1453.3 1253.54,1451.14 1256.46,1448.98 1259.38,1446.82 1262.31,1444.66 1265.23,1442.5 1268.15,1440.34 1271.07,1438.18 1273.99,1436.02 1276.91,1433.86 1279.84,1431.7 1282.76,1429.54 1285.68,1427.38 1288.6,1425.22 1291.52,1423.06 1294.45,1420.9 1297.37,1418.74 1300.29,1416.58 1303.21,1414.42 1306.13,1412.26 1309.05,1410.1 1311.98,1407.94 1314.9,1405.78 1317.82,1403.62 1320.74,1401.46 1323.66,1399.3 1326.59,1397.14 1329.51,1394.98 1332.43,1392.82 1335.35,1390.66 1338.27,1388.5 1341.2,1386.34 1344.12,1384.18 1347.04,1382.02 1349.96,1379.86 1352.88,1377.7 1355.8,1375.54 1358.73,1373.38 1361.65,1371.22 1364.57,1369.06 1367.49,1366.9 1370.41,1364.74 1373.34,1362.58 1376.26,1360.42 1379.18,1358.26 1382.1,1356.1 1385.02,1353.94 1387.95,1351.78 1390.87,1349.62 1393.79,1347.47 1396.71,1345.31 1399.63,1343.15 1402.55,1340.99 1405.48,1338.83 1408.4,1336.67 1411.32,1334.51 1414.24,1332.35 1417.16,1330.19 1420.09,1328.03 1423.01,1325.87 1425.93,1323.71 1428.85,1321.55 1431.77,1319.39 1434.7,1317.23 1437.62,1315.07 1440.54,1312.91 1443.46,1310.75 1446.38,1308.59 1449.3,1306.43 1452.23,1304.27 1455.15,1302.11 1458.07,1299.95 1460.99,1297.79 1463.91,1295.63 1466.84,1293.47 1469.76,1291.31 1472.68,1289.15 1475.6,1286.99 1478.52,1284.83 1481.45,1282.67 1484.37,1280.51 1487.29,1278.35 1490.21,1276.19 1493.13,1274.03 1496.05,1271.87 1498.98,1269.71 1501.9,1267.55 1504.82,1265.39 1507.74,1263.23 1510.66,1261.07 1513.59,1258.91 1516.51,1256.75 1519.43,1254.59 1522.35,1252.43 1525.27,1250.27 1528.2,1248.11 1531.12,1245.95 1534.04,1243.79 1536.96,1241.63 1539.88,1239.47 1542.8,1237.31 1545.73,1235.15 1548.65,1232.99 1551.57,1230.83 1554.49,1228.67 1557.41,1226.51 1560.34,1224.35 1563.26,1222.19 1566.18,1220.03 1569.1,1217.87 1572.02,1215.72 1574.95,1213.56 1577.87,1211.4 1580.79,1209.24 1583.71,1207.08 1586.63,1204.92 1589.55,1202.76 1592.48,1200.6 1595.4,1198.44 1598.32,1196.28 1601.24,1194.12 1604.16,1191.96 1607.09,1189.8 1610.01,1187.64 1612.93,1185.48 1615.85,1183.32 1618.77,1181.16 1621.7,1179 1624.62,1176.84 1627.54,1174.68 1630.46,1172.52 1633.38,1170.36 1636.3,1168.2 1639.23,1166.04 1642.15,1163.88 1645.07,1161.72 1647.99,1159.56 1650.91,1157.4 1653.84,1155.24 1656.76,1153.08 1659.68,1150.92 1662.6,1148.76 1665.52,1146.6 1668.45,1144.44 1671.37,1142.28 1674.29,1140.12 1677.21,1137.96 1680.13,1135.8 1683.05,1133.64 1685.98,1131.48 1688.9,1129.32 1691.82,1127.16 1694.74,1125 1697.66,1122.84 1700.59,1120.68 1703.51,1118.52 1706.43,1116.36 1709.35,1114.2 1712.27,1112.04 1715.2,1109.88 1718.12,1107.72 1721.04,1105.56 1723.96,1103.4 1726.88,1101.24 1729.8,1099.08 1732.73,1096.92 1735.65,1094.76 1738.57,1092.6 1741.49,1090.44 1744.41,1088.28 1747.34,1086.13 1750.26,1083.97 1753.18,1081.81 1756.1,1079.65 1759.02,1077.49 1761.95,1075.33 1764.87,1073.17 1767.79,1071.01 1770.71,1068.85 1773.63,1066.69 1776.55,1064.53 1779.48,1062.37 1782.4,1060.21 1785.32,1058.05 1788.24,1055.89 1791.16,1053.73 1794.09,1051.57 1797.01,1049.41 1799.93,1047.25 1802.85,1045.09 1805.77,1042.93 1808.7,1040.77 1811.62,1038.61 1814.54,1036.45 1817.46,1034.29 1820.38,1032.13 1823.3,1029.97 1826.23,1027.81 1829.15,1025.65 1832.07,1023.49 1834.99,1021.33 1837.91,1019.17 1840.84,1017.01 1843.76,1014.85 1846.68,1012.69 1849.6,1010.53 1852.52,1008.37 1855.44,1006.21 1858.37,1004.05 1861.29,1001.89 1864.21,999.732 1867.13,997.572 1870.05,995.412 1872.98,993.252 1875.9,991.092 1878.82,988.932 1881.74,986.773 1884.66,984.613 1887.59,982.453 1890.51,980.293 1893.43,978.133 1896.35,975.973 1899.27,973.814 1902.19,971.654 1905.12,969.494 1908.04,967.334 1910.96,965.174 1913.88,963.014 1916.8,960.855 1919.73,958.695 1922.65,956.535 1925.57,954.375 1928.49,952.215 1931.41,950.055 1934.34,947.896 1937.26,945.736 1940.18,943.576 1943.1,941.416 1946.02,939.256 1948.94,937.096 1951.87,934.937 1954.79,932.777 1957.71,930.617 1960.63,928.457 1963.55,926.297 1966.48,924.137 1969.4,921.978 1972.32,919.818 1975.24,917.658 1978.16,915.498 1981.09,913.338 1984.01,911.178 1986.93,909.018 1989.85,906.859 1992.77,904.699 1995.69,902.539 1998.62,900.379 2001.54,898.219 2004.46,896.059 2007.38,893.9 2010.3,891.74 2013.23,889.58 2016.15,887.42 2019.07,885.26 2021.99,883.1 2024.91,880.941 2027.84,878.781 2030.76,876.621 2033.68,874.461 2036.6,872.301 2039.52,870.141 2042.44,867.982 2045.37,865.822 2048.29,863.662 2051.21,861.502 2054.13,859.342 2057.05,857.182 2059.98,855.023 2062.9,852.863 2065.82,850.703 2068.74,848.543 2071.66,846.383 2074.59,844.223 2077.51,842.064 2080.43,839.904 2083.35,837.744 2086.27,835.584 2089.19,833.424 2092.12,831.264 2095.04,829.105 2097.96,826.945 2100.88,824.785 2103.8,822.625 2106.73,820.465 2109.65,818.305 2112.57,816.146 2115.49,813.986 2118.41,811.826 2121.34,809.666 2124.26,807.506 2127.18,805.346 2130.1,803.187 2133.02,801.027 2135.94,798.867 2138.87,796.707 2141.79,794.547 2144.71,792.387 2147.63,790.228 2150.55,788.068 2153.48,785.908 2156.4,783.748 2159.32,781.588 2162.24,779.428 2165.16,777.269 2168.09,775.109 2171.01,772.949 2173.93,770.789 2176.85,768.629 2179.77,766.469 2182.69,764.31 2185.62,762.15 2188.54,759.99 2191.46,757.83 2194.38,755.67 2197.3,753.51 2200.23,751.35 2203.15,749.191 2206.07,747.031 2208.99,744.871 2211.91,742.711 2214.84,740.551 2217.76,738.391 2220.68,736.232 2223.6,734.072 2226.52,731.912 2229.44,729.752 2232.37,727.592 2235.29,725.432 2238.21,723.273 2241.13,721.113 2244.05,718.953 2246.98,716.793 2249.9,714.633 2252.82,712.473 2255.74,710.314 2258.66,708.154 2261.59,705.994 2264.51,703.834 2267.43,701.674 2270.35,699.514 2273.27,697.355 2276.19,695.195 2279.12,693.035 2282.04,690.875 2284.96,688.715 2287.88,686.555 2290.8,684.396 2293.73,682.236 2296.65,680.076 2299.57,677.916 2302.49,675.756 2305.41,673.596 2308.34,671.437 2311.26,669.277 2314.18,667.117 2317.1,664.957 2320.02,662.797 2322.94,660.637 2325.87,658.478 2328.79,656.318 2331.71,654.158 2334.63,651.998 2337.55,649.838 2340.48,647.678 2343.4,645.519 2346.32,643.359 2349.24,641.199 2352.16,639.039 2355.08,636.879 2358.01,634.719 2360.93,632.56 2363.85,630.4 2366.77,628.24 2369.69,626.08 2372.62,623.92 2375.54,621.76 2378.46,619.601 2381.38,617.441 2384.3,615.281 2387.23,613.121 2390.15,610.961 2393.07,608.801 2395.99,606.642 2398.91,604.482 2401.83,602.322 2404.76,600.162 2407.68,598.002 2410.6,595.842 2413.52,593.682 2416.44,591.523 2419.37,589.363 2422.29,587.203 2425.21,585.043 2428.13,582.883 2431.05,580.723 2433.98,578.564 2436.9,576.404 2439.82,574.244 2442.74,572.084 2445.66,569.924 2448.58,567.764 2451.51,565.605 2454.43,563.445 2457.35,561.285 2460.27,559.125 2463.19,556.965 2466.12,554.805 2469.04,552.646 2471.96,550.486 2474.88,548.326 2477.8,546.166 2480.73,544.006 2483.65,541.846 2486.57,539.687 2489.49,537.527 2492.41,535.367 2495.33,533.207 2498.26,531.047 2501.18,528.887 2504.1,526.728 2507.02,524.568 2509.94,522.408 2512.87,520.248 2515.79,518.088 2518.71,515.928 2521.63,513.769 2524.55,511.609 2527.48,509.449 2530.4,507.289 2533.32,505.129 2536.24,502.969 2539.16,500.81 2542.08,498.65 2545.01,496.49 2547.93,494.33 2550.85,492.17 2553.77,490.01 2556.69,487.851 2559.62,485.691 2562.54,483.531 2565.46,481.371 2568.38,479.211 2571.3,477.051 2574.23,474.892 2577.15,472.732 2580.07,470.572 2582.99,468.412 2585.91,466.252 2588.83,464.092 2591.76,461.933 2594.68,459.773 2597.6,457.613 2600.52,455.453 2603.44,453.293 2606.37,451.133 2609.29,448.974 2612.21,446.814 2615.13,444.654 2618.05,442.494 2620.98,440.334 2623.9,438.174 2626.82,436.014 2629.74,433.855 2632.66,431.695 2635.58,429.535 2638.51,427.375 2641.43,425.215 2644.35,423.055 2647.27,420.896 2650.19,418.736 2653.12,416.576 2656.04,414.416 2658.96,412.256 2661.88,410.096 2664.8,407.937 2667.73,405.777 2670.65,403.617 2673.57,401.457 2676.49,399.297 2679.41,397.137 2682.33,394.978 2685.26,392.818 2688.18,390.658 2691.1,388.498 2694.02,386.338 2696.94,384.178 2699.87,382.019 2702.79,379.859 2705.71,377.699 2708.63,375.539 2711.55,373.379 2714.48,371.219 2717.4,369.06 2720.32,366.9 2723.24,364.74 2726.16,362.58 2729.08,360.42 2732.01,358.26 2734.93,356.101 2737.85,353.941 2740.77,351.781 2743.69,349.621 2746.62,347.461 2749.54,345.301 2752.46,343.142 2755.38,340.982 2758.3,338.822 2761.23,336.662 2764.15,334.502 2767.07,332.342 2769.99,330.183 2772.91,328.023 2775.83,325.863 2778.76,323.703 2781.68,321.543 2784.6,319.383 2787.52,317.224 2790.44,315.064 2793.37,312.904 2796.29,310.744 2799.21,308.584 2802.13,306.424 2805.05,304.265 2807.98,302.105 2810.9,299.945 2813.82,297.785 2816.74,295.625 2819.66,293.465 2822.58,291.306 2825.51,289.146 2828.43,286.986 2831.35,284.826 2834.27,282.666 2837.19,280.506 2840.12,278.347 2843.04,276.187 2845.96,274.027 2848.88,271.867 2851.8,269.707 2854.73,267.547 2857.65,265.387 2860.57,263.228 2863.49,261.068 2866.41,258.908 2869.33,256.748 2872.26,254.588 2875.18,252.428 2878.1,250.269 2881.02,248.109 2883.94,245.949 2886.87,243.789 2889.79,241.629 2892.71,239.469 2895.63,237.31 2898.55,235.15 2901.47,232.99 2904.4,230.83 2907.32,228.67 2910.24,226.51 2913.16,224.351 2916.08,222.191 2919.01,220.031 2921.93,217.871 2924.85,215.711 2927.77,213.551 2930.69,211.392 2933.62,209.232 2936.54,207.072 2939.46,204.912 2942.38,202.752 2945.3,200.592 2948.22,198.433 2951.15,196.273 2954.07,194.113 2956.99,191.953 2959.91,189.793 2962.83,187.633 2965.76,185.474 2968.68,183.314 2971.6,181.154 2974.52,178.994 2977.44,176.834 2980.37,174.674 2983.29,172.515 2986.21,170.355 2989.13,168.195 2992.05,166.035 2994.97,163.875 2997.9,161.715 3000.82,159.556 3003.74,157.396 3006.66,155.236 3009.58,153.076 3012.51,150.916 3015.43,148.756 3018.35,146.597 3021.27,144.437 3024.19,142.277 3027.12,140.117 3030.04,137.957 3032.96,135.797 3035.88,133.638 3038.8,131.478 3041.72,129.318 3044.65,127.158 3047.57,124.998 3050.49,122.838 3053.41,120.679 3056.33,118.519 3059.26,116.359 3062.18,114.199 3065.1,112.039 3068.02,109.879 3070.94,107.719 3073.87,105.56 3076.79,103.4 3079.71,101.24 3082.63,99.0801 3085.55,96.9203 3088.47,94.7605 3091.4,92.6006 3094.32,90.4408 3097.24,88.281 3100.16,86.1211 3103.08,83.9613 3106.01,81.8015 3108.93,79.6416 3111.85,77.4818 3114.77,75.322 3117.69,73.1621 3120.62,71.0023 3123.54,68.8425 3126.46,66.6826 3129.38,64.5228 3132.3,62.3629 3135.22,60.2031 3138.15,58.0433 3141.07,55.8834 3143.99,53.7236 3146.91,51.5638 3149.83,49.4039 3152.76,47.2441 "/>
<path clip-path="url(#clip500)" d="M331.105 274.687 L861.725 274.687 L861.725 119.167 L331.105 119.167  Z" fill="#ffffff" fill-rule="evenodd" fill-opacity="1"/>
<polyline clip-path="url(#clip500)" style="stroke:#000000; stroke-linecap:round; stroke-linejoin:round; stroke-width:4; stroke-opacity:1; fill:none" points="331.105,274.687 861.725,274.687 861.725,119.167 331.105,119.167 331.105,274.687 "/>
<circle clip-path="url(#clip500)" cx="460.836" cy="171.007" r="20.48" fill="#009af9" fill-rule="evenodd" fill-opacity="1" stroke="#000000" stroke-opacity="1" stroke-width="6.82667"/>
<path clip-path="url(#clip500)" d="M590.567 169.504 Q590.567 161.4 593.588 154.865 Q594.877 152.125 596.68 149.829 Q598.484 147.534 599.678 146.527 Q600.873 145.52 601.201 145.52 Q601.669 145.52 601.692 145.988 Q601.692 146.222 601.06 146.808 Q593.331 154.678 593.354 169.504 Q593.354 184.377 600.873 191.943 Q601.692 192.763 601.692 193.02 Q601.692 193.489 601.201 193.489 Q600.873 193.489 599.725 192.528 Q598.577 191.568 596.797 189.366 Q595.017 187.165 593.729 184.471 Q590.567 177.936 590.567 169.504 Z" fill="#000000" fill-rule="nonzero" fill-opacity="1" /><path clip-path="url(#clip500)" d="M632.709 181.543 Q632.709 181.988 632.194 182.035 L631.14 182.035 Q630.063 182.035 629.594 181.871 Q629.126 181.707 628.587 180.958 Q628.259 180.489 627.439 178.311 Q626.643 176.109 625.472 172.783 Q624.324 169.457 623.551 167.49 L612.004 181.122 Q611.207 182.129 610.411 182.129 Q609.826 182.129 609.404 181.731 Q608.982 181.332 608.982 180.723 Q608.982 180.278 609.146 180.021 Q609.334 179.763 609.826 179.248 L623.083 166.108 L618.422 153.062 Q617.531 150.649 617.016 150.04 Q616.524 149.431 615.306 149.22 Q614.861 149.103 614.861 148.728 Q614.861 148.213 615.728 148.213 Q620.366 148.213 621.584 151.609 L631.374 178.897 Q631.913 180.466 632.475 181.122 Q632.709 181.426 632.709 181.543 Z" fill="#000000" fill-rule="nonzero" fill-opacity="1" /><path clip-path="url(#clip500)" d="M637.581 184.673 Q637.581 179.738 638.828 177.049 Q640.565 173.049 644.664 173.049 Q645.533 173.049 646.435 173.295 Q647.353 173.524 648.501 174.426 Q649.665 175.328 650.37 176.804 Q651.715 179.656 651.715 184.673 Q651.715 189.576 650.469 192.248 Q648.649 196.15 644.632 196.15 Q643.123 196.15 641.582 195.38 Q640.057 194.609 639.09 192.757 Q637.581 189.986 637.581 184.673 M640.369 184.264 Q640.369 189.33 640.729 191.347 Q641.139 193.527 642.254 194.478 Q643.386 195.413 644.632 195.413 Q645.976 195.413 647.091 194.413 Q648.222 193.396 648.567 191.215 Q648.944 189.068 648.927 184.264 Q648.927 179.591 648.599 177.722 Q648.157 175.541 646.976 174.672 Q645.812 173.787 644.632 173.787 Q644.189 173.787 643.713 173.918 Q643.254 174.049 642.582 174.426 Q641.91 174.803 641.385 175.738 Q640.877 176.672 640.631 178.082 Q640.369 179.902 640.369 184.264 Z" fill="#000000" fill-rule="nonzero" fill-opacity="1" /><path clip-path="url(#clip500)" d="M657.366 180.723 Q656.687 179.951 656.687 178.943 Q656.687 177.936 657.343 177.187 Q658.022 176.414 659.24 176.414 Q660.669 176.414 661.488 177.796 Q662.308 179.154 662.308 181.45 Q662.308 183.932 661.301 186.228 Q660.294 188.547 659.31 189.647 Q658.326 190.748 657.928 190.748 Q657.46 190.748 657.46 190.233 Q657.46 190.046 657.788 189.694 Q661.231 185.994 661.254 181.45 Q661.254 180.723 661.161 180.723 L661.043 180.817 Q660.224 181.496 659.24 181.496 Q658.045 181.496 657.366 180.723 Z" fill="#000000" fill-rule="nonzero" fill-opacity="1" /><path clip-path="url(#clip500)" d="M701.169 181.543 Q701.169 181.988 700.654 182.035 L699.6 182.035 Q698.522 182.035 698.054 181.871 Q697.586 181.707 697.047 180.958 Q696.719 180.489 695.899 178.311 Q695.103 176.109 693.932 172.783 Q692.784 169.457 692.011 167.49 L680.464 181.122 Q679.667 182.129 678.871 182.129 Q678.285 182.129 677.864 181.731 Q677.442 181.332 677.442 180.723 Q677.442 180.278 677.606 180.021 Q677.794 179.763 678.285 179.248 L691.543 166.108 L686.882 153.062 Q685.991 150.649 685.476 150.04 Q684.984 149.431 683.766 149.22 Q683.321 149.103 683.321 148.728 Q683.321 148.213 684.188 148.213 Q688.826 148.213 690.044 151.609 L699.834 178.897 Q700.373 180.466 700.935 181.122 Q701.169 181.426 701.169 181.543 Z" fill="#000000" fill-rule="nonzero" fill-opacity="1" /><path clip-path="url(#clip500)" d="M706.041 176.246 L706.041 175.197 Q710.075 175.197 712.157 173.049 Q712.731 173.049 712.829 173.18 Q712.928 173.311 712.928 173.918 L712.928 192.757 Q712.928 193.757 713.42 194.068 Q713.911 194.38 716.059 194.38 L717.125 194.38 L717.125 195.413 Q715.944 195.314 711.682 195.314 Q707.419 195.314 706.255 195.413 L706.255 194.38 L707.32 194.38 Q709.435 194.38 709.944 194.085 Q710.452 193.773 710.452 192.757 L710.452 175.361 Q708.698 176.246 706.041 176.246 Z" fill="#000000" fill-rule="nonzero" fill-opacity="1" /><path clip-path="url(#clip500)" d="M722.128 193.02 Q722.128 192.786 722.737 192.2 Q730.467 184.331 730.467 169.504 Q730.467 154.631 723.042 147.112 Q722.128 146.246 722.128 145.988 Q722.128 145.52 722.597 145.52 Q722.924 145.52 724.072 146.48 Q725.243 147.44 727 149.642 Q728.78 151.844 730.092 154.537 Q733.254 161.072 733.254 169.504 Q733.254 177.608 730.232 184.143 Q728.944 186.884 727.141 189.179 Q725.337 191.474 724.142 192.482 Q722.948 193.489 722.597 193.489 Q722.128 193.489 722.128 193.02 Z" fill="#000000" fill-rule="nonzero" fill-opacity="1" /><polyline clip-path="url(#clip500)" style="stroke:#e26f46; stroke-linecap:round; stroke-linejoin:round; stroke-width:20; stroke-opacity:1; fill:none" points="363.537,222.847 558.134,222.847 "/>
<path clip-path="url(#clip500)" d="M606.169 209.641 L594.363 228.09 L606.169 228.09 L606.169 209.641 M604.942 205.567 L610.821 205.567 L610.821 228.09 L615.752 228.09 L615.752 231.979 L610.821 231.979 L610.821 240.127 L606.169 240.127 L606.169 231.979 L590.567 231.979 L590.567 227.465 L604.942 205.567 Z" fill="#000000" fill-rule="nonzero" fill-opacity="1" /><path clip-path="url(#clip500)" d="M623.53 205.567 L641.886 205.567 L641.886 209.502 L627.812 209.502 L627.812 217.974 Q628.83 217.627 629.849 217.465 Q630.867 217.28 631.886 217.28 Q637.673 217.28 641.053 220.451 Q644.432 223.622 644.432 229.039 Q644.432 234.617 640.96 237.719 Q637.488 240.798 631.168 240.798 Q628.992 240.798 626.724 240.428 Q624.479 240.057 622.071 239.316 L622.071 234.617 Q624.155 235.752 626.377 236.307 Q628.599 236.863 631.076 236.863 Q635.08 236.863 637.418 234.756 Q639.756 232.65 639.756 229.039 Q639.756 225.428 637.418 223.321 Q635.08 221.215 631.076 221.215 Q629.201 221.215 627.326 221.631 Q625.474 222.048 623.53 222.928 L623.53 205.567 Z" fill="#000000" fill-rule="nonzero" fill-opacity="1" /><path clip-path="url(#clip500)" d="M650.891 225.242 L663.367 225.242 L663.367 229.039 L650.891 229.039 L650.891 225.242 Z" fill="#000000" fill-rule="nonzero" fill-opacity="1" /><path clip-path="url(#clip500)" d="M687.21 218.136 L687.21 204.108 L691.469 204.108 L691.469 240.127 L687.21 240.127 L687.21 236.238 Q685.867 238.553 683.807 239.687 Q681.77 240.798 678.9 240.798 Q674.201 240.798 671.238 237.048 Q668.298 233.298 668.298 227.187 Q668.298 221.076 671.238 217.326 Q674.201 213.576 678.9 213.576 Q681.77 213.576 683.807 214.71 Q685.867 215.821 687.21 218.136 M672.696 227.187 Q672.696 231.886 674.617 234.571 Q676.562 237.233 679.941 237.233 Q683.321 237.233 685.265 234.571 Q687.21 231.886 687.21 227.187 Q687.21 222.488 685.265 219.826 Q683.321 217.141 679.941 217.141 Q676.562 217.141 674.617 219.826 Q672.696 222.488 672.696 227.187 Z" fill="#000000" fill-rule="nonzero" fill-opacity="1" /><path clip-path="url(#clip500)" d="M722.418 226.099 L722.418 228.182 L702.835 228.182 Q703.112 232.58 705.474 234.895 Q707.858 237.187 712.094 237.187 Q714.548 237.187 716.839 236.585 Q719.154 235.983 721.423 234.779 L721.423 238.807 Q719.131 239.779 716.724 240.289 Q714.316 240.798 711.839 240.798 Q705.636 240.798 702.001 237.187 Q698.39 233.576 698.39 227.418 Q698.39 221.053 701.816 217.326 Q705.265 213.576 711.099 213.576 Q716.33 213.576 719.362 216.955 Q722.418 220.312 722.418 226.099 M718.159 224.849 Q718.112 221.354 716.191 219.27 Q714.293 217.187 711.145 217.187 Q707.58 217.187 705.427 219.201 Q703.298 221.215 702.974 224.872 L718.159 224.849 Z" fill="#000000" fill-rule="nonzero" fill-opacity="1" /><path clip-path="url(#clip500)" d="M746.469 226.863 Q746.469 222.233 744.547 219.687 Q742.649 217.141 739.2 217.141 Q735.774 217.141 733.853 219.687 Q731.955 222.233 731.955 226.863 Q731.955 231.469 733.853 234.016 Q735.774 236.562 739.2 236.562 Q742.649 236.562 744.547 234.016 Q746.469 231.469 746.469 226.863 M750.728 236.909 Q750.728 243.529 747.788 246.747 Q744.848 249.988 738.784 249.988 Q736.538 249.988 734.547 249.64 Q732.557 249.316 730.682 248.622 L730.682 244.478 Q732.557 245.497 734.385 245.983 Q736.214 246.469 738.112 246.469 Q742.302 246.469 744.385 244.27 Q746.469 242.094 746.469 237.673 L746.469 235.566 Q745.149 237.858 743.089 238.992 Q741.029 240.127 738.159 240.127 Q733.39 240.127 730.473 236.492 Q727.557 232.858 727.557 226.863 Q727.557 220.844 730.473 217.21 Q733.39 213.576 738.159 213.576 Q741.029 213.576 743.089 214.71 Q745.149 215.844 746.469 218.136 L746.469 214.201 L750.728 214.201 L750.728 236.909 Z" fill="#000000" fill-rule="nonzero" fill-opacity="1" /><path clip-path="url(#clip500)" d="M774.524 218.182 Q773.807 217.766 772.95 217.58 Q772.117 217.372 771.098 217.372 Q767.487 217.372 765.543 219.733 Q763.621 222.071 763.621 226.469 L763.621 240.127 L759.339 240.127 L759.339 214.201 L763.621 214.201 L763.621 218.229 Q764.964 215.867 767.117 214.733 Q769.27 213.576 772.348 213.576 Q772.788 213.576 773.32 213.645 Q773.853 213.692 774.501 213.807 L774.524 218.182 Z" fill="#000000" fill-rule="nonzero" fill-opacity="1" /><path clip-path="url(#clip500)" d="M800.126 226.099 L800.126 228.182 L780.543 228.182 Q780.82 232.58 783.181 234.895 Q785.566 237.187 789.802 237.187 Q792.256 237.187 794.547 236.585 Q796.862 235.983 799.13 234.779 L799.13 238.807 Q796.839 239.779 794.431 240.289 Q792.024 240.798 789.547 240.798 Q783.344 240.798 779.709 237.187 Q776.098 233.576 776.098 227.418 Q776.098 221.053 779.524 217.326 Q782.973 213.576 788.806 213.576 Q794.038 213.576 797.07 216.955 Q800.126 220.312 800.126 226.099 M795.867 224.849 Q795.82 221.354 793.899 219.27 Q792.001 217.187 788.853 217.187 Q785.288 217.187 783.135 219.201 Q781.006 221.215 780.681 224.872 L795.867 224.849 Z" fill="#000000" fill-rule="nonzero" fill-opacity="1" /><path clip-path="url(#clip500)" d="M829.292 226.099 L829.292 228.182 L809.709 228.182 Q809.987 232.58 812.348 234.895 Q814.732 237.187 818.968 237.187 Q821.422 237.187 823.714 236.585 Q826.028 235.983 828.297 234.779 L828.297 238.807 Q826.005 239.779 823.598 240.289 Q821.191 240.798 818.714 240.798 Q812.51 240.798 808.876 237.187 Q805.265 233.576 805.265 227.418 Q805.265 221.053 808.691 217.326 Q812.14 213.576 817.973 213.576 Q823.204 213.576 826.237 216.955 Q829.292 220.312 829.292 226.099 M825.033 224.849 Q824.987 221.354 823.066 219.27 Q821.167 217.187 818.019 217.187 Q814.454 217.187 812.302 219.201 Q810.172 221.215 809.848 224.872 L825.033 224.849 Z" fill="#000000" fill-rule="nonzero" fill-opacity="1" /></svg>
